<svg data-name="Слой 1" xmlns="http://www.w3.org/2000/svg" viewBox="0 0 468 468">
  <path
    d="M175.79 409.92a27 27 0 01-11.07-4.58c-3.88-2.72-7.69-5.55-11.51-8.35a3.59 3.59 0 00-2.62-.93 15.09 15.09 0 01-12.59-4.55c-4.38-4.26-9.08-7.53-15.21-8.61-3.62-.63-6.46-3-9.23-5.19C103 369.19 96 357.93 89.73 346.12 88 342.88 87 339.31 85 336.19a13.35 13.35 0 00-2.63-3c-3.58-3-5.4-7.07-7-11.31-2.13-5.68-3.32-11.61-4.86-17.44-2.14-8.13-5-16-7.63-24a95.41 95.41 0 01-5-36.12c.71-11.08 4-21.53 8.52-31.62 2.27-5 4.82-9.9 6.19-15.31a38.09 38.09 0 00.55-12.76c-.37-4.34-1-8.63-.74-13 .22-4.23 3.36-10 8.37-10.62 3.69-.46 5.48-3 7.09-5.87 3.48-6.14 6.87-12.33 10.36-18.46 2.8-4.92 6.51-9.2 9.94-13.67 2.12-2.75 4.61-5.17 7-7.68a103.87 103.87 0 0110.84-9.82 125.65 125.65 0 0116.56-11.43c12.58-7.17 25.53-13.36 40.43-13.63 6.73-.12 12.94 1.58 18 6.29a1.69 1.69 0 002.5.06 46.75 46.75 0 0125.29-8.94 35.75 35.75 0 017.45.61c1.59.27 2.45-.12 3-1.75.76-2.49.49-4.94.17-7.66 7.94 2.13 16.2 1.21 24.05 3.42a14.61 14.61 0 015.87 3c.44.38.78 1.24 1.63.63a1.68 1.68 0 00.57-1.8c-.18-.93-.5-1.83-.83-3 7.85 4.2 16.64 4.32 24.75 7a20.46 20.46 0 016.09 3c2.83 2.12 4.39 1.61 5.51-1.81.25-.76.45-1.53.7-2.4a1.86 1.86 0 012.12 1.29c3.45 7.45 10.24 10.87 17.22 14 6.16 2.72 12.43 5.23 17.84 9.35 2.64 2 4.21 4.88 5.82 7.67 2.44 4.2 4.21 8.73 6.7 12.91a28.89 28.89 0 0011.05 10.4 53 53 0 018 4.91c3.32 2.76 4.94 6.52 6.19 10.49.69 2.18 1.29 4.38 1.9 6.58a26.73 26.73 0 004.93 9.3c2.41 3.09 3.45 6.74 4.08 10.57a55.12 55.12 0 009.15 22.23c2.6 3.81 5.14 7.76 6 12.48a15.47 15.47 0 01-.3 7.44c-.31 1-.57 2.24-2 2.38s-2.09-.57-2.74-1.71c-.95-1.65-1.55-3.51-3-4.87-.73-.67-1.55-1.17-2.36-.66s-.32 1.43-.09 2.21c.93 3.19 3.14 5.58 5 8.19 5.48 7.62 7.19 16.29 7 25.48a38.68 38.68 0 01-2.87 14.22 7.67 7.67 0 00-.41 5.27c2.35 8.69 1.33 17.38-.62 26a104.45 104.45 0 01-7.83 22.42 46 46 0 00-3.67 13.37c-1.15 7.66-5.57 12.77-11.83 16.82a51.35 51.35 0 00-19.2 21.36 52.22 52.22 0 01-4.28 7.19 10.26 10.26 0 01-7.25 4.58c-4.84.66-8.79 3-12.31 6.26a18.18 18.18 0 01-9 4.83c-4.41.85-7.92 3.46-10.83 6.66A35.33 35.33 0 01298.63 408c-6.84 1-13.68 1.85-20.6 2.23-9.57.52-19.19.19-28.72 1.61-1.88.28-3.85 0-5.75.2-1.06.11-2.57-.39-3 1.14-.52 1.7.42 3 1.55 4.09.35.33.92.43 1.06 1.19a7.54 7.54 0 01-5.87-1.81c-5-4.36-9.34-1.91-13.53 1a24.8 24.8 0 01-3.09 2c-3.53 1.71-3.52 1.7-6.46-1a4.49 4.49 0 00-5.06-1c-6.85 2.79-10.24 1.44-13.66-5.29-1.5-2.94-3-5.93-5.53-8.17-.52-.44-1-1-1.69-.91-3.46.34-6.25-1.41-9.12-2.9a4.22 4.22 0 00-4-.25c-3 1.43-3.47 4.18-1.1 7 .62.66 1.78 1.16 1.73 2.79zm211.69-87.14c.22 2.89-1.53 5.75-.17 9.15 3-7.12 5.16-13.92 3.95-21.32a3.78 3.78 0 00-1.49-3c-.65 1.49-.37 2.9-.45 4.27a37.25 37.25 0 01-1.87 11c0-.81.05-1.62.12-2.42.26-3.16.85-6.3.68-9.49-.07-1.3-.22-2.66-1.94-3.09a3.29 3.29 0 00-.5 2.37 32 32 0 01-.85 9c-.89 4-1.95 8-2.86 12.06a5.76 5.76 0 00.3 4.24c.69-1.29 1.19-2.23 1.71-3.17 1.65-3.04 1.99-6.5 3.37-9.6zm-95.69 47.46c-1.59-.13-3.08.27-3.72 1.79-1.6 3.79-1.47 6.64 2 9.44a3.66 3.66 0 003.74.45c1.38-.52.81-1.73.9-2.65.13-1.25-.07-2.52.07-3.76a4.83 4.83 0 00-3-5.32c1.2-.19 2 1.17 3.52.76a58.14 58.14 0 01-.65-8.74 5.54 5.54 0 00-.26-1c-2.49.27-2.89.47-4.61 2.31-1.89 2-1.82 3.39.28 5.14.57.5 1.36.81 1.73 1.58zm108.82-78.68c3.28.33 3.65.08 4.34-2.93a10 10 0 00.07-3.74c-.3-1.94-2.34-.53-2.95-1.3.92-1.91 3.67-2.38 3.31-5-.4-2.85.25-6.13-2.9-8.2-2.28 3.55-7 3.48-9.33 6.71a12.84 12.84 0 006.2 5.75c-2.24.24-2.53.77-2.24 3.1.31 2.48 2.33 3.77 3.56 5.61-2.25-.18-3-2.07-4.09-3.59-.91-1.32-2-2.17-3.64-1.92a3.27 3.27 0 00-3.1 3.59c.12 2.87 1.92 4.72 4.24 6a5.23 5.23 0 006.32-.74c1.1-.9 2.28-2.09.21-3.34zm-69.11 53.73l6.24 1.32c-.43.95-1.05 1.43-1 2.26.24 5.22 6.29 8.86 11 6.65.92-.43.95-.93.64-1.73-1.39-3.62-2.85-7.16-7-7.49a15.37 15.37 0 00-2.09-6.6c-1.5-2.72-3.6-4.76-7.28-4.62-1 3.31-3.06 6.63-.44 10.26-1.29-.33-2.4-.44-3.07 1.16a7.26 7.26 0 001.36 8.17c1.83 2 4.45 2.35 7.13 2 .87-.1 1.19-.57 1-1.34-.82-3.32-1.92-6.47-5-8.5a9.74 9.74 0 01-1.49-1.54zM77 305.26a4.64 4.64 0 01.09-2.61 31.68 31.68 0 013.91-9.54c4.74-7.5 11.49-11 20.34-10.54A6 6 0 00105 282c1.11-.69 1.83-1.24.32-2.51a6 6 0 00-3.76-1.49c-3.14-.18-5.82 1.29-8.67 2.24-9.33 3.12-15.13 9.47-17.64 18.86-.77 2.88-1.52 5.82-1 9 1.92-.14 2-1.87 2.84-2.83-.09 1.25-.21 2.5-.25 3.75-.24 6.87.61 13.4 5.71 18.69.65-.64.38-1.17.19-1.74a40.63 40.63 0 01-2-15c.56-9.59 3.31-17.82 13.63-21.21a9 9 0 005.4-4.15 7.06 7.06 0 00-4.41-.53c-6.54 1-10.86 5-14.28 10.34-2.02 2.97-2.57 6.58-4.08 9.84zm42.74-2.86c1.72 2.05 3.54 3.92 6.72 4.05a19.55 19.55 0 00-.84-1.9 21.13 21.13 0 00-1.52-2.13c-4.1-5.25-8.76-9.88-15.1-12.42-8.31-3.28-16.45-.86-22.07 6.09a24.47 24.47 0 00-5.57 12.66c-.42 3.55-.79 7.19.76 10.61.59 1.31 1.18 2.69 2.73 3.28a3.6 3.6 0 00.43-3c-.83-4.63 0-9.14 1-13.6 3-13.45 16.49-15.72 25.63-10.15a68.74 68.74 0 016.7 5.28 4.48 4.48 0 01-2.11-1.17c-3.83-2.9-7.94-5.24-12.8-5.89-1.43-.2-2.94-.62-4.16.66.25 1.56 1.29 2.13 2.67 2.5a35.33 35.33 0 0114.24 7.39 61.93 61.93 0 0111.9 14.38c5.56 9.13 10.32 18.78 17.3 27a37.1 37.1 0 005.92 5.82 1.26 1.26 0 00-.26-1.59 138.31 138.31 0 01-7.73-11.75c-4.27-7.13-8.23-14.44-12.73-21.43a167 167 0 00-11.08-14.69zM292 329.76c-.1.16-.13.25-.18.26-.36.08-.71.16-1.07.21-11.41 1.53-20.34 7.11-26.36 16.88-5.37 8.71-3.52 16.93 4.84 22.9a2.2 2.2 0 002.49 0c8.13-4.48 17-7.43 25-12.06 7.82-4.49 13.81-10.34 16.37-19.07.57.42.88 1.15 1.72 1.2 5.1-5.44 5.82-12.3 1.68-17.84-2.47-3.32-6-5.35-9.74-6.94a42.69 42.69 0 00-12.37-3c-8.07-.82-15.82-.11-22.78 4.85-2.91 2.08-5.5 4.69-9 6.1.31-2.79 3.9-3.46 3.74-6.46-8.57-4.22-17.55-7-27.22-7.21 3.87-1.8 8.57-2.1 10.38-6.68-1-1.3-2.27-.85-3.39-.95a26.76 26.76 0 001.89-2.37c.61-1 .91-2.31 0-3.06s-2.11-.05-3 .73c-.65.6-1.26 1.25-1.89 1.87s-1.24 1.3-2.44.74c.67-1.92 2.28-2.82 3.87-3.66a6 6 0 002.6-2.88c.71-1.48.22-2-1.31-2.08-2.24-.1-3.43 1.43-4.71 2.88a2.46 2.46 0 01-2.55.9.84.84 0 01-.5-.63c.05-1.05.92-1.39 1.7-1.83 1.2-.68 2.57-1.09 3.54-2.18a2.44 2.44 0 00.39-3.05 2.13 2.13 0 00-2.62-.53 10.41 10.41 0 00-3.29 2.09 4.76 4.76 0 01-3.88 1.63c1.76-2.16 4.35-3.28 5.53-5.58-.08-.23-.08-.33-.13-.36a5.63 5.63 0 00-7.1.77c-2 1.87-5.1 3.35-3.8 7.16a19.64 19.64 0 01.75 7.21c-.08 1.91.08 3.81-1 5.55-1.85 2.89-1.25 4.1 2.17 4.37 1.69.13 3.39 0 5.09 0a1.43 1.43 0 011.56.58c-3.05 0-5.45 1.13-7.91 2.06a2 2 0 00-1.45 2.6c1.53 6.21 1.53 12.55 1.55 18.89a70.17 70.17 0 00.49 9.49C231 353 240 357.55 247.57 357.54c5.63 0 9.61-3.37 12.87-7.72 2.41-3.22 4.62-6.7 7.51-9.44a43 43 0 0115.67-9.79c2.71-.93 5.38-1.81 8.38-.83zm-88.52-51.11a27.68 27.68 0 019 1c1.49.46 2.27.05 3-1.26 3.47-6 6.13-12.4 9.06-18.66 1.26-2.68 1.2-2.72-1.75-3.47-7.21-1.83-13.57-5.21-18.42-10.92-1.32-1.56-2-1.34-3.28-.36a35.3 35.3 0 00-9.57 11.65c-4.57 8.48-6.63 17.38-5.31 27a26.24 26.24 0 008.08 16 34 34 0 009.46 5.89c4.79 2.19 9.8 3.75 15.14 3.2 3.34-.34 6.68-1.24 8-4.88 2-5.55-.95-14-5.63-17.7a29.05 29.05 0 00-13.84-5.79 12.54 12.54 0 01-3.96-1.7zm72.82-51.11c.17-1.83.3-3.43.48-5a1.93 1.93 0 012.22-1.94c3.18 0 6.39-.44 9.51-.07 3.3.4 4.76-1.14 6.13-3.72a70.74 70.74 0 007.49-22.07 49.3 49.3 0 00-1.41-23.11c-.25-.76-.31-1.76-1.59-1.8a2.21 2.21 0 00-2.19 1.51l-.51 1c-3.2 6.45-8.82 9.14-15.61 9.79a24.9 24.9 0 01-11.37-1.68c.7 5 .82 9.7-.52 14.29-.23.78.13 1.2 1 1.4a26.44 26.44 0 014 1.2c2 .83 2.6 2.24 1.69 4.25a17.27 17.27 0 00-1.27 4.9c-.41 3.06-.42 6.17-1.26 9.19-.39 1.39-1.09 2.52-2.44 2.82a3.32 3.32 0 01-3.51-1.82c-.49-.79-.91-1.56-2-1.5s-.67 1.17-1.12 1.71a4.27 4.27 0 00-.53 1.21c-1.86 4.59-5.32 7.47-9.74 9.55-2.78 1.31-5.78 1.71-8.57 2.86a4.86 4.86 0 00-2.9 2.26c.85.09 1.5.16 2.15.25a28.61 28.61 0 018.11 1.91c4.33 1.93 7.18 5.68 10.72 8.56a21.37 21.37 0 008.44 4.51c3.33.8 5-.74 4.5-4.17a6.58 6.58 0 00-1.33-3.45 53.39 53.39 0 01-4-5.23c-1.24-1.89-2.12-4.3-1.18-6.26.77-1.58 3.15-1.55 5-1.4.44.08.88.05 1.59.05zm-102.16-13.3c-.73 2.07-1.43 4.12-2.17 6.16-2.52 6.89-5.42 13.65-7.13 20.82-1.25 5.22-1.66 10.2 2 14.85 3.11 3.95 3 11 .35 15.17-1.82 2.85-4.46 4.9-6.74 7.29-3.1 3.23-3.15 3.26-.67 6.76 3.53 5 4.61 5 9.21 1 3.88-3.39 8.06-6.52 13-8 2.76-.82 3.26-2.36 3.48-4.71.7-7.46 2.16-14.77 6-21.31 3-5.13 6.88-9.47 12.75-11.56a9.26 9.26 0 004.18-2.79 3.19 3.19 0 00.85-3.26c-.41-1-1.59-1.16-2.59-1.43a28 28 0 00-7.65-.56 11 11 0 01-5-1.46c-4.3-2.12-5.67-6.35-7.62-10.18-.38-.74-.27-1.82-1.47-2s-1.65.65-2.24 1.46c-1.47 2-3.63 1.7-4.63-.62-.37-.87-.58-1.82-.94-2.71a4.34 4.34 0 00-2.99-2.92zm122.71 8a19.39 19.39 0 016.94 10.08c1.77 5.38 1.63 10.88 1 16.41-.12 1.1-.46 2.26.32 3.2 2.79 3.36 5.25 6.95 8.71 9.8 6 4.95 12.8 6.76 20.33 6.51a5.44 5.44 0 00.45-3.15c-.31-4.69 1-9 2.76-13.28a78.88 78.88 0 003.26-9.62c.54-2.08.1-3.82-1.73-5a29.63 29.63 0 01-3.3-2.9c-4.24-3.57-3.52-11.43 0-14.52a52.74 52.74 0 015.81-4.69c1.74-1.14 2.55-2.33 2.16-4.51-.32-1.79-.07-3.66-1.41-5.2-.88-1-1.6-1.19-2.44 0q-1.92 2.68-3.87 5.34c-2.52 3.42-5 6.8-8.78 9.07-7.47 4.48-17.15 2.82-21.37-6.73-.62-1.39-1.17-2.87-3.11-3.73a132.23 132.23 0 01-5.75 12.92zm-31.3-25.13c2-2.39 2-5.12 2.67-7.63.32-1.21.08-1.69-1.12-2-5-1.44-8.81-4.71-12.49-8.31a21.51 21.51 0 01-6.58-13 8 8 0 00-2.1-5c-.85-.82-1.72-1.16-2.58 0a14 14 0 01-3.81 3.27c-2.12 1.34-3.57 3.92-6 4.36-6 1.08-12.21 2.53-18.15-.63a42.32 42.32 0 00-4.69-2.4c-2.25-.83-4.08-1.94-4.82-4.37-.31-1-1.21-1.18-2.13-1.2-1.3 0-.86 1.12-1.21 1.75-2 3.55-.81 8.41-4.66 11.2a1.47 1.47 0 00-.41.77 7.59 7.59 0 01-5 5.44 10.12 10.12 0 00-2.27 1.67c-1.18.86-2.44 2.09-3.8 2-3.64-.17-3.91 2.19-4.18 4.76-.08.73-.32 1.45-.36 2.18-.1 1.74-.39 3.52.8 5.24 3.95-1.56 7.06-4.38 10.6-6.46 4.82-2.83 9.8-3.89 15.2-2.38s10 8 10.08 14.1c0 2.44.05 4.87.16 7.31a6.47 6.47 0 002.32 4.67c1-.38.8-1.15.88-1.76.6-4.53 1.11-9.06 1.75-13.58 1.07-7.57 5.15-11 12.58-12 7.21-1 13.54 1.93 19.66 5.33a89.18 89.18 0 019.64 6.67zm-44.21-59.34c-1-3.22-1.66-6.4-3.15-9.3-.82-1.59-1.78-2.37-3.69-1.74-2.85 1-5.78 1.68-8.67 2.57-11.35 3.47-21.86 8.79-32.09 14.72-1.09.63-1.13 1.22-.71 2.32a13.87 13.87 0 011.38 5.07c-.1 3.23 1.2 5.13 3.94 6.75 3.63 2.14 6.38 5.48 9.71 8.05a20 20 0 001.74-1 18.51 18.51 0 011.47-1.34 56.08 56.08 0 0121.15-7.14c2.67-.4 5.36-.63 8-.89a1.42 1.42 0 001.45-1.32 29 29 0 00.43-8.15c-.13-2.46-1-4.34-3.61-5.08-.57-.17-1.34-.32-1.38-1.2 1.33-.85 2.24-2.23 4.01-2.32zm82.27 113.94c-1.95.39-2.46 2.27-3.76 3.27a5.6 5.6 0 00-2.41 4.91 30.46 30.46 0 01-.78 6.35q-2.18 11.76-13.56 14.91c-1.48.42-1.82 1-1.77 2.62.14 4.58 1.24 9 1.67 13.55.33 3.52.79 7 .82 10.57 0 1.76.65 2.73 2.82 2.68a47.77 47.77 0 019.71.32 2 2 0 002.43-1.36c4-8.15 8.75-15.88 12-24.39 1.7-4.52 2.8-9.11 1.83-14-1.47-7.27-5.23-13.37-9.02-19.43zm-63.93-157.6c-.49-3.6-1-6.71-1.28-9.84a2.8 2.8 0 00-2.11-2.83c-5.38-2-10.73-1.48-16.07-.12a32.34 32.34 0 00-13.57 7.41c-1.22 1.08-1.89 2.12-1.13 4a16.43 16.43 0 01-.4 13.46c-3.28 7.17-9.25 11.75-15.31 16.24-3.87 2.87-7.94 5.46-11.84 8.3a6.24 6.24 0 00-2.83 5.68c.1 1.35.47 1.92 1.94 1.17 2.27-1.17 4.62-2.21 7-3.22 9.74-4.19 19.91-7.15 30.06-10.15 2.68-.8 2.9-1.32 2-4.1-.38-1.19-1.4-2.25-.95-3.64 1.5-.49 2.66 1.33 4.26.29-.87-5.45-1.41-11-2.72-16.45-.42-1.74-.23-2.69 1.86-2.59a14.32 14.32 0 005.8-1.2c4.76-1.84 9.49-4 15.29-2.41zm124.06 92a4.23 4.23 0 00-.3-1c-.46-.74-.93-1.48-1.46-2.17-3.27-4.31-6.76-8.5-11.86-10.62-7.6-3.17-15.06-2.07-21.89 2.21-3.05 1.91-5.22 4.78-4.09 9a12.47 12.47 0 01.58 5.23c-.67 4.19-3.65 6.72-6.61 9.23a21.68 21.68 0 00-5.78 6.58c-2.44 4.86-.79 8.6 4.4 10 3.8 1.06 6.94.34 9.52-2.95s3.48-7.23 5.11-10.9c2.24-5 4.81-9.55 11.46-8.9a1.81 1.81 0 001.81-.56c1.62-2.12 3.95-2.9 6.44-3.39 4.11-.87 8.38-.6 12.67-1.81zm-181-13.37a1.42 1.42 0 00-.77-1.6 25.37 25.37 0 01-4.31-3.72A33.15 33.15 0 00172 163c-.7-.41-1.69-1.07-2.23-.41-1.57 2-3.86 2.17-6 2.91a3.94 3.94 0 00-3 3.51 191.08 191.08 0 00-2 25.51 88.44 88.44 0 001.74 19.95 12.43 12.43 0 002.59 5.53c.79.94 1.48 1.32 2.4 0 2-2.89 3.79-6 6.27-8.45s2.71-5 1.74-8.06c-1.48-4.72 1.66-6.45 4.89-6.78 1.5-.16 1.79-.85 1.86-2.11.15-2.8-.1-5.6.22-8.41a93.13 93.13 0 012.29-13.5zm45.15 60.66c6.63-3.07 13.28-3.27 19.61-4.84a22.3 22.3 0 0011.26-6.45c4-4.36 5.93-9.69 6.69-15.54.53-4.11-.52-5.22-4.5-4.26a72.79 72.79 0 01-18.77 2.31c-3.87-.08-7.56-1.19-11.37-1.54-2.28-.21-4.81-.42-6.17 1.81s0 4.23 1.2 6.13c1.69 2.64 1.44 3.2-1.5 3.63-1.77.25-3.2 1.26-3.31 3s1.11 2.95 2.83 3.45 3.47-.15 5.16-.66c.71-.21 1.46-1.26 2.14-.36a2.06 2.06 0 01-.26 2.8c-1.64-.43-3.05-1.88-5-.64 1.1 3.37 2.33 6.76 2.02 11.11zm-15.87-13c3.31 1.26 4.64 1 6.95-1.42 1.75-1.82 1.48-2.76-1-3.45-2.71-.76-3.26-2-2.05-4.53 1.33-2.8.66-4.36-2.19-5.66-3.09-1.42-6.38-1.67-9.69-1.82-6.88-.32-13.83.76-20.61-1a5 5 0 00-.34 2.53 42.33 42.33 0 003.82 15.78c2 4.19 4.92 7.65 9.31 9.58 3.93 1.72 8 1.66 12.17 1.1a2.89 2.89 0 013 .85 8.17 8.17 0 005.12 2.75c3.53.47 7.2.86 9.73-2.53 2.16-2.89.36-5.43-.93-8-.06-.12-.21-.19-.38-.34-2.68 1-5.31.51-7.88-.57-3.35-1.4-3.34-1.41-4.88 1.79 0 .08-.25.08-.54.17a21.91 21.91 0 01.42-5.3zm15.73 112.81c-.17-2.8-.25-5.6-.52-8.38-.44-4.46-.84-8.94-2.22-13.23-.3-.92-.34-2-1.94-1.84a49.9 49.9 0 01-11-.68c-7.28-1-13.74-3.83-19-9.15a37.14 37.14 0 01-6.18-8.5c-.63-1.16-1.55-1.76-2.69-1-3.39 2.14-6.27 4.77-7.71 8.71a2.37 2.37 0 001 3.19 61.5 61.5 0 007 4.2c5.13 2.38 10.29 4.7 15.32 7.28a29.37 29.37 0 0113.79 13.93c2.71 5.76 4.27 11.88 6.35 17.84 1.34 3.85 2.81 4.58 6.79 3.55a7.06 7.06 0 011.05-.33c1.46-.14 1.57-1 1.28-2.18-1.07-4.51-.97-9.02-1.29-13.48zm39.12 61.6a15 15 0 01.42 1.45c.2.93.59 1.8 1.6 1.86s1.57-.68 2.05-1.48a4.47 4.47 0 00.53-4.16 70 70 0 01-4.79-21.51 3 3 0 00-1.08-2.1 16.76 16.76 0 01-5-10.56c-.18-1.83-.71-3.08-2.61-3.61a13.48 13.48 0 00-1.14.94 76.51 76.51 0 01-10.57 9.22c-5.19 3.77-6.59 6.92-2.43 13.39 2.49 3.87 4.87 7.92 5 12.82 0 1.42.93 1.93 2.28 1.1.53-.31 1-1 1.79-.29a3.11 3.11 0 01-.09.6c-.36.88-1.59 1.85-.4 2.66 1 .68 2.09-.12 2.94-.9a8.23 8.23 0 01.95-.92 1.14 1.14 0 011.83.34c1.82 2.53 1.87 2.5 4.26.63 1.05 1.17.82 3.69 3 3.55 1.41-.16.9-1.84 1.49-3.1zM305.27 200a51.73 51.73 0 0010.07-6.45c2.9-2.57 5-5.72 5.05-9.73.05-5.62 1.35-10.45 6-14.27 3.79-3.12 5.44-7.49 5.19-12.57-.17-3.53-1.21-6.81-2-10.16-.61-2.48-1-2.7-3.49-1.76a6.69 6.69 0 00-2 1.34c-2.39 2.08-2.91 5.05-3.79 7.83a16.32 16.32 0 01-4.74 7.82 32.7 32.7 0 01-8.88 5.51c-1.67.68-2.14 1.7-1.77 3.46a113.17 113.17 0 011.51 13.38c.43 5.12-.42 10.15-1.15 15.6zm-19.08 25.84c-1.58.76-2.63 1.21-3.64 1.75s-1.64 1.65-2.44 2.95c-.17-1.71-1.12-1.95-2.31-1.61a1.36 1.36 0 00-1 1.75 2.06 2.06 0 002.19 1.75 8.2 8.2 0 004.87-1.08c.91-.55 1.91-1 3 .1a14.35 14.35 0 00-3.19 2.87c-.28.3-.46 1-1 .64-1.37-.94-2.12.3-3.12.9-.32-.64-.57-1.16-.86-1.67-1.67-3-4.57-4.55-7.43-4.1-.91.15-1.27.45-1.13 1.44.65 4.36 5.16 9.35 9.43 10.33a5.35 5.35 0 00.45-2.56c.08-.67.18-1.68.87-1.59 1.65.21 2.44-1.06 3.63-1.63a7.49 7.49 0 014.38-.71c-.84.66-1.87 1-2.59 1.67s-1.88 1.84-1.33 3 1.87 1 3 .79c.21 0 .42-.13.64-.18 3.26-.87 3.24-.87 3.14 2.5a7.41 7.41 0 00.31 1.72c.21 1 .43 2 .65 3.05a4.43 4.43 0 01-1.33-1.82 27.51 27.51 0 01-.78-3c-.15-.64-.21-1.21-1.08-1.43-2.82-.72-7.07.9-8.49 3.5-2.35 4.29-.25 8.34 4 10.65 5.13 2.79 11.36.79 15.13-4.83 5.11-7.62 5.3-20.09-3.44-27.08-3.09-2.48-9-3.49-11.81-1.77-1.87 1.14-3.52 2.57-5.95 2.44a1.6 1.6 0 00-1.75 1.63c.13 1.36 1.31 1 2.1.92a8.6 8.6 0 002.56-.64 6.11 6.11 0 014.32-.63zm-162.61 18.25c2.27-.29 2.46-.45 2.54-2.57a54 54 0 01.39-7.3c.16-.9-.26-2.18.76-2.61s1.58.82 2.24 1.43a6 6 0 002.42 1.46 1.47 1.47 0 002.09-1c1-2.82 2.2-5.6 3.17-8.45 1.27-3.73 1.22-3.75-2.52-5.17-1.09-.42-2.19-.85-3.3-1.19-7.83-2.39-13.56 1.55-15.59 8.76-1.85 6.58-1.42 13.23-.69 19.91a124.48 124.48 0 004.62 21.1c1.14 3.91 2.09 7.95 4.53 11.38 1.8 2.53 3.83 3.5 6.71 2.72-1.18-2.15-2.25-4.29-3.49-6.33a24.85 24.85 0 01-3.55-12.75c-.16-6.39.91-12.81-.33-19.39zm47.74 71.69c.81-.21 1.38-.34 1.94-.5a12.55 12.55 0 0113.22 3.32c2.2 2.36 4.52 3.33 7.23 4.32 3.7 1.35 5.85 4.21 7.14 7.86 1.84 5.19 1.45 10.47.81 15.75-.3 2.58-.15 3 2.48 3 4 .11 8 .08 12 .08a2 2 0 001.88-.6c-.05-.68-.06-1.42-.15-2.14s-.24-1.46-.39-2.17a44.14 44.14 0 00-10.95-21.7 61.7 61.7 0 00-14.77-11.54 118.51 118.51 0 00-18.44-8.14c-1.32 4.15-3.2 8-2 12.46zM301 166.37a22.65 22.65 0 002.87-.2 18.77 18.77 0 0014.29-15.71 11.16 11.16 0 00-3.79-9.71c-2-1.88-4.09-3.79-7.27-1.73-.92.59-2.79-.19-3.63.44-3.62 2.7-9.09 1.89-11.75 6.29-3.69.71-2.47 5.14-5.05 6.74-.16.1 0 .85.13 1.25a26.21 26.21 0 001.69 4.29c2.81 4.97 6.78 8.38 12.51 8.34zm-6.69-49.44c-1.95-1.41-2.77-.53-3.45 1.41-1.43 4.07-.83 8 .4 11.92.44 1.41 1.52 1.6 2.81 1.54a41.19 41.19 0 019.47.53 21.27 21.27 0 0111.38 5.67 28.34 28.34 0 015.2 8c6.16-1.88 10.43-8.55 10.24-15.78a6.37 6.37 0 01-3.46-2.07 38.33 38.33 0 00-5.85-4.09c-1.26-.82-4-.18-3.45-3.2l-1.82.54c-1.11-1.75-5.75-3.43-7.19-2.77-1-.32-.33-2.43-1.81-1.71-1.72.84-3.12.07-4.66-.15-1.09-.16-2.21-.88-3.25-.45a2.15 2.15 0 01-2.88-.85c-.87.15-.91 1.02-1.73 1.46zM127 286.23c1.12 4.23 3.7 7.27 6.21 10.31 3.64 4.41 7.68 8.54 9.42 14.2.22.71.51 1.09 1.4 1a17.29 17.29 0 0011.45-4.9c3.56-3.51 5.37-8 6.78-12.64a2.52 2.52 0 00-.62-2.25 39.43 39.43 0 00-6.21-7.12c-1.11-.93-2.56-2.39-4.07-1.48-4 2.44-8.39 2.82-12.9 3-3.73.25-7.46-.73-11.46-.12zm21.36-130.93a6.76 6.76 0 003.92-1.31c1.57-1.17 3.14-2.33 4.75-3.45 6.66-4.66 12.45-10 14.79-18.19.22-.77 1.1-1.6.17-2.37a2.4 2.4 0 00-2.89-.06c-4.77 2.74-10 3.07-15.35 3.48-3.74.29-7.51.39-11.17 1.35-3.91 1-6.88 4.25-6.94 7.63-.09 5.82 6.87 12.89 12.72 12.92zm160.77-59.39c-1.48 2.13-3.87 1.38-5.77 1.82-4 .92-4 .68-4.9 4.75-.06.29-.18.56-.25.84-.32 1.3.06 2 1.48 2.39 3.15.9 6-.25 8.82-1.16 1.39-.44 2.11-.31 2.78 1.06a24.68 24.68 0 004.25 5.58c4.41 4.84 10 8.26 14.94 12.42 1.74 1.46 2.41.81 3.32-.71a29.71 29.71 0 003.86-11.54c.58-4.4.29-4.81-3.84-6.25a22.1 22.1 0 01-3-1.4c-2.23-1.21-4.27-2.78-6.89-3.21a2.46 2.46 0 01-1.75-1.25c-1-2-2-1.85-2.83.52-.44-.87-.72-1.51-1.37-1.75-1.9-.67-4.4.85-5.82-1.59-1.23 1.28-2.09-.06-3.03-.52zm-20.68 29.61a1.81 1.81 0 00.36-1.44c-1.14-6.49 1.17-11.89 5.34-16.63 1.77-2 2.89-4 2.39-6.84a7.89 7.89 0 011.14-4.88 49.79 49.79 0 003.72-8.25c.33-1.11.22-1.68-.88-2.26a8.22 8.22 0 00-6.62-.66c-1.89.61-3.77 1.56-5.69 1.69-3.51.24-6.22 1.4-7.87 4.63a1.32 1.32 0 01-.82.65c-1.86.22-2.38 1.59-2.83 3.08-.19.63-.28 1.46-.72 1.82-2 1.57-1 3 .07 4.45.63.81 1.29 1.6 1.92 2.41a59.16 59.16 0 015 6.93 22.85 22.85 0 012.75 10.37c.06 1.96.29 4.02 2.74 4.93zm7.6 135.84c0-3.5 0-3.5-3.49-3.35-.74 0-1.47.05-2.21.11-4.06.27-7.58-.61-9.91-4.36a7.64 7.64 0 00-2-2 2.35 2.35 0 00-3.38.08c-.94.9-2.28 1.29-3.32 2-4.17 3-5.51 4.38-2.62 8.85 2.21 3.43 5.07 6.49 6.46 10.42a17.54 17.54 0 002.85 4.93c1.16 1.47 2.48 2.24 4.59 1.56 7.98-2.6 12.98-9.53 13.03-18.24zM130 366.76c2.46.59 2.7 4.07 5.93 3.64-2.08-2.27-.1-3.48 1.41-4.8a5.62 5.62 0 00-3.84-1.09c-1.64.18-2.63-.75-3.52-1.84-2.4-2.95-4.82-5.89-7.1-8.93a17.62 17.62 0 01-3.16-6.35 94.38 94.38 0 0115.77 2.18c-.7-2.89-3.72-3.15-4.56-5.3 0-.07-.55.05-.84.08a73.25 73.25 0 01-13.16.16C113.42 338 109 332 106.71 324.72c2 .25 3.84.49 5.67.7 2.58.3 4.94.79 6 3.75.63 1.78 2.16 2.17 4.17 1.35-1.53-1.53-2.76-3-.18-4.45a11.32 11.32 0 00-4.41-2.57 23.83 23.83 0 00-9.39-1.17 3.83 3.83 0 01-4.14-2.58c-1.32-3-2.24-6.18-3.33-9.35 3.84-.89 7.33 2.16 11 .74.14-1.1-.55-1.24-1-1.46a26.73 26.73 0 00-8.24-2.35c-1.73-.14-2.91-.58-3.44-2.44a1.67 1.67 0 00-2.59-1.16 9.93 9.93 0 01.37 8c-.77 1.84-1.78 3.56-2.56 5.39-1.2 2.83-2.38 5.69-.4 9.07 2.07-4.3 1.33-9.5 5.31-12.81 1 2.82 1.49 5.48 2.49 8 1.94 4.94 4.22 9.72 6.57 14.47a4.53 4.53 0 01.2 3.61 44.88 44.88 0 01-4.21 8.47c-.53.9-1.45 1.75-.85 3 1.41.19 1.33-1.67 2.69-1.86 0 2.46-.15 4.83 0 7.16s.1 4.81 2.6 6.66c.91-7.41-.77-14.75 1.9-21.71.38.16.58.19.63.29a104.43 104.43 0 009 13c3.33 4.19 6.79 8.32 6.4 14.21a4.05 4.05 0 00.54 1.9 4.32 4.32 0 003.28 2.76c.57-2.27-.97-4.2-.79-6.58zm6.31-99.95c1 5.22 4 10 8.1 12.48 4.82 2.94 9.88 2.25 12.78-.87 5.06-5.43 4.77-14.75-.41-20.17-1-1.07-2.36-2.72-3.8-2.16-1.92.75-4 1-5.77 1.87-1.08.52-1.83 1.49-3.25.48-.25 2.51-.64 4.65-3.67 4.69-.8 0-1.31.91-1.57 1.7a2.43 2.43 0 01-2.44 1.98zm61.02-170.19c-2.45-1.46-4.7.84-7.2.29.89-2.36 3.16-3.35 4.21-5.4-1.79-1.56-3.06-.36-4.12.77a29.37 29.37 0 00-2.54 3.56 5 5 0 01-3.62 2.58 40.27 40.27 0 00-4.46 1.19c-2.59.63-5.09 1.87-8.19 1.45a95.39 95.39 0 016.82-9.9 4.68 4.68 0 014-2.07c2.06-.1 4.66-.21 5.44-3.15-5.44-1.85-9.09 1.53-13.12 4.54-.08-1.31.36-2.75-1.21-2.57-1.38.15-1.24 1.48-1.22 2.48a5.6 5.6 0 00.43 2.14 1.83 1.83 0 01-.58 2.52 8.24 8.24 0 00-2 3.1c-1.25 2.41-2.43 4.9-5.29 5.9-3.81 1.33-7.6 2.73-11.41 4.06-1.83.64-2.5.1-2.16-1.8a30.27 30.27 0 011.77-6.57c.84-2 2-4 1.95-6.35a1.44 1.44 0 00-1.31.64c-4.16 4.41-5.74 9.76-5.79 15.71a4.39 4.39 0 002 3.85 44.45 44.45 0 0019.94 8.68c2.75.49 5.48 1.08 8.24 1.55 1.19.2 2.38-.2 2.6-1.47s-1-1.19-1.84-1.43c-3.36-1-6.86-1-10.25-1.66-1.05-.22-2.17-.25-2.92-1.14.12-.25.14-.43.24-.51a3.52 3.52 0 01.72-.49 36 36 0 0113.36-3.54c1.68-.1 3.69 0 4.47-2.47a15.78 15.78 0 00-5.26-.25c-5.86.42-11.06 2.86-16.19 5.43a2.78 2.78 0 01-3.21-.06 87.315 87.315 0 00-5.49-3.47c-.66-.38-1.41-.65-1.39-1.49 0-1 1.08-.87 1.7-1.08 12.06-4 24.14-8 36.56-10.85a3.44 3.44 0 013.52 1.12c1 1 2.3 1.92 3.71.34-1.62-1.54-1.62-1.54-.91-4.18zm56.28 27.17a14.14 14.14 0 01-3.33-16.94c.92-2 .25-2.81-1.27-3.65a5.44 5.44 0 00-4.24-.55c-2.55.64-5 1.79-7.76 1.53-.67-.07-1.13.63-1.62.82a10.24 10.24 0 00-5.63 5.67c-.19.41-1 .54-1.51.78s-1.27.59-1.17 1.41c.31 2.53-.87 3.28-3.2 2.54.25 3 1.72 4.89 4.78 5.29 6.63.9 13.19 2.13 19.73 3.54 1.61.34 3.47.96 5.22-.44zm-8-27.45c.36 3.55 1 4.27 5.51 6.85a1.67 1.67 0 002.09 0c5-2.94 10-6 15.83-6.89a1.93 1.93 0 001.54-1.41 12.77 12.77 0 00-.29-11.11c-.77-1.48-2.14-2.9-4.08-1.94a15.13 15.13 0 01-7.81 1.68c-.4 1.48-.52 3.48-2.4 3.21-2.53-.38-2.47 3-4.68 2.81a1.31 1.31 0 00-.11.61 2 2 0 01-1.58 2.45 1.66 1.66 0 00-1.26 1.4c-.18 1.67-.96 2.64-2.76 2.34zm-85.3 137c.24-5-1.79-9.89-3.4-14.84a3.81 3.81 0 00-.86-1.27c-.89-1-1.75-1.12-2.36.27a4.11 4.11 0 01-1.69 1.8 20.61 20.61 0 01-8.26 2.85c-2.85.46-3.49 1.27-3.14 4.16.28 2.29 1.52 4.1 2.81 5.92 1.06 1.48 2.16 1.63 3.42.31s1.76-.7 2.07.63c.37 1.58.64 3.18 1 4.76a9.36 9.36 0 003 5.06c2.36 2 4.87 1.45 6-1.37a19.81 19.81 0 001.41-8.33zm124.88-69c-6.78.65-10.53 5.16-13.93 10.16-1.11 1.61-1.08 2.69.72 3.93a13.82 13.82 0 0012.79 1.78 16.54 16.54 0 0010.8-9.91c.66-1.69.6-3.13-1.48-3.92a6.38 6.38 0 01-2.77-2.72 9.78 9.78 0 00-4.16-3.48 3.27 3.27 0 00-4 .88c-1.07 1.42.91 1.75 1.5 2.59.1.1.23.25.53.63zm-30.44-7.19c2.83.08 2.79 0 3.6-2.2a17 17 0 00.33-8.52c-.54-3.4-.9-6.47 3.38-7.82.9-.29 2.16-1.42 1.07-2.83a10.8 10.8 0 00-7.79-4.51c-1.26-.12-2.12.17-2.36 1.62a4.76 4.76 0 01-1.52 2.86c-4 3.33-6.16 7.74-7.7 12.51-.5 1.56-.94 3.4.59 4.73 3.12 2.64 6.96 3.58 10.4 4.1zm-82.82 161.12c-.54 2.42-1.14 4.84-.69 7.36.73 4.15 1.72 8.08 4.63 11.47a19.72 19.72 0 0011.27 6.64c1.61.34 2.53-.2 2.43-2a45.28 45.28 0 00-1.72-11.74c-2.24-7-9.05-12-15.92-11.73zM169.34 339a11.54 11.54 0 00-.59-5c-.37-1.55-.69-3.11-1-4.66a17 17 0 004.84 8.24c.76-.95.38-1.73.21-2.5-1.41-6.54-3.27-13-3.19-19.81.12-10.23 4.93-17.95 12.26-24.46.8-.71 2-1 2.63-1.92a1.19 1.19 0 00-.11-1.76c-.56-.51-1-.71-1.7-.14s-1.9 1.13-2.71 1.85c-8.62 7.63-13.25 17.12-13.29 28.73 0 1.62.06 3.25 0 4.88s.82 2.95.36 5.09c-4.38-18.74 1.53-32.87 17-43.29a3.25 3.25 0 00-3.35.26c-11.57 6.06-16.86 15.94-17.57 28.65-.4 7.09 1.29 13.93 2.47 20.81.31 2.03.98 4.14 3.74 5.03zm-3.4 1.54a1.89 1.89 0 00.1-2.14 60.51 60.51 0 01-3.34-14.4c-1-8.12-.92-16.16 1.91-24a22.59 22.59 0 016.07-9.56c2.84-2.48 6.29-4.27 9.29-6.59 1.47-1.13 3.44-1.92 4.27-4.4-5.34.31-9.22 3-12.53 6.18-11.5 11.1-15.2 24.81-12.61 40.81-1.93-5.78-1.76-11.57-3.15-17.18-1.78 1.06-3.36 1.77-3 4 1.09 6 2 12.07 4.21 17.83 1.5 4 3.27 7.81 6.71 10.65-.54-4.19-3.1-7.74-3.73-11.69 1.55 3.51 2.86 7.33 5.8 10.46zM149.74 211c1-2.59-2.12-3.39-2.17-5.54 1-.18 2.42.2 2.11-1.82-9.11-1.36-15-8.91-23.41-11.81a3.32 3.32 0 011.68-2.27 17.53 17.53 0 014.29-1.7c3.08-.76 4.17-1.74 4.46-3.76a12.8 12.8 0 00-8.15 2.19c-6.66 4.2-6.58 4.17-13.71.89-4-1.84-8-3.83-12.35-4.61-1.67-.3-3.38-1.16-5.26-.4.72 1.43 2 1.46 3.06 1.91 2.89 1.24 6 1.93 8.76 3.53a5.8 5.8 0 013.17 4.47 51.25 51.25 0 00.89 5.66c.51 2.06 1 4.27 3.57 5.36-.16-4.3-2.47-8.11-1.63-12.54A63.43 63.43 0 01128 196a2.64 2.64 0 011.53 3 20.34 20.34 0 00.4 6.81 4 4 0 003 3.15c.1-3.66-1.53-7 .2-10.57 5.86 3.37 11.1 6.91 12.12 14 1.27.08 1.67-.69 2.08-1.35.76-1.24 1.52.05 2.41-.04zm7.78-51.44a1.41 1.41 0 00-.83-1.51c-.7-.31-1.07.29-1.48.69a37.69 37.69 0 01-4.11 4c-5.17 3.64-6.46 8.3-3.93 14 2.13 4.85 3.37 9.8-.18 14.64-1.29 1.75-1.31 3.3.81 4.52a6.36 6.36 0 011.6 1.51c.91 1.11 1.83 2.9 3.26 2.43 1.64-.54 1-2.59 1-4a159.3 159.3 0 012.15-27.06c.49-3.03 1.11-6.05 1.71-9.23zm103.66 38.13c-.35-1.75-.34-1.76-1.39-2.83-6.29-6.34-14.15-8.49-22.76-8.14-5.88.23-12.12 4.54-12.36 10.12-.08 2 .38 2 1.81 1.68 2.44-.56 4.88-1.12 7.31-1.74 7.07-1.81 14.14-2.47 21.26-.16 1.95.61 3.81 1.61 6.13 1.06zm102 48.49a104.13 104.13 0 005.67 12.35c2.78 4.93 6.53 8.67 12.64 9 8.68.45 13.55-4.54 16.79-11.71a30.74 30.74 0 001.86-19.29c-1.14-5.41-3.06-10.44-7.74-14-.6 1 .19 1.71.52 2.48 3.5 8.22 5.93 16.58 4.49 25.72a15.68 15.68 0 01-10.05 12.83c-5.54 2.33-12.12 1-15.2-5.25-1.64-3.37-2.9-6.88-4.44-10.29a24.43 24.43 0 00-5.69-8.4c-2.2 2.35-2.88 7.47-1.27 9.35.55.65 1.07 1.94 2.21 1.44s.33-1.68.27-2.55c-.03-.4-.46-.75-.06-1.69zM149.81 125.86a43.17 43.17 0 00-12.1 4.08A55.22 55.22 0 00119.43 144c-2.32 2.69-5.41 5.19-4.52 9.49a1.11 1.11 0 01-.39 1.21c-2.24 1.35-3.68 3.6-5.69 5.15a47.59 47.59 0 00-9.77 10.91c-.87 1.24-2 2.51-2 4.15.64.43.93 0 1.28-.23 2.53-1.82 4.14-4.5 6.23-6.73a3.06 3.06 0 013.45-1.13 24.06 24.06 0 005 .75c1.09.08 2.53-.11 2.61-1.4.07-1.12-1.32-1.13-2.23-1.25-1.78-.26-3.62-.21-5.46-1.15 3.33-3.26 5.93-6.91 9.54-9.64 1.83-1.39 3.4-1.91 5.42-.48A17.48 17.48 0 00129 156c2 .48 4.19.78 5.89-1.35a19.12 19.12 0 00-3.17-1.4c-2.32-.7-4.75-1.06-7-2.09-.54-.25-1.26-.34-1.22-1.09s.6-.91 1.21-1.1c1.19-.39 2.34-.86 3.5-1.3a4.34 4.34 0 003.21-3.48c-5.1-.5-8 3.92-12.25 5.44a3.89 3.89 0 01.14-1.08 35.62 35.62 0 017.7-9.24c4.72-4.07 10.32-6.5 16.09-8.68 2.38-.87 4.8-1.9 6.71-4.77zm191.91 68.06c-2.91-.2-4.88.51-6.36 2.6a23.53 23.53 0 00-3.64 9.17c-1.48 7.18-6.05 10.05-12.71 10.55-3.21.24-6.41-.56-7.94-3.72a10.21 10.21 0 01.42-9.75c1.67-2.92 4.71-4.58 7-7 2.06-2.2 4-4.54 4.12-7.8 0-.59.21-1.43-.71-1.64s-1.3.57-1.47 1.27a11.63 11.63 0 01-1.73 3.77c-2.65 3.95-6.66 6.54-9.78 10-6.29 7-2 16 5.05 18.2 8.36 2.58 12.5-.31 17-6.06s6.37-13.13 10.75-19.59zm-239.52-39a110 110 0 0111.7-16.22c1-1.15 1.95-3.14 3.07-3.25 3-.29 3.25-2.7 4.33-4.51 2.13-3.55 5.14-5.55 9.4-5.37.74 0 1.48.11 2.22.07s1.42.12 1.49-.88-.68-.87-1.34-1-1.66.12-2.25-.9c2.36-3 7.2-3.26 9.17-7.47-3.68.15-5.47 3.18-8.47 3.55-1.77-3.31 1.53-7.23-1-10.76-2.53 3.51-2.67 7.13-2.33 10.75a4.87 4.87 0 01-2.06 4.58 66.67 66.67 0 00-11.23 10.79 11.08 11.08 0 01-3.75 3.29c-1.54-2-1.31-4.57-2.29-6.66-2.33 1-3.29 2.47-1.79 5 2.39 4 1 6.56-1.52 9.61-3.29 3.94-5.68 8.55-8.46 12.87-.42.64-.64 1.53-1.77 1.58-.47-1.62-1-3.21-3.22-3.27-.66 1.87.15 3.27 1.19 4.54a3.64 3.64 0 01.48 4.46 5.68 5.68 0 00-1 2.65c0 .69-.33 1.61.6 1.91s1.21-.53 1.51-1.06a31.26 31.26 0 001.86-3.76c1.53-3.67 2.64-7.68 7.62-8.12a.89.89 0 00.77-1 1.16 1.16 0 00-.8-1 18.69 18.69 0 00-2.13-.45zm183.11 2.85c-.17-.63-.33-1.42-.61-2.18a40.36 40.36 0 01-2.42-7.51c-.15-1-.18-2.18-1.46-2.08-1.53.13-3.77.21-4.23 1.51a3.36 3.36 0 01-2.41 2.17 11.47 11.47 0 00-4.1 2.85c-1.66 1.65-3 3.7-5.23 4.65-1.85.8-2 2.71-3 4-1.13 1.5.82 5.62 2.66 6.72 2.32 1.39 3.61-.52 5-1.72 2.1-1.75 3.41-4.22 5.33-6.13 1.17-1.18 2.05-2.88 3.87-3.12 1.65-.21 2.19 1.54 3.27 2.34a2.89 2.89 0 002.54.32c.91-.21.63-1.06.79-1.85zM85.36 253.06c.32 3.22 0 6.23.55 9.21s1.19 5.81 3.25 8.41c1.37-2.52-.45-4.74.17-7.22 7.49 3.12 13.61 9.17 22.49 9.69a7.81 7.81 0 00-3.5-2.78c-6.1-3.31-12.69-5.71-18.32-9.92a4 4 0 01-1.94-3.21c-.09-2.43-.24-4.87-.23-7.3a130.76 130.76 0 00-.31-14.14 16.84 16.84 0 00-2.27-7.72c-.72.64-.56 1.33-.56 2 0 5.69 0 11.37.08 17a6.19 6.19 0 01-1.24 4.13 31 31 0 00-4.41 7.56c-1.7 4.24-3 8.56-2.11 13.41 1.64-.78 2-2.12 2.47-3.43 1.1-3.35 1.33-6.93 2.59-10.25.73-1.92 1.22-4 3.29-5.44zm99.86-55.55a6.91 6.91 0 003.87.24c3.25-.64 6.49-1.41 9.77-1.86 4.38-.59 8.74-1 12.44 2.5 1.13 1.07 2.34 2.46 4.2 2.59 1.2.08 2.09-.07 1.89-1.6a12 12 0 00-4.85-8.59c-4.68-3.41-9.92-3.5-15.22-2.14-5.02 1.29-9.26 3.85-12.1 8.86zm33.9 53c.72.13 1.44.33 2.16.39 2.93.26 6 .93 8.1-2 .87-1.22 1-2.21-.77-2.79a45.37 45.37 0 00-7.54-1.6 64.31 64.31 0 01-11.07-2.72c.16 2.82 1 3.75 6.88 8.06-3.64-1.26-6.36-3.74-9.31-5.78-.7.92-.2 1.58.15 2.19a14.93 14.93 0 006.69 6.08c5.32 2.5 11 3.19 16.78 3.32 1.53 0 2.83.29 3.73 1.84s3.24 2.18 4 1.28a3.39 3.39 0 00.07-4.31 4.39 4.39 0 00-3.63-2.21 34.35 34.35 0 00-4.63-.23 26.75 26.75 0 01-11.61-1.5zm134.05-117c-1.27 4.06-3.45 7.3-7.3 9.38a13.78 13.78 0 01-1.77-6.77c-.2-4-1.58-8.52 3.62-10.87a2 2 0 001-3 2.84 2.84 0 00-1.72.75c-.51.46-.83 1.31-1.94.93-.7-1.86.21-3.68.42-5.53s.55-3.79-1.35-5.33c-3 3.43-.73 7.84-2.25 11.32-.83.44-1.2-.77-1.94-.26a7.62 7.62 0 00.39 5.17 12.85 12.85 0 01.78 4.11c0 .65.1 1.42-.64 1.74s-1.05-.36-1.5-.72-.74-1.2-1.71-.65c0 1.49 1.32 2.15 2.18 3a11.46 11.46 0 013.06 10.76c-.24 1.29-.74 2.53-2.25 2.9s-1.83-.87-2.44-1.75a5.26 5.26 0 00-.61-.64 1.17 1.17 0 00-1.42-.28c-.59.28-.46.89-.4 1.38a3.57 3.57 0 001.5 2.37c2 1.52 2.26 3.2 1 5.39a24.63 24.63 0 00-1.9 4.69 2.28 2.28 0 001.32 3.2c.86-2.32 1.68-4.58 2.54-6.83 2.16-5.59 5-10.71 9.48-14.86 2.09-1.94 4.6-3.06 7-4.41 1.28-.71 2.94-1.24 3.34-3.1-2.15-.84-3.52.94-5.23 1.21-.34-1.09.68-2.49-1.26-3.33zm14.75 128.93a8.4 8.4 0 00-.61 1.37 2.85 2.85 0 00.05 1.09 14.77 14.77 0 006.33 8.23c4.43 2.74 9.29 3 14.26 2 7.23-1.46 12.64-5.38 15.87-12.08 4.33-8.95 3.53-18.14 1.24-27.41a1.13 1.13 0 00-1.2-1c-1.82-.12-1.63 1-1.37 2.17a43.77 43.77 0 01-.27 20.79c-1.31 5.08-3.69 9.71-8.16 12.44-6.77 4.15-15.93 4.08-21.94-2.71-1.34-1.56-2.65-3.12-4.2-4.92zm-224.83 63.38c.07-.75.16-1 .09-1.17a115.71 115.71 0 00-9.58-19.11c-4.1-6.49-9-12.25-15.56-16.41a38.68 38.68 0 00-13-5.27 2.22 2.22 0 00-2.91 1.66c-.39 1.54.89 1.78 1.94 2.08a40 40 0 0116.73 9.46c7.34 6.94 13.77 14.62 17.75 24.11a10.08 10.08 0 004.54 4.65zm15.4 18.54a132.75 132.75 0 00-7.42-15.72c-7-12.54-13.43-25.46-22.5-36.72-4.44-5.5-9.8-9.9-16.75-12a2 2 0 00-2.75 1.29c-.56 1.39.54 1.67 1.49 2.1a48.62 48.62 0 0116 11c6.09 6.53 10.66 14.18 14.84 22 3.6 6.73 7 13.57 11 20.07 1.76 2.84 3.33 5.87 6.09 7.98zM132.85 260a8.76 8.76 0 00-6.42 10 18.16 18.16 0 007.72 12.35c3.29 2.22 7.91 2.71 10.71.14-6.31-6.76-9.86-8.81-12.01-22.49zm246.57-49.75a101.39 101.39 0 00-9.39-10.7c-2.86-2.68-6.1-4.13-10.51-3.24 1.73 1.46 3.49 2.18 4.81 3.53 3.1 3.19 5.18 7.08 7.76 10.63s5 6.85 8.74 9.12c1.78 1.07 2.68.47 3.3-1.08a10.45 10.45 0 00.57-5.83c-.88-4.65-2.65-8.74-7.14-11.72-.05 3.45 2.99 5.88 1.86 9.27zM214.19 399.54c-2.12-2.09-4-4.5-6.6-6.23-4.21-2.83-8.7-4.68-13.93-3.48-1.11.26-2.16.52-2.48 1.85a10.47 10.47 0 00.35 6.07c.51 1.43 1.36 2.36 3 1.49 3.47-1.89 6.16-.24 8.67 1.92 1.59 1.37 3.06 2.11 5 .71a9.09 9.09 0 014-1.22c.7-.11 1.48-.08 1.99-1.11zM94.83 217.33c.91-.17 1.32.52 1.93.72s1.21.43 1.6-.16 0-1.11-.35-1.62a3.87 3.87 0 00-2.39-1.47c-2-.4-3.35-1.36-3.69-3.49-.22-1.41-1.24-1.8-2.44-1.88a2 2 0 00-.19 1.83c.84 2.5 1.68 5 2.59 7.48 2 5.29 3.49 10.61 2.21 16.34a2.37 2.37 0 00.42 2.27c2.38-.95 1.41-3.5 2.33-5.32a11.18 11.18 0 01.72 1.12c2.67 5.58 5.6 11 8.57 16.42 1.15 2.1 3 4.06 1.86 6.92-.3.72.6 1.37 1.3 1.6 1.08-.14.17-1.38 1.15-1.55.7-.2 1.17 1.28 2.16.33-.62-4.63-4.88-7.6-5.89-12.16.88.09 1.91.93 2.32-.35.36-1.11-.47-1.77-1.41-2.17-.74-.32-1.51-.58-2.28-.84a2 2 0 01-1.44-1.25c-1.85-5.51-4.76-10.56-6.88-16-.86-2.17-1.95-4.33-2.2-6.77zm247.28 107c-2.08.5-2 1.85-1.49 3.41a8.92 8.92 0 005.78 5.9c2.49.93 4.45.09 6.3-1.43.42-.35 1.12-1 .52-1.45-2.69-2-3.81-5.71-7.41-6.67-.56-.15-1.2-.43-1.35-1a33.19 33.19 0 00-2.31-5.25c-.56-1.28.24-3.16-1.45-3.87-1.47-.62-3 .07-4.55.25-.81.09-1.62.21-2.42.27-1.38.1-1.92.62-1.63 2.14.9 4.98 4.61 7.9 10.01 7.73zm-118.82-80.7a16.5 16.5 0 008-1.61c3.19-1.42 6.12-3.32 6.59-7.29a2.53 2.53 0 00-1-2.75c-1-.57-1.58.22-2.28.74a13 13 0 01-1.74.9c-5.65 3-11.37 5.24-17.75 1.94-1.12-.59-2.79-1.28-3.68-.07s.16 2.66.85 3.87a4 4 0 00.58.67c2.71 3.04 6.21 3.78 10.43 3.63zm35.4-79.77c.84-3-.34-5.3-3.33-5.71a46.08 46.08 0 01-20.75-8.65c-5.35-3.85-5.19-3.06-6.12 2.68-.59 3.65-.1 4.34 3.63 5 5.49 1.05 11.08 1.61 16.52 3a44.36 44.36 0 0110.05 3.71zm-106.4 88.57c2 1.71 4.46 2.87 6.07 5a17.73 17.73 0 013.45 11.39c0 .86-.41 2.06.8 2.5s1.69-.47 2.43-1.12c2.68-2.37 2.63-5.52 2.29-8.57-.54-4.86-2.1-9.3-6.39-12.29-.74-.52-1.56-.88-2.23-.39-1.25.93-2.73 1.05-4.1 1.55a3.38 3.38 0 00-2.32 1.96zm-75.56-12.71a3 3 0 01-.26 1.8c-1.67 5.3-4.41 10.11-6.87 15-.56 1.15-1.18 2-2.61 1.95-.48 0-1.28 0-1.22.64.13 1.57-.07 3.74.85 4.53 1.17 1 1 1.92 1.13 3a12 12 0 00.27 2.18c.18.6.43 1.32 1.32 1.23s1.11-.68 1.22-1.37a10 10 0 00-.15-4.61c-.74-2.27 0-4.11 1.15-6a82.51 82.51 0 0010.68-27.87c.37-2-.54-2.4-2.06-2.67-.87 1.71-.6 3.57-1.2 5.22-1.37 3.72-.51 3.6-4.87 3.92a22 22 0 00-5.4 1 2.81 2.81 0 00-2 3.08c3.51.41 6.63-1.92 10.02-1.03zm80.55 144.79c1.12.13 1 1.07 1.27 1.67.43.82 1.07 1.69 2 1.41a6.43 6.43 0 003.77-3.5c.71-1.41.2-2.67-.79-3.85-2.28-2.7-5.36-3.61-8.67-3.72a7.08 7.08 0 00-6.9 4.85 5.31 5.31 0 003.18 6.67c3.24 1.2 4.16.73 5.67-2.89a3.15 3.15 0 01.47-.64zm221.17-203.24c.86-.39 1.7-.59 1.62-1.52-.07-.75-.81-1-1.38-1.3-1.23-.65-2.53-1.16-3.69-1.9-4.68-3-8.76-6.75-13.19-10.07-5.63-4.23-11.87-6.9-19-7.08-.33 1.88-.07 2.54 1.36 3a30.66 30.66 0 003 .54c5.39 1 10.59 2.4 13.15 8.07.42.94.94 1.6 1.91.52.83-.91 1.58-.63 2.54-.1 2.26 1.27 2.83 3.63 3.83 5.69s1.58 4 3.74 5.13c.71-1.32-.57-2.33-.19-3.71a20.45 20.45 0 012.65 2.73 14.91 14.91 0 004.46 4.14c.59.38 1.41.89 2 .19s0-1.35-.52-1.9c-.74-.7-1.41-1.51-2.29-2.43zM108 212.52a2.92 2.92 0 012.46-.1c.45.14 1.08.22 1.27-.49s-.1-1.08-.75-1.38a4.7 4.7 0 00-2.31-.56c-1.74.09-3.18-.25-3.75-2.22a7 7 0 00-1.11-1.63 23 23 0 01-3.48-7.65c2.28-.41 4.44 1.89 6.64-.27a7.72 7.72 0 00-6.47-2.1 2.24 2.24 0 01-2.86-1.63c-.91-2.4-1.82-4.81-2.89-7.15a5.16 5.16 0 00-3.41-3.14 4.58 4.58 0 00.38 2.52c2.59 8.2 6.66 15.69 11.08 23 1.92 3.2 4.05 6.21 3.7 10.3-.13 1.59.27 3.52 2.33 4.22.76-.95.05-2.26.91-3.16.81.19.78 1.32 1.87 1.38.88-3.97-2.16-6.56-3.61-9.94zm270.79 98.3c.25-3.45 1.87-6.42 3.79-9.75a7.08 7.08 0 00-5 4.36c-4.63 9.64-4.07 19.38-.28 29.13.2.51.44 1.13 1.43.9a112.61 112.61 0 01-1.09-16.82c.57 5.8.8 6.75 2.23 8.52a5.41 5.41 0 00.26-.86c.06-.81.11-1.62.13-2.43.11-5.93.59-11.78 3.11-17.26.63-1.36 0-2-1.22-2.56-1.87 1.89-2.05 4.6-3.34 6.77zm-127.26-74.11c-.9-.15-1.57-.06-1.76.92-.27 1.35 2 7.09 3.22 7.7 2.1 1 3.61 2.72 5.35 4.18s3.32 3.3 5.65 4c1.71.52 4.13-.67 5-2.63.71-1.58-.63-2.51-1.5-3.34a10.56 10.56 0 00-4.32-2.58 8.59 8.59 0 01-5-3.91c-1.56-2.38-3.54-4.39-6.64-4.34zm139.06 11.78c-.66-2.14-2.57-3.16-4.24-4.27-4.37-2.9-9.22-5.05-13.42-8.24a13.69 13.69 0 01-5.45-9.36c1.11 4.37 3.88 7.49 7.45 10A48.41 48.41 0 00386 242.3a3.13 3.13 0 00-.8-1.4c-.85-.81-1.71-1.61-2.64-2.34-5.63-4.44-12.44-7.8-14.13-15.59-1.08-.1-.32 1.07-1.12 1.13-.22-2.39-.19-4.81-1.87-6.66-.83.23-.79.73-.88 1.15-1.74 7.68 1.39 14.95 8.32 20a110.79 110.79 0 0017.71 9.9zM155 351.51c.38-1-.2-1.58-.51-2.2-2.47-4.95-5.35-9.66-8.26-14.35-5.06-8.17-10.68-16-15.14-24.55-.41-.79-1.12-1.1-1.71-1.61s-1.21-.81-1.76-.3a1.73 1.73 0 00-.46 2.21A15 15 0 00128 312c7.65 10.72 14.15 22.16 21.06 33.35 1.46 2.42 2.88 5.08 5.94 6.16zm84 44.63a6.68 6.68 0 00-4.62 1.45c-2.89 2.91-3.1 5.83-.69 9.71 2 3.25 5 3.82 7.85 1.5 2.45-2 2.51-5 .09-6.89-1.07-.82-1.21-1.5-.07-2.41 1.35-1.08 1.06-2.42-.62-3a14.74 14.74 0 00-1.94-.36zm-86.8-40.33c-.73-1.91-1.28-3.33-2.47-4.41-5-4.59-8.81-10.17-12.68-15.66a95.08 95.08 0 01-8.71-15.22c-.53-1.16-1.3-2.6-2.72-1.84-1.23.66-.26 2 .19 2.92a126.8 126.8 0 006.67 12.4c4.06 6.55 8 13.22 13.73 18.51 1.54 1.49 3.17 3.01 5.99 3.3zM85 219.77c1-11.93 2.72-23.77 2.91-35.77a8.47 8.47 0 00-2.32 5.26c-.44 3.42-1 6.56-5.46 6.74a3.58 3.58 0 00-1.7 1 1.42 1.42 0 00-.48 2.12c1.16.18 2.09-.59 3.14-.84 1.93-.48 2.67-.07 2.69 2.05 0 3.26-.47 6.46-.64 9.7s-.39 6.67 1.86 9.74zm103.18 147.91c-.84-.83-1.17-1.84-2-2.47-.41-.32-.82-.82-1.34-.45a8.09 8.09 0 00-3.33 5.75 4.82 4.82 0 001.79 4.49c.77.7 1.24.36 1.86-.19a10.41 10.41 0 003.35-5.4c1.4.3 1.67 2.87 3.19 1.36 1.92-1.9 3.66-4.11 3.77-7 .06-1.45-.16-3.1-1.57-3.9s-2.56 0-3.64.84c-2.34 1.77-3.66 3.89-2.08 6.97zm127.19 25.62c-7.49 7.09-15.84 8.53-25.15 4.95-2.06-.79-4.2-1.37-6.32-2a6.35 6.35 0 00-4.39.26c2.77 1.42 5.07 2.65 7.42 3.78a27 27 0 0022.61.92c3-1.21 6.59-4.37 5.83-7.91zm29.23-237a4.39 4.39 0 003.33-1.18c1.3-1 2.37-1.57 3.72 0a3.1 3.1 0 002.72.65c.56-.07 1.23 0 1.36-.81a1.24 1.24 0 00-.81-1.41c-.51-.23-1.25-.1-1.23-1s.84-1 1.37-1.23a87.52 87.52 0 018.25-3.05c3-.82 6.06-.8 9-1.09.26-.94-.73-1.16-.48-1.87 1.18-.7 3.14-.48 3.34-2.52-1.8-1.45-3.09 1.3-4.75.43-.24-.81.28-1.65-.23-2.49-1-.19-1.85-.42-2.16 1.16a4.56 4.56 0 01-2.37 3c-3.87 2.3-8.54 2.5-12.39 5.38v-2.42c0-.65.49-1.43.08-2.15-2.3-.1-3.44 1.27-3.27 4.42.07 1.32-.27 1.71-1.45 2.12-1.89.66-3.57 1.7-4.03 4.09zM160.36 342.73l.66-.38c-.74-2.05-1.4-4.13-2.23-6.14-2.9-7-6-14-6.56-21.68-.13-1.79-1.74-2.41-3.31-1.41a3.41 3.41 0 01-1 .54c-2.21.46-2.06 1.75-1.35 3.42a141.21 141.21 0 009.62 19.6c1.32 2.07 2.81 4.04 4.17 6.05zm185.14-29.86a11 11 0 001.58-.15c3.27-.67 3.79-1.69 2.29-4.69a20.68 20.68 0 01-1.46-4.15c-.14-.55-.13-1.3-1-1.23-2.74.23-5.41-.43-8.12-.6-.8-.05-1.13.31-1.31 1.11a8.09 8.09 0 008.02 9.71zm5.59 10.58a9.62 9.62 0 003.18-1.11c2.19-1 2.36-1.87 1.13-3.94a16.51 16.51 0 01-2-4.13c-.44-1.75-1.47-1.84-2.78-1.53a29 29 0 01-6.91 1.23c-.93 0-1.27.47-1.22 1.39.14 3.82 4.51 8.13 8.6 8.09zm22.15-125c-1.88-3.84-4.92-5.84-8.21-7.46-4.64-2.28-9.46-3.23-14.5-1.27-3.38 1.32-5.93 4.93-5.52 7.76.07 0 .17.08.2 0 1-.66 1.93-1.31 2.85-2 4.95-3.82 10.2-4.07 15.66-1.26 1.27.66 2.34 1.75 3.63 2.36 1.75.89 3.29 2.56 5.89 1.91zM334.55 313.3c3.16 0 3.69-.64 3.1-3.75-.25-1.3-.64-2.58-.89-3.88-.35-1.82-.72-3.38-3.27-2.89a8.14 8.14 0 01-3.46-.54c-2.13-.63-2.83.55-3.13 2.29a7.61 7.61 0 007.65 8.77zm-118.46 82.61a1.11 1.11 0 00-.51-1.25 44.18 44.18 0 00-12.15-7.23c-3.93-1.6-8-2.42-12.28-.85a7.57 7.57 0 00-4.74 8.65 3.22 3.22 0 00.58 1.19c.41.49.83 1.05 1.62 1s.95-.9 1.06-1.48c.34-1.66.53-3.35.81-5s1.15-2.59 3.12-2.69c5.84-.29 10.73 2.09 15.43 5.1 2.19 1.37 4.41 2.54 7.06 2.56zm172.44-109.54c1.08-.3 2.35-.16 3.54-.69 2.9-1.28 3.59-3.52 1.68-6a5.81 5.81 0 00-5-2.67 31.78 31.78 0 00-5.26.65c-1.69.36-2.25 1.46-1.88 3.14a7.18 7.18 0 006.92 5.57zM142.84 162.68c-2-.47-3-.13-4.3 1.8-1.8 2.72-4.07 4.11-7.46 3.37a9.41 9.41 0 00-3.29.15 40.51 40.51 0 00-13.68 4.75c-1.27.7-2.75 1.31-3.45 3.27 2.4-.87 4.51-1.49 6.5-2.39 1.43-.65 2.39-.9 3.44.68 1.27 1.92 3.19 2.28 5.43 1.4a3.53 3.53 0 00-1.47-2c-.58-.43-1.49-.64-1.26-1.57s1.19-.81 1.86-.91c4.15-.59 8.27-1.5 12.5-1.26 1 .05 2.4.29 2-1.42-.35-1.51.4-2.34 1.3-3.27.7-.73 1.66-1.28 1.88-2.6zm74 239.94A8.83 8.83 0 00209 409c-.56 2.24.15 3.66 2.29 4.19 1.36.33 2.53-.4 3.59-1.17 2.35-1.72 4.59-3.56 7.65-4 1.64-.21 1.07-1.4.55-2.15a6.94 6.94 0 00-6.25-3.25zm104.66-87.76c.09 7.12 4.27 10.89 11.08 10.41 2.1-.15 2.29-.51 1.4-2.46-1-2.17-2.85-4-2.72-6.61 0-.68-.53-.82-1.06-.87-2.84-.26-5.7.08-8.7-.47zm59.25-22.1a7.21 7.21 0 006.38-2.84c.55-.72 1.05-1.62 0-2-2.27-.76-3.45-2.68-5.1-4.1-.79-.69-1.53-1.77-2.79-.94a23 23 0 01-3.39 1.56c-2.72 1.19-3.16 3.45-1.16 5.63a8 8 0 006.06 2.69zm-16.51-27.43c-2 1.72-3.8 3.2-5.48 4.84-2 1.93-1.88 3.11.13 5 2.37 2.22 7.52 2.34 10.08.33a1.57 1.57 0 00.42-2c-1.01-3.32-2.46-6.41-5.15-8.17zm-1.87 14.28c-1.22 2-3.3 2.57-5.15 3.51-1.15.58-1.59 1.21-1.09 2.6 1.16 3.24 3.75 4.41 6.79 4.74a6.23 6.23 0 005.79-2.54c1-1.31 1.24-2.47-.51-3.44a12.75 12.75 0 01-1.8-1.6c-1.32-1.1-2.21-2.75-4.03-3.27zm-44.74 69.55c-5 3.27-3.84 10.68 1.74 13 2.19.91 3.28.27 3.71-2.05.28-1.52.59-3 .94-4.55a2 2 0 00-.49-2 15.42 15.42 0 00-5.9-4.4zM342.21 370c-.37-2.4-2-2.78-4-2.58-3.2.31-3.21.27-4.41 4.45-.89 3.08.78 4.95 3.91 4.32a4.84 4.84 0 003-1.69 3.6 3.6 0 013.2-1.73 5.59 5.59 0 004-1.52c1.83-1.61 1.45-3.29-.81-4.11-2.72-1-3.45 1.37-4.89 2.86zm29.5-151.45a3.68 3.68 0 00.66 4.45 102.9 102.9 0 0010.07 9.52c3.85 3.1 8.25 5.61 10.17 10.55a1.33 1.33 0 00.23.38 1.94 1.94 0 002.9.54 26.11 26.11 0 00-2.84-5.6 48.07 48.07 0 00-8.71-9.2c-4.19-3.43-8.63-6.45-12.48-10.66zm-17.65 84c3.78-.06 3.89-.22 2.87-3.93a14.33 14.33 0 01-.58-3.23c-.05-1.3-.56-1.91-1.86-1.84a14.14 14.14 0 01-5.63-.94c-1.15-.43-1.6 0-2.07.89a4.65 4.65 0 00-.34 4c1.31 3.5 3.72 5.07 7.61 5.02zm4.55 28.87a6.08 6.08 0 001.54 0c1.4-.35 3.32-.34 3.85-1.75s-.73-2.85-1.83-4c-.6-.63-1.44-1.08-1.61-2-.43-2.35-1.95-1.89-3.46-1.33s-2.92 1.8-4.68 1.89-1.73 1-1.45 2.27c.71 3.05 3.5 4.85 7.64 4.89zm-139.73 63.66c.42-.92-.18-1.46-.52-2.08a16.11 16.11 0 00-3.37-3.76c-6.25-6-13.93-8-22.33-7.86-.91 0-1.79.2-1.83 1.44a4.31 4.31 0 002.35 1.07c3 .68 6 1.27 9 2.1 5.14 1.43 10.38 2.71 13.55 7.7a2.72 2.72 0 003.15 1.39zM346.1 277.51c1.55 4.42 10 7.28 13.86 2.25a1.58 1.58 0 00.48-1.55 6.46 6.46 0 00-5.17-4.22c-3.57-.26-6.27 1.69-9.17 3.52zm.19 3.39a6.46 6.46 0 00.13 7.36c1.69 2.48 4.14 4.25 7.36 4 3.49-.28 4-1.35 2.54-4.57a7.63 7.63 0 00-2.79-3.31 24.86 24.86 0 00-7.24-3.48zM335.36 291v3a7.48 7.48 0 008.6 7.24c.65-.1 1.12-.25 1.19-1a35.49 35.49 0 000-6.6.87.87 0 00-.58-.85c-2.92-.94-5.83-1.9-9.21-1.79zm30.21-12.62c.43 3.2 2.34 4.8 5.06 5.61a7 7 0 007.45-1.95c2.36-2.49 1.52-4-.93-5-4.15-1.8-7.84-.71-11.58 1.34zm-131.46 98.15a2.14 2.14 0 00-2.14.94c-1.55 2.15-2.29 4.49-1.07 7s2.87 4.62 5.9 5.09c1 .16 1.67.2 1.59-1.24a17.85 17.85 0 011-7.38c.13-.37.27-.83 0-1-1.76-1.23-3.04-3.09-5.28-3.41zm70.36 4.56c-.25-1.18.7-3.3-.68-3.85-1.74-.7-3.06-2-4.78-2.61-1-.36-2.25-.83-3 .29-2.29 3.43.07 9.54 4.08 10.55 3.29.83 4.68.46 4.38-3.27-.02-.3 0-.59 0-1.11zm65.85-31.72c-1.3-1.12-2.93-1.84-4.06-3.19a24.34 24.34 0 00-3-2.95c-1.45-1.22-4.72-1.3-6-.07s-.91 2.73-.19 4.07c2.86 5.29 9.82 6.04 13.25 2.14zm-37.89 20.93c0-1.12.44-2.09-.72-2.57-1.83-.75-3.65-1.5-5.47-2.28-1.45-.62-2.15-.08-2.46 1.39a8.43 8.43 0 006.49 10.09c2.17.47 2.86-.08 2.7-2.33-.11-1.54-.38-3.06-.54-4.3zm-36.06-7.89c-2.59 6 .28 11.8 6.25 13.1.65.14 1.28.41 1.72-.42.34-.65-.33-8.46-.85-9a.44.44 0 00-.18-.12c-2.48-.85-4.55-2.54-6.94-3.56zm66.19-41.57a6.38 6.38 0 004.13-1.26c.45-.42 1-.77.63-1.66-1.79-4.76-6.31-6.88-11.23-5.3-1.7.55-1.9 1.52-1.47 3 .78 2.74 4.83 5.44 7.94 5.22zm-11.75 45.69a8 8 0 003.69-.85c.77-.33 1-.78.44-1.54-1-1.42-2-2.89-3-4.33A6.63 6.63 0 00345 357a2.24 2.24 0 00-2.06 2.83 7.52 7.52 0 007.87 6.7zM240.89 235.62c1.17.7 2.25 1.43 3.41 2a3.87 3.87 0 011.65 1.7 8 8 0 01-1.19 9.43 36.43 36.43 0 00-3.75 5.15 2.33 2.33 0 00.51 3.18c.84.74 1.93 1.37 3 .88 1.25-.57 1-1.94.77-3a2.86 2.86 0 01.95-3.12c3.53-3.47 4.34-10.73 1.74-15-1.78-2.77-4.19-3.26-7.09-1.22zm-96.67 10.77c1.37-3.39 1-6.5.93-9.58 0-.61-.16-1.35-.8-1.44-1.6-.23-2.46-1.52-3.85-2.47-.34 1.56-1.66 1.29-2.68 1.39-1.87.17-2.27 1-2 2.78.87 4.84 4.95 6.57 8.4 9.32zm233.25 47.4c-2.34-.58-2.89-2.69-4.07-4.24-1.3-1.72-2.2-1.83-3.54-.41a6.67 6.67 0 01-3.25 1.79 1.91 1.91 0 00-1.48 2.67c.65 2.55 3.38 4.52 6.36 4.62 3.24.11 4.83-1.02 5.98-4.43zm15.58 4.21c1.7 4.31 1.27 9.15 4.62 13.37a94.64 94.64 0 005-13c.41-1.37-1.12-2.18-2.44-1.39a4.91 4.91 0 01-2.55.48c-1.44.09-2.93-.2-4.63.54zM354 354.09c1.18-.42 2.82-.3 4.06-1.39.56-.48 1.19-1.06.45-1.84-1.43-1.52-2.13-3.52-3.37-5.14-.65-.85-1.58-2-2.71-1.26a9.59 9.59 0 01-3.74 1.1c-1.08.22-2.35.54-2.13 2 .57 4.03 3.26 6.05 7.44 6.53zm-171.77-134.7c-.37-4.18-.59-8.34-.8-12.5-.1-2-2.18-2.52-3.75-3.22-.5-.22-1 .07-1.13.72-.82 4.24-1.19 8.49.73 12.53.91 1.9 2.4 3.14 4.95 2.47zm140.66 148.72c-.34-1.14.28-3-1.24-3.77-1.94-.95-3.63-2.23-5.46-3.31-1.28-.75-2.14-.49-2.69 1-1.38 3.8.44 7.57 4.66 9.42 3.51 1.55 4.72.77 4.73-3.34zm66.33-34.4c6.68-5.95 8.12-24.7 2.58-30.84 1.99 10.53-.66 20.64-2.58 30.84zM341 335.76c.82-.11 2.1.46 2.47-.67s-.46-2-1.3-2.8c-1.07-1.05-2.28-2.15-2.41-3.74-.18-2.25-1.56-2.59-3.34-2.38a28.47 28.47 0 01-4.34.6c-1.77-.08-1.6.68-1.25 1.86 1.38 4.62 4.84 7.09 10.17 7.13zM340 367a4.39 4.39 0 003.47-1.25c.5-.44-2.2-7.23-2.89-7.31-2.05-.22-4.1-.39-6.16-.54-1.3-.1-1.79.59-1.85 1.87-.17 3.94 2.9 7.05 7.43 7.23zm-10.6-31a24 24 0 01-7.26-3.22c-1.95-1.13-2.73-.65-3 1.57a7.59 7.59 0 007.93 8.67c1.25 0 2.27-.43 2.1-1.9a21.14 21.14 0 01.23-5.12zm-72.51-214.49a3.13 3.13 0 002.78.45 31.7 31.7 0 007-1.82 15.7 15.7 0 009.77-9.77c.4-1.16.2-1.91-1.05-2.83-2.52 5.77-6.77 9.26-13.13 10.69.54-1.74.48-3.09-1-3.69a2.16 2.16 0 00-2.74.85c-1.15 1.73.1 2.75 1.48 3.77zm96 181.76c-1 .49-3.4-1.15-3.36 1.81.06 4.12 5.88 8.48 10.13 5.89 1.09-.67 2-1.38.78-2.74a3.77 3.77 0 01-.66-2.48c-.16-2.43-1-3.17-3.4-2.71a16.78 16.78 0 01-3.52.23zm-33 23c.23 5.09 4.26 8 9.12 8.2.86 0 1.25-.32 1.13-1.53a11.44 11.44 0 00-5.63-8.92c-1-.66-2.27-1.92-3.54-1.23s-.68 2.38-1.1 3.43zM364 302.31c-1 .06-1.92.08-2.87.17s-1.27.53-1.12 1.5c.48 3 2.45 4.72 5.05 5.84A6.34 6.34 0 00372 309a1.87 1.87 0 00.14-3.16c-2.31-2.26-4.81-3.76-8.14-3.53zM352.13 343c-.4-.73-.7-1.39-1.09-2-2.47-3.82-4.87-5.72-9-4.51-1.77.52-2.16 1.52-1.79 3.11 1.29 5.54 6.92 7.23 11.88 3.4zm-19 23c-.69-2.75-1-5.59-2.08-8.25a6.21 6.21 0 00-2.41-3.06c-1-.6-2.2-1.5-3.3-.06-1.68 2.17-1.52 5.88.35 8.69a7.32 7.32 0 007.43 2.73zm30-64.3c1.67-.1 3.2-.51 4-1.8s-.63-2.21-1.15-3.24a10.25 10.25 0 00-5.93-5.58c-1-.33-1.95-.32-2.46.76-1.14 2.36-.56 4.6.67 6.73a5.85 5.85 0 004.9 3.18zm-49.69 72.74a9.51 9.51 0 001.19 5 5 5 0 005.61 2.41c2.29-.73 1.25-2.59 1.21-4.09a.81.81 0 010-.22c1-3.7-1.46-4.75-4.19-5.89-3.48-1.39-3.79-1.27-3.79 2.84zm62.79-31.24a5.56 5.56 0 00-1.2-3.28 1.2 1.2 0 00-1.91-.35c-1.77 1.69-3.94 1.84-6.19 1.79-2 0-2.22.87-1.58 2.53 1 2.58 5.95 5.07 8.69 4.3a1.4 1.4 0 001-.75 12.5 12.5 0 001.22-4.19zm-8.88-2.65c.7-.1 1.35-.18 2-.31a6.89 6.89 0 001.28-.34c1.74-.67 1.86-1.3.5-2.66-1-1-2.22-1.66-3.18-2.71-1.87-2-3.92-3.47-7-2.55-1.41.41-1.87.79-1.52 2.18a8.25 8.25 0 007.95 6.44zm2.91-11.36c2.48 0 3.39-1.17 2.63-3.5a18.76 18.76 0 01-.64-1.87c-1-4.64-1-4.64-5.75-3l-.21.09c-4.26 1.49-4.46 2-1.66 5.34a7.51 7.51 0 005.66 2.99zm-212.61 41.32a83.13 83.13 0 0122.72 10.71 11.61 11.61 0 00-2-3.94c-4.68-5.06-10.57-7.56-17.31-8.3a3.16 3.16 0 00-3.41 1.53zm101.93-170.64c-6.88-4.47-22-5.66-27.85-.39 9.33-2.04 18.56.68 27.85.39zm13.82 6.48c-.07-1.69.22-3.29-1.83-3.69-1.89-.36-2.54 1-3.16 2.31a12.06 12.06 0 00-.54 9.6c.43 1.17 1 2.26 2.34 2.26s1.76-1.2 2.14-2.25c1-2.74.53-5.67 1.05-8.23zM204 372.87c0 2.57 2 6.47 4 7.75 1.15.75 1.83.48 1.77-1a11.88 11.88 0 011.34-5.28c.45-1.08 1.89-2.14.51-3.48-1-1-1.43-2.45-2.72-3.11-1.51-.77-2.75-.65-3.62 1.09a22.54 22.54 0 00-1.28 4.03zm41.79 19.18c.56-.41 2.28 0 1.35-1.91-.17-.35 0-.87 0-1.31-.25-2.49-.58-5-2.06-7.1-.84-1.18-2-2.42-3.63-1a6.82 6.82 0 00-1.63 7.1 6.07 6.07 0 006.01 4.22zM357.73 342c.93-.36 2.49.11 3.15-1.19s-.46-2.19-1-3.2a4.15 4.15 0 00-1-1.44c-1.08-.8-.16-3-2.27-3.06-1.54 0-2.85.65-4.25 1.05a18.83 18.83 0 01-1.86.67c-1.07.19-1 .8-.82 1.62.82 3.06 4.22 5.55 8.05 5.55zM210.86 201.35a4.61 4.61 0 00-3.27-3.92c-6.24-2.06-12.18-1-17.87 2a2.46 2.46 0 00-1.5 2c7.52-1.33 14.86-2.05 22.64-.08zm19.88 152.53c-.06 1.19-.21 2.44-.15 3.68.2 4 2.12 6.62 5.37 7.43 2 .51 2.78 0 2.79-2.07a12.15 12.15 0 00-1-4.94c-1.38-3.14-4.17-4.77-7.01-4.1zm56.88 13.78c-.27-1 .47-2.57-1.6-2.71-2.95-.21-6.55 3-6.53 5.91 0 2.06 1.45 4.49 3.21 5.08 1 .34 2.41 1 3-.6.9-2.46 1.89-4.93 1.92-7.68zM219 360.33a7.6 7.6 0 002.46 5.89 2.58 2.58 0 001.53.8c1.31.05 4.79-5.95 4.18-7.14a1.24 1.24 0 00-.1-.2c-.7-1-1.36-2.07-2.12-3.05a3.75 3.75 0 00-3.38-1.69c-1.23.19-1.7 1.44-2.07 2.59a8.14 8.14 0 00-.5 2.8zM288.48 384a10.87 10.87 0 00-.76-4.52c-.38-1.27-1.12-1.9-2.67-1.3a6.82 6.82 0 00-4.37 6.88 3 3 0 001.61 2.67c4.25 2.56 5.93 1.69 6.17-3.27 0-.06 0-.13.02-.46zm-140.85-17.43c3-1.9 6.07-3.17 8-6.06.53-.8.81-1.54-.21-2a33 33 0 00-7.23-2.64c-1-.18-2.33-.18-2.17 1.38.29 3.04.1 6.16 1.61 9.32zm47.18-11c-.41 1.52.29 3.15.42 4.83s1 1.84 2.27 1.05a10.32 10.32 0 004.93-7.15c.55-3.06-1.42-4.9-4.37-4-2.74.84-3.06 1.37-3.25 5.29zm171.68-166.09c8.63 4.87 17.55 9.39 25.24 15.87a8.59 8.59 0 00-3.57-5.68c-2.51-1.72-5-3.43-7.58-5.08-3.6-2.34-7-5.12-11.3-6.12-.94-.22-2.01-.86-2.79 1.01zM226.13 366.55c0 3.23 2.08 6.54 4.62 7.36 1.1.36 2 .46 2.11-1.17.16-2 .6-3.91.85-5.88.14-1.05-3.06-5.14-4.06-5.27a1.75 1.75 0 00-1.54.69c-1.01 1.32-2.2 2.61-1.98 4.27zm-90.95-113c.12-3.22 1.17-6 1.9-8.7-1-.76-2.27-.1-2.69-1.33-.53-1.58-1.46-2-3-1.17a2.35 2.35 0 01-1.3.15c-2.15-.2-2.88.62-2.29 2.77 1.06 3.73 3.56 6.3 7.38 8.23zm22.16 95.14c-3.32-7.88-6.16-16-13.21-21.92a5 5 0 00.5 4.86c3 5 6.16 10 9.22 15a4.43 4.43 0 003.49 2.01zm157.19-59.7c7.7 1.9 17.79-1.6 20.56-7.13-2.23-.44-4.08.51-5.88 1.38a25.64 25.64 0 01-8.14 2.44c-2.42.26-5 .56-6.54 3.26zM171.61 398.24c.66-.08 1.45-.15 2.24-.28 1.27-.2 2.54-.43 2.76-2s-.2-3.57-1.57-4.36c-2-1.14-4.33-.59-6.39.31a5.69 5.69 0 00-3.17 4.26c-.17.73.14 1.19 1 1.44a28.3 28.3 0 005.13.63zM240.37 368c.17-.94 0-1.5-1.15-1.67a4.52 4.52 0 00-3.33.65c-1.5 1-2.5 4.26-2 6.18.74 2.81 2.65 4.64 5 4.87 1.51.14 2.35-.35 1.84-2a18.88 18.88 0 01-.36-8.03zm-37.28-10.88a6.66 6.66 0 00.64 3 2.66 2.66 0 004.46 1.27 7.72 7.72 0 002.6-5.4c.1-.8.81-1.63 0-2.48a6.7 6.7 0 00-5.33-2.11c-1.73.14-1.39 2.12-1.85 3.34a14.1 14.1 0 00-.52 2.34zm-5.31 8.47a7 7 0 002 4.71c1.82 1.64 3.15 1.35 4.17-.87.36-.79.85-1.52 1.27-2.29a3.42 3.42 0 00.6-1.85c-.12-1.89-3.19-5.6-4.63-5.54s-3.41 3.1-3.41 5.8zm107.64-10.14c-1.61 5.34-.3 8.75 2.73 11.4a2.72 2.72 0 002.61.84c1-.3 1.09-1.29 1.17-2.16.14-1.61.24-3.22.32-4.84 0-.56.24-1.39-.33-1.64-2.24-1.05-3.86-3.14-6.5-3.64zm-27.26-217.63a7.9 7.9 0 00-4-3.43c-3.26-1.62-6.77-2.88-8.83-6.24a14.25 14.25 0 00-2.39-2.87 5 5 0 00-3.54-1.57 1.54 1.54 0 00-1.48.8c-.33.59.18.93.47 1.34 3.23 4.67 7.78 7.76 12.78 10.11 2.05.97 4.22 2.09 6.99 1.86zM194 349.19c-2.86-.39-4.72 1.23-6.22 3.32a7.27 7.27 0 00-.76 6.78c.38 1.18 1.31 1 2.2.76 4.18-1.05 6.26-5.71 4.78-10.86zm28.22 25.64c0 3.13 2.16 5.92 4.71 6.53a1.86 1.86 0 002.47-1.14c1.85-4 1.86-4.16-1.32-7.23-.21-.21-.42-.42-.64-.61-1-.82-1.58-2.35-3.2-1.93s-1.34 2.24-1.9 3.43a2.19 2.19 0 00-.09.95zm-44.39 10.89c-4.62-7.91-15.56-13-22.44-12.38 1.08 2.27 3.22 3.1 5.26 3.62a26 26 0 0112.2 6.64c1.24 1.17 2.72 2.48 5.01 2.12zM270 101.08c0-2.33-1.37-2.94-2.89-2.93a11.72 11.72 0 00-6.11 1.57 25.52 25.52 0 00-8.37 7.9c-.89 1.38-2.23 2.85-1.65 5.31 5.66-5.57 10.36-12.04 19.02-11.85zm-27.55 292.13c-7.43-1.68-14-5.9-21.83-4 3.77 3.79 18 6.59 21.83 4zM239.53 266c-2.07-.17-2.09-.16-3-3.12-.26-.9-.62-1.87-1.55-1.92s-1.57.94-1.91 1.85c-.82 2.12.76 5.32 3.21 6.61a5.22 5.22 0 006.26-.84c1.7-1.79-1.43-3.27-.27-5 .1-.15-.63-.48-1.08-.57-.72-.14-1.42-.38-2.14-.51s-1.65-.86-2.08.28a2 2 0 001.08 2.4c.45.22 1.09.05 1.48.82zm-42.91 78.9c3.75-3.16 3.81-9-.19-14.76-2.27-3.25-4.49-7.22-9.41-7.35 2.71 3.16 5.57 6.06 7.54 9.76s1.85 7.89 2.06 12.34zm160.81 17.92c1.89.05 4.51-1.5 4.53-2.68 0-1.34-2.64-6-3.47-6.11-1.9-.17-6.26 2.21-6.31 3.44-.09 2.44 2.67 5.26 5.25 5.34zm-16-128.24l-1.43-1.65c-3.34-3.83-3.34-8.49 0-12.17.66-.73 1.78-1.49.66-2.56s-2-.11-2.87.6c-4 3.35-4.32 9.8-2.35 14 1.35 2.95 4 3.66 6.01 1.77zm-29 139.31c-.31-1.05.67-2.85-.71-3.8a14.31 14.31 0 00-5.35-1.89c-.66-.13-1.05.12-1.24.87-.6 2.33 1 7 3 8.31 1 .66 2.29 1.37 3.5.89s.6-1.93.77-2.94a9.27 9.27 0 00.05-1.45zm55.49-207.2c9.91 4.07 15.8 12.17 22.83 19.19a2.46 2.46 0 00-.41-2.64c-4.32-8-10.93-13.39-19.06-17.11-.82-.4-1.67-.46-3.34.55zM165.43 354.62a10.24 10.24 0 00.47 2.89c.17 1.05.8 1.2 1.77 1a8 8 0 005.71-8.35c-.27-1.83-1.24-2.29-2.89-1.93a6.4 6.4 0 00-5.06 6.39zm11.6 5.49c4.93-1.51 7.17-6.1 4.86-9.93-1.06-1.75-1.93-1.92-3.53-.69a7.5 7.5 0 00-1.36 10.62zm-1 .82a8.16 8.16 0 00-2.29-4.89 1.41 1.41 0 00-1.61-.36c-2.57 1-4.85 6.71-3.36 9 .66 1 1.27 2.75 3.12 2.16s4.18-3.96 4.17-5.91zm163.26-89.6a7.32 7.32 0 00-4.7-.16c-3.81 1-7.62 1.55-11.52.31a7.9 7.9 0 00-3.07-.07c-.83.09-1.79.21-2 1.6a29.47 29.47 0 0014.81 1.76c2.57-.37 4.92-1 6.51-3.44zM274 370.69c-3.29-.06-5.09 2.17-5.59 4.87-.39 2.1 2.21 5.09 4.52 5.56 1.23.25 2.08.07 2-1.43a19.37 19.37 0 011.07-6.49c.63-2.32.42-2.53-2-2.51zM218 377c-.28-1.24-1.88-2.25-3.66-3.16a1.57 1.57 0 00-2.25.57c-3.24 4.05-.4 8.77 3.32 10.1.69.25 1.37.21 1.5-.72.28-2.02 1.09-3.87 1.09-6.79zm42.27-91.12c-2.6-.09-4.48 1.87-4 4a8 8 0 005 5.66c1.71.74 2.81-.36 3.83-1.62s.14-2.11-.71-2.92c-1.31-1.23-2.84-2.25-2.89-4.36.06-.64-.64-.87-1.22-.81zm-44.61 78.82a8.63 8.63 0 00-3-5.78 1.37 1.37 0 00-2.12.11c-2.64 2.79-1.63 9.38 1.76 11.27.65.36 1.46.73 1.86-.26a15.76 15.76 0 001.51-5.39zM319.72 342c-1.31 3.25-.29 7.18 2.29 8.86 1 .63 2.1 1.24 3.27.68 1-.48.83-1.62.91-2.55a16.44 16.44 0 01.22-3.5 1.26 1.26 0 00-.94-1.72c-1.93-.35-3.6-1.56-5.75-1.77zm-64.28-61.27a3.55 3.55 0 001.35 3.12c.85.63 2.17 1.06 2.62-.14.81-2.11 2.42-3.67 3.4-5.63.5-1 1.42-2.16.09-3.1s-2.68-1.83-4.34-.5a7.82 7.82 0 00-3.12 6.29zm49.65 101.67c.4 1 0 3.33 2.06 3.42a11.34 11.34 0 006.54-1.67c1.68-1.06 1.52-1.84.06-3.21s-3.27-1.61-5.06-2c-2.69-.56-3.63.2-3.6 3.46zm-35.78-103.54a6.38 6.38 0 00-2.86.55c-2.56 1.09-3.82 2.92-3.37 5 .28 1.33.84 2.27 2.41 1.24a11.86 11.86 0 016.68-1.83c1.17 0 1.54-.6 1.57-1.64.06-2.18-1.45-3.32-4.43-3.32zm135-69.46c.08-.59.19-.83.12-1a42.94 42.94 0 00-9.62-14.58 18.13 18.13 0 00-4.95-3.55c-.71-.34-1.48-.55-1.95.27s0 1.37.73 1.78c4 2.17 6.5 5.81 9.09 9.39 1.91 2.64 3.57 5.55 6.58 7.69zm-163.55 70.66a23.55 23.55 0 005.27-6c3.54-5.28 6.15-11.45 12.72-14a1.11 1.11 0 00.38-.22c.59-.68 1.24-1.52.58-2.33s-1.28-.07-1.92.35a38.59 38.59 0 00-10.73 10.23c-2.6 3.69-5.18 7.4-6.3 11.97zm-66.9 68.42c.18.54-.44 1.8.61 2.26s2-.18 2.8-.89a12.87 12.87 0 014.45-2.79c1.23-.38 1.25-1 .77-2a6 6 0 00-4.88-3.39c-1.93-.17-2.54 1.93-3.2 3.46a5.9 5.9 0 00-.55 3.35zm26.73 24.17c-1.48-.81-1.9-2.29-2.83-3.37-.67-.78-1.37-1.61-2.58-.75-3 2.12-2.94 8.15.15 10 .72.43 2.13 1.08 2.34-.27.33-2.17 1.91-3.57 2.92-5.61zM349.07 376a7 7 0 005.91-1.64c3.21-2.58 5.15-6.18 7.29-9.59a1.49 1.49 0 00-.21-2.17c-.9-.59-1.37.15-1.92.84a31.6 31.6 0 01-6.29 6.63 16.79 16.79 0 00-4.78 5.93zm-55.5 7.13a4.82 4.82 0 00-3.31.77 3.24 3.24 0 00-1.41 3.06c.14 1.32 1.15 1.75 2.24 2a10.72 10.72 0 006.86-.6c1.3-.54 1.37-1.46.65-2.45-1.27-1.69-2.9-2.91-5.03-2.77zm82.91-152.83c-.37 2.32.25 3.47 2.8 5.15a77.93 77.93 0 018.53 6.12 3.73 3.73 0 003.59 1.11c-3.88-5.68-8.08-10.54-14.92-12.38zM218.4 374.81c1.28.12 1.91-.09 2.27-.9.51-1.15 1.14-2.24 1.6-3.39.64-1.61-2.61-5.57-4.33-5.33a1.85 1.85 0 00-1.21.9 7 7 0 00-1 6.11 3.46 3.46 0 002.67 2.61zM263.65 123c.55 4.53 11.61 13.32 16.64 11.87a9.66 9.66 0 00-3.52-3.21c-3.48-1.5-6.55-3.42-8.66-6.81a3.87 3.87 0 00-4.46-1.85zm-18.36 159.78c4.83-8.1 10.44-15.1 17.67-20.71-6.12.35-19.96 14.78-17.67 20.71zm134.23 14.7a3.3 3.3 0 00-3.13.21c-1.6.72-2.87 2.06-4.63 2.44-1 .22-1.81.57-1.83 1.78a3.71 3.71 0 002.19 3.54c.89.45 2 1.2 3 0 1.98-2.3 3.88-4.69 4.4-7.97zm-22.14-136.91c6.74 2.55 13.89 1.32 20.8 2.29-6.44-4.96-13.71-2.94-20.8-2.29zM263.79 134c3.21 7.24 10.56 7 16.36 9.44a7.12 7.12 0 00-3.41-3.95c-3.36-2-7.53-2.61-10.34-5.72-.48-.53-1.5-.43-2.61.23zm40.52 226.28c0-4.78-.48-5.24-4-3.9-1.65.63-3.69 1.37-3.86 3.2s1.91 2.68 3.46 3.46c4 2 4.4 1.74 4.37-2.54zm-124.5 7.44a21.65 21.65 0 005.84-5.05c.93-1.05.44-4.56-.56-5.54-.49-.48-.93-.27-1.4-.07-3.54 1.57-6.36 7.11-3.88 10.67zm88.74 34.77c-6.73-1.24-12.43-4.77-19.58-5.61 6.31 5.86 14.93 8.35 19.58 5.62zm60.08-110.73c-2.85-.74-15.49 3.63-16.5 5.61 5.66.51 15.01-.95 16.5-5.6zm-163.1 58.51c0-2.18-1.39-3.65-2.88-3-2.11.9-4.89 5.32-4.79 7.51 0 1 .42 1.46 1.46 1.48a6.28 6.28 0 006.21-5.98zm77.41-105.77c1.45-.15 3.1-.06 3.26-2.14.21-2.69-3.35-5.46-5.93-4.64a3.48 3.48 0 00-2.57 3.41c-.19 1.87 1.05 2.24 2.21 2.77a7.08 7.08 0 003.03.61zm100.33 36.34c-2.25 2.28-4.74 3.86-5 7.22-.08 1.13-.06 2 1.2 2.08 1.85.13 3.73 1.62 5.56-.06a.29.29 0 00.06-.21c-.24-2.87-.09-5.93-1.82-9.02zm-176.11 84.73a10.67 10.67 0 00-2.66-8.28 2.76 2.76 0 00-2-.92c-1.71-.16-3.5 1.22-3.17 2.47.84 3.09 3.44 6.77 7.83 6.73zm50-4.27c.86-2.41 1.71-4.82 2.59-7.22.15-.42.44-.88.07-1.23a5.17 5.17 0 00-4.1-1.12 2.73 2.73 0 00-2.74 1.8c-.83 2.56 1.44 6.84 4.18 7.77zm62.57 27.41a10.47 10.47 0 00-7.07-6.45c-1.62-.32-2.18.31-2.05 1.85.39 4.72 4.77 7.01 9.12 4.6zm5.33-263.18a28.94 28.94 0 00-3-15 2.52 2.52 0 00-3.58-1.37c1.93 5.59 3.08 11.43 6.58 16.37zm35.72 155c.37.14.57.3.76.29 4.77-.34 9.56-.66 14.15-2.18a3.48 3.48 0 002.54-2.44c-2.23-1.2-15.72 2.09-17.45 4.28zm5.91 34c1.52.3 1.86-.59 1.49-1.67a20.15 20.15 0 00-1.79-3.75c-1.67-2.84-3.7-2.93-5.8-.32-1.2 1.48-1 2.85.57 3.94s3.65 1.41 5.53 1.77zm-104.9 72.42c2 .06 3.1-1.06 3.19-3.28s-1.86-4.79-3.67-4.82c-1.42 0-3 2.19-3.07 4.2-.05 2.64 1.01 3.8 3.55 3.87zm144-75a4.13 4.13 0 00.4 3.26 4.48 4.48 0 004.56 2.8c1.88 0 1.63-1.94 2-3.19a11.29 11.29 0 00.41-2.59c.1-1.65-.66-2.18-2.14-1.38a10.57 10.57 0 01-5.24 1.09zm-124.56 45.57a1 1 0 00-.8.49 6.64 6.64 0 00-.05 6.48.88.88 0 001.27.41 14.63 14.63 0 005.95-4.28c.49-.63.73-1.46-.31-1.74-1.89-.52-3.84-.88-6.06-1.36zm28.6-60.68a5.9 5.9 0 004.93-3.16 2.48 2.48 0 00-.63-2.82c-.3-.36-.69-.92-1.27-.39-1.23 1.1-2.61.7-4 .53-.75-.09-1.82-.42-2.13.57a4.43 4.43 0 00.3 3.83 2.72 2.72 0 002.8 1.44zm9.83 87c.56-1 .14-2.08.89-2.86 1.31-1.35 1.61-2.69.3-4.38-.91-1.16-1.51-2.9-3.09-2.78-1.8.14-1.73 2.19-2.11 3.5-.95 3.28.79 5.99 4.01 6.5zM314 350.06c-.18-1.37-.69-2.27-2.3-1.55-1.86.82-3.79 2.08-4.07 4s1.58 3.11 3.19 4.08l.2.1c1 .64 1.65.49 1.88-.74.38-1.95.74-3.95 1.1-5.89zm-45-72.67v-.05h2.2c1.56.06 1.85-.85 1.67-2.13a4.37 4.37 0 00-5-3.24c-1.62.48-3.1 2.54-2.77 4 .41 1.93 2.06 1.15 3.24 1.36a3.64 3.64 0 00.66.06zm52.58 23.23c-4.94 1.12-10 .89-14.25 4.56 4.33 1.19 13.67-.93 14.22-4.56zm-42.86-170.45a25.43 25.43 0 00-8-8.34c-.76-.42-1.65-1.19-2.43-.54-.94.79-.11 1.88.31 2.59 2.08 3.56 5.47 5.38 9.31 6.46.23.07.52-.1.81-.17zm88.34 201a5.59 5.59 0 004.08 5c1.33.44 2.54.23 3-1.31a4.61 4.61 0 00-.53-4.6 1 1 0 00-.83-.15c-1.78.28-3.69.65-5.72 1.04zm-188.52 41.52c.82-2.87.06-5.26-1.1-7.58-.34-.7-1.28-1.43-1.7-1.06-1.18 1-2.6 2-3.11 3.56-.41 1.28.68 2.08 1.53 2.68a13.8 13.8 0 004.38 2.4zm101.61 19.64a26.43 26.43 0 014 1.68 10 10 0 003.92 1.83c.66.1 1.3.45 1.75-.29a2.17 2.17 0 00-.15-2.24c-1.37-3-3.9-3.19-6.65-3.09a2.92 2.92 0 00-2.87 2.11zm-105.09-50.91a5.71 5.71 0 00-8.23 4.05c-.11.85-.3 1.83 1.13 1.87 2.62.07 6.44-3.01 7.1-5.92zm-3.66 49.12a16.28 16.28 0 003.93-.5c1.57-.39 1.56-1.07.65-2.14a6.05 6.05 0 00-8-.65 2.19 2.19 0 00-1 2.06c.18.84 1.15.83 1.81 1a15.19 15.19 0 002.61.23zm29.6-16.3c-.81 1.34-1.87 2.17-2.35 3.44-.35.92-.43 1.7.43 2.36a9.13 9.13 0 004.35 1.93c1.76.24 2.33-.62 1.9-2.18a9.58 9.58 0 00-4.33-5.55zM78 180.12c2.21-.76 4.42-1.49 6.6-2.27.66-.24 1.4-1.11.77-1.41-2.09-1-3.18-3.14-5.08-4.17-1.19 1.14.46 2.13 0 3.13-1.63.46-3.73-.62-4.67 1.75.83.47 1.82.39 2.53 1.13.11.51-.73.93-.15 1.84zm242.74 138.73c-.34-1.21-.73-2.54-1.11-3.87s-.82-2.26-2.44-1.61-3.11 2.89-2.38 4.1a11.79 11.79 0 002.65 3.2 2.14 2.14 0 002.19.59c.85-.4 1.03-1.36 1.09-2.41zM192.9 343.28c2.59-5.28.71-13-3.34-13.51 1.9 4.3.7 9.23 3.34 13.51zm36.23 15.37a15.57 15.57 0 00.83-2.92c.72-4.25.42-4.54-3.92-4.12-1.42.14-1.71.83-1.63 2 .16 2.33 1.88 4.22 4.72 5.04zm-43.56-4.84c.62-1.21 1-2.33 2.19-3a2.35 2.35 0 001.21-3 4.42 4.42 0 00-3.67-2.68 1.4 1.4 0 00-1 .31c-1.51 1.61-.83 6.75 1.27 8.37zm88.17-64c3.54.61 5.5-1.41 5.68-5.61 0-.9.05-1.95-.79-2.38s-1.81.24-2.53.88a4.13 4.13 0 00-1.17 1.83 34 34 0 00-1.19 5.28zM329.9 301c.7.21 1.38.46 2.09.64a8.09 8.09 0 002.16.37c1.1 0 2.25-.24 2.52-1.61s-1.28-3.69-2.53-4c-1.68-.44-2.83.42-3.64 1.79a4.47 4.47 0 00-.6 2.81zm-47.43-174.79c-1.19-2.34-2.26-4.44-3.29-6.55a7.44 7.44 0 00-2.93-3.18c-.48-.29-1-.75-1.59-.25s-.3.88-.22 1.4a10.36 10.36 0 003.49 6c1.23 1.13 2.14 2.85 4.54 2.58zm60.45 95.43c-2.54-.43-3.95.55-4.53 2.89-.83 3.37.26 6 2.88 6.88 1-1.53.07-3.17.24-4.74a11.9 11.9 0 011.41-5.03zm-4.41 157.49c-3-.42-9.6 2.58-11.82 5.35 5.11.77 8.65-1.54 11.82-5.35zm45.23-69.4c-3.17 5-3.45 12-.6 13.54.42-4.4 2.41-8.61.6-13.54zm-99 94.86c.44 0 1.2.19 1.63-.43s0-1.47-.43-2a7 7 0 00-6.14-2.7c-1.24 0-1.46.9-.87 2 1.18 2.35 3.23 2.98 5.79 3.13zm53.87-136.3a1.33 1.33 0 001.4.9c2-.13 4-.68 6.09-.13 1.15.3 1.29-1.33 1.3-2.32 0-.7.33-2-.86-1.85-2.91.45-6.07.5-7.95 3.4zm19.45-4.1c-2.55 4.37-7.82 4.94-10.69 8.86 5.83.32 11.52-4.3 10.63-8.86zm-35.9 113.66a18 18 0 00.86 2.3 1.89 1.89 0 002.39 1c1.44-.33 2.73-1 3.15-2.39.3-1.06-1-1.31-1.62-1.81a16 16 0 00-1.91-1c-1.95-1.2-2.89-.68-2.89 1.9zm-67.7-120.12c.07-2.11 1.89-4.23-.57-5.7-2.19-1.32-4.13-.79-5.4 1.16 2.72.4 3 3.75 5.97 4.54zm50.32 54c2.33-.07 4.53.36 6.79-.17a3.79 3.79 0 002.21-1.7c.56-.8.48-1.74-.77-1.58-2 .27-4.16.08-6.1.89a2.78 2.78 0 00-2.13 2.6zm13.61 29.07c-2.72-.07-5.25 2.92-4.72 5.42.24 1.11 1.25 1.19 2.05 1.36.62.14 1.73.36 1.84-.58.23-2 1.29-4 .83-6.16zm-185.18 42.27c5 0 10.73-4.42 10.58-8a52.8 52.8 0 00-10.58 8zm136.73-181.19c.81-.21 2.19-.49 3.49-.95 1.15-.39.82-1.16.22-1.86-1.44-1.69-3.2-1.54-5-.81-1 .39-2.05 1.06-1.87 2.16s1.4 1.58 3.16 1.46zm94 156.86c1.14-2.19 3.86-3.14 4.29-5.95-1 .07-1.7.1-2.42.17a19.08 19.08 0 00-2.39.33c-1.84.42-2.37 1.5-1.64 3.26a4 4 0 002.14 2.19zm-141.58 57a3.21 3.21 0 003.44-2.65 2.86 2.86 0 00-2.67-2.72 2.94 2.94 0 00-2.9 2.81c-.08 1.27.37 2.69 2.11 2.53zm38.07-304.94a2.53 2.53 0 00-2.62-2.64c-1.53-.11-2.4.5-2.36 2.11s.33 3.12 2.13 3.26 2.58-1.09 2.85-2.73zM192.13 377c0-2-1.17-3.55-2.69-3.55a2.43 2.43 0 00-2.56 2.69c.13 1.9 2 2 3.51 2.28 1.09.19 1.92-.2 1.74-1.42zM263 104.59c-2.13-.37-2.47 1.19-2.52 2.67s1.29 1.87 2.46 1.87a2.48 2.48 0 002.58-2.67c.02-1.63-1.05-2.1-2.52-1.87zm-81.06 96.77a3.74 3.74 0 00-3.39-3.1 2.47 2.47 0 00-2.29 2c-.22.89 2.87 3.24 4.16 3.13 1.1-.08 1.49-.97 1.5-2.03zm75.4-84.36a2.32 2.32 0 00-2.47-2.32c-1.38-.07-2.75.34-2.85 2a2.34 2.34 0 002.48 2.52 2.68 2.68 0 002.84-2.2zm12.5-3.86c1.62.24 2-1 2.05-2.31.05-1.64-1.05-2.5-2.61-2.67s-1.95 1-1.93 2.11c.01 1.47.45 2.85 2.49 2.91zm-177.4 62.42c-1.65 0-3.36 1.17-3.19 2.26s1 2.33 2.28 2.2a2.69 2.69 0 002.61-2.72c.06-1.38-.64-1.83-1.7-1.74zm137.7 211.07c-.73-.91-.07-3.13-2.26-3.19a2.42 2.42 0 00-2.47 2.34c-.16 1.13 2 2.41 3.72 2.36.87-.02 1.14-.47 1.01-1.51zm38.63-279.81c1.58-.11 2.82-.6 2.71-2.46-.08-1.53-1.32-1.91-2.5-1.88s-2.44.43-2.27 1.81c.12 1.06.29 2.62 2.06 2.53zm37.61 283.66c-.62-.1-1.11-.22-1.6-.25-2.13-.11-4.62 1.11-4.8 2.34-.14.94.7 1.07 1.23 1.26 1.51.55 4.08-.78 4.9-2.44a7.62 7.62 0 00.27-.91zM267 112.16c.05-1.66-1.19-2-2.36-2-1.49 0-2 1.18-1.93 2.37 0 1 .21 2.1 1.74 2s2.55-.74 2.55-2.37zm101.05 44.16a10.71 10.71 0 006-.09c.58-.17 1.11-.47 1.15-1.16s-.73-.87-1.2-1.06c-1.64-.66-4.46.39-5.92 2.31zM269 172.11a1.79 1.79 0 00.61-.12c1.83-1.17 2.79-3.09 4-4.8a1.13 1.13 0 00-.1-1 .89.89 0 00-1.18-.15c-1.16 1.71-3.25 2.51-4.22 4.34-.4.73-.31 1.62.89 1.73zm116 122.46c.05-.66-.32-.87-.91-1-1.45-.29-2.59.45-3.69 1.14a1.45 1.45 0 00-.6 1.57 2 2 0 001.46 1.23c1.32.42 3.8-1.58 3.74-2.94z"
    fill="#7c7c7c" /><text transform="translate(145.31 62.95)" font-family="JaguarCyrillic-Bold,Jaguar Cyrillic"
    font-weight="700" font-size="58.99" letter-spacing=".2em" fill="#7c7c7c">NO</text><text
    transform="translate(142.01 450.34)" font-size="26.61" font-family="JaguarCyrillic-Bold,Jaguar Cyrillic"
    font-weight="700" fill="#7c7c7c">PH<tspan x="62.83" y="0" letter-spacing="-.04em">OT</tspan>
    <tspan x="123.3" y="0">O</tspan>
  </text>
</svg>