<svg id="prefix__Слой_1" data-name="Слой 1" xmlns="http://www.w3.org/2000/svg" viewBox="0 0 279.68 217.77">
  <defs>
    <style>
      .prefix__cls-1 {
        fill: #1f1e1e
      }

      .prefix__cls-2 {
        fill: #fdfdfd
      }

      .prefix__cls-3 {
        fill: #f46311
      }

      .prefix__cls-4 {
        fill: #ff2e65
      }
    </style>
  </defs>
  <path class="prefix__cls-1"
    d="M104.48 218.82c-20.42-1-44.81-4.65-67-17.28A62.25 62.25 0 0111 171.92c-2.3-5.15-4.64-10.27-7.17-15.33-5.66-11.34-4.64-22.67 2.66-33.09 9.14-13 22.78-19.61 37.18-24.85a147 147 0 0129.08-7c1.65-.24 3.28-.55 4.94-.74s2.64-.68 2.3-2.45-1.74-1.06-2.78-.9c-3 .47-5.92.95-8.86 1.54-2.32.47-3.57-.09-4.44-2.57-1.2-3.46-1.09-7.19-2.73-10.56-.9-1.84 1-2.46 2.44-3 23.27-9 46.06-19.57 69.91-26.52 43.74-12.79 85.7-30.45 128.88-44.8 3.19-1 4.64-.73 6 2.56 5 12 5.12 11.82-7.27 15.76q-60.51 19.23-121 38.59c-1.9.61-4.79.63-3.9 3.88s3.92 1.68 5.42 1.3C184.52 53 227.92 44.65 270.93 34.66c4.17-1 5.82-.29 7 3.94 3.24 11.61 3.44 11.57-8.17 13.68Q212.39 62.71 155 73.13c-5.69 1-11.35 2.2-17.05 3.2-2 .35-2.72 1.27-2.78 3.32-.27 9.46-.32 9.36 9.12 10.42 19.79 2.21 39.18 6 56.93 15.66 10.11 5.49 19 12.35 24.09 23.1 4.55 9.57 4.86 19.58-.83 28.23-7.06 10.74-13.78 21.87-23.07 31.05-15.78 15.6-35.44 23.16-56.59 27.73-11.82 2.55-23.73 3.29-40.34 2.98zm-89-48.21l-1.08-.33.3 1.08c6.06 14.4 17.57 24.12 30.74 30.6 30.7 15.09 63.52 17.22 96.88 11.48 24-4.12 44.62-15 61.27-32.95 1.7-1.83 3.54-3.58 4.63-7-18 9.08-36.53 11.85-55.31 13.16a552.41 552.41 0 01-77.3 0C54.6 185.2 34 181.8 15.51 170.61zm157.06-34.14c-2.38 2.16-5.72 1.26-8.28 2.81-7.33 4.42-14.77 4.17-22.36.34a16.59 16.59 0 00-15.86 0c-7.38 4-14.61 4-21.92.1-4-2.17-8.78-3.12-12.56-1.33-10.24 4.86-20 5.62-29.75-.65-1.82-1.16-6.15.47-5.52-2.08.55-2.27 4.63-.61 7.15-.17a10.27 10.27 0 011.89.64c6.74 2.7 7.83 2.31 10.55-4.37a70.08 70.08 0 002.15-7.15c.85-2.94.24-4.47-3.29-3.69-5 1.13-10.19 1.73-15.13 3.14-15.82 4.51-31.17 9.73-39.95 25.55-1.37 2.48-1.33 4 .18 5.52 3 3.06 5.92 6.23 9.63 8.58 8.77 5.54 18.51 8.34 28.57 10 31.59 5.21 63.36 4.54 95.13 2.31 13-.92 25.82-3.08 37.9-8.26 7.6-3.25 14.39-7.65 18.44-15.32a6.48 6.48 0 00-.38-7.39c-5.42-8.11-13.25-13-21.92-16.72-14.87-6.47-30.7-8.48-46.66-9.91-2.81-.25-3.65.51-2.8 3.3a47.6 47.6 0 005.56 12.23c4.07 6.2 8.94 7.71 15.82 4.8 2.76-1.16 5.33-2.79 8.34-3.26 1.73-.27 3.62-1.23 5.1.98zm-31.65-.69c-10.49-18.69-8.36-37.95-7.78-57 .26-8.48.65-17 1.22-25.43.25-3.7-.81-4.33-4.18-3Q108 58.8 85.78 67c-2.9 1.06-3.62 2.72-3.45 5.64A333.42 333.42 0 0182 115c-.47 7-1.55 13.88-4.78 20.26-.69 1.37-3 2.75-1.61 4.2 1.22 1.27 3.48.33 5.24-.2a18.43 18.43 0 002.78-1.09c8.14-4.12 16.22-4.31 24.38.06 4.18 2.24 8.82 2.7 13 .46a28.64 28.64 0 0119.91-2.91zM271.61 37.5c-.08 0-.88.27-1.69.45-25.92 5.72-51.78 11.49-77.69 17.15-17.62 3.9-35.23 7.56-52.9 11.34-2.82.6-4.69 2.17-3.8 5.24s3 1.9 5.25 1.43c27-5.75 54.35-9.42 81.37-15 17-3.53 34.23-6.24 51.37-9.21 2.67-.46 4-1.36 3.11-4.24-.55-1.74-1-3.5-1.49-5.27-.38-1.53-1.14-2.39-3.53-1.89zM137.29 52.72c-.33 4.61 2.33 3 4.5 2.35Q167 47 192.18 39 229 27.25 265.8 15.54c1.15-.37 3.36-.42 3-2a25.62 25.62 0 00-3.55-8.68c-1.36-1.89-3.73.09-5.48.72q-42.53 15.23-85 30.6c-11 3.94-22 7.78-32.9 11.75-2.31.81-5.08 1.45-4.58 4.79zm74.3 90.2c1-5.53-.74-9.73-3.13-13.69-5-8.32-12.76-13.45-21.26-17.54-12.88-6.2-26.66-9.25-40.76-11C132.7 99 135.78 98.34 135.28 111c-.13 3.28 1.52 4.77 4.82 4.93 4.48.22 9 .53 13.42 1.15 16.74 2.3 33.08 5.81 47.37 15.66 3.96 2.72 6.99 6.37 10.7 10.18zm-194.27 5c7.42-12.38 18.22-18.7 30.31-22.91a144.67 144.67 0 0127.88-6.85c1.91-.26 3.62-.33 3.72-2.94.13-3.65.44-7.29.74-10.93.2-2.38-.66-3.43-3.14-3-16.45 2.95-32.57 6.82-46.47 16.79a37.79 37.79 0 00-11.3 12.46c-2.83 5.06-3.72 10.39-1.74 17.33zm47.95-68.28c5.17-1.68 9.28-3 13.34-4.37 1.31-.46 1.41-1.79 1.12-3-.39-1.64-1.73-1.42-2.81-1.06-3.78 1.29-7.51 2.69-11.26 4.06-1.49.55-1.4 1.7-1 2.88.27.85.77 1.49.61 1.49zM70 85.82l7.49-1.19a2.47 2.47 0 002.35-3.1c-.31-2-1.93-1.45-3.12-1.23-2.74.5-5.44 1.2-8.16 1.8-1.16.25-2.38.44-2.22 2 .22 1.84 1.52 1.95 3.66 1.72z"
    transform="translate(-.16 -1.12)" />
  <path class="prefix__cls-2"
    d="M172.57 136.47c-1.48-2.21-3.37-1.25-5.07-1-3 .47-5.58 2.1-8.34 3.26-6.88 2.91-11.75 1.4-15.82-4.8a47.6 47.6 0 01-5.56-12.23c-.85-2.79 0-3.55 2.8-3.3 16 1.43 31.79 3.44 46.66 9.91 8.67 3.76 16.5 8.61 21.92 16.72a6.48 6.48 0 01.38 7.39c-4 7.67-10.84 12.07-18.44 15.32-12.08 5.18-24.91 7.34-37.9 8.26-31.77 2.23-63.54 2.9-95.13-2.31-10.06-1.65-19.8-4.45-28.57-10-3.71-2.35-6.62-5.52-9.63-8.58-1.51-1.53-1.55-3-.18-5.52 8.78-15.82 24.13-21 40-25.55 4.94-1.41 10.11-2 15.13-3.14 3.53-.78 4.14.75 3.29 3.69a70.08 70.08 0 01-2.15 7.15c-2.72 6.68-3.81 7.07-10.55 4.37a10.27 10.27 0 00-1.89-.64c-2.52-.44-6.6-2.1-7.15.17-.63 2.55 3.7.92 5.52 2.08 9.79 6.27 19.51 5.51 29.75.65 3.78-1.79 8.52-.84 12.56 1.33 7.31 3.92 14.54 3.87 21.92-.1a16.59 16.59 0 0115.86 0c7.59 3.83 15 4.08 22.36-.34 2.51-1.53 5.85-.63 8.23-2.79z"
    transform="translate(-.16 -1.12)" />
  <path class="prefix__cls-3"
    d="M15.52 170.61C34 181.8 54.6 185.2 75.64 186.67a552.41 552.41 0 0077.3 0c18.78-1.31 37.29-4.08 55.31-13.16-1.09 3.4-2.93 5.15-4.63 7-16.65 18-37.28 28.83-61.27 32.95-33.35 5.72-66.18 3.59-96.88-11.46-13.17-6.48-24.68-16.2-30.74-30.6z"
    transform="translate(-.16 -1.12)" />
  <path class="prefix__cls-2"
    d="M140.92 135.78a28.64 28.64 0 00-20 2.95c-4.17 2.24-8.81 1.78-13-.46-8.16-4.37-16.24-4.18-24.38-.06a18.43 18.43 0 01-2.78 1.09c-1.76.53-4 1.47-5.24.2-1.37-1.45.92-2.83 1.61-4.2 3.28-6.38 4.36-13.3 4.87-20.3a333.42 333.42 0 00.37-42.41c-.17-2.92.55-4.58 3.45-5.64Q108 58.8 130.18 50.31c3.37-1.3 4.43-.67 4.18 3-.57 8.47-1 17-1.22 25.43-.58 19.09-2.71 38.35 7.78 57.04zm-21.1-38.95v-7c0-1 0-2.34-1.13-2.45-1.73-.14-1.42 1.46-1.46 2.52-.41 12.91.84 25.52 7.15 37.13.64 1.17 1 3.57 2.8 2.74 2-.93.18-2.64-.39-3.76a62.3 62.3 0 01-6.97-29.18zm-21.47 4.49c-.15-3-.25-6-.47-8.93-.09-1.25.15-3.22-1.48-3.24-1.9 0-1.19 2-1.24 3.15a25.33 25.33 0 00.15 3.48c1.08 11 .24 21.53-6.3 31-.63.9-1.65 2.2-.15 2.9 1.29.6 1.93-.94 2.52-1.88 5.14-8.11 7.73-16.8 6.97-26.48z"
    transform="translate(-.16 -1.12)" />
  <path class="prefix__cls-4"
    d="M271.61 37.5c2.42-.54 3.15.36 3.53 1.86.45 1.77.94 3.53 1.49 5.27.91 2.88-.44 3.78-3.11 4.24-17.14 3-34.34 5.68-51.37 9.21-27 5.61-54.39 9.28-81.37 15-2.22.47-4.39 1.55-5.25-1.43s1-4.64 3.8-5.24C157 62.66 174.61 59 192.23 55.1 218.14 49.44 244 43.67 269.92 38c.81-.23 1.61-.48 1.69-.5zM137.29 52.72c-.5-3.34 2.27-4 4.55-4.81 10.94-4 21.94-7.81 32.9-11.75q42.49-15.3 85-30.6c1.75-.63 4.12-2.61 5.48-.72a25.62 25.62 0 013.55 8.68c.4 1.6-1.81 1.65-3 2Q229 27.3 192.18 39 167 47 141.79 55.07c-2.17.69-4.79 2.26-4.5-2.35z"
    transform="translate(-.16 -1.12)" />
  <path class="prefix__cls-3"
    d="M211.59 142.92c-3.71-3.81-6.74-7.46-10.7-10.2-14.29-9.85-30.63-13.36-47.37-15.66-4.44-.62-8.94-.93-13.42-1.15-3.3-.16-4.95-1.65-4.82-4.93.5-12.64-2.58-12 11.16-10.27 14.1 1.73 27.88 4.78 40.76 11 8.5 4.09 16.24 9.22 21.26 17.54 2.39 3.94 4.18 8.14 3.13 13.67zM17.32 147.87c-2-6.94-1.09-12.27 1.74-17.36a37.79 37.79 0 0111.3-12.46c13.9-10 30-13.84 46.47-16.79 2.48-.45 3.34.6 3.14 3-.3 3.64-.61 7.28-.74 10.93-.1 2.61-1.81 2.68-3.72 2.94A144.67 144.67 0 0047.63 125c-12.09 4.17-22.89 10.49-30.31 22.87z"
    transform="translate(-.16 -1.12)" />
  <path class="prefix__cls-4"
    d="M65.27 79.64c.16 0-.34-.67-.61-1.47-.4-1.18-.49-2.33 1-2.88 3.75-1.37 7.48-2.77 11.26-4.06 1.08-.36 2.42-.58 2.81 1.06.29 1.19.19 2.52-1.12 3-4.06 1.4-8.17 2.71-13.34 4.35zM70 85.82c-2.18.23-3.48.12-3.66-1.69-.16-1.59 1.06-1.78 2.22-2 2.72-.6 5.42-1.3 8.16-1.8 1.19-.22 2.81-.78 3.12 1.23a2.47 2.47 0 01-2.35 3.1z"
    transform="translate(-.16 -1.12)" />
  <path class="prefix__cls-1"
    d="M119.82 96.83a62.3 62.3 0 007 29.22c.57 1.12 2.41 2.83.39 3.76-1.82.83-2.16-1.57-2.8-2.74-6.31-11.61-7.56-24.22-7.15-37.13 0-1.06-.27-2.66 1.46-2.52 1.17.11 1.12 1.45 1.13 2.45q-.03 3.48-.03 6.96zM98.35 101.32c.76 9.63-1.83 18.37-7 26.43-.59.94-1.23 2.48-2.52 1.88-1.5-.7-.48-2 .15-2.9 6.54-9.42 7.38-20 6.3-30.95a25.33 25.33 0 01-.15-3.48c0-1.19-.66-3.16 1.24-3.15 1.63 0 1.39 2 1.48 3.24.25 2.97.35 5.96.5 8.93z"
    transform="translate(-.16 -1.12)" />
</svg>