<svg version="1.0" xmlns="http://www.w3.org/2000/svg" width="1280" height="1280" viewBox="0 0 1280 1280">
  <g fill="#ff2e65">
    <path
      d="M668.4 145.5c-.8 1.9-2.1 3.5-2.9 3.5-1.7 0-2 1.6-.5 2.5 3 1.8-2 4.5-8.3 4.5-2.4 0-5.1.6-6.2 1.3-1.1.7-5.5 2.8-9.7 4.6-4.5 2-7.8 4-7.8 4.8 0 .8.5 3.5 1.2 6 1 4.3 1 4.8-1 6.4-1.2.9-2.2 2.2-2.2 2.7 0 .6-1.2 2-2.6 3.1-2.9 2.3-7.8 2.7-13 1.2-2.7-.8-3.5-.5-5.6 1.8-1.3 1.4-4.5 3.8-7.1 5.3L598 196l2 2c2.4 2.4 2.5 3.2.3 5.9-1.4 1.6-3.6 2.3-10.3 3-12.8 1.4-36.3 8.4-63 18.8-20.9 8.1-62.3 31-77.5 42.8-3.8 3-10.2 7.8-14.1 10.7-16.4 12.1-38.5 32.9-64.9 60.9-8.3 8.8-9.6 9.8-16.5 12.3-20.6 7.7-35 21.9-47.9 47-2.6 5.2-6.9 12.1-9.4 15.4-7.1 9.1-10.4 18.1-13.4 35.7-.6 3.8-5 15.4-6.4 17.2-.6.7-2.2 1.3-3.5 1.3-1.3 0-4.9.7-8.1 1.5-17.6 4.6-33.4-.8-50.4-17.3l-9.6-9.2-3.3 2.7c-8.7 7.4-9.1 8-8 10.9.6 1.5 2.2 4 3.5 5.6 1.4 1.6 2.5 3.3 2.5 3.8 0 1.2-5 5-6.6 5-.7 0-6.1-2.5-12.1-5.5-12.6-6.5-14.2-6.5-23.7-.7-5 3.1-6.8 3.7-11.5 3.7-3.1-.1-7.1-.5-8.8-.9-4.3-1.1-4.2-.1.3 5.8 11.9 15.6 43.8 30.3 73.9 34.2 23.6 3 41.8 2.1 57.6-2.9 11-3.5 19.4-8.4 31.7-18.4 2.9-2.4 9.5-6.4 14.5-9 5-2.5 10.6-5.6 12.3-6.9 5-3.8 11.5-12.9 19-26.3 7.9-14.2 13.9-21.4 17.5-20.9 6.4.9 4.3 14-4.3 26.6-2.9 4.2-8.5 11.6-12.5 16.5-5.9 7-7.2 9.1-6.4 10.5 1.9 3.6 5 5.5 9.8 5.7 2.6.1 5.1.3 5.6.4.4 0 .7 2.4.7 5.1 0 5.4-2.8 12.2-7.3 17.6-6.5 8-9.1 13.1-11.8 23.3-3.7 13.9-3.7 14.9.9 19.3 4.9 4.8 8.4 6 14.8 5.2 4.9-.6 5.3-.4 6.9 2 2.6 4 1.5 12.5-2.9 22.5-3.7 8.4-4.4 13.6-2.5 17.3 1.3 2.4 6.7 4.8 10.8 4.8 4.4 0 6.1 2.3 6.1 8.2 0 4-.7 6.2-3.6 10.9-6.3 10.4-9.3 23.3-6.5 27.8 1.2 1.9 2.3 1 9.8-8.7 3.7-4.8 10.8-13.2 15.8-18.7s10.8-12.3 13-15c2.1-2.8 4.4-5.5 5-6 3-2.7 10-15.6 16.8-30.5 3.3-7.4 9.3-25 11.1-33 4.3-18.4 5.2-44.2 2.6-72.5-1.5-16.5-1.7-22.9-.9-30 .5-5 1.2-13.1 1.6-18 .6-9 .6-9 5.2-14 25.4-27.5 44.6-40.9 71-49.7 13.1-4.4 27.4-4.8 43.9-1.3 6.2 1.4 12.1 2.9 13.2 3.5 3.3 1.7 14.2 4.9 19.3 5.6 2.7.4 6.1 1.7 7.5 2.9 1.5 1.2 4.7 3.4 7.3 4.8 2.7 1.6 5.4 4.2 6.8 6.7 1.2 2.2 3 4.4 3.9 4.9 1 .5 6.3 1.1 11.8 1.3 10.3.5 16.1 2.4 17.2 5.7.4 1.1-1.9 1.3-12.6.9-7.2-.2-12.9-.1-12.8.2.2.3 1.1 2.3 2 4.5 5.5 12.9 7 14.8 17.4 21l6.7 4 .3 5.3c.3 5.7-.6 5.1 10.7 7.2 16 3 17.8 4.8 4.5 4.5l-9-.3-5 4.1c-2.8 2.2-5 4.3-5 4.7 0 .7 16 3.6 27.7 5.1 13.5 1.6 23 5.6 26.8 11 1.1 1.5 4.2 6.1 7 10.1 2.7 4 6.1 8.7 7.5 10.4 1.4 1.7 4.3 5.5 6.5 8.4 6.5 8.6 12.6 15.2 17.7 19.4 3.4 2.8 4.4 4.2 3.6 4.8-2.2 1.3-16.7.9-23-.7-3.3-.9-8.5-1.5-11.6-1.3-5.6.3-5.7.4-5.8 3.3-.1 5.1-.3 5.4-4.5 6.6-3.2 1-3.9 1.6-3.5 3.1.3 1.2-.6 3.2-2.3 5.1-4.1 4.6-7.7 12-6.1 12.5 1.8.6 7.9 6.2 9 8.3 1.5 2.8.2 4.7-4.3 6.2-2.7.9-4.3 2.1-4.5 3.3-.2 1-2.1 3.7-4.2 5.9-4.6 4.9-6 7.5-6 11.3 0 1.6-.9 4.1-2.1 5.6l-2 2.6 2.8 1.1c3.6 1.3 11.3 8.8 11.3 10.9 0 .9-.7 2.5-1.5 3.6-2.1 2.8-1.8 4.4.9 4.4 3.3 0 3.7 1 2.7 6.3-.6 3.6-.4 5.3 1 8.4 1 2.1 1.8 4.8 1.9 6 0 1.9.6 2.3 3.3 2.3 6.5 0 6.5 3.4-.3 14-2.7 4.2-2.9 5-2.5 13l.3 8.5 3.4-.3c2.9-.2 18.4 3.1 19.6 4.2.2.3-.1 2.1-.8 4.1-1.5 4.7-.8 7 1.9 5.5 2.8-1.4 2.8-1.5 3.4 3.6.5 5 3.4 9.7 6.1 10.2 2.5.5 4.8-1.9 12.5-13.2 15.3-22.6 31.3-53.4 36.7-70.6 3.7-11.8 6.9-22.9 8.5-29 3-12.1 5.5-19.3 8.6-25 1.9-3.6 3.9-6.9 4.3-7.4.5-.5 4 1.4 8.2 4.6 13.8 10.5 29.4 16.9 49.8 20.3 5.2.9 9.6 1.8 9.7 1.9.2.1 1.3 2.2 2.6 4.7 7.1 13.5 33.5 20.9 51.5 14.4 8.4-3 9.2-3.1 13.4-.5 2.3 1.4 5.1 2 9.1 2 3.8 0 7.1.7 9.7 2 2.2 1.1 6 2.3 8.5 2.7 2.5.3 4.5.7 4.5.8 0 .2-1.5 2.6-3.2 5.3-1.8 2.8-4.2 6.6-5.3 8.4-2.1 3.4-7.7 6.2-14.7 7.3-6.2 1-4.3 2.5 3 2.5 8 0 15.7-2 22.7-6 3.2-1.8 8.2-3.4 13.9-4.4 8.4-1.5 10.6-2.4 18.2-8 .8-.6 2.7-.5 5.3.4 5.7 1.9 15 .8 20.4-2.3 8.7-5.1 15.9-15 20.2-27.8 1.4-4.1 3.9-9.3 5.6-11.6 4.1-5.8 6.6-11.8 8.3-19.9 5.5-26.5 3.3-38.6-8.1-44l-5.4-2.5.7-4.7c.4-3 0-6.9-1-10.8-2.5-9.7-2.1-14.9 1.7-22.9 3.4-7.2 6.2-16.3 5.3-17.3-.3-.3-2.8 1.6-5.6 4.2s-6.6 5.4-8.4 6.1c-1.8.8-5.3 3.7-7.8 6.6l-4.4 5.1-2.6-3.9c-2-3.1-4.3-4.7-10-7.2-6-2.7-7.9-4.1-10.4-7.9-4.8-7.1-8.9-14.9-12.4-23.2-1.7-4.1-3.5-8.4-4-9.5-.6-1.1-1.7-4-2.5-6.5-3.8-11-18-33.6-24.2-38.6-2.1-1.7-8.8-5.9-14.8-9.3-10.7-6-14.9-9.4-14.2-11.4.6-1.9 10.2-4.8 30.6-9.2 28.3-6.2 38.8-9.2 52.6-15 11.6-4.9 28.4-18.5 53.3-43 9.6-9.3 20.6-19.2 24.5-22 3.9-2.8 7.1-5.5 7.1-6 .1-.6-3.4-1.2-7.7-1.5-9.1-.6-11.2-2.2-10.3-7.8.4-2.8.2-3.2-1.8-3.2-1.2 0-3.5-1.3-5.1-3-3.8-4-8.5-5.5-12.8-4.1-1.9.7-4.2.9-5.1.5-1.1-.4-2.4.1-3.7 1.5-2.8 3-4.3 2.7-9.3-1.9-2.4-2.2-4.7-4-5.1-4-.5 0-1.9-1-3.2-2.2-2.1-1.9-2.4-2-4-.6-1 .9-3.6 2.3-5.7 3.2-2.2.9-6.3 4.1-9.1 7.1-4.5 4.9-5.5 5.5-9.1 5.5-6.2 0-7.9-1.8-7.9-8.4 0-5.8-.3-6.4-2.3-4.4-.9.9-2.1.9-5 0-6-1.8-9.1-1.5-16 1.8-6.6 3.1-9.7 3.7-10.7 2-.4-.6-1.4-.4-2.8.5-2 1.3-3 1.2-8-.1-5.6-1.4-6-1.4-10.4.8-2.6 1.3-6.5 4-8.7 6.1-2.7 2.5-4.5 3.5-5.8 3.1-1.3-.4-2.1.2-3 2.3-.7 1.5-1.4 3-1.6 3.3-.2.3-4.1.5-8.6.5-5.9 0-8.8.4-10.1 1.5-1 .8-2.6 1.4-3.7 1.2-1.4-.3-1.8.3-1.8 2.7 0 4-4.9 8.8-9.8 9.6-6.1 1.1-6.2 1.1-6.3 6.7-.3 10.8 1 26.6 2.8 33.6.8 3.5 1.2 6.6.9 6.9-.3.4-3.8-2.6-7.7-6.6-10-10.1-24-21.1-33.9-26.5-11.5-6.4-18.4-10.9-28.5-18.7-13.6-10.4-44.7-27.8-62.8-35-13.1-5.1-19.3-10.1-23.2-18.7-7.8-16.9-12.3-23.2-23.3-32.7-4.3-3.6-8.8-7.6-10.2-8.8-1.4-1.2-5.2-4.3-8.5-6.9-3.3-2.5-7.3-6-8.9-7.7-1.7-1.7-3.4-3.1-3.8-3.1-.5 0-1.6 1.6-2.4 3.5z" />
    <path
      d="M550.4 592.5c-10.6 11.3-38.5 60.7-42.9 76-1 3.3-2.6 8.2-3.5 11-1 2.7-3 9.3-4.4 14.5-6.6 24-7.9 27.8-11.1 33.7-2 3.4-3.9 6.4-4.3 6.7-.5.3-3.3-1.4-6.3-3.7-15-11.7-28.3-17.1-53.8-21.9-5.5-1-6.6-1.5-8-4.1-5.8-10.8-19.8-18-37.1-19.2-6.1-.4-8.4 0-15.7 2.5l-8.6 3-5.3-2.6c-4.4-2.1-6.2-2.5-9.8-2-3.5.6-5.1.3-7.7-1.3-1.9-1.1-5.7-2.6-8.6-3.2-5.2-1.2-6.4-2.1-4.3-3.4.6-.4 2.4-3.3 4-6.5 3.6-7.2 6.6-9.6 13.8-11.1 8.4-1.7 9.4-2.6 4-3.4-7.7-1.2-18.5 1.4-26.1 6.2-2.5 1.6-7 3-12.1 3.8-10 1.7-11 2-16.9 6.2-4.7 3.3-4.8 3.3-7.9 1.7-4-2.1-12.7-1.4-19.1 1.4-8.8 3.9-17.5 15.3-21.8 28.4-1.2 3.5-3.9 8.9-6 12.1-5.2 7.5-6.4 11-9 24.7-2.6 14.3-2.3 23.4 1.2 30.5 2 4.1 3.4 5.5 7.8 7.7l5.4 2.8-.2 6.3c-.1 3.4.3 7.5.9 9.1.5 1.5 1.1 5.6 1.1 9.1.1 5.4-.5 7.7-3.9 15.2-4 8.8-5.6 14.5-4.5 15.7.3.3 2.7-1.4 5.4-3.9 2.6-2.4 6.2-5 8.1-5.8 1.9-.8 5.6-3.9 8.2-6.8 3.2-3.5 5-4.9 5.3-4.1.3.8 1.8 2.8 3.4 4.6 2.5 2.9 5.5 4.6 13.5 7.6 4.5 1.8 12.6 16.1 21.9 39 7 17.4 15 31.9 22.3 40.7 3.9 4.7 11.9 10.2 21.7 15.2 3.3 1.6 7.3 4.4 9 6.1 5.2 5.4 4.4 5.8-42.1 16-42.5 9.3-53.4 15.8-95.6 56.9-8.2 8-18.1 16.8-21.9 19.4-3.8 2.7-6.9 5.3-6.9 5.8s2.7.9 6 .9c3.5 0 7.4.7 9 1.5 2.7 1.4 3 2.1 3 6.1 0 4.1.2 4.6 1.9 4.1 1.3-.3 3 .6 5.2 2.9 3.9 4 8.9 5.7 12.7 4.3 1.4-.6 3.6-.8 4.8-.5 1.4.4 2.8-.1 3.9-1.4 2.6-2.9 4.8-2.5 9.4 1.8 2.2 2 5.5 4.6 7.4 5.8 3.3 2 3.4 2 5.6.2 1.3-1 3.2-1.8 4.3-1.8 1.1 0 4.3-2.4 7.1-5.3 2.9-3 6.2-5.9 7.4-6.5 2.4-1.3 8.2-1.6 9.9-.4 2.3 1.5 3.6 5.5 3 9.3-.6 3.8-.6 3.9 1.9 2.7 1.9-.8 3.1-.8 5 0 4.3 2 9.5 1.4 16.8-2 5.7-2.6 7.2-3 8.8-2 1.5.9 2.3.9 3.8 0s3.2-.9 7.5.1c3.1.7 6.6.9 7.8.5 2.9-.9 10-5.7 13.3-9 1.7-1.7 3.2-2.3 4.4-1.9 1.4.4 2.1-.1 2.9-2.5l1.1-3.1 8 .2c6.1.1 8.7-.3 10.7-1.6 1.4-.9 3.2-1.4 4-1.1 1 .4 1.4-.3 1.4-2.2.1-5 6.1-10.2 11.8-10.2 2.6 0 3.5-.5 4.3-2.8 1.5-3.6.4-28.7-1.6-36.7-.8-3.3-1.4-6.3-1.5-6.8-.1-2.1 2.9 0 8.4 6 6.8 7.5 23.1 20.8 30.3 24.9 13.3 7.4 22.7 13.5 31.9 20.4 15.2 11.6 42.8 27.1 63.4 35.6 9.7 4 12.3 5.6 16.8 10.1 2.8 3 5.2 6 5.2 6.7 0 2.7 9 19.2 13.2 24.3 4.4 5.2 9.7 10 22.9 20.8 4.1 3.3 9.8 8.2 12.7 11 5.1 4.7 5.4 4.9 6.8 3 .8-1 1.4-2.4 1.4-3.1 0-.7.9-1.6 2-1.9 1.5-.5 1.9-1.2 1.4-3.1-.5-1.9-.1-2.6 2.1-3.4 1.4-.5 4.5-1 6.8-1 2.4 0 5.1-.6 6.2-1.3 1.1-.7 5.2-2.6 9-4.2 3.9-1.5 7.3-3.1 7.6-3.4.4-.3.1-3.2-.6-6.4-1-5.2-1-5.9.8-7.5 1.1-.9 2.3-2.7 2.8-3.9 1.2-3.2 7.9-4.8 13.6-3.2 4.1 1.1 4.5 1 5.9-1 .9-1.2 3.4-3.1 5.6-4.4 8.4-4.6 8-4.1 5.8-6-2.1-1.8-2.5-4.3-1.2-6.5.5-.6 4.4-1.6 8.8-2.2 11-1.4 11.8-1.6 30.9-7.2 29.4-8.6 52.7-18.7 83-36.1 14.8-8.4 22.8-13.6 31-20 2.8-2.1 8.2-6.2 12.1-9 16.9-12.4 24.7-19.8 68.3-64.5 3.4-3.4 6.8-6.2 7.6-6.2.9 0 2.3-.4 3.3-.9.9-.5 6.1-3 11.4-5.5 7.7-3.7 11.3-6.1 17.1-11.9 7.7-7.5 15.8-19.2 22.2-31.8 2-4 5.7-10.1 8.2-13.4 6.4-8.4 9.9-16.4 12.3-28 4.2-19.9 7.1-26.5 11.7-26.5 1.6 0 5-.7 7.6-1.5 10.2-3.1 21.9-1.8 33.2 3.5 6.4 3.1 10 5.8 18 13.5 5.4 5.4 10.1 9.2 10.3 8.6.2-.6 2.4-2.5 4.8-4.1 7.2-5 7.8-8 2.8-14-3.1-3.6-2.8-6 1-7.9 2.7-1.3 3.5-1 14.3 4.4 12.9 6.4 14.6 6.6 22.4 1.7 6.2-3.9 10.3-5.2 17-5.2 3.2 0 6-.4 6.3-.9.9-1.4-6.8-9.5-14.2-14.9-7.8-5.8-24.6-13.7-38.2-18-17.8-5.6-49.6-8.1-67.5-5.3-15.5 2.5-31.8 10.1-44 20.6-3 2.5-9.3 6.5-14.2 8.9-4.8 2.4-10.7 5.8-13.1 7.5-5.8 4.3-12.6 13.2-19.7 26.2-9.3 16.9-15.6 23.7-19 20.9-4.3-3.5-2.3-14.1 4.7-24.7 5.3-8.1 15-20.4 18.7-23.7 4.8-4.3.3-9.8-8.7-10.6l-5.7-.5-.3-5.2c-.4-6.2.9-9 8.4-18.8 2.9-3.9 6.2-9 7.3-11.5 2.9-6.6 7.3-23.8 6.6-26-.3-1.1-2.5-3.4-4.8-5.2-3.8-3-4.7-3.3-11.5-3.4-6.1 0-7.7-.4-8.8-1.9-3.3-4.5-2.5-11.9 2.7-23 2.7-6 4.3-12.8 3.6-15.7-.8-3-5.9-5.8-10.6-5.8-4 0-6.7-2.8-7.6-7.9-.6-3.6-.2-5 4-12.7 4.9-8.9 7.5-16.5 7.5-22.1 0-3.6-.9-6.3-2-6.3-.5 0-4.3 4.4-8.6 9.7-4.3 5.4-11.9 14.3-16.9 19.8-5 5.5-11.1 12.5-13.5 15.5-2.5 3-5.2 6.3-6.1 7.3-1.4 1.5-3.6 5.5-11 19.7-7.2 13.8-15.6 39.5-17.4 53-1.7 13.1-1.7 41.2 0 61.1 1.6 18.1 1.7 21.9.5 31-.7 5.7-1.5 13.8-1.7 17.9-.4 6.9-.7 7.8-3.6 10.6-1.8 1.7-5.9 6.2-9.2 10-6.5 7.5-14.3 14.5-23.9 21.2-3.3 2.4-6.8 5-7.6 5.7-3.7 3.2-22.5 11.7-33 15-19.5 5.9-31.6 5-63-5-5.8-1.9-12.2-3.6-14.3-4-2.1-.3-4.6-1.4-5.6-2.4s-3.7-2.9-6.1-4.2c-2.5-1.3-5.4-4-6.6-5.9-4.3-6.7-4.4-6.7-16-7.5-7.5-.5-12.1-1.3-14.6-2.6-7.3-3.7-4.2-5.1 9.2-4.4 5.1.2 10.1.7 11.1 1 2.3.8 2.3.4.4-4.1-.8-1.9-1.4-3.7-1.4-3.9-.1-.3-1.2-2.7-2.5-5.4-2.8-5.4-6.5-8.9-14.3-13.3-6-3.4-7.3-5.2-7.3-10.2 0-1.9-.4-3.8-1-4.1-.5-.3-4.7-1.2-9.2-1.9-10.1-1.7-14.5-3.3-13.1-4.7.6-.6 1.9-.6 3.4-.1 1.3.5 5.1.7 8.3.4 5-.4 6.8-1.1 11.3-4.6l5.3-4.1-5.2-1.2c-5.2-1.2-16.3-2.9-24.5-3.8-2.2-.2-7.7-1.6-12.2-3.1-9.1-3-10.9-4.7-21.6-20.2-12-17.7-22.7-30.4-31-37-3.3-2.6-3.7-3.3-2.5-4.2 2.2-1.4 13.7-1.2 19.8.4 2.9.8 8.2 1.8 11.8 2.1 7.8.9 9.5-.1 8.7-5-.5-3.1-.2-3.6 2.3-4.6 5.1-2 5.9-2.6 5.6-4.4-.2-1 .7-2.9 2.1-4.4 1.3-1.4 3.5-4.7 5-7.3l2.5-4.7-3.4-2.1c-4.1-2.6-7.7-7.4-7.2-9.7.2-1 2.2-2.4 4.8-3.3 2.9-1 4.6-2.2 4.9-3.5.2-1.1 2.1-3.9 4.2-6.3 4.3-4.6 5.9-7.9 5.9-11.9 0-1.5.8-3.5 1.8-4.6 1.2-1.4 1.3-2.1.5-2.4-.7-.2-3.5-2.2-6.3-4.5-5.8-4.6-7-7.8-4.6-11.9l1.7-2.9-3.1-.6-3.1-.7.7-5.7c.5-4.4.2-6.6-1-9.1-.9-1.7-1.6-4-1.6-5.1 0-1-.8-1.9-1.7-2-1 0-2.4-.2-3-.2-.7-.1-1.9-.8-2.8-1.7-1.4-1.4-1.4-1.9.1-5.4.9-2.1 2.8-5.4 4.2-7.4 2.7-3.4 2.9-5 2.3-15.1-.1-1.4 0-3.4.1-4.5.2-1.4-.2-1.9-1.2-1.6-3.1.7-6.7.3-14-1.6-8.2-2.1-8.5-2.6-6.5-9.7.8-2.8.7-2.9-2.4-2.3-3 .6-3.1.6-3.1-3.2 0-4.3-3.5-10.4-6.3-10.9-1.1-.2-3.2 1.1-5.3 3.3z" />
  </g>
</svg>