<svg width="208" height="64" fill="none" xmlns="http://www.w3.org/2000/svg">
  <path
    d="M102.336 10.31h-3.393c-1.872 0-2.379.039-3.12 1.404l-4.953 9.087-4.875-9.087c-.702-1.365-1.209-1.404-3.081-1.404h-3.627c-1.17 0-1.326.702-.819 1.599l9.165 15.249v9.243c0 1.209.39 1.599 1.599 1.599h3.159c1.17 0 1.599-.39 1.599-1.599v-9.165l9.165-15.327c.507-.897.351-1.599-.819-1.599zm23.259 26.13l-9.321-24.882c-.351-1.014-.858-1.248-1.95-1.248h-3.003c-1.092 0-1.56.234-1.95 1.326L100.05 36.44c-.39 1.053-.117 1.56 1.053 1.56h2.691c1.95 0 2.457-.312 2.847-1.443l1.248-3.666h9.633l1.209 3.666c.351 1.131.936 1.443 2.886 1.443h2.925c1.131 0 1.443-.507 1.053-1.56zm-11.739-14.742l2.028 6.045h-6.318l2.028-6.084c.936-2.769.897-5.538.897-5.538h.39s.078 2.769.975 5.577zm33.136-11.388h-10.959c-1.17 0-1.599.39-1.599 1.599v24.492c0 1.209.429 1.599 1.599 1.599h11.115c5.304 0 9.204-2.73 9.204-7.683 0-3.432-1.365-5.694-3.744-6.708v-.156c1.911-1.326 2.691-3.12 2.691-5.772 0-4.719-3.12-7.371-8.307-7.371zm1.872 8.268c0 1.833-1.014 2.652-2.847 2.652h-5.226v-5.304h5.226c1.833 0 2.847.858 2.847 2.652zm.819 10.998c0 1.911-.975 2.808-2.925 2.808h-5.967v-5.655h5.967c1.95 0 2.925.975 2.925 2.847zm32.823 6.864l-9.321-24.882c-.351-1.014-.858-1.248-1.95-1.248h-3.003c-1.092 0-1.56.234-1.95 1.326l-9.321 24.804c-.39 1.053-.117 1.56 1.053 1.56h2.691c1.95 0 2.457-.312 2.847-1.443l1.248-3.666h9.633l1.209 3.666c.351 1.131.936 1.443 2.886 1.443h2.925c1.131 0 1.443-.507 1.053-1.56zm-11.739-14.742l2.028 6.045h-6.318l2.028-6.084c.936-2.769.897-5.538.897-5.538h.39s.078 2.769.975 5.577zm12.495-1.482v7.878c0 6.474 4.134 10.491 11.505 10.491 7.41 0 11.544-4.017 11.544-10.491v-7.878c0-6.474-4.134-10.491-11.544-10.491-7.371 0-11.505 4.017-11.505 10.491zm16.692-.117v8.112c0 3.042-1.872 4.563-5.187 4.563-3.276 0-5.148-1.521-5.148-4.563v-8.112c0-3.042 1.872-4.563 5.148-4.563 3.315 0 5.187 1.521 5.187 4.563zM85.366 53.977v2.409H84.25V55h-4.995v1.386H78.13l.01-2.409h.278c.41-.019.695-.32.856-.902.168-.59.27-1.43.307-2.52l.074-2.065h4.771v5.487h.94zm-4.725-3.31c-.03.842-.099 1.546-.204 2.11-.106.558-.273.958-.503 1.2h3.302v-4.464h-2.548l-.047 1.153zm11.313-2.177l-2.827 5.255c-.248.465-.546.815-.893 1.05-.341.23-.713.344-1.116.344a2.4 2.4 0 01-.958-.204l.297-.949c.255.08.466.121.633.121.39 0 .713-.201.967-.604l.102-.158-2.594-4.855h1.292l1.925 3.822 1.981-3.822h1.19zm1.355 0l1.534 2.176 1.534-2.176h1.414l-2.185 3.125L97.968 55h-1.432l-1.693-2.371L93.16 55h-1.395l2.353-3.339-2.204-3.171h1.394zm10.376 3.767h-1.209V55h-1.19v-6.51h1.19v2.725h1.246l1.869-2.725h1.284l-2.223 3.153L106.959 55h-1.368l-1.906-2.743zm3.964-3.767h1.19v4.622l3.497-4.622h1.125V55h-1.19v-4.613L108.774 55h-1.125v-6.51zm12.223 1.023h-2.158V55h-1.2v-5.487h-2.148V48.49h5.506v1.023zm4.891 3.98h-3.255L120.866 55h-1.246l2.93-6.51h1.19l2.939 6.51h-1.265l-.651-1.507zm-.4-.948l-1.227-2.846-1.219 2.846h2.446zm3.184-4.055h1.19v4.622l3.497-4.622h1.125V55h-1.19v-4.613L128.672 55h-1.125v-6.51zm2.892-.437c-.558 0-.979-.115-1.265-.344-.279-.23-.421-.564-.427-1.005h.846c.006.23.081.407.223.53.143.124.35.186.623.186.267 0 .475-.062.623-.186.155-.123.236-.3.242-.53h.837c-.006.434-.155.77-.446 1.005-.285.23-.704.344-1.256.344zm7.601 7.04a3.727 3.727 0 01-1.786-.428 3.265 3.265 0 01-1.246-1.2 3.338 3.338 0 01-.446-1.72c0-.639.152-1.212.455-1.72a3.2 3.2 0 011.247-1.19 3.66 3.66 0 011.785-.438c.533 0 1.02.093 1.46.279.44.186.812.456 1.116.81l-.781.734a2.278 2.278 0 00-1.739-.763c-.446 0-.846.1-1.2.298a2.077 2.077 0 00-.827.809c-.199.347-.298.74-.298 1.181 0 .44.099.834.298 1.181.198.347.474.62.827.819.354.192.754.288 1.2.288.688 0 1.268-.258 1.739-.772l.781.744a2.966 2.966 0 01-1.125.809c-.44.186-.927.279-1.46.279zm5.968-2.837h-1.209V55h-1.191v-6.51h1.191v2.725h1.246l1.869-2.725h1.284l-2.223 3.153L147.281 55h-1.367l-1.906-2.743zm6.949 2.837a3.742 3.742 0 01-1.794-.428 3.244 3.244 0 01-1.256-1.2 3.319 3.319 0 01-.456-1.72c0-.632.152-1.203.456-1.711a3.157 3.157 0 011.256-1.2 3.678 3.678 0 011.794-.437c.664 0 1.262.146 1.795.437.534.285.952.682 1.256 1.19.304.509.456 1.082.456 1.721s-.152 1.212-.456 1.72a3.244 3.244 0 01-1.256 1.2 3.743 3.743 0 01-1.795.428zm0-1.06c.434 0 .825-.096 1.172-.288.347-.199.62-.472.819-.819.198-.353.297-.747.297-1.181 0-.434-.099-.825-.297-1.172a2.085 2.085 0 00-.819-.818 2.32 2.32 0 00-1.172-.298c-.434 0-.824.1-1.171.298-.348.192-.62.465-.819.818a2.323 2.323 0 00-.297 1.172c0 .434.099.828.297 1.181.199.347.471.62.819.819.347.192.737.288 1.171.288zm4.713-5.543h1.19v4.622l3.497-4.622h1.126V55h-1.191v-4.613L156.795 55h-1.125v-6.51zm2.892-.437c-.558 0-.979-.115-1.264-.344-.279-.23-.422-.564-.428-1.005h.846c.006.23.081.407.223.53.143.124.351.186.623.186.267 0 .475-.062.623-.186.155-.123.236-.3.242-.53h.837c-.006.434-.155.77-.446 1.005-.285.23-.704.344-1.256.344zm11.92 5.933V55h-4.883v-6.51h4.752v1.014h-3.543v1.692h3.143v.995h-3.143v1.795h3.674zm7.662-.009v2.409h-1.116V55h-4.994v1.386h-1.125l.009-2.409h.279c.409-.019.694-.32.855-.902.168-.59.27-1.43.307-2.52l.075-2.065h4.771v5.487h.939zm-4.724-3.31c-.031.842-.1 1.546-.205 2.11-.105.558-.273.958-.502 1.2h3.301v-4.464h-2.548l-.046 1.153zm8.727.027c.781 0 1.379.177 1.795.53.421.347.632.865.632 1.553 0 .72-.229 1.271-.688 1.656-.459.378-1.104.567-1.935.567h-2.799v-6.51h1.191v2.204h1.804zm-.251 3.376c.471 0 .834-.108 1.088-.325.254-.217.381-.534.381-.95 0-.787-.49-1.18-1.469-1.18h-1.553v2.455h1.553zm3.617-5.58h1.191V55h-1.191v-6.51z"
    fill="#231F20" />
  <rect x="6.486" y="6.486" width="51.029" height="51.029" rx="2" stroke="#FF2E65" stroke-width="2" />
  <rect x="1.5" y="1.5" width="61" height="61" rx="6.5" stroke="#FF2E65" stroke-width="3" />
  <rect x="14.629" y="39.188" width="34.542" height="3.166" rx="1" fill="#FF2E65" />
  <rect x="33.879" y="33.999" width="17.049" height="3.166" rx="1" transform="rotate(-45 33.879 33.999)"
    fill="#FF2E65" />
  <rect x="27.838" y="36.302" width="17.05" height="3.166" rx="1" transform="rotate(-135 27.838 36.302)"
    fill="#FF2E65" />
</svg>