<?xml version="1.0" encoding="UTF-8"?>
<svg xmlns="http://www.w3.org/2000/svg" xmlns:xlink="http://www.w3.org/1999/xlink" width="60px" height="60px" viewBox="0 0 60 60" version="1.1">
<g id="surface1">
<path style="fill-rule:nonzero;fill:rgb(0%,0.392157%,0%);fill-opacity:1;stroke-width:0.162324;stroke-linecap:butt;stroke-linejoin:miter;stroke:rgb(0%,0.392157%,0%);stroke-opacity:1;stroke-miterlimit:4;" d="M 137.766667 0.783333 C 141.066667 -0.0333333 144.9 -0.45 147.983333 1.316667 C 150.916667 3.133333 152.266667 6.466667 153.266667 9.6 C 156.1 18.583333 155.566667 28.15 155.233333 37.45 C 155 43.466667 154.616667 49.533333 155.283333 55.533333 C 157.25 72.8 156.6 90.183333 157.416667 107.5 C 158.166667 127.716667 162.983333 147.533333 168.833333 166.816667 C 171.216667 174.566667 173.533333 182.35 176.416667 189.933333 C 179.383333 197.8 182.633333 205.633333 184.45 213.833333 C 184.733333 215.266667 185.483333 216.55 185.966667 217.9 C 187.333333 221.45 188 225.233333 188.15 229.033333 C 188.2 231.25 187.216667 233.6 187.95 235.783333 C 190.75 238.266667 195.083333 238.133333 197.833333 240.683333 C 198.216667 241.15 198.75 241.6 198.666667 242.25 C 198.333333 242.716667 197.916667 243.083333 197.516667 243.45 C 194.783333 242.25 192.033333 241.1 189.433333 239.666667 C 187.833333 238.666667 186.266667 237.233333 185.85 235.333333 C 187.333333 232.733333 186.966667 229.6 186.6 226.766667 C 185.183333 217.666667 180.9 209.383333 178.15 200.683333 C 172.95 184.45 168.466667 168.05 163.233333 151.816667 C 162.166667 148.533333 160.933333 145.266667 159.733333 142.016667 C 159.2 140.7 159.366667 139.25 159.15 137.85 C 158.25 132.416667 158 126.9 157.05 121.466667 C 155.4 113.05 155.4 104.483333 155.283333 95.95 C 155.15 92.533333 155.483333 89.116667 155.233333 85.7 C 154.7 78.283333 154.833333 70.833333 154.366667 63.416667 C 153.716667 55.7 154.3 48 154.3 40.3 C 154.333333 31.9 154.416667 23.4 152.8 15.083333 C 152.066667 11.666667 151.166667 8 148.6 5.483333 C 150.683333 7.133333 151.8 9.716667 151.583333 12.366667 C 151.35 15.016667 149.816667 17.383333 147.5 18.666667 L 145.483333 18.666667 C 144.783333 18.666667 144.083333 18.7 143.366667 18.75 C 142.666667 18.783333 141.966667 18.783333 141.316667 18.866667 C 140.483333 18.983333 139.616667 18.983333 138.883333 19.45 C 137.9 20.916667 137.9 22.783333 137.65 24.466667 C 135.3 24.666667 132.95 25.083333 130.65 24.716667 C 128.416667 24.55 126.033333 24.133333 123.883333 24.966667 C 122.9 25.333333 122.766667 26.483333 122.616667 27.4 C 122.283333 30.516667 122.733333 33.7 122.733333 36.833333 C 121.833333 34.1 121 31.383333 119.966667 28.716667 C 119.316667 26.816667 117.75 25.3 115.766667 24.883333 C 110.5 23.683333 104.933333 25.783333 100.933333 29.25 C 99.533333 30.483333 99.283333 32.416667 99.833333 34.15 C 101.6 41.066667 105.916667 46.916667 108.483333 53.516667 C 110.333333 58.083333 112.35 62.583333 114.283333 67.116667 C 115.516667 70.083333 116.966667 73 117.833333 76.083333 C 108.683333 63.4 99.533333 50.333333 94.683333 35.3 C 92.083333 37.816667 89.4 40.25 86.8 42.8 C 85.366667 44.2 84.166667 45.9 83.066667 47.583333 C 81.616667 45.933333 80.166667 44.083333 78.066667 43.216667 C 77.133333 42.8 76.133333 43.383333 75.316667 43.783333 C 74.783333 44.2 74.25 44.7 73.75 45.183333 C 71.2 36.3 72.25 26.783333 76.666667 18.666667 C 76.216667 19.2 75.8 19.733333 75.35 20.3 C 92.216667 -9.233333 126.683333 -23.933333 159.666667 -15.666667 C 192.666667 -7.4 216.116667 21.816667 217.066667 55.816667 C 218 89.816667 196.2 120.283333 163.716667 130.366667 C 131.233333 140.45 96.016667 127.683333 77.533333 99.116667 C 77.216667 99.566667 76.883333 100.066667 76.55 100.566667 C 76.183333 101.133333 75.766667 101.75 75.4 102.333333 C 75.233333 102.583333 74.9 103.116667 74.733333 103.4 C 74.4 103.9 74.083333 104.4 73.783333 104.933333 C 73.416667 105.666667 72.633333 106.666667 73.5 107.4 C 81.033333 117.366667 90.683333 125.566667 99.7 134.266667 C 105.916667 140.2 111.816667 146.533333 116.85 153.55 C 120.716667 158.616667 124.633333 163.683333 128.3 168.916667 C 134.4 177.483333 140.366667 186.166667 145.966667 195.066667 C 147.45 197.383333 148.9 199.733333 150.466667 202 C 153.266667 210.4 155.616667 218.966667 158.2 227.416667 C 160.516667 235.4 163.15 243.366667 165.533333 251.35 C 169.666667 265.9 171.716667 281.1 177.983333 294.983333 C 179.1 297.75 181.533333 299.85 184.366667 300.7 C 184.733333 300.833333 185.116667 300.916667 185.483333 301.033333 L 185.516667 301.4 C 185.733333 303.666667 185.816667 306.066667 185.116667 308.25 C 184 309.9 182.016667 310.6 180.616667 312 C 182.016667 312.166667 183.55 312.416667 184.9 311.833333 C 186.05 311.333333 186.8 310.3 187.583333 309.45 C 187.833333 311.333333 188.083333 313.233333 188.4 315.133333 C 188.233333 315.333333 188 315.75 187.833333 316 C 187.05 314.75 186.966667 313.15 185.9 312.166667 C 184.366667 312.166667 183.5 314.016667 181.9 314.1 C 181.066667 314.133333 179.75 314.633333 179.416667 313.566667 C 180.166667 311.866667 181.6 310.6 182.383333 308.9 C 183.416667 306.966667 183.866667 304.533333 182.766667 302.566667 C 181.85 300.416667 179.633333 299.35 178.183333 297.616667 C 173.866667 292.666667 171.516667 286.366667 169.75 280.15 C 168.05 274.216667 167.1 268.083333 166.033333 262.016667 C 164.516667 254.65 162.25 247.433333 160.15 240.233333 C 157.1 229.966667 153.8 219.8 150.916667 209.45 C 150.383333 207.933333 150.416667 206.2 149.383333 204.883333 C 135.5 185.766667 124.75 164.416667 109.466667 146.3 C 100.9 136.033333 89.9 128.283333 80.633333 118.766667 C 77.583333 115.65 73.75 113.083333 71.683333 109.1 C 70 105.916667 70.65 101.966667 72.6 99.033333 C 75.35 94.916667 78.7 91.166667 82.516667 88 C 84.5 86.466667 86.733333 84.816667 89.316667 84.783333 C 91.5 85.65 92.616667 88 94.066667 89.766667 C 97.65 85.933333 101.016667 81.933333 104.933333 78.433333 C 107.45 79.666667 108.433333 82.433333 109.35 84.866667 C 110.416667 88.083333 111.983333 91.05 113.466667 94.1 C 115.2 97.6 117.083333 101.133333 119.966667 103.816667 C 116.3 97.15 112.55 90.516667 109.716667 83.466667 C 108.733333 80.833333 107.566667 78.033333 108.066667 75.15 C 108.483333 72.833333 110.25 70.933333 112.4 70.083333 C 116.016667 68.466667 120.05 69 123.883333 68.966667 C 126.933333 68.966667 129.9 70.15 132.25 72.1 C 132.916667 70.65 133.983333 69.383333 135.5 68.8 C 139 67.35 142.833333 67.933333 146.5 68.35 C 147.25 65.5 148.116667 62 151.166667 60.933333 Z M 137.766667 0.783333 " transform="matrix(0.234375,0,0,0.234375,0,0)"/>
<path style="fill-rule:nonzero;fill:rgb(32.54902%,60.392157%,20.392157%);fill-opacity:1;stroke-width:0.162324;stroke-linecap:butt;stroke-linejoin:miter;stroke:rgb(32.54902%,60.392157%,20.392157%);stroke-opacity:1;stroke-miterlimit:4;" d="M 136.166667 4.533333 C 136.9 4.083333 137.766667 4.083333 138.6 3.966667 C 138.683333 10.516667 139.7 17.016667 140.083333 23.566667 C 141.1 35.183333 141.933333 46.8 141.6 58.466667 C 141.483333 63.283333 140.45 68.066667 140.866667 72.883333 C 141.233333 69.583333 141.683333 66.3 142.3 63 C 143.25 57.566667 143.416667 52 143.333333 46.483333 C 143.416667 36.383333 142.55 26.333333 141.766667 16.283333 C 141.35 12.116667 141.233333 7.95 140.7 3.8 C 141.4 3.75 142.1 3.75 142.8 3.716667 C 143.083333 8.25 144.283333 12.65 144.766667 17.183333 C 145.85 24.733333 146.5 32.3 147.116667 39.883333 C 147.283333 44.7 147.25 49.533333 146.666667 54.35 C 146.25 60.483333 145.1 66.616667 145.4 72.85 C 146.1 66.333333 147.5 59.95 148.2 53.483333 C 149.766667 43.216667 148.85 32.8 147.616667 22.583333 C 147.033333 16.283333 145.85 10.016667 144.766667 3.75 C 145.633333 3.916667 146.466667 4.116667 147.283333 4.366667 C 147.283333 7.25 148.483333 9.9 148.983333 12.7 C 151 23 151.533333 33.5 151.283333 44 C 151.366667 57.066667 150.75 70.2 152.483333 83.183333 C 152.566667 75.233333 152.316667 67.25 152.766667 59.25 C 153.3 49.233333 153.466667 39.233333 153.266667 29.166667 C 152.85 23.533333 152.266667 17.883333 151.2 12.316667 C 150.75 9.9 149.6 7.666667 148.516667 5.483333 C 151.083333 8.033333 151.983333 11.666667 152.733333 15.083333 C 154.3 23.366667 154.25 31.85 154.216667 40.3 C 154.216667 48 153.633333 55.7 154.3 63.416667 C 154.783333 70.833333 154.666667 78.283333 155.15 85.7 C 154.416667 87.133333 153.883333 88.7 153.75 90.316667 C 153.216667 95.05 153.716667 99.833333 153.716667 104.616667 C 153.75 110.416667 153.716667 116.266667 154.166667 122.083333 C 152.85 120.883333 152.483333 119.116667 151.733333 117.583333 C 151.4 116.633333 151.033333 115.65 150.7 114.7 C 149.433333 108.483333 148.4 102.183333 148.316667 95.833333 C 146.666667 101.733333 147.9 107.95 149.216667 113.75 C 149.55 115.566667 149.916667 117.383333 150.216667 119.2 C 150 121.383333 150.05 123.6 150.466667 125.783333 C 150.083333 125.583333 149.716667 125.416667 149.35 125.25 L 149.35 125.666667 C 159.166667 133.866667 164.516667 146.233333 163.8 159 C 163.083333 171.766667 156.366667 183.45 145.683333 190.5 C 145.016667 186.583333 144.7 182.583333 143.45 178.8 C 143.616667 183.866667 144.283333 188.85 144.783333 193.883333 C 144.933333 195.4 145.1 196.916667 145.183333 198.483333 C 146.5 195.516667 148.333333 192.8 150.633333 190.5 C 150.216667 190.283333 149.85 190.083333 149.433333 189.883333 C 149.016667 188.233333 148.6 186.583333 148.15 184.933333 C 147.65 182.25 147.366667 179.583333 146.916667 176.95 C 146.25 180.983333 146.55 185.066667 146.95 189.133333 C 147.033333 192.633333 147.283333 196.183333 146.883333 199.683333 C 146.583333 202.316667 145.716667 204.883333 144.7 207.3 C 144.566667 207.6 144.45 207.85 144.316667 208.133333 C 143.866667 207.266667 143.366667 206.433333 143.083333 205.533333 C 143.583333 204.75 144.2 203.966667 144.15 203.016667 C 144.233333 196.15 144.9 189.3 144.816667 182.416667 C 144.766667 180.816667 144.816667 179.166667 144.933333 177.566667 C 145.15 174.883333 144.616667 172.283333 144.233333 169.65 C 143.05 161.583333 140.783333 153.583333 141.1 145.35 C 141.316667 137.233333 142.133333 129.15 142.5 121.033333 C 142.916667 112.55 143.083333 104.016667 142.583333 95.5 C 141.766667 88 140.2 80.583333 140.166667 73 C 136.7 73.033333 133.233333 73.116667 129.783333 72.666667 C 131.3 80.983333 133.9 89.15 134.883333 97.55 C 136.25 108.05 136.5 118.683333 136.983333 129.283333 C 137.033333 137.85 137.65 146.45 136.866667 154.983333 C 136.733333 154.866667 136.533333 154.533333 136.416667 154.4 C 135.716667 146.983333 136.416667 139.45 134.766667 132.166667 C 132.133333 119.883333 130.183333 107.483333 128.783333 95.033333 C 128.666667 99.483333 128.7 103.933333 129.283333 108.383333 C 129.866667 116.8 131.216667 125.15 132.833333 133.4 C 133.933333 139.25 133.65 145.216667 133.816667 151.15 C 132.666667 149.583333 130.933333 148.233333 130.683333 146.166667 C 129.2 137.633333 128.083333 129.066667 127.133333 120.5 C 126.35 113.133333 125.25 105.8 125.25 98.383333 C 125.2 93.883333 125.333333 89.35 125.25 84.866667 C 125.25 81.733333 124.833333 78.566667 125.116667 75.433333 C 125.25 74.516667 125.366667 73.366667 126.4 73 C 128.55 72.166667 130.933333 72.583333 133.15 72.75 C 135.5 73.116667 137.85 72.716667 140.166667 72.5 C 140.4 70.85 140.45 69 141.4 67.516667 Z M 98.216667 14.35 C 102.216667 10.883333 107.783333 8.783333 113.05 9.983333 C 115.033333 10.383333 116.6 11.916667 117.25 13.8 C 117.166667 14.05 117.05 14.583333 116.966667 14.883333 C 116.35 11.583333 112.683333 9.433333 109.5 10.466667 C 110.05 13.15 110.666667 15.783333 111.566667 18.383333 C 113.1 22.616667 114.283333 26.983333 115.516667 31.35 C 116.016667 33.333333 116.466667 35.316667 117.216667 37.25 L 117.25 37.45 C 117.216667 37.7 117.133333 38.233333 117.083333 38.483333 C 115.316667 35.733333 114 32.683333 112.683333 29.666667 C 110.666667 24.716667 109.183333 19.366667 105.683333 15.2 C 106 16.983333 106.55 18.716667 107.033333 20.433333 C 108.566667 25.666667 109.883333 30.983333 111.283333 36.3 C 111.983333 38.933333 112.766667 41.566667 113.05 44.3 C 111.316667 41.45 110.7 38.116667 109.183333 35.183333 C 107.283333 30.616667 104.983333 26.25 102.833333 21.8 C 101.466667 19.2 100.116667 16.566667 98.216667 14.35 Z M 84.083333 27.85 C 86.683333 25.3 89.366667 22.866667 91.95 20.35 C 96.866667 35.35 105.966667 48.45 115.116667 61.15 C 117.166667 65.1 118.4 69.433333 119.883333 73.666667 C 120.666667 76.016667 121.616667 78.316667 122.15 80.75 C 117.916667 75.983333 114.283333 70.75 110.45 65.633333 C 105.55 58.883333 100.566667 52.2 95.833333 45.366667 C 91.716667 39.633333 88.05 33.666667 84.083333 27.85 Z M 84.083333 27.85 " transform="matrix(0.234375,0,0,0.234375,0,0)"/>
<path style="fill-rule:nonzero;fill:rgb(18.431373%,54.117647%,5.882353%);fill-opacity:1;stroke-width:0.162324;stroke-linecap:butt;stroke-linejoin:miter;stroke:rgb(18.431373%,54.117647%,5.882353%);stroke-opacity:1;stroke-miterlimit:4;" d="M 109.5 10.433333 C 112.683333 9.4 116.35 11.533333 116.966667 14.833333 C 115.35 22.216667 116.883333 29.75 117.216667 37.166667 C 116.516667 35.233333 116.016667 33.25 115.516667 31.283333 C 114.333333 26.9 113.1 22.583333 111.566667 18.3 C 110.666667 15.75 110.083333 13.1 109.5 10.433333 Z M 97.1 19.25 C 96.566667 17.516667 96.816667 15.583333 98.216667 14.35 C 100.116667 16.566667 101.433333 19.2 102.833333 21.75 C 104.983333 26.2 107.283333 30.566667 109.183333 35.15 C 110.75 38.066667 111.366667 41.416667 113.05 44.25 C 112.716667 41.533333 111.983333 38.9 111.283333 36.266667 C 109.883333 30.983333 108.566667 25.666667 107.033333 20.4 C 106.5 18.666667 105.966667 16.933333 105.683333 15.166667 C 109.183333 19.333333 110.666667 24.683333 112.683333 29.633333 C 114.033333 32.633333 115.316667 35.683333 117.083333 38.45 C 117.133333 38.2 117.216667 37.666667 117.25 37.416667 C 118.616667 46.066667 119.65 54.8 121.283333 63.416667 C 121.7 65.6 122.533333 67.783333 122.15 70 C 121.7 71.4 120.3 72.233333 119.883333 73.666667 C 118.45 69.466667 117.166667 65.133333 115.116667 61.15 C 114.2 58.016667 112.8 55.133333 111.566667 52.166667 C 109.633333 47.633333 107.65 43.133333 105.766667 38.566667 C 103.2 31.983333 98.883333 26.116667 97.1 19.25 Z M 97.1 19.25 " transform="matrix(0.234375,0,0,0.234375,0,0)"/>
<path style="fill-rule:nonzero;fill:rgb(19.215686%,53.72549%,6.666667%);fill-opacity:1;stroke-width:0.162324;stroke-linecap:butt;stroke-linejoin:miter;stroke:rgb(19.215686%,53.72549%,6.666667%);stroke-opacity:1;stroke-miterlimit:4;" d="M 138.6 3.966667 C 139.3 3.916667 140 3.883333 140.65 3.833333 C 141.183333 7.95 141.316667 12.166667 141.733333 16.316667 C 142.516667 26.366667 143.366667 36.433333 143.283333 46.516667 C 143.366667 52.033333 143.216667 57.6 142.266667 63.033333 C 141.683333 66.333333 141.183333 69.583333 140.816667 72.933333 C 140.45 68.1 141.483333 63.333333 141.566667 58.5 C 141.883333 46.85 141.066667 35.183333 140.033333 23.616667 C 139.7 17.016667 138.683333 10.516667 138.6 3.966667 Z M 138.6 3.966667 " transform="matrix(0.234375,0,0,0.234375,0,0)"/>
<path style="fill-rule:nonzero;fill:rgb(18.823529%,53.72549%,6.27451%);fill-opacity:1;stroke-width:0.162324;stroke-linecap:butt;stroke-linejoin:miter;stroke:rgb(18.823529%,53.72549%,6.27451%);stroke-opacity:1;stroke-miterlimit:4;" d="M 142.75 3.8 C 143.416667 3.75 144.116667 3.75 144.766667 3.8 C 145.8 10.05 147 16.283333 147.616667 22.616667 C 148.816667 32.833333 149.766667 43.266667 148.2 53.516667 C 147.5 60.033333 146.05 66.416667 145.4 72.883333 C 145.1 66.7 146.216667 60.566667 146.666667 54.383333 C 147.283333 49.6 147.283333 44.75 147.116667 39.933333 C 146.5 32.35 145.8 24.766667 144.766667 17.233333 C 144.283333 12.733333 143.083333 8.333333 142.75 3.8 Z M 124.05 45.45 C 123.516667 41.033333 123.433333 36.55 123.55 32.1 C 124.95 44.533333 126.9 56.95 129.533333 69.216667 C 131.183333 76.516667 130.483333 84.05 131.183333 91.466667 L 128.583333 88.25 C 128.383333 82.316667 128.7 76.35 127.6 70.5 C 125.983333 62.166667 124.633333 53.85 124.05 45.45 Z M 124.05 45.45 " transform="matrix(0.234375,0,0,0.234375,0,0)"/>
<path style="fill-rule:nonzero;fill:rgb(18.823529%,53.72549%,6.666667%);fill-opacity:1;stroke-width:0.162324;stroke-linecap:butt;stroke-linejoin:miter;stroke:rgb(18.823529%,53.72549%,6.666667%);stroke-opacity:1;stroke-miterlimit:4;" d="M 147.283333 4.416667 C 147.733333 4.75 148.15 5.116667 148.516667 5.533333 C 149.633333 7.716667 150.783333 9.933333 151.2 12.366667 C 152.266667 17.933333 152.883333 23.566667 153.266667 29.216667 C -12.7 174.583333 -264.283333 161.2 -413.883333 -0.966667 C -563.483333 -163.133333 -556.583333 -414.966667 -398.333333 -568.7 C -240.083333 -722.433333 11.866667 -722.016667 169.616667 -567.783333 C 327.366667 -413.55 333.466667 -161.683333 183.333333 0 C 182.883333 7.95 183.133333 15.95 183.05 23.933333 C 181.316667 10.966667 181.9 -2.183333 181.85 -15.25 C 182.1 -25.7 181.516667 -36.25 179.55 -46.55 C 179.05 -49.35 177.85 -52 177.85 -54.883333 Z M 147.283333 4.416667 " transform="matrix(0.234375,0,0,0.234375,0,0)"/>
<path style="fill-rule:nonzero;fill:rgb(7.45098%,40.784314%,7.058824%);fill-opacity:1;stroke-width:0.162324;stroke-linecap:butt;stroke-linejoin:miter;stroke:rgb(7.45098%,40.784314%,7.058824%);stroke-opacity:1;stroke-miterlimit:4;" d="M 124.55 9.683333 C 128 10.133333 131.466667 10.05 134.933333 10.016667 C 134.966667 17.6 136.533333 25.016667 137.35 32.516667 C 137.85 41 137.65 49.533333 137.283333 58.05 C 136.9 66.166667 136.083333 74.25 135.883333 82.366667 C 135.55 90.6 137.85 98.6 139 106.666667 C 139.383333 109.3 139.866667 111.9 139.7 114.583333 C 139.583333 114.533333 139.333333 114.416667 139.25 114.333333 C 135.3 109.716667 132.283333 104.45 129.2 99.25 C 125.9 93.566667 122.566667 87.916667 118.7 82.616667 C 109.55 69.8 98.583333 58.383333 89.483333 45.533333 C 86.6 41.166667 83.8 36.716667 80.466667 32.633333 C 81.566667 30.95 82.733333 29.25 84.216667 27.85 C 88.133333 33.666667 91.833333 39.633333 95.95 45.283333 C 100.7 52.116667 105.683333 58.833333 110.583333 65.55 C 114.416667 70.666667 118.033333 75.933333 122.283333 80.666667 C 121.75 78.25 120.8 75.933333 120.016667 73.583333 C 120.433333 72.15 121.866667 71.316667 122.283333 69.916667 C 122.65 67.7 121.833333 65.516667 121.416667 63.333333 C 119.733333 54.716667 118.7 45.983333 117.383333 37.333333 L 117.333333 37.116667 C 117 29.716667 115.433333 22.166667 117.083333 14.8 C 117.166667 14.55 117.3 14.016667 117.383333 13.716667 C 118.4 16.4 119.233333 19.116667 120.133333 21.833333 C 120.216667 26.333333 120.133333 30.866667 120.133333 35.35 C 120.133333 42.766667 121.25 50.1 122.033333 57.483333 C 123.016667 66.083333 124.1 74.65 125.583333 83.15 C 125.816667 85.2 127.55 86.566667 128.7 88.133333 C 129.566667 89.2 130.4 90.316667 131.3 91.35 C 131.433333 91.5 131.633333 91.8 131.75 91.916667 C 132.533333 83.35 131.916667 74.783333 131.883333 66.216667 C 131.383333 55.616667 131.133333 45 129.783333 34.483333 C 128.666667 26.166667 126.066667 18.016667 124.55 9.683333 Z M 124.55 9.683333 " transform="matrix(0.234375,0,0,0.234375,0,0)"/>
<path style="fill-rule:nonzero;fill:rgb(32.54902%,60.392157%,20%);fill-opacity:1;stroke-width:0.162324;stroke-linecap:butt;stroke-linejoin:miter;stroke:rgb(32.54902%,60.392157%,20%);stroke-opacity:1;stroke-miterlimit:4;" d="M 72.633333 28.85 C 73.466667 28.433333 74.45 27.85 75.4 28.266667 C 77.45 29.133333 78.933333 30.983333 80.383333 32.633333 C 83.716667 36.666667 86.516667 41.166667 89.4 45.533333 C 98.55 58.383333 109.466667 69.8 118.616667 82.616667 C 122.483333 87.916667 125.816667 93.566667 129.116667 99.25 C 132.216667 104.45 135.216667 109.716667 139.166667 114.333333 C 107.6 113.416667 82.75 87.083333 83.65 55.516667 C 84.566667 23.95 110.9 -0.916667 142.466667 0 C 135.583333 -8.033333 131.05 -17.75 124.716667 -26.2 C 126.9 -19.283333 130.8 -13.066667 134.6 -6.916667 C 136.2 -4.25 138.066667 -1.733333 139.416667 1.066667 C 135.916667 -1.566667 133.533333 -5.316667 130.316667 -8.283333 C 133.65 -2.716667 137.566667 2.683333 139.3 9.016667 C 135.666667 5.4 133 0.95 130.016667 -3.216667 C 131.3 1.233333 134.6 4.7 136.333333 8.933333 C 133.9 7 132.05 4.483333 130.066667 2.1 C 126.683333 -1.733333 123.633333 -5.85 120.5 -9.85 C 118.283333 -12.683333 116.1 -15.533333 113.75 -18.25 C 111.933333 -20.35 110.2 -22.583333 108.016667 -24.3 C 103 -31.316667 97.15 -37.65 90.883333 -43.583333 C 81.866667 -52.283333 72.216667 -60.483333 64.65 -70.533333 C 63.783333 -71.266667 64.6 -72.266667 64.933333 -73 C 67.233333 -69.583333 70.45 -66.866667 73.25 -63.9 C 75.35 -61.6 77.833333 -59.65 79.933333 -57.3 C 81.616667 -55.45 83.683333 -53.966667 85.45 -52.15 C 90.433333 -47.083333 95.833333 -42.516667 100.533333 -37.2 C 107.533333 -29.95 113.95 -22.083333 119.35 -13.55 C 121.333333 -10.833333 123.1 -7.95 125.166667 -5.266667 C 124.716667 -7.533333 122.983333 -9.233333 121.916667 -11.2 C 119.433333 -15.533333 116.6 -19.616667 113.95 -23.816667 C 108.85 -31.1 102.8 -37.616667 96.733333 -44.083333 C 93.15 -47.916667 89.033333 -51.166667 85.616667 -55.166667 C 88.5 -53.433333 90.933333 -51.133333 93.6 -49.183333 C 98.5 -45.066667 103.566667 -41.033333 108.016667 -36.416667 C 112.683333 -31.85 116.216667 -26.283333 121 -21.8 C 118.316667 -25.783333 115.35 -29.583333 112.316667 -33.283333 C 110.666667 -35.683333 108.433333 -37.566667 106.916667 -40.05 C 109.183333 -38.483333 111.066667 -36.416667 113.016667 -34.483333 C 114.816667 -32.666667 116.183333 -30.45 118.116667 -28.75 C 117.216667 -30.533333 115.983333 -32.133333 114.733333 -33.666667 C 109.3 -40.583333 102.466667 -46.183333 95.866667 -51.916667 C 161.383333 -37.766667 209.516667 18.183333 213.7 85.083333 C 217.9 151.966667 177.133333 213.5 113.9 235.716667 C 50.666667 257.916667 -19.633333 235.4 -58.2 180.583333 C -96.75 125.766667 -94.183333 52 -51.916667 0 C -56.066667 -4.65 -59.7 -9.766667 -63.2 -14.916667 C -92.85 -36.95 -102.316667 -77.15 -85.6 -110.116667 C -68.883333 -143.066667 -30.866667 -159.183333 4.45 -148.283333 C 39.75 -137.383333 62.05 -102.616667 57.283333 -65.983333 C 52.5 -29.333333 22 -1.483333 -14.916667 0 C -12.116667 4.483333 -8.983333 8.816667 -5.483333 12.816667 C 2.15 21.666667 11.2 29.083333 19.7 37.083333 C 22.25 39.183333 24.433333 41.65 26.7 44.05 C 29.083333 46.633333 31.483333 49.233333 33.616667 52.033333 C 34.983333 53.716667 36.05 55.666667 37.65 57.183333 C 36.633333 54.383333 34.683333 52.116667 33.033333 49.65 C 28.966667 44.283333 24.55 39.183333 19.616667 34.65 C 10.1 25.083333 -0.533333 16.483333 -8.483333 5.483333 C -10.3 3.166667 -11.583333 0.45 -13.6 -1.65 C -31.4 -7.266667 -41.933333 -25.583333 -37.833333 -43.816667 C -33.733333 -62.033333 -16.366667 -74.066667 2.133333 -71.516667 C 20.633333 -68.966667 34.083333 -52.666667 33.1 -34.016667 C 32.116667 -15.383333 17.016667 -0.583333 -1.65 0 C 0.95 5.033333 3.7 9.966667 6.966667 14.633333 C 8.933333 17.916667 11.533333 20.8 14.25 23.45 C 19.033333 28.433333 24.683333 32.5 29.7 37.25 C 30.9 38.4 32.1 39.55 33.416667 40.583333 C 31.1 37.2 28.05 34.366667 25.05 31.6 C 20.1 26.533333 14.583333 21.916667 10.5 16.066667 C 6.55 10.666667 3.25 4.7 -0.116667 -1.233333 Z M 72.633333 28.85 " transform="matrix(0.234375,0,0,0.234375,0,0)"/>
<path style="fill-rule:nonzero;fill:rgb(19.215686%,53.333333%,6.666667%);fill-opacity:1;stroke-width:0.162324;stroke-linecap:butt;stroke-linejoin:miter;stroke:rgb(19.215686%,53.333333%,6.666667%);stroke-opacity:1;stroke-miterlimit:4;" d="M 71.066667 30.25 C 71.566667 29.75 72.1 29.3 72.633333 28.85 C 76.016667 34.783333 79.316667 40.75 83.266667 46.266667 C 87.35 52.116667 92.866667 56.733333 97.8 61.8 C 100.816667 64.566667 103.866667 67.4 106.166667 70.783333 C 104.85 69.75 103.65 68.6 102.466667 67.45 C 97.433333 62.716667 91.833333 58.633333 87.016667 53.65 C 84.25 50.966667 81.7 48.083333 79.716667 44.833333 C 76.416667 40.216667 73.7 35.266667 71.066667 30.25 Z M 71.066667 30.25 " transform="matrix(0.234375,0,0,0.234375,0,0)"/>
<path style="fill-rule:nonzero;fill:rgb(18.823529%,53.333333%,6.666667%);fill-opacity:1;stroke-width:0.162324;stroke-linecap:butt;stroke-linejoin:miter;stroke:rgb(18.823529%,53.333333%,6.666667%);stroke-opacity:1;stroke-miterlimit:4;" d="M 67.116667 34.783333 C 70.216667 57.983333 55.45 79.85 32.75 85.633333 C 10.066667 91.4 -13.366667 79.266667 -21.733333 57.4 C -30.1 35.516667 -20.75 10.85 0 0 C 2.016667 2.15 3.3 4.816667 5.1 7.133333 C 13.1 18.133333 23.683333 26.733333 33.2 36.3 C 38.15 40.866667 42.55 45.983333 46.633333 51.3 C 48.283333 53.716667 50.216667 56.033333 51.25 58.833333 C 49.65 57.3 48.616667 55.366667 47.216667 53.683333 C 45.116667 50.833333 42.716667 48.25 40.3 45.683333 C 38.033333 43.3 35.8 40.833333 33.283333 38.733333 C 24.8 30.733333 15.733333 23.316667 8.116667 14.466667 C 4.616667 10.5 1.483333 6.183333 -1.316667 1.65 Z M 67.116667 34.783333 " transform="matrix(0.234375,0,0,0.234375,0,0)"/>
<path style="fill-rule:nonzero;fill:rgb(18.823529%,53.72549%,5.882353%);fill-opacity:1;stroke-width:0.162324;stroke-linecap:butt;stroke-linejoin:miter;stroke:rgb(18.823529%,53.72549%,5.882353%);stroke-opacity:1;stroke-miterlimit:4;" d="M 64.15 38.9 C 64.6 38.233333 65.05 37.616667 65.5 36.966667 C 69.016667 42.116667 72.633333 47.216667 76.8 51.866667 C 96.2 126.483333 55.783333 203.633333 -16.6 230.15 C -89 256.683333 -169.683333 223.9 -203.066667 154.4 C -236.45 84.916667 -211.616667 1.433333 -145.666667 -38.5 C -79.733333 -78.45 5.766667 -61.783333 51.866667 0 C 58.466667 5.733333 65.35 11.333333 70.75 18.25 C 72.016667 19.783333 73.216667 21.333333 74.116667 23.15 C 72.183333 21.466667 70.833333 19.233333 69.016667 17.433333 C 67.033333 15.483333 65.183333 13.433333 62.916667 11.866667 C 64.433333 14.333333 66.666667 16.233333 68.316667 18.616667 C 71.366667 22.333333 74.333333 26.116667 77 30.116667 C 72.233333 25.666667 68.683333 20.066667 64.033333 15.483333 C 59.583333 10.833333 54.55 6.833333 49.616667 2.716667 C 46.883333 0.783333 44.466667 -1.566667 41.616667 -3.25 C 45.033333 0.75 49.15 4 52.733333 7.833333 C 58.833333 14.3 64.9 20.8 69.966667 28.1 C 72.633333 32.3 75.433333 36.416667 77.916667 40.7 C 78.983333 42.683333 80.716667 44.333333 81.166667 46.633333 C 79.1 43.966667 77.333333 41.083333 75.35 38.35 C 69.966667 29.833333 63.533333 21.966667 56.533333 14.7 C 51.833333 9.4 46.4 4.783333 41.45 -0.25 C 39.716667 -2.066667 37.616667 -3.55 35.933333 -5.4 C 33.866667 -7.75 31.4 -9.683333 29.25 -11.983333 C 26.45 -15 23.25 -17.666667 20.933333 -21.1 C 21.216667 -21.633333 21.55 -22.116667 21.883333 -22.616667 C 23.483333 -21.05 24.966667 -19.316667 26.833333 -18 C 25.55 -20.016667 23.783333 -21.633333 22.533333 -23.683333 C 22.916667 -24.3 23.316667 -24.883333 23.7 -25.466667 C 28.516667 -19.566667 32.833333 -13.1 38.983333 -8.483333 C 37.616667 -10.55 35.85 -12.233333 34.283333 -14.133333 C 30.95 -18.3 27.566667 -22.416667 24.733333 -26.95 Z M 64.15 38.9 " transform="matrix(0.234375,0,0,0.234375,0,0)"/>
<path style="fill-rule:nonzero;fill:rgb(31.764706%,62.352941%,20.784314%);fill-opacity:1;stroke-width:0.162324;stroke-linecap:butt;stroke-linejoin:miter;stroke:rgb(31.764706%,62.352941%,20.784314%);stroke-opacity:1;stroke-miterlimit:4;" d="M 64.15 38.9 C 66.983333 43.383333 70.366667 47.55 73.75 51.666667 C 75.316667 53.566667 77.083333 55.25 78.45 57.316667 C 72.3 52.7 67.983333 46.233333 63.166667 40.333333 C 63.483333 39.85 63.816667 39.383333 64.15 38.9 Z M 64.15 38.9 " transform="matrix(0.234375,0,0,0.234375,0,0)"/>
<path style="fill-rule:nonzero;fill:rgb(25.882353%,57.647059%,14.509804%);fill-opacity:1;stroke-width:0.162324;stroke-linecap:butt;stroke-linejoin:miter;stroke:rgb(25.882353%,57.647059%,14.509804%);stroke-opacity:1;stroke-miterlimit:4;" d="M 61.3 43.183333 C 61.466667 42.933333 61.8 42.4 61.966667 42.116667 C 63.2 44.166667 64.966667 45.783333 66.25 47.8 C 64.433333 46.483333 62.95 44.75 61.3 43.183333 Z M 61.3 43.183333 " transform="matrix(0.234375,0,0,0.234375,0,0)"/>
<path style="fill-rule:nonzero;fill:rgb(71.372549%,98.823529%,13.333333%);fill-opacity:1;stroke-width:0.162324;stroke-linecap:butt;stroke-linejoin:miter;stroke:rgb(71.372549%,98.823529%,13.333333%);stroke-opacity:1;stroke-miterlimit:4;" d="M 153.75 90.35 C 153.916667 88.75 154.416667 87.183333 155.15 85.733333 C 155.366667 89.166667 155.066667 92.583333 155.2 96 C 155.316667 104.533333 155.316667 113.1 156.966667 121.5 C 157.916667 126.933333 158.166667 132.466667 159.066667 137.9 C 159.066667 139.1 158.9 140.333333 158.666667 141.483333 C 156.8 142.516667 154.866667 143.466667 152.766667 143.833333 C 148.366667 144.7 143.866667 144.616667 139.383333 144.4 C 140.366667 141.983333 141.266667 139.416667 141.566667 136.783333 C 141.966667 133.283333 141.733333 129.733333 141.65 126.233333 C 141.766667 124.383333 141.933333 122.566667 142.016667 120.716667 C 142.3 121.166667 142.583333 121.633333 142.883333 122.083333 C 143.283333 123.733333 143.7 125.366667 144.15 127.016667 C 122.033333 178.633333 68.183333 209.133333 12.533333 201.55 C -43.116667 193.983333 -86.85 150.183333 -94.35 94.533333 C -101.866667 38.883333 -71.283333 -14.933333 -19.65 -37 C 32 -59.05 92.016667 -43.916667 127.016667 0 C 126.7 -4.45 126.366667 -8.9 125.783333 -13.3 C 125.7 -14.833333 125.533333 -16.4 125.366667 -17.916667 C 125.666667 -18.366667 125.95 -18.783333 126.233333 -19.233333 C 126.2 -17.133333 126.816667 -15.083333 128.183333 -13.433333 C 131.883333 25.666667 103.183333 60.383333 64.083333 64.083333 C 24.983333 67.8 -9.716667 39.1 -13.433333 0 C -13.016667 1.316667 -12.366667 2.6 -11.616667 3.75 C -11.366667 0.333333 -11.783333 -3.133333 -12.566667 -6.466667 C -12.85 -8.283333 -13.266667 -10.1 -13.55 -11.9 C -13.466667 -12.766667 -13.35 -13.6 -13.266667 -14.466667 C -13.1 -13.216667 -12.733333 -12.033333 -12.066667 -10.966667 C -11.7 -10.016667 -11.366667 -9.016667 -11.05 -8.066667 C -10.05 -4 -9.016667 0.0833333 -7.75 4.083333 C -7.866667 1.483333 -8.366667 -1.033333 -8.616667 -3.583333 C -9.066667 -9.4 -9.016667 -15.25 -9.066667 -21.05 C -9.1 -25.866667 -9.566667 -30.65 -9.016667 -35.383333 Z M 153.75 90.35 " transform="matrix(0.234375,0,0,0.234375,0,0)"/>
<path style="fill-rule:nonzero;fill:rgb(70.980392%,98.823529%,14.117647%);fill-opacity:1;stroke-width:0.162324;stroke-linecap:butt;stroke-linejoin:miter;stroke:rgb(70.980392%,98.823529%,14.117647%);stroke-opacity:1;stroke-miterlimit:4;" d="M 120.183333 91.433333 C 126.483333 99.866667 131.016667 109.6 137.933333 117.633333 C 136.95 121.866667 136.866667 126.233333 137.233333 130.566667 C 137.4 132.916667 137.983333 135.266667 137.733333 137.65 C 137.683333 139.05 137.683333 140.533333 137.066667 141.85 C 135.5 139.583333 134.066667 137.233333 132.583333 134.933333 C 126.933333 126.033333 121 117.333333 114.9 108.766667 C 115.233333 108.433333 115.6 108.15 115.933333 107.816667 C 119.066667 111.816667 122.116667 115.933333 125.5 119.766667 C 127.466667 122.166667 129.333333 124.666667 131.75 126.616667 C 130.033333 122.366667 126.733333 118.9 125.45 114.45 C 128.383333 118.616667 131.05 123.066667 134.716667 126.7 C 133 120.35 129.083333 114.95 125.733333 109.383333 C 128.95 112.316667 131.35 116.1 134.85 118.733333 C 133.533333 115.933333 131.633333 113.433333 130.033333 110.75 C 126.233333 104.566667 122.366667 98.35 120.183333 91.433333 Z M 120.183333 91.433333 " transform="matrix(0.234375,0,0,0.234375,0,0)"/>
<path style="fill-rule:nonzero;fill:rgb(72.941176%,97.647059%,18.823529%);fill-opacity:1;stroke-width:0.162324;stroke-linecap:butt;stroke-linejoin:miter;stroke:rgb(72.941176%,97.647059%,18.823529%);stroke-opacity:1;stroke-miterlimit:4;" d="M 103.45 93.4 C 105.633333 95.133333 107.366667 97.35 109.183333 99.466667 C 111.533333 102.183333 113.75 105.016667 115.933333 107.866667 C 115.6 108.15 115.233333 108.483333 114.9 108.816667 C 111.233333 103.583333 107.333333 98.516667 103.45 93.4 Z M 103.45 93.4 " transform="matrix(0.234375,0,0,0.234375,0,0)"/>
<path style="fill-rule:nonzero;fill:rgb(70.196078%,98.823529%,19.215686%);fill-opacity:1;stroke-width:0.162324;stroke-linecap:butt;stroke-linejoin:miter;stroke:rgb(70.196078%,98.823529%,19.215686%);stroke-opacity:1;stroke-miterlimit:4;" d="M 148.283333 95.866667 C 148.366667 102.266667 149.433333 108.516667 150.666667 114.75 C 118.983333 115.716667 92.516667 90.816667 91.55 59.116667 C 90.566667 27.433333 115.483333 0.966667 147.166667 0 C 147.083333 0.866667 146.95 1.683333 146.866667 2.55 C 145.55 -3.25 144.316667 -9.433333 145.966667 -15.366667 Z M 148.283333 95.866667 " transform="matrix(0.234375,0,0,0.234375,0,0)"/>
<path style="fill-rule:nonzero;fill:rgb(70.196078%,98.431373%,18.823529%);fill-opacity:1;stroke-width:0.162324;stroke-linecap:butt;stroke-linejoin:miter;stroke:rgb(70.196078%,98.431373%,18.823529%);stroke-opacity:1;stroke-miterlimit:4;" d="M 143.7 102.466667 C 144.933333 106.25 145.266667 110.25 145.933333 114.166667 C 146.383333 116.85 147.033333 119.483333 147.783333 122.083333 C 146.416667 120.433333 145.8 118.366667 145.85 116.266667 C 145.55 116.683333 145.266667 117.133333 144.983333 117.583333 C 144.533333 112.516667 143.866667 107.533333 143.7 102.466667 Z M 143.7 102.466667 " transform="matrix(0.234375,0,0,0.234375,0,0)"/>
<path style="fill-rule:nonzero;fill:rgb(68.627451%,98.039216%,24.313725%);fill-opacity:1;stroke-width:0.162324;stroke-linecap:butt;stroke-linejoin:miter;stroke:rgb(68.627451%,98.039216%,24.313725%);stroke-opacity:1;stroke-miterlimit:4;" d="M 141.683333 114 C 142.133333 116.683333 142.433333 119.366667 142.916667 122 L 142.05 120.633333 C 141.966667 122.483333 141.8 124.3 141.683333 126.15 C 141.316667 122.166667 141.016667 118.033333 141.683333 114 Z M 141.683333 114 " transform="matrix(0.234375,0,0,0.234375,0,0)"/>
<path style="fill-rule:nonzero;fill:rgb(18.431373%,54.117647%,4.705882%);fill-opacity:1;stroke-width:0.162324;stroke-linecap:butt;stroke-linejoin:miter;stroke:rgb(18.431373%,54.117647%,4.705882%);stroke-opacity:1;stroke-miterlimit:4;" d="M 139.216667 114.333333 C 139.333333 114.416667 139.55 114.5 139.666667 114.583333 C 139.55 116.183333 139.5 117.833333 139.55 119.433333 C 139.583333 126.316667 138.966667 133.166667 138.883333 140.033333 C 138.916667 140.983333 138.3 141.816667 137.816667 142.55 C 137.566667 140.9 137.733333 139.25 137.683333 137.65 C 137.933333 135.266667 137.35 132.916667 137.2 130.566667 C 136.816667 126.233333 136.9 121.866667 137.9 117.633333 C 138.216667 116.466667 138.683333 115.4 139.216667 114.333333 Z M 139.216667 114.333333 " transform="matrix(0.234375,0,0,0.234375,0,0)"/>
<path style="fill-rule:nonzero;fill:rgb(41.568627%,69.019608%,9.019608%);fill-opacity:1;stroke-width:0.162324;stroke-linecap:butt;stroke-linejoin:miter;stroke:rgb(41.568627%,69.019608%,9.019608%);stroke-opacity:1;stroke-miterlimit:4;" d="M 151.733333 117.633333 C 152.483333 119.15 152.85 120.916667 154.166667 122.116667 C 154.416667 124.666667 154.916667 127.233333 155.033333 129.783333 C 153.716667 125.783333 152.733333 121.7 151.733333 117.633333 Z M 151.733333 117.633333 " transform="matrix(0.234375,0,0,0.234375,0,0)"/>
<path style="fill-rule:nonzero;fill:rgb(34.509804%,60.784314%,12.941176%);fill-opacity:1;stroke-width:0.162324;stroke-linecap:butt;stroke-linejoin:miter;stroke:rgb(34.509804%,60.784314%,12.941176%);stroke-opacity:1;stroke-miterlimit:4;" d="M 150.216667 119.283333 C 151 122.616667 151.4 126.066667 151.166667 129.5 C 150.416667 128.3 149.766667 127.066667 149.35 125.75 L 149.35 125.333333 C 149.716667 125.5 150.083333 125.666667 150.466667 125.866667 C 150 123.683333 150 121.466667 150.216667 119.283333 Z M 150.216667 119.283333 " transform="matrix(0.234375,0,0,0.234375,0,0)"/>
<path style="fill-rule:nonzero;fill:rgb(34.117647%,61.568627%,12.156863%);fill-opacity:1;stroke-width:0.162324;stroke-linecap:butt;stroke-linejoin:miter;stroke:rgb(34.117647%,61.568627%,12.156863%);stroke-opacity:1;stroke-miterlimit:4;" d="M 145.433333 122.166667 C 146.016667 126.566667 146.383333 131.016667 146.666667 135.466667 C 119.566667 183.7 63.933333 208.333333 10 196.016667 C -43.95 183.683333 -83.333333 137.316667 -86.8 82.1 C -90.25 26.866667 -56.966667 -24.05 -4.983333 -43.016667 C 47 -61.983333 105.266667 -44.466667 138.183333 0 C 138.6 0.2 138.966667 0.416667 139.383333 0.616667 C 139.2 38.933333 108 69.866667 69.683333 69.683333 C 31.366667 69.516667 0.45 38.316667 0.616667 0 Z M 145.433333 122.166667 " transform="matrix(0.234375,0,0,0.234375,0,0)"/>
<path style="fill-rule:nonzero;fill:rgb(85.098039%,85.098039%,71.764706%);fill-opacity:1;stroke-width:0.162324;stroke-linecap:butt;stroke-linejoin:miter;stroke:rgb(85.098039%,85.098039%,71.764706%);stroke-opacity:1;stroke-miterlimit:4;" d="M 137.066667 141.85 C 137.683333 140.533333 137.65 139.05 137.733333 137.65 C 137.766667 139.3 137.6 140.95 137.85 142.55 C 138.133333 143.466667 138.633333 144.333333 139.083333 145.15 C 139.216667 144.866667 139.333333 144.616667 139.466667 144.333333 C 143.916667 144.533333 148.433333 144.616667 152.85 143.75 C 155.316667 147.166667 157.133333 150.95 159.033333 154.666667 C 161.333333 159.066667 162.983333 163.766667 164.716667 168.383333 C 167.966667 176.7 170.316667 185.366667 172.916667 193.933333 C 174.033333 197.066667 174.816667 200.266667 175.75 203.483333 C 177.116667 208.766667 179.333333 213.75 180.25 219.15 C 181.116667 223.133333 181.283333 227.266667 180.866667 231.333333 C 180.666667 232.783333 180.416667 234.35 179.383333 235.416667 C 114.366667 235.916667 61.266667 183.616667 60.766667 118.616667 C 60.266667 53.6 112.566667 0.5 177.566667 0 C 176.616667 -4.366667 176.833333 -8.933333 175.75 -13.266667 C 174.966667 -17.383333 173.783333 -21.383333 172.5 -25.333333 C 171.016667 -29.166667 169.9 -33.166667 168.383333 -36.95 C 166.65 -41.933333 164.6 -46.8 163.2 -51.916667 C 161.416667 -57.433333 161.416667 -63.45 159.116667 -68.85 C 158.616667 -70.733333 157.416667 -72.3 155.85 -73.45 C 155.533333 -68.766667 156.516667 -64.1 157.583333 -59.566667 C 158.416667 -55.5 159.733333 -51.533333 160.883333 -47.55 C 162.783333 -42.516667 163.966667 -37.25 166.116667 -32.3 C 168.05 -26.333333 170.566667 -20.233333 170.066667 -13.85 C 166.983333 -17.1 166.366667 -21.8 165.05 -25.866667 C 162.9 -32.1 161.216667 -38.433333 159.116667 -44.616667 C 157.633333 -49.65 155.983333 -54.633333 154.866667 -59.783333 C 153.666667 -63.816667 153.216667 -68.066667 151.9 -72.05 C 151.283333 -74.483333 150.416667 -76.883333 148.983333 -78.933333 C 148.566667 -77.816667 148.2 -76.716667 148.316667 -75.516667 C 148.516667 -70.416667 150.866667 -65.8 151.816667 -60.816667 C 152.733333 -56.116667 153.433333 -51.333333 154.5 -46.633333 C 155.4 -43.1 155.783333 -39.433333 157.016667 -35.966667 C 158.583333 -30.9 160.633333 -26 162.616667 -21.05 C 163.933333 -16.9 165.833333 -12.983333 166.9 -8.733333 C 167.8 -5.35 169.05 -1.983333 169.283333 1.566667 C 169.416667 3.383333 169.666667 5.15 169.983333 6.916667 C 167.15 6.05 164.716667 3.95 163.6 1.2 C 157.333333 -12.683333 155.283333 -27.9 151.166667 -42.433333 C 148.766667 -50.433333 146.183333 -58.333333 143.833333 -66.366667 C 141.35 -74.783333 139 -83.35 136.2 -91.75 M 139.383333 -88.583333 C 139.5 -87.35 139.633333 -86.15 139.916667 -84.95 C 142.133333 -74.283333 145.633333 -63.933333 148.933333 -53.566667 C 151.166667 -46.55 154.333333 -39.833333 155.483333 -32.55 C 157.266667 -23.4 158.5 -13.883333 163.116667 -5.65 C 163.966667 -4.083333 164.716667 -2.35 166.233333 -1.366667 C 166.9 -2.466667 167.016667 -3.75 166.65 -4.983333 C 165.333333 -9.85 163.566667 -14.55 161.95 -19.283333 C 159.45 -26.783333 156.933333 -34.283333 154.45 -41.783333 C 151.7 -50.683333 148.766667 -59.616667 147.416667 -68.883333 C 146.633333 -74.533333 146.1 -80.216667 145.1 -85.816667 C 144.933333 -86.716667 144.766667 -87.716667 144.283333 -88.5 C 142.666667 -88.9 140.983333 -88.616667 139.383333 -88.583333 Z M 139.383333 -88.583333 " transform="matrix(0.234375,0,0,0.234375,0,0)"/>
<path style="fill-rule:nonzero;fill:rgb(81.568627%,80.784314%,65.490196%);fill-opacity:1;stroke-width:0.162324;stroke-linecap:butt;stroke-linejoin:miter;stroke:rgb(81.568627%,80.784314%,65.490196%);stroke-opacity:1;stroke-miterlimit:4;" d="M 159.116667 137.85 C 159.316667 139.25 159.2 140.7 159.683333 142.016667 C 160.916667 145.266667 162.116667 148.533333 163.183333 151.816667 C 168.383333 168.016667 172.866667 184.45 178.1 200.683333 C 180.9 209.383333 185.15 217.666667 186.55 226.766667 C 186.916667 229.6 187.3 232.733333 185.816667 235.333333 C 185.65 235.666667 185.433333 236 185.266667 236.316667 C 182.266667 240.316667 176.866667 241.8 172.083333 240.9 C 171.716667 240.766667 171.35 240.683333 170.983333 240.566667 C 170.683333 238.8 170.4 236.983333 170.283333 235.216667 C 170.033333 231.666667 168.833333 228.283333 167.883333 224.916667 C 166.766667 220.7 164.883333 216.75 163.6 212.6 C 161.666667 207.65 159.566667 202.783333 158 197.683333 C 156.766667 194.216667 156.4 190.55 155.483333 187 C 154.45 182.316667 153.75 177.533333 152.8 172.833333 C 151.866667 167.883333 149.516667 163.233333 149.3 158.133333 C 149.183333 156.933333 149.6 155.816667 149.966667 154.7 C 151.4 156.766667 152.266667 159.15 152.883333 161.583333 C 154.216667 165.583333 154.666667 169.833333 155.85 173.866667 C 156.933333 179.016667 158.583333 184 160.1 189.033333 C 162.2 195.25 163.883333 201.6 166.033333 207.766667 C 167.35 211.9 168.016667 216.55 171.066667 219.8 C 171.55 213.383333 169.033333 207.316667 167.1 201.35 C 164.966667 196.4 163.766667 191.133333 161.866667 186.1 C 160.716667 182.1 159.4 178.15 158.583333 174.066667 C 157.5 169.533333 156.516667 164.883333 156.85 160.183333 C 158.416667 161.333333 159.6 162.9 160.1 164.8 C 162.4 170.2 162.366667 176.166667 164.183333 181.733333 C 165.583333 186.8 167.633333 191.7 169.366667 196.683333 C 170.9 200.516667 172 204.483333 173.483333 208.3 C 174.766667 212.266667 175.966667 216.266667 176.75 220.383333 C 177.816667 224.75 177.616667 229.283333 178.55 233.65 C 178.683333 234.3 178.966667 234.966667 179.5 235.45 C 180.533333 234.35 180.733333 232.783333 180.983333 231.383333 C 117.1 234.75 62.566667 185.683333 59.2 121.783333 C 55.833333 57.9 104.9 3.366667 168.8 0 C 167.883333 -5.4 165.666667 -10.383333 164.3 -15.65 C 163.316667 -18.833333 162.566667 -22.083333 161.466667 -25.216667 C 158.816667 -33.75 156.483333 -42.4 153.266667 -50.75 C 151.533333 -55.416667 149.883333 -60.116667 147.583333 -64.483333 C 145.633333 -68.183333 143.833333 -71.983333 141.4 -75.4 C 143.5 -75.716667 145.433333 -76.716667 147.283333 -77.75 C 147.366667 -78.9 147.533333 -80.133333 147.533333 -81.333333 Z M 159.116667 137.85 " transform="matrix(0.234375,0,0,0.234375,0,0)"/>
<path style="fill-rule:nonzero;fill:rgb(95.294118%,94.509804%,79.607843%);fill-opacity:1;stroke-width:0.162324;stroke-linecap:butt;stroke-linejoin:miter;stroke:rgb(95.294118%,94.509804%,79.607843%);stroke-opacity:1;stroke-miterlimit:4;" d="M 140.25 145.033333 C 141.85 145.033333 143.533333 144.7 145.1 145.15 C 145.6 145.933333 145.766667 146.916667 145.933333 147.833333 C 146.916667 153.433333 147.45 159.116667 148.233333 164.766667 C 149.6 174.033333 152.516667 182.933333 155.283333 191.866667 C -389.716667 2763.916667 -2904.233333 4417.416667 -5481.7 3898.633333 C -8059.15 3379.866667 -9738.166667 882.316667 -9245.683333 -1700.3 C -8753.183333 -4282.9 -6272.866667 -5987.266667 -3685.366667 -5521.1 C -1097.883333 -5054.933333 631.666667 -2592.1 191.866667 0 C 193.466667 4.733333 195.283333 9.433333 196.566667 14.3 C 192.616667 13.3 190.233333 9.283333 191.233333 5.333333 C 192.233333 1.383333 196.25 -1 200.183333 0 C 198.633333 -1.033333 197.916667 -2.766667 197.066667 -4.283333 C 192.45 -12.516667 191.216667 -22.033333 189.433333 -31.183333 C 188.25 -38.483333 185.116667 -45.2 182.883333 -52.2 C 179.583333 -62.583333 176.083333 -72.916667 173.866667 -83.6 C 173.616667 -84.833333 173.5 -86.066667 173.366667 -87.266667 Z M 140.25 145.033333 " transform="matrix(0.234375,0,0,0.234375,0,0)"/>
<path style="fill-rule:nonzero;fill:rgb(87.058824%,75.686275%,40.392157%);fill-opacity:1;stroke-width:0.162324;stroke-linecap:butt;stroke-linejoin:miter;stroke:rgb(87.058824%,75.686275%,40.392157%);stroke-opacity:1;stroke-miterlimit:4;" d="M 185.233333 236.316667 C 185.433333 236 185.6 235.666667 185.766667 235.333333 C 186.183333 237.233333 187.75 238.666667 189.35 239.666667 C 191.95 241.15 194.7 242.25 197.433333 243.45 C 197.216667 243.45 197.016667 243.533333 196.816667 243.533333 C 193.85 243.416667 190.75 243.733333 187.95 242.416667 C 188.2 243.25 188.483333 244.066667 188.733333 244.933333 C 187.5 245.383333 186.133333 245.466667 184.866667 245.6 C 185.65 246.133333 186.466667 246.616667 187.25 247.2 C 185.683333 247.616667 184.166667 247.283333 182.683333 246.783333 C 183.216667 247.85 183.666667 249.016667 184.566667 249.833333 C 185.35 250.5 186.35 250.9 187.25 251.366667 C 184.9 252.55 182.216667 251.9 180.166667 250.45 C 180.9 251.683333 181.983333 252.883333 182.15 254.416667 C 181.983333 254.533333 181.683333 254.733333 181.516667 254.866667 C 179.216667 253.833333 177.816667 251.6 176.366667 249.633333 C 176.3 250.75 176.166667 251.9 175.883333 253 C 175.633333 253.666667 175.35 254.333333 175.016667 254.983333 C 174.683333 253.083333 174.433333 251.2 174.183333 249.3 C 173.366667 250.2 172.616667 251.233333 171.516667 251.683333 C 170.15 252.266667 168.633333 252.066667 167.233333 251.85 C 168.583333 250.45 170.6 249.75 171.716667 248.1 C 172.416667 245.916667 172.3 243.533333 172.133333 241.266667 C 172.416667 242.55 172.95 243.733333 173.483333 244.933333 C 173.733333 244.116667 173.95 243.283333 174.183333 242.466667 C 107.233333 223.616667 68.25 154.05 87.1 87.1 C 105.95 20.15 175.5 -18.85 242.466667 0 C 242.583333 -0.366667 242.783333 -1.066667 242.916667 -1.4 C 244.233333 -0.25 245.633333 0.816667 247.2 1.566667 C 246.366667 0.166667 245.516667 -1.233333 244.683333 -2.683333 C 246.7 -1.766667 248.8 -0.866667 251.116667 -0.95 C 249.916667 -2.1 248.633333 -3.166667 247.366667 -4.25 C 249.133333 -4.033333 250.9 -3.866667 252.633333 -4.333333 L 249.55 -5.816667 C 251.033333 -6.433333 252.633333 -6.05 254.083333 -5.6 C 253.05 -6.716667 252.15 -8 251.316667 -9.316667 Z M 185.233333 236.316667 " transform="matrix(0.234375,0,0,0.234375,0,0)"/>
<path style="fill-rule:nonzero;fill:rgb(69.411765%,59.607843%,28.235294%);fill-opacity:1;stroke-width:0.162324;stroke-linecap:butt;stroke-linejoin:miter;stroke:rgb(69.411765%,59.607843%,28.235294%);stroke-opacity:1;stroke-miterlimit:4;" d="M 172.05 240.9 C 176.833333 241.85 182.266667 240.366667 185.233333 236.316667 C 119.966667 222.216667 78.5 157.866667 92.616667 92.616667 C 106.716667 27.35 171.066667 -14.116667 236.316667 0 C 234.833333 -0.45 233.266667 -0.816667 231.783333 -0.2 L 234.883333 1.283333 C 233.15 1.733333 231.333333 1.566667 229.6 1.366667 C 230.883333 2.433333 232.166667 3.5 233.35 4.65 C 231.083333 4.733333 228.983333 3.833333 226.933333 2.916667 C 227.75 4.366667 228.616667 5.733333 229.45 7.166667 C 227.833333 6.433333 226.433333 5.35 225.15 4.2 C 225.033333 4.533333 224.833333 5.233333 224.7 5.6 C 223.966667 4.533333 223.266667 3.5 222.516667 2.433333 C 222.316667 3.25 222.066667 4.083333 221.816667 4.9 C 221.283333 3.7 220.75 2.516667 220.466667 1.233333 Z M 172.05 240.9 " transform="matrix(0.234375,0,0,0.234375,0,0)"/>
<path style="fill-rule:nonzero;fill:rgb(0.784314%,0.392157%,0%);fill-opacity:1;stroke-width:0.162324;stroke-linecap:butt;stroke-linejoin:miter;stroke:rgb(0.784314%,0.392157%,0%);stroke-opacity:1;stroke-miterlimit:4;" d="M 188 242.466667 C 190.8 243.733333 193.883333 243.45 196.85 243.566667 C 193.883333 245.216667 190.25 245.716667 187.7 248.066667 C 186.633333 249.266667 188.283333 250.333333 189.183333 250.9 C 187.45 252.466667 184.95 253.3 183.95 255.516667 C 180.983333 256.433333 177.933333 255.233333 175.916667 253.05 C 176.216667 251.933333 176.333333 250.833333 176.416667 249.666667 C 177.85 251.6 179.25 253.833333 181.566667 254.9 C 181.733333 254.783333 182.016667 254.566667 182.183333 254.45 C 181.983333 252.966667 180.95 251.766667 180.2 250.5 C 182.266667 251.933333 184.95 252.6 187.3 251.4 C 186.383333 250.9 185.4 250.533333 184.616667 249.883333 C 183.75 249.016667 183.25 247.85 182.716667 246.833333 C 184.2 247.316667 185.766667 247.65 187.3 247.233333 C 186.516667 246.7 185.733333 246.166667 184.9 245.633333 C 186.216667 245.516667 187.533333 245.466667 188.783333 244.966667 C 121.133333 245.666667 65.733333 191.383333 65.033333 123.75 C 64.333333 56.1 118.616667 0.7 186.266667 0 Z M 188 242.466667 " transform="matrix(0.234375,0,0,0.234375,0,0)"/>
</g>
</svg>
