<svg xmlns="http://www.w3.org/2000/svg" width="256" height="256">
  <g stroke-width=".394">
    <path
      d="M137.77.788c3.297-.824 7.128-1.236 10.218.535 2.925 1.813 4.285 5.15 5.274 8.281 2.842 8.982 2.307 18.54 1.977 27.851-.247 6.015-.618 12.071.041 18.086 1.978 17.263 1.319 34.649 2.143 51.952.741 20.23 5.562 40.046 11.412 59.327 2.39 7.745 4.696 15.532 7.58 23.113 2.967 7.869 6.221 15.696 8.034 23.895.289 1.442 1.03 2.72 1.525 4.079 1.36 3.543 2.018 7.333 2.183 11.123.041 2.225-.947 4.574-.206 6.757 2.802 2.472 7.128 2.348 9.888 4.903.37.453.906.906.824 1.565-.33.454-.742.824-1.154 1.195-2.719-1.195-5.48-2.348-8.075-3.79-1.606-.989-3.172-2.43-3.584-4.326 1.483-2.596 1.112-5.727.742-8.57-1.401-9.104-5.686-17.385-8.446-26.078-5.191-16.233-9.682-32.63-14.914-48.862-1.071-3.296-2.307-6.551-3.502-9.806-.536-1.318-.371-2.76-.577-4.161-.906-5.438-1.154-10.959-2.101-16.397-1.648-8.405-1.648-16.974-1.772-25.502-.123-3.42.206-6.84-.04-10.259-.537-7.416-.413-14.873-.866-22.289-.66-7.704-.082-15.408-.082-23.112.04-8.405.123-16.892-1.484-25.214-.741-3.42-1.648-7.086-4.202-9.6a7.942 7.942 0 00-1.236-1.112 13.175 13.175 0 00-2.513-.618h-2.019c-.7 0-1.4.041-2.101.083-.7.04-1.4.04-2.06.123-.824.124-1.69.124-2.43.577-.99 1.483-.99 3.337-1.237 5.026-2.348.206-4.696.618-7.003.247-2.225-.164-4.615-.576-6.757.248-.989.37-1.112 1.524-1.277 2.43-.33 3.132.123 6.304.123 9.435-.906-2.72-1.73-5.438-2.76-8.116-.66-1.895-2.225-3.42-4.202-3.832-5.274-1.195-10.836.907-14.832 4.367-1.4 1.236-1.648 3.173-1.112 4.903 1.771 6.921 6.097 12.772 8.651 19.364 1.854 4.573 3.873 9.063 5.81 13.595 1.235 2.967 2.677 5.892 3.543 8.982-9.147-12.69-18.293-25.75-23.154-40.787-2.596 2.513-5.274 4.943-7.87 7.498-1.441 1.4-2.636 3.09-3.748 4.779-1.442-1.648-2.884-3.502-4.985-4.367-.948-.412-1.937.165-2.76.577-.536.412-1.072.906-1.566 1.4a35.2 35.2 0 00-2.637 2.925c-.453.536-.865 1.072-1.318 1.648a75.86 75.86 0 01-1.648 2.184 78.814 78.814 0 00-1.36 1.936c-.33.454-.66.948-.989 1.442-.37.577-.783 1.195-1.153 1.772-.165.247-.495.783-.66 1.071-.33.494-.659.989-.947 1.524-.37.742-1.154 1.73-.288 2.472 7.539 9.97 17.18 18.17 26.202 26.862 6.221 5.933 12.113 12.277 17.139 19.281 3.873 5.068 7.787 10.135 11.453 15.368 6.098 8.569 12.072 17.262 17.675 26.16 1.483 2.308 2.925 4.656 4.49 6.922 2.802 8.405 5.15 16.974 7.746 25.42 2.307 7.993 4.944 15.944 7.333 23.937 4.12 14.543 6.18 29.745 12.442 43.63 1.113 2.76 3.543 4.861 6.386 5.726.37.124.742.206 1.112.33l.042.37c.206 2.267.288 4.656-.412 6.84-1.113 1.648-3.09 2.348-4.491 3.749 1.4.165 2.925.412 4.285-.165 1.153-.494 1.895-1.524 2.678-2.39.247 1.896.494 3.79.824 5.686-.165.206-.412.618-.577.865-.783-1.236-.865-2.843-1.937-3.831-1.524 0-2.39 1.854-3.996 1.936-.824.041-2.142.535-2.472-.536.742-1.689 2.184-2.966 2.967-4.655 1.03-1.937 1.483-4.367.37-6.345-.906-2.142-3.13-3.213-4.573-4.944-4.326-4.944-6.674-11.247-8.446-17.468-1.689-5.933-2.636-12.071-3.707-18.128-1.525-7.374-3.79-14.584-5.892-21.794-3.049-10.259-6.345-20.435-9.229-30.776-.535-1.524-.494-3.254-1.524-4.573-13.884-19.116-24.637-40.457-39.922-58.585-8.57-10.258-19.57-18.004-28.84-27.52-3.048-3.132-6.88-5.686-8.94-9.682-1.688-3.173-1.03-7.128.907-10.053 2.76-4.12 6.098-7.87 9.93-11.041 1.977-1.525 4.201-3.173 6.797-3.214 2.183.865 3.296 3.214 4.738 4.985 3.584-3.831 6.962-7.828 10.876-11.33 2.514 1.236 3.502 3.997 4.409 6.427 1.07 3.214 2.636 6.18 4.12 9.23 1.73 3.501 3.625 7.044 6.509 9.722-3.667-6.674-7.416-13.307-10.259-20.352-.988-2.637-2.142-5.439-1.647-8.322.411-2.308 2.183-4.203 4.325-5.068 3.626-1.607 7.663-1.071 11.495-1.112 3.049 0 6.015 1.194 8.363 3.13.66-1.441 1.73-2.718 3.255-3.295 3.502-1.442 7.333-.865 11-.453.742-2.843 1.607-6.345 4.656-7.416z"
      fill="#000100" stroke="#000100" stroke-width=".16232406000000002" />
    <path
      d="M136.164 4.537c.742-.453 1.607-.453 2.43-.577.083 6.55 1.113 13.06 1.484 19.61 1.03 11.619 1.854 23.237 1.524 34.896-.123 4.82-1.153 9.6-.741 14.42.37-3.296.824-6.592 1.442-9.888.947-5.438 1.112-11 1.03-16.52.082-10.094-.783-20.147-1.566-30.2-.412-4.16-.536-8.322-1.071-12.483.7-.04 1.4-.04 2.101-.082.288 4.532 1.483 8.94 1.978 13.472 1.07 7.54 1.73 15.12 2.348 22.7.165 4.821.123 9.641-.453 14.462-.412 6.138-1.566 12.277-1.277 18.498.7-6.51 2.1-12.895 2.801-19.364 1.566-10.258.66-20.682-.577-30.899-.577-6.303-1.771-12.566-2.842-18.828.865.165 1.689.371 2.513.618 0 2.884 1.194 5.52 1.689 8.322 2.019 10.3 2.554 20.806 2.307 31.312.082 13.06-.536 26.202 1.195 39.18.082-7.951-.165-15.944.288-23.937.536-10.011.7-20.022.495-30.075-.412-5.644-.99-11.289-2.06-16.85-.454-2.431-1.607-4.656-2.678-6.84 2.554 2.555 3.46 6.18 4.202 9.6 1.566 8.28 1.524 16.768 1.483 25.214 0 7.704-.577 15.408.083 23.112.494 7.416.37 14.873.865 22.29-.742 1.441-1.277 3.007-1.401 4.613-.536 4.738-.041 9.517-.041 14.296.04 5.81 0 11.66.453 17.469-1.318-1.195-1.69-2.967-2.43-4.49-.33-.948-.701-1.937-1.03-2.885-1.278-6.22-2.308-12.524-2.39-18.869-1.648 5.891-.412 12.113.906 17.922.33 1.812.7 3.625.989 5.438-.206 2.183-.165 4.408.247 6.592-.37-.206-.742-.371-1.112-.536v.412a40.474 40.474 0 00-1.525-3.667 64.835 64.835 0 01-1.854-7.91c-.659-3.914-.988-7.91-2.224-11.7.164 5.067.824 10.052 1.318 15.079.165 1.524.33 3.048.412 4.614a26.666 26.666 0 00-.082 5.438c-.412-.206-.783-.412-1.195-.618-.412-1.648-.824-3.296-1.277-4.944-.495-2.678-.783-5.356-1.236-7.992-.66 4.037-.371 8.116.04 12.195.083 3.501.33 7.045-.082 10.546-.288 2.637-1.153 5.192-2.183 7.622-.124.289-.247.536-.37.824-.454-.865-.949-1.689-1.237-2.595.494-.783 1.112-1.566 1.071-2.513.083-6.88.742-13.72.66-20.6-.042-1.607 0-3.255.123-4.861.206-2.678-.33-5.274-.7-7.91-1.195-8.076-3.461-16.068-3.131-24.308.206-8.116 1.03-16.191 1.4-24.307.412-8.487.577-17.016.083-25.544-.824-7.498-2.39-14.914-2.431-22.495-3.46.042-6.921.124-10.382-.33 1.524 8.323 4.12 16.48 5.108 24.885 1.36 10.506 1.607 21.135 2.102 31.723.04 8.57.659 17.18-.124 25.709-.124-.124-.33-.454-.453-.577-.7-7.416 0-14.956-1.648-22.248-2.637-12.277-4.573-24.678-5.974-37.12-.124 4.45-.082 8.899.494 13.348.577 8.405 1.937 16.768 3.544 25.008 1.112 5.85.824 11.824.988 17.757-1.153-1.566-2.884-2.925-3.13-4.985-1.484-8.528-2.596-17.098-3.544-25.667-.783-7.375-1.895-14.708-1.895-22.124-.041-4.49.082-9.023 0-13.513 0-3.131-.412-6.304-.124-9.435.124-.906.248-2.06 1.277-2.43 2.143-.825 4.532-.413 6.757-.248 2.348.371 4.697-.041 7.004-.247.247-1.648.288-3.502 1.236-4.985zM98.22 14.342c3.996-3.46 9.558-5.562 14.831-4.367 1.978.412 3.543 1.937 4.203 3.832-.083.247-.206.783-.289 1.07-.618-3.295-4.285-5.437-7.457-4.407.536 2.678 1.154 5.314 2.06 7.91 1.524 4.243 2.72 8.61 3.955 12.978.495 1.977.948 3.955 1.69 5.891l.04.206c-.04.247-.123.783-.164 1.03-1.772-2.76-3.09-5.81-4.409-8.817-2.018-4.944-3.501-10.3-7.003-14.46.33 1.771.865 3.501 1.36 5.232 1.524 5.232 2.842 10.547 4.243 15.861.7 2.637 1.483 5.274 1.771 7.993-1.73-2.843-2.348-6.18-3.872-9.105-1.896-4.573-4.203-8.94-6.345-13.39-1.36-2.595-2.72-5.232-4.614-7.457zM84.088 27.856c2.596-2.555 5.274-4.985 7.87-7.499 4.902 14.997 14.007 28.098 23.153 40.787 2.06 3.956 3.296 8.281 4.78 12.525.782 2.348 1.73 4.655 2.265 7.086-4.243-4.779-7.869-10.011-11.7-15.12-4.903-6.757-9.888-13.43-14.626-20.27-4.12-5.726-7.787-11.7-11.742-17.51z"
      fill="#539a34" stroke="#539a34" stroke-width=".16232406000000002" />
    <path
      d="M109.508 10.428c3.172-1.03 6.84 1.113 7.457 4.409-1.607 7.374-.082 14.914.247 22.33-.7-1.937-1.194-3.914-1.689-5.892-1.195-4.367-2.43-8.693-3.955-12.978-.906-2.554-1.483-5.19-2.06-7.869zM97.107 19.245c-.535-1.73-.288-3.667 1.113-4.903 1.895 2.225 3.213 4.862 4.614 7.416 2.142 4.45 4.45 8.817 6.345 13.39 1.565 2.925 2.183 6.262 3.872 9.105-.33-2.72-1.07-5.356-1.771-7.993-1.401-5.273-2.72-10.588-4.244-15.861-.535-1.73-1.071-3.461-1.36-5.233 3.503 4.161 4.986 9.517 7.004 14.461 1.36 3.008 2.637 6.056 4.409 8.817.041-.247.123-.783.165-1.03 1.36 8.652 2.39 17.386 4.037 25.996.412 2.184 1.236 4.367.865 6.592-.453 1.401-1.854 2.225-2.266 3.667-1.442-4.202-2.719-8.528-4.779-12.525-.906-3.13-2.307-6.015-3.543-8.981-1.936-4.532-3.914-9.023-5.809-13.596-2.554-6.591-6.88-12.442-8.652-19.322z"
      fill="#2f8a0f" stroke="#2f8a0f" stroke-width=".16232406000000002" />
    <path
      d="M138.595 3.96c.7-.041 1.4-.082 2.06-.123.535 4.12.659 8.322 1.07 12.483.784 10.052 1.649 20.105 1.566 30.199.083 5.52-.082 11.082-1.03 16.52-.576 3.297-1.07 6.551-1.442 9.888-.37-4.82.66-9.599.742-14.42.33-11.659-.494-23.318-1.524-34.895-.33-6.592-1.36-13.101-1.442-19.652z"
      fill="#318911" stroke="#318911" stroke-width=".16232406000000002" />
    <path
      d="M142.756 3.795c.659-.04 1.36-.04 2.019 0 1.03 6.263 2.224 12.484 2.842 18.828 1.195 10.218 2.143 20.641.577 30.9-.7 6.51-2.142 12.895-2.801 19.363-.289-6.18.823-12.318 1.277-18.498.618-4.78.618-9.64.453-14.461-.618-7.58-1.318-15.161-2.348-22.7-.495-4.491-1.69-8.9-2.02-13.432zM124.051 45.448c-.535-4.409-.618-8.9-.494-13.349 1.4 12.442 3.337 24.843 5.974 37.12 1.648 7.293.947 14.832 1.648 22.248l-2.596-3.214c-.206-5.932.124-11.906-.988-17.756-1.607-8.323-2.967-16.645-3.544-25.05z"
      fill="#308910" stroke="#308910" stroke-width=".16232406000000002" />
    <path
      d="M147.288 4.413c.453.33.865.7 1.236 1.113 1.112 2.183 2.266 4.408 2.678 6.839 1.07 5.562 1.689 11.206 2.06 16.85a406.877 406.877 0 01-.495 30.075c-.453 7.952-.206 15.945-.288 23.937-1.73-12.978-1.154-26.12-1.195-39.18.247-10.465-.33-21.012-2.307-31.311-.495-2.802-1.69-5.439-1.69-8.323z"
      fill="#308911" stroke="#308911" stroke-width=".16232406000000002" />
    <path
      d="M124.546 9.687c3.46.453 6.921.37 10.382.33.041 7.58 1.607 14.996 2.43 22.494.495 8.487.29 17.015-.082 25.544-.37 8.116-1.194 16.19-1.4 24.307-.33 8.24 1.977 16.232 3.13 24.307.371 2.637.866 5.233.701 7.91-.124-.04-.37-.164-.453-.247-3.955-4.614-6.963-9.887-10.053-15.078-3.296-5.686-6.633-11.33-10.505-16.645-9.147-12.813-20.106-24.225-29.21-37.079-2.885-4.367-5.686-8.817-9.023-12.895 1.112-1.69 2.266-3.379 3.749-4.78 3.914 5.81 7.622 11.784 11.742 17.428 4.738 6.839 9.723 13.554 14.625 20.27 3.832 5.108 7.457 10.382 11.7 15.12-.535-2.431-1.482-4.738-2.265-7.086.412-1.442 1.854-2.266 2.266-3.667.37-2.225-.453-4.408-.865-6.592-1.69-8.61-2.72-17.345-4.038-25.997l-.041-.206c-.33-7.415-1.895-14.955-.247-22.33.082-.247.206-.782.288-1.07 1.03 2.677 1.854 5.396 2.76 8.116.083 4.49 0 9.022 0 13.513 0 7.416 1.113 14.75 1.896 22.124.988 8.61 2.06 17.18 3.543 25.667.247 2.06 1.977 3.42 3.13 4.985.866 1.071 1.69 2.183 2.596 3.213.124.165.33.454.454.577.782-8.57.164-17.139.123-25.708-.494-10.588-.741-21.218-2.1-31.723-1.113-8.323-3.709-16.48-5.233-24.802z"
      fill="#136812" stroke="#136812" stroke-width=".16232406000000002" />
    <path
      d="M72.635 28.844c.824-.412 1.813-.988 2.76-.576 2.06.865 3.543 2.719 4.985 4.367 3.338 4.037 6.14 8.528 9.023 12.895 9.146 12.854 20.064 24.266 29.21 37.08 3.873 5.314 7.21 10.958 10.506 16.644 3.09 5.19 6.097 10.464 10.052 15.078a20.16 20.16 0 00-1.277 3.296c-6.88-8.034-11.412-17.756-17.756-26.202 2.183 6.921 6.097 13.142 9.887 19.28 1.607 2.679 3.461 5.192 4.82 7.993-3.501-2.636-5.89-6.385-9.104-9.352 3.337 5.562 7.25 10.96 8.981 17.304-3.626-3.626-6.303-8.075-9.27-12.236 1.277 4.45 4.573 7.91 6.304 12.153-2.431-1.936-4.285-4.449-6.263-6.839-3.378-3.831-6.427-7.951-9.558-11.947-2.225-2.843-4.408-5.686-6.756-8.405-1.813-2.101-3.544-4.326-5.727-6.056-5.026-7.004-10.877-13.349-17.139-19.281-9.022-8.693-18.663-16.892-26.244-26.944-.865-.742-.04-1.73.289-2.472 2.307 3.42 5.52 6.138 8.322 9.105 2.101 2.307 4.573 4.243 6.674 6.591 1.69 1.854 3.75 3.338 5.52 5.15 4.986 5.068 10.383 9.64 15.08 14.956 7.004 7.25 13.43 15.12 18.828 23.648 1.977 2.719 3.749 5.603 5.809 8.28-.453-2.265-2.184-3.954-3.255-5.932-2.472-4.326-5.315-8.404-7.951-12.607-5.11-7.292-11.165-13.801-17.222-20.27-3.584-3.831-7.704-7.086-11.123-11.082 2.884 1.73 5.314 4.037 7.992 5.974 4.903 4.12 9.97 8.157 14.42 12.771 4.655 4.573 8.199 10.135 12.978 14.626-2.678-3.996-5.645-7.787-8.693-11.495-1.648-2.39-3.873-4.284-5.397-6.756 2.265 1.565 4.16 3.625 6.097 5.562 1.813 1.812 3.172 4.037 5.109 5.726-.907-1.771-2.143-3.378-3.379-4.902-5.438-6.922-12.277-12.525-18.869-18.251A149.728 149.728 0 0176.796 51.75c-4.161-4.655-7.786-9.764-11.288-14.914a75.86 75.86 0 011.648-2.184c2.801 4.491 5.932 8.817 9.434 12.813 7.622 8.858 16.686 16.274 25.173 24.267 2.554 2.1 4.738 4.573 7.004 6.962 2.39 2.596 4.779 5.191 6.921 7.993 1.36 1.689 2.43 3.625 4.038 5.15-1.03-2.802-2.967-5.068-4.615-7.54-4.078-5.356-8.487-10.464-13.43-14.996-9.518-9.558-20.147-18.169-28.098-29.17-1.813-2.306-3.09-5.025-5.11-7.127a35.936 35.936 0 012.638-2.925c2.595 5.027 5.356 9.97 8.61 14.626 1.978 3.296 4.573 6.18 7.292 8.817 4.78 4.985 10.424 9.063 15.45 13.801 1.195 1.154 2.39 2.307 3.708 3.337-2.307-3.378-5.356-6.22-8.363-8.981-4.944-5.067-10.465-9.682-14.544-15.532-3.955-5.397-7.25-11.37-10.629-17.304z"
      fill="#539a33" stroke="#539a33" stroke-width=".16232406000000002" />
    <path
      d="M71.07 30.245c.494-.494 1.03-.947 1.565-1.4 3.378 5.932 6.674 11.906 10.63 17.427 4.078 5.85 9.599 10.464 14.543 15.532 3.007 2.76 6.056 5.603 8.363 8.981-1.318-1.03-2.513-2.184-3.708-3.337-5.026-4.738-10.63-8.817-15.45-13.802-2.76-2.678-5.314-5.562-7.292-8.816-3.296-4.615-6.015-9.559-8.652-14.585z"
      fill="#318811" stroke="#318811" stroke-width=".16232406000000002" />
    <path
      d="M67.114 34.777a46.15 46.15 0 011.319-1.648c2.018 2.142 3.296 4.82 5.108 7.128 7.993 11 18.581 19.61 28.098 29.168 4.944 4.574 9.352 9.682 13.431 14.997 1.648 2.43 3.584 4.738 4.614 7.54-1.606-1.525-2.636-3.461-4.037-5.15-2.101-2.843-4.49-5.439-6.922-7.993-2.266-2.39-4.49-4.862-7.003-6.963-8.487-7.992-17.551-15.408-25.173-24.266-3.502-3.955-6.633-8.281-9.435-12.813z"
      fill="#308811" stroke="#308811" stroke-width=".16232406000000002" />
    <path
      d="M64.148 38.897c.453-.66.906-1.277 1.36-1.936 3.502 5.15 7.127 10.258 11.288 14.914A149.728 149.728 0 0091.298 65.84c6.592 5.727 13.472 11.33 18.87 18.251 1.277 1.525 2.471 3.09 3.378 4.903-1.937-1.69-3.296-3.914-5.109-5.727-1.978-1.936-3.832-3.996-6.097-5.562 1.524 2.472 3.749 4.368 5.397 6.757 3.048 3.708 6.015 7.498 8.693 11.495-4.78-4.45-8.323-10.053-12.978-14.626-4.45-4.656-9.476-8.652-14.42-12.772-2.719-1.936-5.15-4.284-7.992-5.974 3.42 3.997 7.539 7.251 11.123 11.083 6.098 6.468 12.154 12.978 17.222 20.27 2.677 4.202 5.479 8.322 7.951 12.607 1.071 1.977 2.802 3.625 3.255 5.932-2.06-2.678-3.832-5.561-5.81-8.28-5.396-8.529-11.823-16.398-18.827-23.649-4.697-5.314-10.135-9.929-15.08-14.955-1.73-1.813-3.83-3.296-5.52-5.15-2.06-2.348-4.532-4.285-6.674-6.592-2.802-3.007-6.015-5.685-8.322-9.105.288-.535.618-1.03.947-1.524 1.607 1.565 3.09 3.296 4.944 4.614-1.277-2.019-3.049-3.625-4.285-5.685.371-.618.783-1.195 1.154-1.772 4.82 5.892 9.146 12.36 15.285 16.974-1.36-2.06-3.131-3.749-4.697-5.644-3.337-4.161-6.715-8.281-9.558-12.813z"
      fill="#30890f" stroke="#30890f" stroke-width=".16232406000000002" />
    <path
      d="M64.148 38.897c2.843 4.49 6.221 8.652 9.6 12.772 1.565 1.895 3.337 3.584 4.696 5.644C72.305 52.699 67.98 46.23 63.16 40.339c.33-.494.66-.948.989-1.442z"
      fill="#519f35" stroke="#519f35" stroke-width=".16232406000000002" />
    <path
      d="M61.305 43.182c.165-.248.495-.783.66-1.072 1.235 2.06 3.007 3.667 4.284 5.686-1.813-1.318-3.296-3.049-4.944-4.614z"
      fill="#429325" stroke="#429325" stroke-width=".16232406000000002" />
    <path
      d="M153.756 90.355c.165-1.607.66-3.173 1.4-4.615.207 3.42-.082 6.84.042 10.259.123 8.528.123 17.097 1.771 25.502.948 5.438 1.195 10.959 2.102 16.397 0 1.195-.165 2.431-.412 3.585-1.854 1.03-3.79 1.977-5.892 2.348-4.408.865-8.899.783-13.39.577.99-2.431 1.896-4.985 2.184-7.622.412-3.502.165-7.045.082-10.547.124-1.854.289-3.667.371-5.52.289.452.577.906.865 1.359.412 1.648.824 3.296 1.278 4.944a124.863 124.863 0 002.513 8.487c-.33-4.45-.66-8.9-1.236-13.308-.083-1.524-.247-3.09-.412-4.614.288-.453.577-.865.865-1.318-.041 2.1.577 4.16 1.936 5.809a36.087 36.087 0 011.525 3.667c.412 1.318 1.07 2.595 1.812 3.749.248-3.42-.164-6.88-.947-10.218-.289-1.812-.7-3.625-.989-5.438.082-.865.206-1.69.288-2.554.165 1.236.536 2.43 1.195 3.502.371.947.7 1.936 1.03 2.884.989 4.078 2.019 8.157 3.296 12.153-.124-2.595-.618-5.108-.865-7.663-.453-5.809-.412-11.66-.453-17.468-.041-4.82-.495-9.6.04-14.337z"
      fill="#b6fc22" stroke="#b6fc22" stroke-width=".16232406000000002" />
    <path
      d="M120.179 91.426c6.303 8.446 10.835 18.168 17.756 26.202-.988 4.244-1.07 8.61-.7 12.937.165 2.348.742 4.696.494 7.086-.04 1.4-.04 2.884-.659 4.202-1.565-2.266-3.007-4.614-4.49-6.921-5.645-8.9-11.577-17.592-17.675-26.161.33-.33.7-.618 1.03-.948 3.131 3.996 6.18 8.116 9.558 11.948 1.978 2.39 3.832 4.902 6.263 6.839-1.73-4.244-5.027-7.705-6.304-12.154 2.925 4.161 5.603 8.61 9.27 12.236-1.73-6.345-5.644-11.742-8.981-17.303 3.213 2.925 5.603 6.715 9.105 9.352-1.319-2.802-3.214-5.315-4.82-7.993-3.791-6.18-7.664-12.4-9.847-19.322z"
      fill="#b5fc24" stroke="#b5fc24" stroke-width=".16232406000000002" />
    <path
      d="M103.452 93.403c2.183 1.73 3.914 3.955 5.727 6.057 2.348 2.719 4.573 5.561 6.756 8.404-.33.289-.7.618-1.03.948-3.666-5.233-7.58-10.3-11.453-15.409z"
      fill="#baf930" stroke="#baf930" stroke-width=".16232406000000002" />
    <path
      d="M148.276 95.875c.083 6.386 1.154 12.648 2.39 18.87a9.556 9.556 0 01-1.195-3.503c-.082.866-.206 1.69-.288 2.555-1.319-5.81-2.555-11.99-.907-17.922z"
      fill="#b3fc31" stroke="#b3fc31" stroke-width=".16232406000000002" />
    <path
      d="M143.703 102.467c1.236 3.79 1.566 7.787 2.225 11.7.453 2.679 1.112 5.315 1.854 7.91-1.36-1.647-1.977-3.707-1.936-5.808-.289.412-.577.865-.865 1.318-.454-5.067-1.113-10.052-1.278-15.12z"
      fill="#b3fb30" stroke="#b3fb30" stroke-width=".16232406000000002" />
    <path
      d="M141.685 114.003c.453 2.678.741 5.356 1.236 7.992l-.866-1.36c-.082 1.855-.247 3.668-.37 5.522-.371-3.997-.66-8.117 0-12.154z"
      fill="#affa3e" stroke="#affa3e" stroke-width=".16232406000000002" />
    <path
      d="M139.213 114.332c.123.083.33.165.453.248-.124 1.606-.165 3.254-.124 4.861.041 6.88-.577 13.72-.659 20.6.041.947-.577 1.771-1.071 2.513-.247-1.648-.083-3.296-.124-4.903.247-2.39-.33-4.738-.494-7.086-.37-4.326-.288-8.693.7-12.937.33-1.153.783-2.224 1.319-3.296z"
      fill="#2f8a0c" stroke="#2f8a0c" stroke-width=".16232406000000002" />
    <path
      d="M151.737 117.628c.742 1.525 1.113 3.296 2.43 4.491.248 2.554.742 5.109.866 7.663-1.318-3.996-2.307-8.075-3.296-12.154z"
      fill="#6ab017" stroke="#6ab017" stroke-width=".16232406000000002" />
    <path
      d="M150.213 119.276c.783 3.337 1.195 6.798.947 10.218-.741-1.195-1.4-2.431-1.812-3.75v-.411c.37.164.741.33 1.112.535-.453-2.183-.453-4.408-.247-6.592z"
      fill="#589b21" stroke="#589b21" stroke-width=".16232406000000002" />
    <path
      d="M145.434 122.16c.576 4.408.947 8.858 1.236 13.307a124.863 124.863 0 01-2.513-8.487c.412.206.782.412 1.194.618a26.666 26.666 0 01.083-5.438z"
      fill="#579d1f" stroke="#579d1f" stroke-width=".16232406000000002" />
    <path
      d="M137.07 141.853c.618-1.318.577-2.801.66-4.202.04 1.648-.124 3.296.123 4.903.288.906.783 1.771 1.236 2.595.124-.288.247-.535.37-.824 4.45.206 8.982.289 13.39-.577 2.472 3.42 4.285 7.21 6.18 10.918 2.308 4.409 3.956 9.105 5.686 13.72 3.255 8.322 5.603 16.974 8.198 25.543 1.113 3.131 1.896 6.345 2.843 9.558 1.36 5.274 3.585 10.259 4.49 15.656.866 3.996 1.03 8.116.619 12.195-.206 1.442-.453 3.007-1.483 4.078a3.369 3.369 0 01-.948-1.812c-.947-4.368-.741-8.94-1.813-13.267-.782-4.12-1.977-8.116-3.254-12.07-1.484-3.832-2.596-7.829-4.12-11.619-1.73-4.985-3.79-9.847-5.191-14.955-1.772-5.52-1.772-11.536-4.079-16.933-.494-1.895-1.69-3.46-3.255-4.614-.33 4.696.66 9.352 1.73 13.884.825 4.078 2.143 8.034 3.297 12.03 1.895 5.026 3.09 10.3 5.232 15.244 1.936 5.973 4.45 12.07 3.955 18.457-3.09-3.255-3.708-7.952-5.026-12.03-2.143-6.221-3.832-12.566-5.933-18.746-1.483-5.026-3.131-10.011-4.244-15.161-1.194-4.038-1.647-8.281-2.966-12.278-.618-2.43-1.483-4.82-2.925-6.88-.412 1.113-.783 2.225-.66 3.42.207 5.108 2.555 9.723 3.503 14.708.906 4.697 1.607 9.476 2.678 14.172.906 3.543 1.277 7.21 2.513 10.67 1.565 5.068 3.625 9.971 5.603 14.915 1.318 4.161 3.213 8.075 4.285 12.318.906 3.379 2.142 6.757 2.39 10.3.123 1.813.37 3.584.7 5.356-2.843-.865-5.274-2.966-6.386-5.727-6.263-13.884-8.323-29.086-12.442-43.63-2.39-7.992-4.986-15.902-7.334-23.936-2.472-8.405-4.82-16.974-7.622-25.379m3.173 3.173c.123 1.236.247 2.43.535 3.625 2.225 10.67 5.727 21.012 9.023 31.394 2.225 7.004 5.397 13.72 6.55 21.011 1.772 9.147 3.008 18.664 7.622 26.903.865 1.566 1.607 3.296 3.131 4.285.66-1.112.783-2.39.412-3.625-1.318-4.862-3.09-9.559-4.696-14.297-2.513-7.498-5.027-14.996-7.499-22.494-2.76-8.9-5.685-17.84-7.045-27.11-.782-5.643-1.318-11.329-2.307-16.932-.164-.906-.33-1.895-.824-2.678-1.606-.412-3.296-.124-4.902-.082z"
      fill="#d9d9b7" stroke="#d9d9b7" stroke-width=".16232406000000002" />
    <path
      d="M159.112 137.857c.206 1.4.082 2.843.577 4.161 1.236 3.255 2.43 6.51 3.501 9.806 5.192 16.19 9.682 32.63 14.915 48.862 2.801 8.693 7.045 16.974 8.445 26.079.371 2.842.742 5.973-.741 8.569-.165.33-.371.66-.536.989-3.007 3.996-8.404 5.48-13.184 4.573-.37-.124-.741-.206-1.112-.33-.288-1.771-.577-3.584-.7-5.356-.247-3.543-1.442-6.921-2.39-10.3-1.112-4.202-3.007-8.157-4.285-12.318-1.936-4.944-4.037-9.805-5.603-14.914-1.236-3.46-1.606-7.127-2.513-10.67-1.03-4.697-1.73-9.476-2.678-14.173-.947-4.944-3.296-9.6-3.502-14.708-.123-1.195.289-2.307.66-3.42 1.442 2.06 2.307 4.45 2.925 6.88 1.318 3.997 1.771 8.24 2.966 12.278 1.071 5.15 2.72 10.135 4.244 15.161 2.1 6.221 3.79 12.566 5.932 18.746 1.319 4.12 1.978 8.775 5.027 12.03.494-6.427-2.02-12.483-3.956-18.457-2.142-4.944-3.337-10.218-5.232-15.244-1.153-3.996-2.472-7.951-3.296-12.03-1.071-4.532-2.06-9.187-1.73-13.884 1.565 1.153 2.76 2.719 3.255 4.614 2.307 5.397 2.266 11.371 4.078 16.933 1.401 5.067 3.461 9.97 5.191 14.955 1.525 3.832 2.637 7.787 4.12 11.618 1.277 3.955 2.472 7.952 3.255 12.072 1.071 4.367.865 8.899 1.813 13.266.123.659.412 1.318.947 1.813 1.03-1.113 1.236-2.678 1.483-4.08a40.359 40.359 0 00-.618-12.194c-.906-5.397-3.13-10.382-4.49-15.656-.989-3.172-1.73-6.427-2.843-9.558-2.637-8.528-4.985-17.18-8.199-25.543-1.73-4.656-3.378-9.352-5.685-13.72-1.936-3.707-3.75-7.498-6.18-10.917 2.101-.33 4.038-1.319 5.892-2.349.082-1.153.247-2.39.247-3.584z"
      fill="#d0cea7" stroke="#d0cea7" stroke-width=".16232406000000002" />
    <path
      d="M140.243 145.026c1.606 0 3.296-.33 4.861.123.495.783.66 1.772.824 2.678.989 5.603 1.524 11.289 2.307 16.933 1.36 9.27 4.285 18.169 7.045 27.109a4794.992 4794.992 0 007.499 22.495c1.606 4.738 3.419 9.434 4.696 14.296a4.491 4.491 0 01-.412 3.625c-1.565-1.03-2.266-2.76-3.13-4.284-4.615-8.24-5.851-17.757-7.623-26.903-1.195-7.293-4.326-14.008-6.55-21.012-3.296-10.382-6.798-20.723-9.023-31.394-.247-1.236-.37-2.472-.494-3.666z"
      fill="#f3f1cb" stroke="#f3f1cb" stroke-width=".16232406000000002" />
    <path
      d="M185.232 236.323c.206-.33.37-.66.536-.99.412 1.896 1.977 3.338 3.584 4.327 2.595 1.483 5.356 2.595 8.075 3.79-.206 0-.412.083-.618.083-2.966-.124-6.056.206-8.858-1.113.247.824.536 1.648.783 2.513-1.236.454-2.596.536-3.873.66.783.535 1.607 1.03 2.39 1.606-1.566.412-3.09.083-4.573-.412.535 1.071.988 2.225 1.895 3.049.783.66 1.771 1.071 2.678 1.524-2.349 1.195-5.027.536-7.087-.906.742 1.236 1.813 2.43 1.978 3.955-.165.124-.453.33-.618.453-2.307-1.03-3.708-3.254-5.15-5.232-.082 1.112-.206 2.266-.494 3.378-.247.66-.536 1.319-.865 1.978-.33-1.895-.577-3.79-.824-5.686-.824.907-1.566 1.937-2.678 2.39-1.36.577-2.884.37-4.285.165 1.36-1.401 3.378-2.101 4.49-3.75.701-2.183.577-4.572.413-6.838.288 1.277.824 2.472 1.36 3.666.246-.824.452-1.648.7-2.472a86.296 86.296 0 002.183 3.173c.124-.371.33-1.071.453-1.401 1.319 1.154 2.72 2.225 4.285 2.966-.824-1.4-1.69-2.801-2.513-4.243 2.019.906 4.12 1.813 6.427 1.73-1.195-1.153-2.472-2.225-3.75-3.296 1.772.206 3.544.371 5.274-.082l-3.09-1.483c1.484-.618 3.09-.248 4.532.206-1.03-1.113-1.936-2.39-2.76-3.708z"
      fill="#dec167" stroke="#dec167" stroke-width=".16232406000000002" />
    <path
      d="M172.048 240.896c4.78.947 10.218-.536 13.184-4.573a34.752 34.752 0 002.72 3.749c-1.484-.453-3.05-.824-4.533-.206l3.09 1.483c-1.73.453-3.543.288-5.273.082 1.277 1.072 2.554 2.143 3.749 3.296-2.266.083-4.367-.824-6.427-1.73.824 1.442 1.689 2.801 2.513 4.243-1.607-.741-3.008-1.812-4.285-2.966-.123.33-.33 1.03-.453 1.4-.742-1.07-1.442-2.1-2.184-3.171-.206.824-.453 1.648-.7 2.472-.536-1.195-1.071-2.39-1.36-3.667z"
      fill="#b19848" stroke="#b19848" stroke-width=".16232406000000002" />
    <path
      d="M187.992 242.461c2.802 1.278 5.892.99 8.858 1.113-2.966 1.648-6.592 2.142-9.146 4.49-1.071 1.195.577 2.266 1.483 2.843-1.73 1.566-4.243 2.39-5.232 4.614-2.967.907-6.015-.288-8.034-2.471.288-1.113.412-2.225.494-3.379 1.442 1.937 2.843 4.161 5.15 5.232.165-.123.453-.33.618-.453-.206-1.483-1.236-2.678-1.977-3.955 2.06 1.442 4.738 2.101 7.086.907-.906-.495-1.895-.866-2.678-1.525-.865-.865-1.36-2.019-1.895-3.049 1.483.495 3.049.824 4.573.412-.783-.535-1.566-1.07-2.39-1.606 1.319-.124 2.637-.165 3.873-.66a44.777 44.777 0 00-.783-2.513z"
      fill="#020100" stroke="#020100" stroke-width=".16232406000000002" />
  </g>
</svg>