<svg id="prefix__layout_1" data-name="layout 1" xmlns="http://www.w3.org/2000/svg" viewBox="0 0 1110 410">
  <defs>
    <style>
      .prefix__cls-1 {
        fill: #393c40
      }

      .prefix__cls-2 {
        fill: #fc2e64
      }

      .prefix__cls-3 {
        fill: #4bbf8c
      }

      .prefix__cls-4 {
        fill: #fcca7b
      }
    </style>
  </defs>
  <path class="prefix__cls-1"
    d="M326.93 410.17c-.74-1.78-2.31-2.74-3.77-3.81l-3.61-4a10 10 0 00-3.45-3.9l-2.48-3.19a9.47 9.47 0 00-3-4c-.84-1.3-1.69-2.6-2.53-3.91-.09-1.65-1.27-2.68-2.2-3.85-.62-1.1-1.24-2.2-1.87-3.3l-1.91-3.79-1.11-2.3c-2.43-7.53-5.4-14.87-6.46-22.84a42.44 42.44 0 01.33-12.79 5.46 5.46 0 002.33-3 9.94 9.94 0 003.35-3.95l3.59-3.92 3.72-3.83 3.63-3.41a14.25 14.25 0 004.54-3.81l5.06-3.94a13 13 0 005.23-3.87 15.24 15.24 0 005.71-3.24 25.41 25.41 0 007.27-4c1.39-.92 1.53-2.54 2.13-3.9l7.45-3.84.66-2.49c.36-1.31.73-2.61 1.09-3.92l2.54-4.78 3.49-3.82c2.89-2 6.41-2.22 9.58-3.44l1.57-2.95c1.35-2.16 3.67-3.19 5.55-4.74 3-1.18 7.16.52 9-3.56l2.83-2.76c5.11-2.46 10.2-1.95 15.51-.47 4 1.12 8 .65 10.14-3.81v-4.61-3.77-3.06-8.17-7.35-7.61-40.33-4.61-3.77-3.06-8.17-3.77-3.06-8.17-3.78V137.14v-4.61-3.77-3.06-8.17-10.39-4.61-3.78V92.19v-4.61-10.4-4.65-3.77-3.09V57.54l.09-3.77.66-3.31 1.5-3.26c1.24-1.51 2.49-3 3.74-4.52L423 39.2a43.66 43.66 0 019.41-.85h130.42c1.71 0 4.48 1 3.93-2.62v-3.47l.3-4.6c2.06-1.57 4.47-1 6.75-1h150.75a27.77 27.77 0 004-.06c3-.43 1.3-1.8.51-3l-1.62-2.6-1.23-1.6a4 4 0 00-2-2.28c-1.23-1.88-2.47-3.74-4.63-4.69-.33-2.07-2.06-2.87-3.53-3.91l-2.29-2.91c3.36-.71 5.78.43 8.42 2.8 13.7 12.28 17.45 27.34 13.46 44.86-1.25 5.49-2.24 11-3.41 16.83 5.37-2.7 9.24-18.16 8.8-33.28C740.69 24.12 733.86 14.7 725 6c3.88-1.3 6.2-.18 8.75 2.21 12.93 12.21 14.13 27.17 10.77 43.35-.73 3.53-1.43 7.06-2.19 10.87 2.38-.51 4.14-1.25 4.56-3.25 2.72-12.91 5.41-25.83.13-38.8-2.22-5.47-6-9.87-10-14.39 4-1.48 6.47-.08 8.84 2.71 10.32 12.1 10.48 26.07 7.84 40.62-.44 2.42-.85 4.85-1.29 7.38 2.48.23 3.87-.81 4.27-2.79 2.53-12.32 4.13-24.64-.92-36.79-1.66-4-4.21-7.45-7-11 4.67-1.74 7.31-.31 9.62 3.55 5.33 8.9 6.29 18.45 5.07 28.43-.51 4.13-1.29 8.23-1.88 12.35-.14 1-1.23 2.48.36 3s2.92-.57 3.3-2.24c.51-2.27.79-4.59 1.23-6.88 2.6-13.31 2-26.17-5.83-38.71h4.62l2.09 3.07a6.44 6.44 0 001.57 4l1.28 4.16c.32 1.26.63 2.53 1 3.8l.6 3.08c-.6 4.38 2.77 2.84 4.63 2.85 27.1.09 54.2.05 81.3.08 2 0 4-.52 5.73 1l.54 3.83a6.36 6.36 0 000 3.86 3.1 3.1 0 000 3.34 5.81 5.81 0 00-.06 3.84 4.18 4.18 0 000 4 5.74 5.74 0 000 3.73 3.89 3.89 0 00-.05 3.53c-.39 1.49-.72 3 .33 4.34a7.53 7.53 0 004-4.23 6.37 6.37 0 003.06-3.4l2.85-3 4.88-4.79a9.36 9.36 0 004.07-3.93c1.54-.18 2.46-1.25 3.33-2.37 2-1 4-1.95 5.19-3.94a31.71 31.71 0 007.26-4.76 21.21 21.21 0 006.38-3.84 11.86 11.86 0 005.17-2.46c2.89-1 6-1.5 8.18-3.94l16.48-4.74a45.92 45.92 0 007.19-1.21c3.25-1.08 7.19.32 9.85-2.77.87-.89.74-2.06.88-3.16h19.86c-1.56 2-4.29 2.91-5.7 6.52 5.2-2.59 12 1 14.15-6.48h6.39c-.35 18.25 1.79 36.24 7.36 53.61 4 12.47 5.91 25.84 14.34 36.61a2.9 2.9 0 01.28 2.38c-.85 2.33.26 4.2 1.11 6.17 2.67 6.27 5.42 12.51 7.94 18.84 1.24 3.1 2.26 4.71 4.58.78.82-1.38 1.81-3.2 3.84-2.45 2.19.8 1.37 2.76 1 4.3-2.5 9.73-1.65 19 4 27.51a3.59 3.59 0 01.36.93c.79 2.59 2.31 3.08 4.94 2.37 5.13-1.38 10.36-2.38 15.56-3.46 2.81-.58 4.77-1.49 3-4.88a10.6 10.6 0 01-.83-2.86c-9.16-46.41-17.81-92.93-23.95-139.88h4.68c.77 6.77 1.34 13.56 2.32 20.3 5.8 39.6 13.12 78.94 21 118.17.69 3.42.68 7.6 4.51 10.25.4-1.31.75-2.24 1-3.2 6.48-27.42 4.75-55.17 3-82.88-1.3-20.89-3-41.75-4.5-62.62h4c.2 1 .41 2.09.62 3.13l.21 3.83c.07 1.61.13 3.22.19 4.82.1 1.27.2 2.54.29 3.81a2.8 2.8 0 00.42 2.55l.18 3.84.21 4.82a5.56 5.56 0 00.52 3.84c0 .85.09 1.69.14 2.53l.12 3.79.24 4.86.42 2.88.24 3.48.12 3.78.24 4.88a5.63 5.63 0 00.5 3.78l.18 2.39c-1 3.48 1.84 5.15 3.51 7.82.46-2.89 1.67-5.22.83-7.78l.15-2.54.27-3.68c.44-1.6 1.05-3.19.54-4.9a5.85 5.85 0 00.38-3.71l.39-3.53a3.67 3.67 0 00.39-2.86c.16-1.61.31-3.22.47-4.84a6 6 0 00.27-3.88 2.8 2.8 0 00.52-2.5l.4-3.81c.9-1.51.72-3.17.66-4.81l.24-3.82a3 3 0 00.55-2.55l.39-3.82c.23-1.61.47-3.21.71-4.82l.24-3.81c.27-1.06.53-2.12.8-3.17h4.1c-2 17.49-4.17 35-6.1 52.46-1.33 12.06-1.92 24.21-3.67 36.2-2.93 20-6.52 40-9.84 60-.34 2.05-.39 3.9 1.54 5.37 4 3 7.85 6.16 11.76 9.26 2.47 2 3.84 2.55 4.72-1.66a170.36 170.36 0 017-25.47c6.09-16 10.23-32.64 13.82-49.41 5.48-25.67 6.93-51.68 6.95-77.82 1.28 1.57 1 3.46 1 5.24 0 16.56 0 33.11.11 49.66 0 3.86-.9 7.51-1.51 11.24-.16 1-.31 2-.46 3-.25 1.26-.51 2.51-.76 3.77-.35 1.55-.69 3.1-1 4.65-.12 1-.24 2-.35 3a4.81 4.81 0 00-.82 3.57 5.15 5.15 0 00-.9 3.77l-1.11 4.64c-.3 1.16-.59 2.33-.88 3.49l-.48 3a5.66 5.66 0 00-1.26 3.81l-1.41 4.64-1 3.59c-.24.93-.48 1.85-.71 2.77l-1.3 4a8.72 8.72 0 00-1.39 4.56c-.42 1-.85 2.08-1.27 3.13l-1 3.34a5.25 5.25 0 00-1.53 4 8.53 8.53 0 00-1.6 4.73l-.81 3.35a4.41 4.41 0 00-.68 3.14 5.09 5.09 0 00-1 3.83 7.23 7.23 0 00-1 4.56 4.9 4.9 0 00-.8 3.57l-.55 2.87a5.81 5.81 0 00-.49 4c-.43 1.53-1.2 3-.9 4.67-.06 1-.13 2-.2 3a4.35 4.35 0 00-.76 3.64c-.06 1.24-.11 2.48-.16 3.72-.26 1.56-.51 3.11-.76 4.67v21.62c0 1.25.07 2.5.11 3.75a5.83 5.83 0 00.6 4.23q.61 20.37 1.24 40.74v7.66l-.12 3.6-.66 3.72c-.07 1.56-.14 3.13-.22 4.7l-.36 3.4a4.11 4.11 0 00-.52 3.22l-.36 3.79c-1.11 1.38-.73 3-.81 4.59a5 5 0 00-.91 3.78l-.87 2.95-.81 3.57c-.67 1.55-1.57 3-1.36 4.84a3.45 3.45 0 00-.84 2.91c-1.39.75-1.37 2.09-1.46 3.39a6.89 6.89 0 00-2 3.79c-1.24 1.6-2.47 3.21-3.71 4.82l-3.57 3.3-3.92 2.94c-2.12.73-4.23.35-6.35 0-2.36-1.25-4.75-2.42-7.54-2.26-1-1.83-2.86-2.78-4.44-4l-2.53-4.7c-.14-4.77-2.53-5.26-6.17-3.22-1.69 1-3.29 2-4.93 3.07a29.78 29.78 0 00-7.46 4 26.72 26.72 0 00-7.07 3.86c-2.48.89-5 1.61-7.15 3.28-2.09 1-5.34.47-5.64 4V350.39c0 1.27.06 2.25.08 3.37s0 2.49 0 3.73v7.67l-.09 3.56a5.79 5.79 0 00-.09 3.81v4a6.16 6.16 0 000 3.82v3.35a5.52 5.52 0 000 3.8v4c0 1.31-.1 2.52-.14 3.78-.83 1-.63 2.21-.45 3.39-.45 1.23-.89 2.47-1.34 3.71a13.39 13.39 0 01-4.13 3.87c-3.88-.73-6.56 1.5-9.22 3.77l-5.38.07c-.82-.51-1.76-2.74-2.32.17-.35 1.1-.7 2.2-1 3.29-1.38 1.48-3 .8-5.23.85 2.7-4.89 2.13-9.83 2.15-14.69 0-8.31-.12-16.61.07-24.92.07-3.12-1.37-3.7-3.91-3.4-2.08.24-5-1-4.94 3 .14 12.29.19 24.58.35 36.87a9.37 9.37 0 001.06 2.82c-1.79.61-3.66 1-5.39-.54-1.89-2.63-5.9-.6-7.68-3.48L957 407a8.28 8.28 0 00-1.13-4.51c-.08-1.23-.15-2.47-.22-3.7v-6.65l-.06-4.64v-3.71-3.26-3.38a8.56 8.56 0 000-4.68v-10.3a6.73 6.73 0 00-.16-4.66c1-4.29-1.89-3.2-4.11-3a442.05 442.05 0 01-71.75 2.06 7.64 7.64 0 00-6.89 2.86c-8.07 9.24-17.76 15.46-30.57 15.38a37.86 37.86 0 01-10.6-2.46l-4.6-3.81c.05-1.1.11-2.21.16-3.31a5.56 5.56 0 001.1-3.69c1.09-1.09 1.06-2.54 1.22-3.93 1-1.12.88-2.51.87-3.86.86-2.84-1.57-1.91-2.64-2.12-3.73-.74-7.51-1.25-11.27-1.85l-18.86-3.36-18.59-4.09c-4.84-1.95-10-2.59-15-3.84-3.11-1.52-6.49-2.09-9.84-2.76l-2.65-.77c-4.1-1.08-8.17-2.3-12.32-3.16a3.32 3.32 0 00-4 2.77c-.25 1.8 1.8 1.35 2.93 1.75a21.37 21.37 0 007.26 2.57l8.68 3.82 7.3 4.72a14.52 14.52 0 005.39 3.9l3.15 2.82 4.35 3.54a15.25 15.25 0 005 4.14v3.16c-3.06 1-2.38 2.36-.27 3.78a6.14 6.14 0 002.11 3.85 8.7 8.7 0 001.86 4.12l1.23 4c.25 1 .49 2 .74 2.95.17 1.29.33 2.59.5 3.88l.21 4.26c0 1.24.11 2.47.16 3.7l-.1 3c-.11.58-.43 1.5.34 1.51s1.26-.81 1.9-1.26l7.81-3.05c3.1-.95 6.28-.55 9.42-.55 2.49 0 3.43-.92 2.58-3.35a7 7 0 000-4.34 5.21 5.21 0 000-3.71c0-1.09 0-2.19.07-3.28 2.21-5.34 7.11-1.86 10.54-3.2l2 3.09v3.29a6.55 6.55 0 000 3.92v3.88c-.7 2.44.4 3.2 2.72 3.15 3.91-.09 7.83-.26 11.64.88l9.4 3.34 7 3.87a17.46 17.46 0 005.21 3.89 12.27 12.27 0 004.79 3.83 9.85 9.85 0 004.2 3.44c-2.21 1.19-4.53.61-6.83.46-10.48-9.87-22.29-16.68-37.29-15.73-4.12.26-5.84-1.29-5.62-5.37.15-2.82.07-5.65 0-8.47 0-1.07.36-2.64-1.31-2.74-1.87-.12-1.91 1.48-1.92 2.82 0 3.15-.13 6.31 0 9.46.15 3.65-1.53 5.35-5.08 5-13.75-1.48-23.16 6.21-32.06 15h-6.64q5.07-4.41 10.13-8.83c1-.87 2.09-1.61 2.55-3 3.06-9-1.87-28.3-8.88-34.63-.87-.79-1.67-1.66-3-1.62a57 57 0 01-20.75-3.12c-.15 3.29 0 6.14-.47 8.86-1.22 6.6-3.48 7.75-9.72 5.31a40.89 40.89 0 01-15.54-10.89c-1.63 3.33-1.77 6.68-4 9.14s-4 4.88-6.14 7.21c-3.56 3.91-4.48 3.79-7.44-.52a50 50 0 01-7.22-16 60.18 60.18 0 01-17.07 13.47c-3.09 1.72-4.71 1-4.62-2.75.06-2.66-.29-5.35 0-8 .39-3.9-1.23-3.74-3.92-2.4-2.4 1.21-5 2.49-7.64 1.92-6.61-1.42-9.36 2.43-11.37 7.61-.78 2-1.61 4-2.27 6.06-3.44 10.66-1.36 21.44-.63 32.19h-4.07c-.2-2.63 0-5.3-1-7.82l-.15-4.07c0-1.25-.09-2.5-.13-3.75s-.07-2.21-.1-3.32l.05-3.69c.1-1.4.2-2.79.29-4.18a5.21 5.21 0 00.58-4l1-2.8c.45-1.36.91-2.71 1.37-4.06a8.47 8.47 0 002-4.07 7.21 7.21 0 002.08-3.83c1.11-2.46-2.49-1.89-2.39-3.7l2-3.37 4.51-4.07a10.15 10.15 0 004.17-3.89 9.9 9.9 0 004.14-3.27l5.07-3.94 5.44-3.88 6.84-3.83a44.41 44.41 0 0119.1-2.77c.43 0 1.69.91 1.57-.69.29-.53 0-.77-.46-.9-.64-2.3-1.41-4.1-4.34-2.23a33.3 33.3 0 01-5 2.18c-5.58.08-11.17-.43-16.74.36a6.46 6.46 0 00-3.34 3.64c-1.36 1-2.68 2.13-3.11 3.92a8.39 8.39 0 00-2.72 3.88c-1.39 1.25-2.78 1.6-4.16 0l-1.25-3.8a7.11 7.11 0 00-1.15-3.9c-.16-1-.33-2-.49-3-.32-1-1.12-1.11-2-1.11l-50.59.25h-52.56c-7.14-.07-14.28-.26-21.41-.13-2.32.05-4.91-1.17-7 .87.34 1.54 1.54 2.43 2.6 3.42l-.42 3.63-.24 3.94-.36 3.78c-.87 1-.73 2.26-.64 3.48a4.29 4.29 0 00-.89 3.83l-.79 3.84a4.27 4.27 0 00-1 3.93c-.35 1.07-.71 2.14-1.06 3.21a5.6 5.6 0 00-1.53 4c-.52 1.24-1 2.47-1.57 3.71a6.5 6.5 0 00-1.72 3.93l-1.89 3.43a6.36 6.36 0 00-2 4 6.54 6.54 0 00-2 3.68 6.19 6.19 0 00-2.46 4.23 4.85 4.85 0 00-1.91 2.92c-1.65 1-3.08 2.22-3.33 4.32l-3 3.45a6.76 6.76 0 00-3.63 4.15 8.79 8.79 0 00-3.4 3 24.16 24.16 0 01-11.95 1.15c22.47-15.65 35.78-36.94 40.06-65.18-6 5.62-10.93 10.74-16.94 14.56-23.73 15.07-50 22.43-77.73 24.57a213.91 213.91 0 01-72.73-7c-19.14-5.19-37.25-12.55-51.34-27.4-1.62-1.7-2.69-4.17-5.28-5.11a10.48 10.48 0 000 6.11 89.65 89.65 0 009.6 25.08 116.87 116.87 0 0029.94 34.4c-2.66.22-5.36.81-7.83-.84a8.82 8.82 0 00-4.14-3.4zm529.79-44.54c-.6.26-1 .73-.7 1.35s.66.41 1 0l1.53-.91c4.27-2.46 8.15-5.35 11.08-9.66-3.41-1.48-5.61-.87-7.34 2.14a69.88 69.88 0 01-4.69 6.4zm-24.52 0c2.12-3.14 4.29-6.24 6.33-9.42.54-.85 1.62-2.15-.15-2.82-1.29-.49-3.23-1.26-3.69.87-.83 3.8-3.06 7.32-2.41 11.41h-.38zm-101.61-90.16c.92-1 1.85-2 2.77-3l9.38-4.74c4.31-.65 8.61-4.36 12.9 0l2.34 4.62c-.08 3 1.64 3.4 4.18 3.1 4.75-.56 9.18-2.24 13.71-3.58l15.81-4.17c1.92-.33 3.84-.72 5.77-.95s3.21-.75 2.48-3c0-1.07-.09-2.14-.14-3.21a4.74 4.74 0 00-.69-3.57 8.35 8.35 0 00-.49-4.5c.3-2.26-.58-3.44-3-3.38-9.87.26-19.75-.53-29.61.43q-28.06-.18-56.11-.38c-2.51 0-3.29 1-2.64 3.37v30.07c-.32 2.24-.68 4.61 2.86 3.94 6.55-1.25 13.34-1.27 19.63-3.83.78-1.28 0-2.53-.08-3.79zm324.51 31c-1.67-.68-2.85.53-4.15 1.13-8.9 4.14-17.77 8.37-26.7 12.45-1.47.67-3.61 2.48-4.68-.13s1.79-2.77 3.24-3.47c10.51-5 21.08-9.94 31.6-14.95.92-.44 2.69-.61 2.23-2.12-.59-1.93-2.13-1-3.32-.5-10.87 4.19-21.76 8.37-31.87 14.25a40.7 40.7 0 00-6 4.41c-1.1.94-2.24 2.24-1.66 3.89s2.33 1.9 3.78 1.85c14.74-.6 27.29-6.13 37.46-16.9l.7-.34-.49-.26c-.06.27-.1.5-.14.73zm-14.86-23.82c1.68 1 3.35 1.94 5 2.88 4.64 2.59 4.64 2.59 4.83-3l.65-3.68.22-3.68c1.84-11.68 1.07-23.32-.11-35.47-3 2.54-5.46 4.73-8 6.79-9.39 7.54-19.44 14-30.69 18.47-2.15.85-3.2 2-3.23 4.37 0 2.05 1.27 2.56 2.73 2.94 9.87 2.59 19.19 6.63 28.6 10.42zm5.31-81.55a18.61 18.61 0 00-2.19-7.46c-4.47-15.44-11.49-29.83-18.11-44.48-7.38 37-11.52 74.35-15.56 112.59 15.71-6.78 28.58-15.43 39.69-26.72a4.2 4.2 0 001.47-3.53c-1.13-10.21-1.85-20.5-5.3-30.36zm-96.65 36.79c-.45-3.63-.8-7.27-1.36-10.88-4.43-28.62-11.13-56.87-14-85.75-.19-1.88-1.44-4.28.84-5.45s3.63 1.1 5 2.36c7.48 6.74 12.13 15.33 15.76 24.58 3.56 9.08 5.69 18.61 8.65 27.91a383.19 383.19 0 00-3.16-41.36 365.16 365.16 0 00-7.48-39.75c-.51-2-1.69-5 1-6.34 2.33-1.2 4 1.14 5.51 2.5C967.39 112.46 971 121.59 974 131c3.14 9.68 4.34 19.79 6.46 30.17 1.65-9.4 3.06-18.27 4.77-27.09 2.48-12.69 6-25 15-34.89 2.16-2.37 2.39-4.25 1.4-7.07-3.49-9.88-7-19.78-10-29.8-1.24-4.09-2.08-4.23-5.22-1.47-10.64 9.33-22.78 14.15-37.24 11.54-13.59-2.5-25.42-7.87-33.35-19.8-.91-1.37-2.75-3.25-.35-4.69 2.07-1.24 2.84 1 3.7 2.29 6.3 9.38 15.28 14.52 26.07 17.09 3.45.82 4.76.34 4.69-3.56a393.55 393.55 0 011.3-45.43c.37-3.89-1.26-4.11-4.2-3.62a129.71 129.71 0 00-33.38 10c-69.45 32.07-95 122.2-53.44 187.83 2.42 3.82 4.63 5.31 8.66 2.65 3.13-2.07 5.26-1.23 7.29 2a247.46 247.46 0 0113.22 24.06c4.58 9.5 12.63 14.32 22.69 15.47 9.08 1.05 18.27 1.36 27.43 1.6 3.85.1 9 3.1 11.21-.08 2.07-3 0-8-.83-12.12.3-2.79-.45-5.48-.98-8.19zm102.81 56.8a95.42 95.42 0 00-22.65-12.19c-39.45-15.25-80.61-20.91-122.6-22-16.49-.42-32.93.52-49.36 1.71-21.92 1.59-43.7 4.32-65 9.77-27 6.93-53.92 14.51-81.62 18.54-2.68.39-3.56 1.8-3.47 4.43a114.36 114.36 0 010 13.48c-.37 4.35 1.37 5.68 5.39 5.13 4.57-.63 7.07 1.07 6.49 6.07-.25 2.15.65 3.39 2.95 3.75 18.94 3 37 9.47 55.6 13.91 35.51 8.49 71.37 14.38 107.92 15.24 17.3.41 34.62.47 51.91-.89 22.34-1.75 44.17-5.68 65.12-13.86a163.82 163.82 0 0021.36-10.36c-2.79 0-4.05.08-5.3 0-3.55-.27-7.24-.66-8.65-4.62s1.18-6.69 3.81-9a43.42 43.42 0 0110.92-6.94c8.73-3.99 17.54-7.86 27.18-12.17zM411 263.26c-1.42.71-2.31.89-2.8 1.43-2.87 3.17-5.59 3.21-9 .49-2.4-1.93-6.29-2.87-8.51-1.24-5.56 4.07-13.18 5.52-17.42 9.72a30.78 30.78 0 01-12.21 7.81c-5.17 1.86-7.12 7.22-7.6 12.62-.22 2.47-.84 3.86-3.58 4.4-6.12 1.21-6.52 1.85-5.3 8.12.52 2.67.38 3.74-2.78 4.22-5.6.85-10.28 6.39-10.67 12.09a3.2 3.2 0 01-2.36 3.24 10.91 10.91 0 00-7.11 9c-.52 4.35-2 6.36-6.41 7.76-6.58 2.11-7.32 9-2.12 13.34a90.91 90.91 0 0029.18 16c34.63 11.86 70 16.08 106.23 9 20.75-4 40.49-10.83 58-23.13 4-2.79 4.06-5.89.43-9.2a8.21 8.21 0 00-4-1.9c-2.38-.5-3.14-1.49-2.47-4.22 1.41-5.71-1-8.34-7-8.35-21.49 0-43 .06-64.47 0-10.43 0-17.57-7.11-18.11-17.36-.08-1.49 1.11-3.68-.94-4.36-1.86-.62-3.39 1-4.73 2.25a20.21 20.21 0 00-1.86 2.33c-.67.85-1.56 1.41-2.59.89-1.34-.66-1.23-1.94-.66-3 1.62-3.08 4.07-5.6 7.44-6.21 3.15-.57 3.48-2.11 3.42-4.72-.15-5.66 0-11.33 0-17s-.86-6.06-5.91-3.16c-1.84 1.06-3.21 2.55-5.62.35-5.65-5.16-8.61-4.78-14.13 1.15-1 1-1.73 2.22-3.23 1s-.65-2.37.05-3.55c3.37-5.71 10.92-8.16 16.46-4.35 3.4 2.34 5.67.49 8.62.22 5.83-.53 3.36-4.56 3.7-7.31a75.22 75.22 0 00.06-8.37zm363.69-84.1c-20.67 0-41.34.15-62-.12-4.75-.06-5.78 1.45-5.73 5.91q.36 27.5 0 55c-.05 4.21 1.27 5.35 5.38 5.31 22.33-.17 44.67 0 67-.1 7.91 0 15.39-.19 23.28-3.63 17.36-7.56 35.67-12.86 53-20.68 3.39-1.53 3.71-2.81 1.69-5.76a110.93 110.93 0 01-14.36-30.65c-1.21-4-2.94-5.45-7.27-5.4-20.35.26-40.68.12-61.02.12zM559 328.71h128c10 0 14.33-4.18 14.33-14.21V58.56c0-10-4.33-14.48-14.23-14.48H430.65c-9.64 0-14 4.42-14 14.13v256.44c0 10.06 4.14 14.06 14.37 14.06zm508.6-165.47c-1.3 1.79-1.27 3.48-1.52 5.1-.91 5.75-1.82 11.5-2.77 17.25-.22 1.31-.52 2.94-2.25 2.75-2-.22-1.9-1.91-1.63-3.47.19-1.15.27-2.32.53-3.45 1.64-7.07 2-14.06-.31-21.12-.92-2.86-1.94-4.19-5.19-3.24a109.57 109.57 0 01-14 3.36c-4.19.65-4.7 2-2.92 5.78 18 38.6 21.78 79.19 16.38 121-.43 3.31.8 4.75 3.11 6.46q9.68 7.17 1.52 16a37.28 37.28 0 01-7.41 6.64c-3.4 2.12-3.5 4.71-2.84 8.09 1.3 6.62 6.67 8.16 11.91 9.87 4.18 1.37 6.45-1.82 8.9-4.16a25.64 25.64 0 006.05-9.65c8.65-22.77 9.42-46.55 8.44-70.41s-3.64-47.51.61-71.22c.24-1.3.62-2.63-.74-3.64q-7.91-5.95-15.83-11.94zM770.53 362.08c.08-.7.17-.89.1-1a4.28 4.28 0 00-.81-1.21c-14.21-12.07-29.27-22.21-49.19-20.53-4.75.41-6.81-1.31-6.43-6.19a104.85 104.85 0 000-10.49c0-2 .7-4.71-2.65-4.9-3.71-.21-2.59 2.71-2.65 4.61-.13 4.16-.18 8.33 0 12.49.16 3.72-1.4 4.95-5 4.88-5.45-.11-11-.64-16.28 1.49-11.2 4.5-20.12 12.23-29 20.1-.68.6-1.86 1.3-1.09 2.39.36.51 1.44.59 2.22.7 6.34.89 11.76-1.33 16.78-4.95 1.09-.79 2.29-1.64 3.64-.81s.9 2.37.77 3.65c-.24 2.47-.71 4.93-.85 7.4-.08 1.43-.66 3.33.68 4.2 1.5 1 2.66-.78 3.87-1.52a35.52 35.52 0 0012-11.78c.88-1.41 1.61-3.78 4-3 2.06.69 1.33 2.83 1.34 4.39a29.57 29.57 0 005.36 16.36c1.27 1.92 2 2 3.68.22 4.37-4.66 7.37-9.8 7.23-16.41 0-1.49-.07-3.2 1.75-3.74s2.64 1 3.47 2.24a31.44 31.44 0 0010.8 10.19c2.63 1.42 5.81 4.66 8.38 2.56 2.76-2.26 1.69-6.46.57-9.88-.15-.48-.34-.95-.45-1.43-.38-1.69-2.63-3.29-1.08-5 1.81-2 3.7.06 5.38.85a46.6 46.6 0 0023.46 4.12zm73.76-267.52c7.31-17.12 19.48-31.14 15.52-50.31a28.64 28.64 0 010-9c.47-4.11-1.26-4.92-5-4.89-25 .15-49.91.08-74.87.08-8 0-7.86 0-8.75 8.16-.41 3.82.65 4.82 4.46 4.78 20.8-.17 41.6-.08 62.4-.08 6.3 0 6.31 0 6.31 6.54zm159.71 8.49c-4.4 3-7 7.13-8.86 11.74-7 17.34-9.64 35.7-10.79 54.08-1.93 30.75-1.11 61.6-1.25 92.4 0 5.49 4.26 4.49 7 4.9 3.3.48 2-2.77 2-4.38.15-12.48-.12-25 .18-37.42.39-15.8.91-31.61 1.91-47.38 1-15.25 1.88-30.54 4.56-45.62 1.69-9.46 3.49-18.89 5.25-28.32zM651.74 30.48h-76c-3 0-4.91.07-4.88 4.08 0 4.29 2.45 3.86 5.18 3.86H681.5c6.87 0 13.7-.27 19.57 4.32a5.94 5.94 0 003.34.65h25c1.14 0 2.81.35 3.18-.82 1.09-3.41.64-6.94-.3-10.32-.79-2.81-3.33-1.66-5.1-1.66-25.13-.14-50.29-.11-75.45-.11zM937.87 142c2.32 19.64 5.12 37.68 8.71 55.6a554.18 554.18 0 018.4 55.69c.67 6.93 1.18 7.67 7.9 8 2.18.11 3-.61 3-2.78.23-14.66.8-29.51-1.41-43.89a253.82 253.82 0 00-13.31-51.11A68 68 0 00937.87 142zM958 110a27.74 27.74 0 00.24 3.43c7.52 30.7 9.66 62 10.73 93.44.59 17.13 1.44 34.27.89 51.41-.17 5.45 3.77 4.67 6.69 5 3.86.48 2.43-2.85 2.44-4.59.07-27 .62-54-1.12-80.88-1.13-17.6-3.81-35.05-9.84-51.77-2.03-5.65-4.69-11.15-10.03-16.04zm65.2 23.47c-3.18 4.33-4.17 8-5.6 11.57a283.83 283.83 0 00-21.33 118.79 9.25 9.25 0 00.12 2.48c1 3.08 4 2.53 6.25 3s2.27-1.25 2.43-2.82c1-9.25 1.83-18.51 3-27.74 2.42-19.76 4.76-39.55 7.56-59.26 2.07-14.89 4.85-29.75 7.56-46zM839.77 98.75c1.8-7.73-.18-13.22-4.48-18.52-21.14-26.08-57.39-33.3-86.39-16.35-22.31 13.05-33.6 32.94-34 58.87 0 1.26-.82 3.5 1.36 3.57 1.88.06 4.09-.53 4.17-3.28 0-1.5.1-3 .23-4.49 2.14-24.24 13.95-42.11 36-52.34s43.11-7.2 62.74 6.64c9.08 6.36 15.2 15.2 20.37 25.9zm-57.48-34.31c-31.06 0-57.12 25.23-57.77 55.84 0 1.32-.87 3.4 1.7 3.18 1.65-.15 3.93.24 4.19-2.47.1-1 .18-2 .26-3 2-24.34 20.17-43.52 44.76-47.31 23-3.55 46.74 10.49 55.34 32.84a68.94 68.94 0 012.6 9.09c.51 2.2 1.81 4.12 3.82 3.93 2.62-.26 1.89-3 2-4.84a13.71 13.71 0 00-.74-3.9 57.92 57.92 0 00-56.16-43.36zm182.12-47a7.32 7.32 0 00-.61 1.42 397.8 397.8 0 00-.66 47.22c.1 2.91 1.82 2 3.43 1.61 7.25-1.95 13.12-6.17 18.7-11 3-2.59 3.87-5.2 2.62-9.11s-1.61-8.13-2.36-12.21c-.3-1.64-.55-3.19-2.38-4.06-6.95-3.31-12.87-8.08-18.74-13.85zM840.34 80.23c0-11.11-.07-20.72 0-30.33 0-3-1.93-2.48-3.67-2.48h-63.38c-2 0-3.85.12-3.66 2.68.21 3 2.52 1.4 3.81 1.3 9.17-.7 18.3-.73 27.22 1.76 15.72 4.34 28.61 13.01 39.68 27.07zm-11.62 31.21a8.73 8.73 0 000-1.55c-5.71-22.5-27.32-37.4-51.38-35.41-22.12 1.82-41.23 21.28-42.89 43.79-.1 1.48-1.37 3.88 1.93 4 3 .15 3.4-1.49 3.64-4a42.57 42.57 0 0181.36-13.11 9.93 9.93 0 007.34 6.28zm178.77-3.81c-7.16 29.41-8.61 57.89-10.07 87 .66-1.8 1.22-3 1.55-4.27a365.13 365.13 0 0118.39-55.36c.55-1.27 1-2.41.35-3.8-3.25-7.39-6.45-14.85-10.22-23.57zm-300 33.92c1.11-.58 2-1 2.81-1.49a59.94 59.94 0 0176.94 12.22 56.39 56.39 0 0111.24 19.82c.93 2.9 2.91 3.11 5 2.48 2.82-.83.71-2.77.31-4-12.59-38-57.19-56-92.5-37.41-3.29 1.83-5.4 3.69-3.75 8.38zm-.16 12a12.52 12.52 0 001.88-1.05c25.54-21.24 65.91-12.56 79.13 19.8 1.14 2.81 3.21 3 5.18 2.29 2.9-1 .58-3.13.1-4.39-12.35-32.48-54.85-45.32-83.51-25.46-3.37 2.36-3.52 5.02-2.73 8.79zm-2.24-106.13c2.65 7.26 1.94 14.42 1.87 21.52 0 2.83.76 3.71 3.65 3.56 4.64-.23 9.29 0 13.94.08 1.41 0 3 .74 3.47-1.58q2-10.51 4.17-21c.4-2-.3-2.63-2.29-2.61-8.13.07-16.25.03-24.81.03zm111.77 58.89c0-.46.17-.82.06-1.07-6.12-14.59-24.23-23.95-40.92-21.17-17 2.85-31.21 17.93-32.1 34.21-.09 1.72-.76 3.71 2.21 4 3.28.34 2.82-1.87 3.06-3.8 1.72-13.76 11.49-25.16 24.44-28.57 13.61-3.58 27.21 1.19 35.72 12.81a7.87 7.87 0 007.53 3.59zm-109.28 61c1-1.1 1.73-1.8 2.37-2.53 19.34-22.23 53.15-19 67.92 6.6 1.74 3 3.51 4.12 6.91 2.83-.26-.75-.47-1.53-.79-2.26-12.32-27.32-47.65-35.8-71.15-17.16-3.93 3.14-7.47 6.21-5.26 12.54zm47.2-44.79c4.22 2.69 7.34 1.39 10.68-.72a59.3 59.3 0 0161.16-.27c2.93 1.83 5 1.08 6.22-1.07 1.48-2.67-1.87-2.87-3.2-3.67a63 63 0 00-38.74-9c-13.29 1.21-25.48 5.68-36.12 14.75zM991.8 384h.2c0-6-.13-12 .05-17.95.11-3.84-2.59-3.1-4.75-3.31-2.38-.24-4.17 0-4.1 3.27.17 8.65 0 17.3.06 25.95 0 3.32-.22 6.66.57 9.94.61 2.52 1.81 4.28 4.81 3.83 2.83-.43 3.18-2.36 3.15-4.76-.04-5.66.01-11.32.01-16.97zm-283-209.78c3.13 1.41 5 .07 7-2.43 14.06-17.34 37.6-17.37 51.6 0 2.09 2.58 4 3.7 7.11 2.54-4.94-12-18.26-20.16-32.8-20.21s-28.08 8.17-32.89 20.09zm96.62-69.91c-8.72-10.42-20.16-13.67-32.57-9.84a28.45 28.45 0 00-19.38 23.8c3.94-2.36 7.36-4.84 9.9-8.89 6.3-10.05 19.21-13.18 29.88-7.43 3.75 2.05 7.45 2.24 12.19 2.35zm-39.27 21.55c2.94 1.28 4.8 3.57 7.81 2.16 15.65-7.33 31.2-7 46.49 1 2.56 1.33 3.8.09 4.91-1.59 1.82-2.75-1.15-3-2.42-3.7a55.31 55.31 0 00-56.79 2.14zm119.55 130.7c1.39-.4 5 1.49 3.67-3.37-3.34-12.19-9.78-22.85-16.54-33.27-2.38-3.66-5.43.37-7.7 1.38-2.5 1.13.26 2.67 1.1 3.67 7 8.4 12.59 17.55 14 28.65.44 3.47 2.54 3.27 5.49 2.93zM837 123.49a2.93 2.93 0 00-1 0 5 5 0 00-1.25.8q-22 18.24-24.31 46.74c-.15 1.82-.51 3.64 2.44 3.76s3-1.49 3.18-3.71c1-15.24 7.12-28.19 17.92-38.83 2.61-2.62 3.62-5.25 3.02-8.76zm35.78 133.69c.9-.45 4.21 1.49 3.67-2.55-1.6-11.9-7.6-21.53-15.82-29.88-2.38-2.42-4.76.23-6.61 1.35-2.24 1.36.38 2.49 1.11 3.34 6.28 7.31 11.23 15.3 12.84 25 .4 2.56 1.61 3.45 4.79 2.74zm123.14 120.26c0 6-.19 12 .1 18 .1 2.15-1.83 5.89 1.64 6.29 4 .45 3-3.92 3.95-6.29a2.7 2.7 0 00.08-1c.08-12.65.08-25.3.29-37.95 0-2.55-1-3-3.18-3.23-2.76-.3-3 1.13-2.94 3.22.14 6.98.06 13.97.06 20.96zm-29.83 6.19c0-7-.1-14 .06-20.95 0-2.57-.64-3.43-3.32-3.42-2.89 0-3.19 1.36-3.14 3.68.23 12.47.34 24.93.56 37.4a19.49 19.49 0 00.7 4.41c.41 1.62.94 3.35 3.16 3.15 2.54-.23 2-2.24 2-3.81 0-6.82-.02-13.64-.02-20.46zm-246.78-209.2a13.72 13.72 0 0010.31-1.88c8-5 16.54-4.9 24.47.26 3.28 2.14 6.23 2.12 9.83 1.57-10.04-15.26-34.82-15.07-44.61.05zM859.44 258c1.07-1 5.36 1.88 4.62-2.84-1.6-10.29-7.33-18.38-14.4-25.63-2.1-2.15-4.2-.16-5.79.88-2 1.34.14 2.5.94 3.47 5.15 6.28 9 13.22 10.18 21.32.39 2.51 1.35 3.54 4.45 2.8zm-12.89 1.25c2.78-.24 5.47-.06 4.52-4.4-1.77-8-5.82-14.71-11.33-20.61-2.53-2.71-5.25-.64-7.09.72s.68 2.76 1.53 3.85c4.15 5.27 7.44 11 8.93 17.54.46 1.99 1.05 3.48 3.44 2.85zm-10.72-123.33c-9.74 10.4-14.92 21.71-15.87 34.9-.1 1.49-1.19 3.74 2 4s3.38-1.51 3.56-3.88a45.75 45.75 0 018-23.19c2.48-3.45 3.07-6.84 2.31-11.83zm-59-4.88c2.42 1.94 3.91 3.65 7 2.65 10.6-3.46 21-2.39 31 2.35 2 .93 3.31 1.08 4.48-1 1.49-2.69-1-2.74-2.24-3.31-13.07-6.3-26.23-6.73-40.24-.73zM834 260.46c1.25-1.12 5.88 1.68 5.15-3-1.22-7.81-5.71-14.1-11.21-19.56-2.09-2.07-4.66-.24-6.34.94-1.86 1.3.61 2.47 1.28 3.45 3.31 4.84 6.17 9.82 7.38 15.64.37 1.62.74 3.46 3.74 2.53zm-24-16.86c4.05 5.09 7.4 10.4 8.93 16.63 1 3.83 3.6 1.78 5.62 1.69 2.59-.11 2.09-1.81 1.72-3.55-1-4.65-3.23-8.63-5.76-12.57-2.61-4.14-5.51-6.55-10.45-2.2zm-3.7 21.4c2.72-.49 5-.95 7.31-1.3 1.58-.25 1.81-1.2 1.49-2.51a35.46 35.46 0 00-8.65-15.51 2.56 2.56 0 00-3.16-.56c-1.5.6-1.25 1.75-1.1 2.91.62 4.78 1.28 9.56 1.86 14.34.21 1.63.5 2.98 2.25 2.63zm172.62 93.73v-3c0-6.4-.71-6.82-6.61-4.55a3 3 0 00-2.23 3.28c0 3.3.1 6.61 0 9.91-.06 2.33.89 3 3.23 3.18 4.06.25 6.43-.72 5.61-5.38a19.14 19.14 0 010-3.49zM785.81 137.26c2 2.29 3.33 4.28 6.08 4 6.72-.68 13.23-.07 19.26 3.22 2 1.12 2.53-.3 3.27-1.64.83-1.5.49-2.4-1-3.12-8.7-4.03-17.57-5.38-27.61-2.46zm50.26 14.17a45 45 0 00-6.74 20.67c-.14 1.51.07 2.7 2 2.62 1.26-.05 3.13.39 3.16-1.47.07-7.03 4.35-13.68 1.58-21.82zM714.86 82v.14h6.48a4.32 4.32 0 004.43-3.94c.22-2.66-2.6-1.74-4.12-1.81-4-.18-8 0-12 0-2.67 0-2.74 1.71-2.73 3.69 0 2.14 1.17 2.42 2.93 2.21s3.35-.2 5.01-.29zm277.48 270.11c-1.89-1.3 1.87-5.53-2.64-5.27-3.34.19-7 .79-6.83 6.42.14 4.64 1.93 5.71 5.73 5.76 5.53.06 2.33-4.32 3.74-6.91zM969.09 16a50.79 50.79 0 0011.63 9.34c.82.49 1.8 1.37 2.73.74 1.11-.76.68-2.12.48-3.22-1.48-7.86-5.25-9.73-14.84-6.86zM794.52 145c1.53 6.75 7.77 5.76 11.78 8.14 1.35.81 2.89 2 4-.62.86-2.11 1.2-3.7-1.4-4.8-4.53-1.9-9.07-3.33-14.38-2.72zm48.53 225.19c4.66.21 12.54-7.19 15.83-14.93-2 .17-4-1.28-5.57.91zM714.85 85.56c-1.81.16-3.47.31-5.12.44-2.86.22-2.8 2.2-2.76 4.32 0 2.83 2 2 3.54 1.94a29.77 29.77 0 014-.24c3.84.3 5.44-2.62 5.3-5.22-.14-2.21-3.34-.68-4.96-1.24zm121.53 284.07a4 4 0 002.81-1.84c2.76-3.27 5.54-6.52 8.12-9.93.64-.86 2.92-2.17.46-3.42-1.43-.73-3.13-1-4.3.93-2.49 4.07-5.11 8.06-7.67 12.09-.59.93-.96 1.82.58 2.17zm-66.65-261.07c5.7-2 11.7-3.06 18.48-4.57-7.6-1.86-13.48-.48-18.48 4.57zM712.26 96c-1.51 1.12-5.46-1.23-5.29 3.45.06 1.36 0 2.75 2 2.43 2.7-.42 5.82-.09 6.27-4 .31-2.4-1.38-1.68-2.98-1.88zM1002 345.59c-.32-.85.76-3-1.56-2.54-1.94.39-4.43.55-4.41 3.72 0 2.43 1.35 2.58 3.21 2.63 2.7.07 2.86-1.62 2.76-3.81zm-247.37-69.73c-1.18-1.89-.57-5.23-3.71-6.16-1.16-.35-2.59.45-2 1.94.95 2.28.77 5.45 3.93 6.25.92.22 2.06-.29 1.78-2.03zm-18.79-101.73c5 1 8.58.92 11.79-.3-6.04-1.33-7.16-1.3-11.79.3zM801.73 156c1.78 3.55 2.68 6.57 5 9.16 1.86-6.92 1.84-6.96-5-9.16zm-54.68 121.56c-1-1.64-.72-4.48-3.26-5.35-.87-.3-2.83.23-2.4 1.69.62 2.08.77 4.76 3.29 5.66.99.36 2.32-.05 2.37-2zm326-180.89c1.27-4.9 3.34-9.62 0-14.9zm-360.24 8.82c-2.29.47-5.3-1.57-5.81 2.47-.15 1.24-.72 3.17 1.67 3.27 3.99.16 3.44-3.04 4.18-5.74zM724.52 335c4.05 1 5.64-1.77 7.53-3.93a.86.86 0 00-.45-1.5c-3.5-1.16-4.37 2.07-6.16 3.73a8.1 8.1 0 00-.92 1.7zm-5.52-1.24c2.14-2 4.27-3.22 5-5.81-5.8-.95-5.8-.95-5 5.81zm-12-214.51c.4.78-1 2.8 1.3 2.71s3.11-1.61 2.7-3.75c-.21-1.07 1-2.93-1.37-2.92-2.46.01-2.86 1.71-2.63 3.96zm30 156.27a4.28 4.28 0 00-3 3.6c-.17 1.28.25 2.51 1.73 2.46s3.43.3 3.47-1.8a5.25 5.25 0 00-2.2-4.26zm-71.54 65c1.89-2.32 3.58-3.61 4.25-5.91-4.47-.45-5.48 1.39-4.3 5.93zM959 355c2.76.35 4.75 1 6.64-.4a1 1 0 00-.3-1.68c-2.12-.6-4.13-.39-6.34 2.08zM711.06 127.32c-.21-.61.12-1.82-1.18-1.51s-2.94.84-2.86 2.81c0 .78 0 1.86 1.18 1.58 1.45-.32 2.9-.87 2.86-2.88zM898.33 256c-1.94-.82-2.49-2.45-4.25-1.91-.18.06-.31.95-.16 1.33.8 1.89 2.18 1.07 4.41.58zM839 174.31c1.11-.19 1-.84.91-1.46s-.54-1.2-1.23-1c-.26.07-.48.8-.48 1.23-.04.59.15 1.24.8 1.23z"
    transform="translate(-4.82 -5.35)" />
  <path class="prefix__cls-2"
    d="M70.12 414.35c-17.47 0-34.94.22-52.41.08-7.57-.07-12.65-5.78-12.68-13.81C5 379.81 5 359 5 338.21q.06-51.42.15-102.84c1.93.65 1.9 2.6 2.59 4 2.09 4.34 3.85 8.86 6.14 13.09 4.19 7.71 10.85 11.88 19.58 12.89 9.28 1.07 18.59 1 27.91.93 1.8 0 4.25.22 4.27-2.23s-2.44-2.17-4.23-2.2c-8-.1-16 0-23.95-.28-10.24-.32-17.34-5.08-21.93-14.53-5.61-11.53-8.44-23.7-10.35-36.21q0-7.94-.08-15.87c1.13-.29 2.28-.53 3.39-.87 17.83-5.54 33.31-2.83 46.06 11.95 7.73 9 15.1 18.18 22.37 27.5 1 1.28 2.2 3 4 1.37 1.57-1.42.07-2.7-.82-3.85-7.83-10.14-15.3-20.6-24.54-29.56-2.7-2.61-1.84-3.81.89-5.49a169.45 169.45 0 0124.83-12.81c9.32-3.81 18.93-5.9 29.07-3.76-.08 1.43-1 1.94-1.73 2.6-6.57 6-14.65 9.08-23.05 11.39-2.26.62-4 1.3-4.22 4.06-.39 5.57 0 11 2.39 16.12 5 10.57 14.36 12.88 23.67 5.72a67.19 67.19 0 0021-26.88c2.22-5.11 2.53-5.16 6.31-.91 6.56 7.39 11.34 16 16.58 24.3 7.2 11.39 13.41 23.51 22 33.92 18.07 22 36.77 43.45 55.1 65.23 3.64 4.32 7.25 7.94 13.54 7.84 2.89-.05 5.83 1.23 8.71 2.05 11.41 3.23 18.35 10.27 19.3 22.53.92 11.94-3.48 29.43-17.83 34.29-3.75 1.27-5.83 4.7-8.06 7.76.37-3.45-.29-5.19-4.57-4.3a55.59 55.59 0 01-21.32.36c-9-1.63-17-4.85-21.62-13.45-.7-1.3-1.47-3.09-3.3-2.13-2 1.09-1 2.95-.22 4.34a32.64 32.64 0 003.8 5.23c7.39 8.07 17.19 10.11 27.53 11 6.66.55 13.13-1.52 19.76-1.08-.29 4-2.94 6.58-5.78 8.86-9.79 7.87-21.22 9.94-33.36 8.75-14.57-1.42-27.46-7.62-39.9-14.83a12.73 12.73 0 00-6-2.12c-15.95-.57-31.91-1.07-47.86-1.79-6.12-.28-12.53-.07-18.26-1.86A118.94 118.94 0 0165 373.33a29 29 0 01-13.3-18.49c-3-12.27-2.93-24.72-2.88-37.2 0-1.89.68-4.74-2.07-4.78s-2.23 2.82-2.3 4.72a179.57 179.57 0 001.78 31.85C48 361.94 53.41 372 65.14 378.2c7.22 3.79 14.4 7.64 22 10.58 2.86 1.11 3.11 2 1.16 4.41-5.82 7.26-11.79 14.38-18.18 21.16zm53-127.1c8.65.12 16.24-7.45 16.25-16.23a16.13 16.13 0 10-16.25 16.23zm115.68 60.23c-7.28 0-11.8 5.87-8.92 11.63s13.48 10.52 19.69 8.82c2.36-.64 4.27-1.72 4.39-4.62.33-7.31-7.8-15.8-15.12-15.83zM61 245.74c-3-7.74-4.4-16.74-9.74-24.28a23.09 23.09 0 00-12.26-8.9q-6-1.81-12-3.35c-5.48-1.4-11.19-2.28-14.54-7.71a1.91 1.91 0 00-3-.7c-1.15.89-.88 2-.23 3.12a13.65 13.65 0 007.77 6.66c4.6 1.42 9.23 2.81 13.94 3.78 11.95 2.48 19.54 9.27 22.37 21.33a116.23 116.23 0 003.77 11.36c.4 1.15 1.08 2.23 2.47 2s1.63-1.36 1.45-3.31zm146 82.16a16.06 16.06 0 00-1.24-1.83q-18-20.67-36-41.3c-1-1.13-2.11-3.26-4-1.6-1.72 1.52-.17 3 .91 4.25q12.21 14.13 24.46 28.23l11.4 13.18c.89 1 1.84 2 3.39 1.41.9-.36 1.08-1.19 1.01-2.34zM124 235c-1.31.2-3.8.43-6.22 1-1.51.36-3.86.66-3.45 2.81.51 2.69 2.78 1.52 4.48 1.18 11.62-2.31 19.18 1.22 24.86 11.62.48.87.9 1.78 1.37 2.66.71 1.36 1.5 3 3.34 2.06 1.55-.76.82-2.31.44-3.55C145.75 242.8 135.41 235 124 235zM251.77 5.68l32-.06c5.15 5.71 10.75 11.1 13.3 18.66-3.24.09-6 1.29-5 4.95s3.92 2.69 6.5 1.45c.3-.15.61-.24.92-.36 5.2 12.65 5 25.43.91 38.3-.3-3.05-1.57-5.05-5-4.3-2.17.47-3.07 2.18-2.31 4.09 1.36 3.41 4 2.59 6.52 1.4l.45-.19c-3.53 12.76-11.27 22.57-22 29.91-32.05 22-69.6 4.25-81.17-22.8 2.63 0 5.65.5 5.93-3.31a3.45 3.45 0 00-3.31-3.68c-3-.2-3.63 2.18-3.9 4.6-6.22-14.85-6.73-29.83-.91-44.93a12.13 12.13 0 00.49 3.39c.9 2 2.82 2.34 4.62 1.61a3.21 3.21 0 001.97-4.41c-.74-1.73-2.11-3.08-4.29-2.31a15.14 15.14 0 00-2.49 1.44c2.55-9.53 9-16.51 15.39-23.52l10.19-.09c-.85 2.26-1.44 4.46 1 6.21a2.64 2.64 0 003.22 0c2.15-1.38 1.77-3.29 1.07-5.26-.11-.31-.19-.63-.29-1l16.52.13c.55 3.7-.49 6.11-3.93 8.52-7.66 5.37-6.52 15.93 1.56 20.63 7.42 4.3 20.19 1.32 21.26-11.95 2.53-.79 5-2 3.64-5.14-1.18-2.63-3.55-3.37-6.09-1.2-3.33-2.91-8.43-4.75-6.77-10.78zm-30.25 92c2.1-.09 3.59-1 3.61-3.22s-1.31-3.93-3.56-3.93-3.57 1.6-3.57 3.9 1.45 3.14 3.52 3.24zm50.21-84.19c2.13-.63 3.56-1.85 3.38-4.21s-1.67-3.08-3.75-3-3.49 1.14-3.36 3.35 1.47 3.53 3.73 3.85zm0 32c-2.26.32-3.65 1.58-3.76 3.86s1.27 3.31 3.39 3.39 3.61-.77 3.75-3-1.24-3.69-3.39-4.31zm-24.44 20.82a3.23 3.23 0 00-3.46 3.48c-.07 2.09.78 3.62 3 3.73s4-1.16 4.09-3.41-1.53-3.45-3.63-3.8zm51.87-18.68a3.24 3.24 0 00-3.48-3.37c-2.11-.07-3.61.78-3.75 3a3.54 3.54 0 003.39 4.1c2.35.19 3.43-1.54 3.84-3.73zm-27.53 24.88c2.19-.5 3.56-1.75 3.48-4.09s-1.53-3.18-3.63-3.14-3.54 1-3.51 3.26 1.39 3.58 3.66 3.97zm3.54-43.24c-.28-2.11-1.44-3.81-3.73-3.72s-3.55 1.74-3.47 4.05 1.57 3.15 3.67 3.12 3.36-1.11 3.53-3.45zm9.55 53.21c2.13-.53 3.48-1.8 3.43-4.09s-1.49-3.14-3.58-3.12c-2.51 0-3.55 1.63-3.45 3.81s1.54 3.13 3.6 3.4zm-61-15a3.82 3.82 0 00-3.79 3.74c-.14 2.14 1.07 3.3 3.24 3.46 2.51.17 3.71-1.32 3.83-3.48s-1.34-3.26-3.3-3.77zm34.1 11.24c0 2.32.84 3.81 3.05 3.93a3.6 3.6 0 004.1-3.36 3.32 3.32 0 00-3.2-3.68c-2.2-.26-3.77.84-3.97 3.06zm-10.74-25.1c2.18-.16 3.76-1.33 3.87-3.57a3.57 3.57 0 00-7.13 0 3.19 3.19 0 003.26 3.57zm-35.44 11c1.89-.47 3.42-1.55 3.52-3.86s-1.12-3.31-3.28-3.45c-2.52-.17-3.69 1.4-3.8 3.54s1.35 3.15 3.56 3.73zm25.23-8.24a3.67 3.67 0 00-3.58 3.84c-.1 2.08 1.49 3.24 3.49 3.35 2.47.14 3.56-1.4 3.51-3.71a3.21 3.21 0 00-3.42-3.52zm26.41 45c0-2.68-1.54-3.83-3.73-3.81a3.34 3.34 0 00-3.46 3.47c0 2.23 1.6 3.56 3.89 3.58s3.23-1.34 3.3-3.29zm-49.21-82.52c-.45-2-1.58-3.44-3.61-3.4s-3.73 1.19-3.62 3.7c.1 2.13 1.17 3.46 3.35 3.39s3.49-1.5 3.88-3.69zm9.68 9.37c-2.19 0-3.71.8-3.84 3a3.59 3.59 0 003.34 4.11A3.28 3.28 0 00227 32.2a3.31 3.31 0 00-3.25-3.97zm10.69 56.3c2.26-.34 3.63-1.61 3.71-3.91a2.87 2.87 0 00-3-3.24c-2.33-.09-3.93 1.17-4.08 3.44-.14 2.09 1.37 3.23 3.37 3.71zm42.71 6.41c-.4-2-1.55-3.51-3.62-3.51a3.35 3.35 0 00-3.53 3.51c0 2.22 1.19 3.78 3.75 3.66 2.37-.11 3.02-1.74 3.4-3.66zm-61.92-49.33a3.21 3.21 0 00-3.42-3.41 3.29 3.29 0 00-3.69 3.21c-.32 2.6 1.64 3.66 3.66 3.78s3.16-1.49 3.45-3.58zm11.87 10c-.46-1.54-.95-3.31-3.3-3.43-2.08-.1-3.69.65-3.86 2.91s1 4 3.32 4.07a3.71 3.71 0 003.84-3.51zm-17.69 28.53c-2.09.12-3.46 1.13-3.42 3.32 0 2.5 1.67 3.39 3.95 3.24s3.32-1.36 3.18-3.52-1.64-3.03-3.71-3.04zM198 56.31c2-.55 3.19-1.73 3.13-3.84s-1.39-3.39-3.52-3.18-3.75 1.57-3.55 3.92c.23 2.17 2.12 2.71 3.94 3.1zm38.79-20.1c-1.71.19-3.37 1.1-3.52 3.14a3.5 3.5 0 003.59 3.88 3 3 0 003.39-3.36c.04-2.11-.94-3.4-3.42-3.66zm24.36 26.09c2.23-.51 3.83-1.7 3.7-4-.12-2.05-1.48-3.23-3.69-3.11s-3.4 1.27-3.31 3.45 1.4 3.2 3.3 3.66zm3.79-23.15c-.64-2.18-1.93-3.76-4.18-3.44a3.42 3.42 0 00-2.91 3.93c.16 2.21 1.58 3.17 3.68 3a3.62 3.62 0 003.41-3.49zm-28.89 60.1c-2.29.18-3.22 1.49-3.25 3.6a3 3 0 003.35 3.39 3.08 3.08 0 003.2-3.56 3.16 3.16 0 00-3.3-3.43zm48.8-84.74c-1.78.53-3.21 1.4-3.1 3.68s1.14 3.44 3.35 3.4 3.17-1.45 3.22-3.54c.05-2.26-1.32-3.17-3.47-3.54zm3.41 42.06c-.11-1-1.09-2.36-3.32-2.29s-3.17 1.47-3.18 3.58a3 3 0 003.38 3.37c2.04-.06 3.27-1.36 3.12-4.66zM247.08 95.3c2.13-.37 3.35-1.44 3.27-3.63s-1.1-3.43-3.3-3.42a3 3 0 00-3.24 3.43 3.69 3.69 0 003.27 3.62zM288.27 38c.08-2.81-.9-3.87-3-3.83s-3.52 1-3.5 3.3a2.92 2.92 0 003.1 3.18c2.31.07 3.32-1.26 3.4-2.65z"
    transform="translate(-4.82 -5.35)" />
  <path class="prefix__cls-1"
    d="M300.47 68.62c4-12.87 4.29-25.65-.91-38.3-.39-2.19-.88-4.33-2.44-6-2.55-7.56-8.15-12.95-13.3-18.66h6c.83 1.23 1.51 2.6 2.94 3.3a8 8 0 002.94 3.81 9.3 9.3 0 002.68 3.89 7.65 7.65 0 002.28 4 5.34 5.34 0 001.48 3.25c.48 1.3 1 2.59 1.45 3.89s1 2.6 1.51 3.9a5.6 5.6 0 001 3.85 4.67 4.67 0 00.81 3.3l.36 3.81a7 7 0 00.54 4l.19 3.54c0 1.16-.07 2.31-.11 3.47a5.39 5.39 0 00-.49 3.8l-.44 4a6.19 6.19 0 00-.82 3.81c-.31 1.12-.62 2.24-.92 3.36l-1.15 3.78c-.53 1.3-1.05 2.61-1.58 3.91a6.34 6.34 0 00-1.77 3.94 5 5 0 00-1.83 3.25 7.43 7.43 0 00-2.34 3.85l-.54.89c-1.37 1.43-2.76 2.83-4.09 4.3-9.8 10.85-21.62 17.94-36.3 20.08-5.21.76-10.44.43-16.44.61 3.41 5.31 6.11 10.17 7.36 15.74 4.67 20.79-8.82 41.33-28.5 43-11.91 1-20.73-4.62-28-13.43a3.34 3.34 0 00-1.57-2.56c-.78-4.15-3-5-6.56-2.88-1.25.75-2.6 1.31-3.91 2a35.61 35.61 0 01-17.64-.45l-7.4-3.38-4.75-3.93c-2.93-5.41-5.89-1.34-8.84 0a38.5 38.5 0 01-19.68 0c-8.14-3.69-14.58-9.18-18.33-17.47-.77-1.7-1.78-2.23-3.51-1.36-8.3 4.18-16.72 3.18-25.17.53l-1.34-.33-.26-.31c-.64-1.51-2.11-1.87-3.42-2.45L66 124.6c-7.19-7-11.75-15.23-12.31-25.4-.11-1.85-1-2.57-2.74-2.82-6.29-.92-11.56-4-16.4-7.94l-1.29-1.06c-.4-1.78-2-2.63-3.07-3.83a3.35 3.35 0 00-1.75-2.47 7.25 7.25 0 00-1.71-3.87l-1.81-4.75a5.31 5.31 0 00-1-3.72l-.22-2.91c-.07-1.23-.14-2.47-.2-3.71.06-1.52.13-3 .2-4.55l.51-3.76a5.83 5.83 0 00.87-3.55c2.3-5.25-2.86-2.31-4.07-3.7l-.21-.32-8.11-3.89-4.4-3.86-3-3.28c-.1-6-.56-12-.2-17.94A12.49 12.49 0 0117.72 5.48c7-.16 14 .09 21 .16C44 23.32 63.69 30.56 79 20.46c2.34-1.54 3.51-3.1 2.33-6.14A18.11 18.11 0 0180 5.55h3.89c.76 8 3.52 15.13 9.42 20.83 1.81 1.75 3.23 3.11 4.16-.77 2.07-8.68 7.64-14.92 14.62-20.09h11.75c-2.68 1.74-6 1.43-8.8 3.21a33 33 0 00-10.54 44.42c8.49 14.47 27.17 18.22 39.52 8C156.94 50.42 159 30 149 16.48c-4-5.35-9.75-7.71-15-11l9.94.1c7.76 6.17 13.55 13.71 15 23.73.62 4.27 2.36 4.8 6 3.71 11-3.3 19.34-14.45 20.3-27.48h4v3.1l-.78 3.75-1.46 4.84-1.44 2.5c-1 4.49 3.35 3.92 5.27 4.82s2.2-2.09 2.81-3.66l1.75-3.43q1.62-2.36 3.23-4.72l3-3.87 3-3.3h5.72c-6.39 7-12.84 14-15.39 23.52l-.2.28c-5.82 15.1-5.31 30.08.91 44.94l1.28 2.38c11.57 27.05 49.12 44.75 81.17 22.8 10.72-7.34 18.46-17.15 22-29.91.11-.3.23-.58.36-.96zm-99.39 52.32a34.18 34.18 0 01-9.2 25.07c-1.15 1.27-2 2.3-1.42 4.34 3.49 11.29 17.9 19.93 29.38 17.45 18.73-4 28.5-25.48 20.78-43.87-4.91-11.68-21.68-20.79-33.3-16-4.26 1.77-8.1 3.17-6.29 9 .37 1.25.05 2.68.05 4.01zm-54.63-6.4a38.06 38.06 0 004.12-.76c13.89-3.72 20.58-13.84 22-27.17 1.35-12.41-3.6-22.71-14.15-30-2.38-1.63-3.8-1.47-5.69 1.05-7.4 9.87-17 15.17-29.74 13-2.5-.43-3.54.63-4.17 3-1.52 5.71-2.13 11.36-.81 17.22 3.13 13.82 14.42 23.75 28.44 23.66zm50.67 3.16c-.43-9.07-5.3-18.8-16.35-25-3-1.66-4.43-1.4-5.66 2.22-4.84 14.22-14.36 22.83-29.91 23.58-1.82.09-3.21.15-3.3 2.56-.45 12.4 8.23 29.53 25.44 30.61 16.97 1.08 29.83-12.41 29.78-33.97zm-96.11-13c3.77.33 7.8-.94 11.68-3.12 2.49-1.41 3.6-2.77 2.49-5.91a34.38 34.38 0 01-.35-23c.88-2.61.1-4.23-2.42-5.64-6.79-3.83-11.18-9.82-14-17-2.61-6.63-4.41-7.23-10.7-3.48-13.38 8-18.79 25.18-12.63 40.22C79.67 98 89.12 104.66 101 104.65zM46.32 32.78c-.77.37-1.84.82-2.85 1.38-8.6 4.78-13.27 12.26-15.13 21.76C25.27 71.6 34.14 87.15 49 91.9c2.59.83 4.58 1.34 5.26-2.63a33.42 33.42 0 0112.35-21c1.59-1.27 1.81-2.21-.11-3.31-11.75-6.67-17.17-17.16-18.4-30.2-.1-.93.15-2.16-1.78-1.98zm21.37 41c-1.61.12-2.09 1-2.7 1.81-10.1 12.47-9.91 31.36 1.06 43.08 6.87 7.34 15.58 10.67 25.81 7.83 9.7-2.7 15.51-9.35 19.26-18.72-27.66 2.48-36.41-4.46-43.43-34.01zm115.36-48c-1.36 0-2 1.1-2.75 2a29.51 29.51 0 01-17.41 10 4.28 4.28 0 00-3.76 4A20 20 0 01158 47c-1.35 2.89-.49 4.45 2.14 6 9.85 5.64 14.3 14.87 16.7 25.49.53 2.34-1.63 5.89 1.92 6.85 2.52.67 5.09-1.18 7.5-2.28.91-.42 1.74-1 2.63-1.44 3-1.52 3.84-3.42 2.44-6.86-5.51-13.54-6-27.46-2.34-41.56.91-3.73-2.25-7.75-5.94-7.48zm-53.32 118.8c3.5.48 7.05-1 10.65-2.33 2.21-.78 2.68-1.95 1.45-4.12a29.65 29.65 0 01-3.93-16.75c.16-2.54-.66-3.89-3.15-4.74a29.11 29.11 0 01-14.47-11c-2.32-3.24-3.58-2.34-4.39.85a33 33 0 01-9.89 16.45c-2.06 1.9-1.69 3.61-.78 5.74 3.9 9.13 14.01 15.85 24.51 15.9zM52.21 34.08c.93 10.44 4.64 20 14.55 26.24 2.29 1.44 3.58 1.38 4.82-1.48A32.2 32.2 0 0192.77 40c4-1.18 4.51-4.34 1.45-7.21-2.3-2.16-5.14-4-6.67-6.64-2.55-4.31-4.55-3.38-8.14-1.22-6.53 4-13.72 5.7-21.47 3.69-5-1.29-5.76-.55-5.73 5.46zM33.9 9.45c-.42.3-1 .66-1.48 1.07-7.48 6.06-15 12-23.59 16.52-2.32 1.22-2 2.57-.82 4.36 4.34 6.36 10.44 10 17.79 11.85a3.1 3.1 0 003.73-1.62 32.1 32.1 0 0116.84-13.3c3-1 3.23-2.67.59-4.45a32 32 0 01-10.53-12.36c-.5-.97-.76-2.3-2.53-2.07zM211.72 102c-2.91-3.86-7.05-6-9.67-9.66-2.18-3.08-4.23-7.5-7.24-8.44-3.4-1.06-6.72 3.46-10.55 4.53-.26.08-.46.39-.85.73 2.83 3 6.61 4.85 9.34 8 2.56 3 3.33 8.57 7 9s7.67-2.54 11.97-4.16z"
    transform="translate(-4.82 -5.35)" />
  <path class="prefix__cls-3"
    d="M338.85 414.33a116.87 116.87 0 01-29.94-34.4 89.65 89.65 0 01-9.6-25.08 10.48 10.48 0 010-6.11c2.59.94 3.66 3.41 5.28 5.11 14.09 14.85 32.2 22.21 51.34 27.4a213.91 213.91 0 0072.73 7c27.69-2.14 54-9.5 77.73-24.57 6-3.82 11-8.94 16.94-14.56-4.28 28.24-17.59 49.53-40.06 65.18-8.32.07-16.64.2-25 .2H344.83c-1.99.04-3.98-.1-5.98-.17zM1031.21 5.6c6.14 46.95 14.75 93.47 23.93 139.89a10.6 10.6 0 00.83 2.86c1.75 3.39-.21 4.3-3 4.88-5.2 1.08-10.43 2.08-15.56 3.46-2.63.71-4.15.22-4.94-2.37a3.59 3.59 0 00-.36-.93c-5.61-8.56-6.46-17.78-4-27.51.4-1.54 1.22-3.5-1-4.3-2-.75-3 1.07-3.84 2.45-2.32 3.93-3.34 2.32-4.58-.78-2.52-6.33-5.27-12.57-7.94-18.84-.85-2-2-3.84-1.11-6.17a2.9 2.9 0 00-.28-2.38c-8.43-10.77-10.35-24.14-14.34-36.61-5.57-17.37-7.71-35.36-7.36-53.61z"
    transform="translate(-4.82 -5.35)" />
  <path class="prefix__cls-2"
    d="M650.26 414.36c-.73-10.75-2.81-21.53.63-32.19.66-2.05 1.49-4.05 2.27-6.06 2-5.18 4.76-9 11.37-7.61 2.64.57 5.24-.71 7.64-1.92 2.69-1.34 4.31-1.5 3.92 2.4-.27 2.63.08 5.32 0 8-.09 3.77 1.53 4.47 4.62 2.75a60.18 60.18 0 0017.07-13.47 50 50 0 007.22 16c3 4.31 3.88 4.43 7.44.52 2.12-2.33 4-4.85 6.14-7.21s2.33-5.81 4-9.14a40.89 40.89 0 0015.54 10.89c6.24 2.44 8.5 1.29 9.72-5.31.5-2.72.32-5.57.47-8.86a57 57 0 0020.69 3.14c1.29 0 2.09.83 3 1.62 7 6.33 11.94 25.6 8.88 34.63-.46 1.37-1.56 2.11-2.55 3q-5.05 4.43-10.13 8.83zm70.37-14.6c-.49-2.9-2-4.83-5-4.68-2.6.14-4.45 1.71-4.47 4.46s1.52 4.82 4.55 4.83 4.45-1.91 4.92-4.61zm-42.3 4.7c2.77-.45 4.58-2.06 4.55-4.88s-2.07-4.52-4.84-4.49a4.34 4.34 0 00-4.55 4.78c.05 2.86 1.97 4.33 4.84 4.59zm76.85-4.46c0-2.93-1.23-4.62-4-4.78s-4.83 1.31-5 4.23 1.41 4.8 4.35 4.89 4.47-1.5 4.65-4.34z"
    transform="translate(-4.82 -5.35)" />
  <path class="prefix__cls-3"
    d="M1114.09 14.5c0 26.14-1.47 52.15-6.95 77.82-3.59 16.77-7.73 33.37-13.82 49.41a170.36 170.36 0 00-7 25.47c-.88 4.21-2.25 3.62-4.72 1.66-3.91-3.1-7.79-6.23-11.76-9.26-1.93-1.47-1.88-3.32-1.54-5.37 3.32-20 6.91-39.93 9.84-60 1.75-12 2.34-24.14 3.67-36.2 1.93-17.5 4.06-35 6.1-52.46 4.83 0 9.66-.24 14.48-.09 5.74.2 9.73 3.42 11.7 9.02z"
    transform="translate(-4.82 -5.35)" />
  <path class="prefix__cls-1"
    d="M11.21 188.76c4.14-.38 8.29-.69 12.42-1.15 8.5-.94 16.28.91 23 6.28 2.45 2 4 .92 6.07-.36 13-8.16 26.47-15.38 41.76-18.36a91.32 91.32 0 0117.34 0c1.23.29 2.47.63 3.69-.05l1.14-1.36 2.12-2.85a9.44 9.44 0 003.89-3.7c1.48-1.34 3-2.61 3.82-4.53 1.48-.77 2.22-2.21 3.14-3.49a4 4 0 014.3-.37l.24 3.67-.15 4c-.06 1.28-.13 2.56-.2 3.84a4.22 4.22 0 00-.55 3.42 5.78 5.78 0 00-.59 3.74 6.5 6.5 0 00-.66 4c-.8 2.55 1.48 2.9 2.79 3.95a7.94 7.94 0 003.5 3.31c5.88 7.81 10.94 16.15 16.09 24.46 6.74 10.88 13.12 22 20.82 32.25a6.34 6.34 0 003.13 3.32 7.13 7.13 0 003.09 4l3.91 4.74 3.46 3.89c.6.94 1.06 2 2.28 2.35a6.76 6.76 0 003.05 3.94l4 4.79c.39 1.39 1.54 2.14 2.56 3l3.09 3.37a7 7 0 003.13 3.88l4 4.74a9 9 0 003.57 4l2 2.76q1.62 1.77 3.25 3.52a13.72 13.72 0 004 4.75l2.67 3.52 2.92 2.75a7.26 7.26 0 003.16 4 11.84 11.84 0 003.55 4.12c5.21 2.55 11.07 2.18 16.52 3.63l7.59 3.42 5.57 3.83 3.69 4.08a9 9 0 002.24 4l1.18 2.89c1.71 9.63 1.87 19.15-1.71 28.49-3 7.8-7.94 13.8-15.66 17.22a14.34 14.34 0 00-7.68 7.95c-4.34 9.8-13.06 14.24-22.76 17-13.15 3.75-26 1.6-38.77-2.29a3 3 0 00-3.21-.69h.07c-2.43-2.17-5.49-3-8.46-4.06a21.08 21.08 0 00-8-4c-1.26-1.72-3.2-2.41-5-3.28-3.28-1.35-6.77-1.34-10.21-1.45-17.89-.55-35.81-.42-53.67-1.84-3-.23-4.18 1.36-5.35 3.46l-2.54 3.2c-1.32 1.08-2.67 2.15-3.23 3.87L83 406.61a6.61 6.61 0 00-2.9 3.57 7.23 7.23 0 00-3.27 3.33c-2.07 1.66-4.43 1-6.72.84 6.39-6.78 12.36-13.9 18.19-21.16 2-2.43 1.7-3.3-1.16-4.41-7.61-2.94-14.79-6.79-22-10.58C53.41 372 48 361.94 46.23 349.43a179.57 179.57 0 01-1.78-31.85c.07-1.9-.38-4.76 2.3-4.72s2.08 2.89 2.07 4.78c0 12.48-.15 24.93 2.88 37.2A29 29 0 0065 373.33a118.94 118.94 0 0027.92 13.12c5.73 1.79 12.14 1.58 18.26 1.86 16 .72 31.91 1.22 47.86 1.79a12.73 12.73 0 016 2.12c12.44 7.21 25.33 13.41 39.9 14.83 12.14 1.19 23.57-.88 33.36-8.75 2.84-2.28 5.49-4.85 5.78-8.86l-.06.05c2.23-3.06 4.31-6.49 8.06-7.76 14.35-4.86 18.75-22.35 17.83-34.29-.95-12.26-7.89-19.3-19.3-22.53-2.88-.82-5.82-2.1-8.71-2.05-6.29.1-9.9-3.52-13.54-7.84-18.33-21.78-37-43.24-55.1-65.23-8.55-10.41-14.76-22.53-22-33.92-5.24-8.3-10-16.91-16.58-24.3-3.78-4.25-4.09-4.2-6.31.91a67.19 67.19 0 01-21 26.88c-9.31 7.16-18.67 4.85-23.67-5.72-2.41-5.11-2.78-10.55-2.39-16.12.2-2.76 2-3.44 4.22-4.06 8.4-2.31 16.48-5.35 23.05-11.39.71-.66 1.65-1.17 1.73-2.6-10.14-2.14-19.75-.05-29.07 3.76A169.45 169.45 0 0056.48 196c-2.73 1.68-3.59 2.88-.89 5.49 9.24 9 16.71 19.42 24.54 29.56.89 1.15 2.39 2.43.82 3.85-1.83 1.65-3-.09-4-1.37-7.27-9.32-14.64-18.54-22.37-27.5-12.78-14.74-28.26-17.45-46.09-11.91-1.11.34-2.26.58-3.39.87-1.58-5.63 3.83-4.39 6.11-6.23zm117.87-21.27c-1.25-.3-1.75.74-2.36 1.43-11 12.29-22 24.62-39.23 28.37a2.33 2.33 0 00-2 2.42c-.39 6 .43 11.62 4.75 16.23 3.82 4.08 7.87 4.93 12.43 1.7 17.27-12.24 26.27-28.93 26.33-50.25h.41l-.29-.35z"
    transform="translate(-4.82 -5.35)" />
  <path class="prefix__cls-3"
    d="M1063.23 5.61c1.52 20.87 3.2 41.73 4.5 62.62 1.73 27.71 3.46 55.46-3 82.88-.23 1-.58 1.89-1 3.2-3.83-2.65-3.82-6.83-4.51-10.25-7.89-39.23-15.21-78.57-21-118.17-1-6.74-1.55-13.53-2.32-20.3zM133.9 5.52c5.3 3.25 11.06 5.61 15 11C159 30 156.94 50.42 144 61.18c-12.35 10.27-31 6.52-39.52-8A33 33 0 01115 8.81c2.75-1.78 6.12-1.47 8.8-3.21z"
    transform="translate(-4.82 -5.35)" />
  <path class="prefix__cls-2"
    d="M713.79 5.61l2.29 2.91q-55 .08-110 .15-122.47.06-244.95.08c-.14-1-.29-2.1-.44-3.14q45.5-.09 91-.16h178c1.16 0 2.32.09 3.49.14 2 1.59 4.08.66 6.12 0z"
    transform="translate(-4.82 -5.35)" />
  <path class="prefix__cls-3"
    d="M774.84 414.31c8.9-8.81 18.31-16.5 32.06-15 3.55.38 5.23-1.32 5.08-5-.13-3.15 0-6.31 0-9.46 0-1.34 0-2.94 1.92-2.82 1.67.1 1.29 1.67 1.31 2.74.07 2.82.15 5.65 0 8.47-.22 4.08 1.5 5.63 5.62 5.37 15-.95 26.81 5.86 37.29 15.73h-12.29c-1.88-.89-3.71-1.92-5.65-2.64-2.32-.87-3.78-.08-3.84 2.6l-13.42.06c-1.34-2-2.67-3.36-4 0h-12.8c-1.33-3.63-2.7-2.34-4.08 0h-12c-1.56-3.53-3.2-1.19-4.83-.07z"
    transform="translate(-4.82 -5.35)" />
  <path class="prefix__cls-1"
    d="M1092.44 414.3c-.91-3.12.48-4.28 3.45-5.22 5.2-1.64 8-6.58 7.7-12.09a11.73 11.73 0 00-8.69-10.93c-2.44-.68-4.57-.06-6.75.87-3.13 1.33-4.52.51-3.57-3s1-6.9-.77-10.18c-2.35-4.34-6.57-6.55-11.22-5.63-5.2 1-8.06 4.49-8.78 9.58-.45 3.12-.82 5.18-4.87 3.39-6.44-2.83-12.29-.41-14.76 5.65-2.65 6.51.15 14.24 6.64 16 5.35 1.42 5.54 3.27 2.57 7.2-.82 1.08-.75 2.83-1.09 4.27-1.51.52-3 .82-4.38-.36.19-1.14.39-2.28.58-3.42.45-1 1.46-1.82.76-3.07l-6.37-4.89q-1.23-2-2.44-3.93c-.3-.75-.6-1.51-.91-2.26-.19-1.29-.38-2.58-.58-3.87.14-1.55.27-3.11.4-4.66.46-1.35.93-2.7 1.39-4 .52-.74 1-1.49 1.57-2.23l4.18-3.89c3.22-1 6.41-2.84 9.85-1.65s3.94-.69 4.33-3.17a7 7 0 002.25-3.95l4.29-3.29a18.69 18.69 0 0114.46 0l4.14 3.38 1.16 1.73 1.14 2q.69 2.41 1.36 4.83c.1 1.12.19 2.24.29 3.36 3.75 1.7 8.21 1.14 11.7 3.66l3.25 3.25 2.33 4.48c.27 1.21.54 2.41.8 3.61l.11 3-.69 3.69q-.84 2.26-1.67 4.53l-1.55 1.53-1 1.32 1 .42a11.72 11.72 0 005.88.16 3.63 3.63 0 01-3.36 2.56c-4.82-.46-9.37 1.45-14.13 1.22z"
    transform="translate(-4.82 -5.35)" />
  <path class="prefix__cls-3"
    d="M185.14 5.58c-1 13-9.28 24.18-20.3 27.48-3.63 1.09-5.37.56-6-3.71-1.46-10-7.25-17.56-15-23.73zM80 5.55a18.11 18.11 0 001.33 8.77c1.18 3 0 4.6-2.33 6.14-15.31 10.1-35 2.86-40.31-14.82z"
    transform="translate(-4.82 -5.35)" />
  <path class="prefix__cls-1"
    d="M261 22.85c-1.07 13.27-13.84 16.25-21.26 11.95-8.08-4.7-9.22-15.26-1.56-20.63 3.44-2.41 4.48-4.82 3.93-8.52a37.57 37.57 0 019.71 0c-1.66 6 3.44 7.87 6.73 10.83.77 2.14 1.58 4.26 2.45 6.37z"
    transform="translate(-4.82 -5.35)" />
  <path class="prefix__cls-2"
    d="M953 5.59c-.14 1.1 0 2.27-.88 3.16l-184.81-.09-2.09-3.07zM1006.26 346.56v-4.06c34.73 0 69.45.11 104.18 0 3.64 0 5.38.72 4.45 4.61l-28.9.28zM1006.28 361.56v-4.08l78.72-.07h1l28.94.17-.06 4.53-28.89.28z"
    transform="translate(-4.82 -5.35)" />
  <path class="prefix__cls-1"
    d="M5.18 210.86c1.91 12.51 4.74 24.68 10.35 36.21 4.59 9.45 11.69 14.21 21.93 14.53 8 .24 16 .18 23.95.28 1.79 0 4.26-.34 4.23 2.2s-2.47 2.21-4.27 2.23c-9.32.07-18.63.14-27.91-.93-8.73-1-15.39-5.18-19.58-12.89-2.29-4.23-4.05-8.75-6.14-13.09-.69-1.43-.66-3.38-2.59-4z"
    transform="translate(-4.82 -5.35)" />
  <path class="prefix__cls-2"
    d="M83 406.61l3.57-4.23h88c3 1 6 1.89 8.46 4.06zM319.55 402.4l3.61 4h-81.42c1.28-3.4 4.07-3.82 7.38-3.81 23.48-.04 46.96-.13 70.43-.19zM5.09 132.57h71.7c-1.29 3.67-3.5 4.76-6.91 4.73-14.48-.12-29 .35-43.44-.23-7.12-.28-14.25-.45-21.37-.68.01-1.27.02-2.54.02-3.82z"
    transform="translate(-4.82 -5.35)" />
  <path class="prefix__cls-3"
    d="M112.07 5.57c-7 5.17-12.55 11.41-14.62 20.09-.93 3.88-2.35 2.52-4.16.77-5.9-5.7-8.66-12.81-9.42-20.83z"
    transform="translate(-4.82 -5.35)" />
  <path class="prefix__cls-2"
    d="M76.84 413.51a7.23 7.23 0 013.27-3.33h102.52c-1.1 3.12-3.06 3.5-5.37 3.49q-50.2-.1-100.42-.16zM958.51 410.08c1.78 2.88 5.79.85 7.68 3.48l-92.28.12c-3 0-6 .14-9 .21a9.85 9.85 0 01-4.2-3.44c3.49-.06 7-.17 10.47-.18z"
    transform="translate(-4.82 -5.35)" />
  <path class="prefix__cls-1"
    d="M315.82 5.52c.75 11.45 7.27 15.12 17.88 10 1.37-.66 2.45-.88 3.49.39 3.58 4.34 8.05 6.13 13.26 3.53 5.47-2.74 6.82-7.81 6.34-13.54a2.21 2.21 0 01.09-.49l3.84.2c.15 1 .3 2.09.44 3.14l-.48 3.72-1.77 4.79-1.14 1.53c-.83.74-1.95 1.47 0 2.24A1.12 1.12 0 00356 21l-3.49 2.44a21.24 21.24 0 01-13 0c-1.94-1.23-3.25-4.12-6.22-2.68-5 2.43-9.85 1.38-14.67-.54l-4-3.93-2-3.83c-.31-1.25-.61-2.5-.92-3.75.06-1 .11-2.09.17-3.14z"
    transform="translate(-4.82 -5.35)" />
  <path class="prefix__cls-2"
    d="M326.93 410.17a8.82 8.82 0 014.09 3.32h-95.59c1-3.77 3.79-3.22 6.23-3.22h78.29c2.33-.01 4.66-.07 6.98-.1zM1115.05 353.62l-108.7.13c0-1.12-.05-2.25-.08-3.37 9.91.43 19.83.2 29.76.66 15.54.72 31.14.19 46.72.19 1.14 0 2.35.2 3.29-.72l28.89.26zM5.09 147.57h57.65c-2 3.6-4.39 4.68-7.91 4.75-16.6.34-33.17-.81-49.76-.93.01-1.27.01-2.55.02-3.82zM308.08 387.42c.84 1.31 1.69 2.61 2.53 3.91h-52.87c1.92-2.76 4.41-3.84 7.87-3.81 14.15.1 28.31-.04 42.47-.1zM498.59 410.21h64.38c2.87 0 5.32.29 6.51 3.33l-72.37.12a8.87 8.87 0 01-1.92-.44 8.79 8.79 0 013.4-3.01zM1073.07 332.21c1.24-1.61 2.47-3.22 3.71-4.82l38.2.19v4.53l-28.9.28zM1048.5 410.36c-.19 1.14-.39 2.28-.58 3.42l-65.92-.17c.34-1.09.69-2.19 1-3.29l2.32-.17 5.38-.07zM313.62 395.31l2.48 3.19h-65.91c1.66-3.4 4.33-2.77 6.67-2.79q28.38-.24 56.76-.4zM5 140.31h64.56c-.86 3.33-3.15 3.44-5.56 3.43q-29.49-.09-59-.13zM5.09 162.58h41.64c-2.19 3.64-4.79 4.85-8.45 4.71-11.07-.41-22.14-.62-33.21-.9.01-1.27.02-2.54.02-3.81zM1081.11 317.3c-.21-1.8.69-3.29 1.36-4.84l32.51.12-.06 4.53-28.89.28-1 .1zM1085.06 302.16c.08-1.57-.3-3.21.81-4.59h29.11v4.52l-28.9.28zM5 155.37h49c-1.08 3.5-3.07 3.36-5 3.36l-44-.12v-3.24zM1086.19 212.18v-4.66l28.79.06v4.53zM1086.26 197.17c.25-1.56.5-3.11.76-4.67l28 .08v4.53zM1087.11 287.16c.08-1.57.15-3.14.22-4.71l27.65.13v4.53zM1088.17 267.51l26.81.07-.06 4.53-26.79.06c.01-1.55.02-3.11.04-4.66zM1088.14 182.16c-.3-1.67.47-3.14.9-4.67l25.94.09-.06 4.53zM1089.48 377.43q-.68-2.42-1.36-4.83h26.86v4.53zM23.05 125.93c14.31.28 28.62.56 42.93-.14l1.69.19c1.31.58 2.78.94 3.42 2.45L5 128.61c-.23-3 1.93-2.47 3.67-2.5 4.81-.11 9.59-.11 14.38-.18zM1065.58 338.45l3.92-2.94a39.36 39.36 0 0016.53 0l28.9.26c.4 2.11-.37 3-2.62 2.93-15.58-.14-31.15-.18-46.73-.25zM1090.88 167.06a7.23 7.23 0 011-4.56l23 .08v4.53zM1086.33 222.54h28.65c0 1.35 0 2.7.08 4l-28.13.15a5.83 5.83 0 01-.6-4.15zM1115.05 323.62h-36.24c.09-1.3.07-2.64 1.46-3.38l34.78.1zM1011.94 338.48c2.12-1.67 4.67-2.39 7.15-3.28 10.87.33 21.71 1.48 32.6 1 2.79-.16 5.18 1 7.54 2.26zM304 380.27c.63 1.1 1.25 2.2 1.87 3.3h-36.51c2.26-2.93 5-2.82 7.68-2.87zM1094.39 152.18a8.44 8.44 0 011.59-4.73l19 .13v4.53zM1115.05 308.62l-31.77.27.87-2.95 1.88-.43 28.9.26zM5 170.37c10.38-.57 20.7.59 31.45.61-1.2 2.75-3.15 2.76-5.11 2.75L5 173.61v-3.24zM1115.05 368.61l-28 .43-1.26-.19-4.14-3.38 4.4-.48 29 .33zM24.94 72.46l1.81 4.75c-6.14-1.11-12.36-.94-18.54-.74-3.21.1-3.48-1.47-3.12-3.89zM1115.05 293.61l-28.82.17a4.11 4.11 0 01.52-3.22l28.18.21zM1086.2 215.69l28.71.07c0 1 .1 1.9.14 2.85l-28.83.18zM1086.21 200.68l28.7.08c0 1 .1 1.9.14 2.85l-28.84.17zM1115.05 188.61l-27.87.17a4.35 4.35 0 01.76-3.64l27.11.18zM5.09 177.57h23.06c-7.72 6.28-15.74 3-23.08 3.82.01-1.27.01-2.55.02-3.82zM1115.05 278.61l-27.06.13.12-3.6 26.94.18zM23.75 57.57c-.07 1.52-.14 3-.2 4.55-4.86-1.53-9.85-.61-14.77-.63-3.07 0-4.35-.81-3.69-3.91L23 57.3a3.52 3.52 0 00.75.27zM1090.08 170.63l24.83.12c0 1 .1 1.91.14 2.86l-25.52-.11c.18-.96.36-1.91.55-2.87zM272.79 338.74c-.4-1-.79-1.93-1.18-2.89l25.58-.27a5.46 5.46 0 01-2.33 3zM1099.8 137a8.72 8.72 0 011.39-4.56l13.79.13v4.53zM1089.77 380.79h25.14l.15 2.85c-4.52.52-9.12-.39-13.59.84-3.47-2.55-7.95-1.99-11.7-3.69zM30.21 83.55L5 83.61c-.42-2.64.82-3.32 3.33-3.33 6.72 0 13.42.17 20.11.8a3.35 3.35 0 011.77 2.47zM1115.05 158.62h-22.16a4.41 4.41 0 01.68-3.14l21.36.24zM311.89 5.58c-.06 1-.11 2.1-.17 3.14l-19 .18c-1.43-.7-2.11-2.07-2.94-3.3zM23 54.12l-18-.51c-.39-2.55.63-3.47 3.25-3.41 4.25.11 8.52-.15 12.78-.25l4.08.31a5.77 5.77 0 01-.88 3.55zM24 68.74l-19-.13c0-1.71-.16-3.41 2.4-3.28 5.45.28 10.93-.56 16.35.5.08.97.15 1.94.25 2.91z"
    transform="translate(-4.82 -5.35)" />
  <path class="prefix__cls-3" d="M981.32 5.63c-2.2 7.49-9 3.89-14.15 6.48 1.41-3.61 4.14-4.53 5.7-6.52z"
    transform="translate(-4.82 -5.35)" />
  <path class="prefix__cls-2"
    d="M1104.19 122.09l1.41-4.64 9.38.13c.81 3.76-.81 5-4.44 4.56a53.76 53.76 0 00-6.35-.05zM1083.81 5.59c-.27 1-.53 2.11-.8 3.16h-15.13c-.21-1-.42-2.09-.62-3.13zM1115.05 143.61l-17.54-.13 1-3.34 16.52.18zM12.74 42.35l8.11 3.89c-4.09 0-8.18.17-12.27.12-1.43 0-3.59.79-3.52-2 .07-2.4 2-1.66 3.27-1.78s2.94-.15 4.41-.23zM1107.05 392.18l-2.33-4.48 10.26-.12v4.53zM189.15 8.69v-3.1h15.46l-3 3.3zM1105.6 407q.83-2.27 1.67-4.53l7.69.19a5.94 5.94 0 01-1.89 4.7zM1115.05 128.62l-12.56-.17c.23-.92.47-1.84.71-2.77 3 0 6 .16 9 .07 2.1-.06 3.15.66 2.85 2.87zM1108.22 107.12l1.11-4.64c1 0 2 .13 2.94.09 1.65-.07 2.86.15 2.82 2.3s-1.37 2.25-2.95 2.23c-1.31-.03-2.62.01-3.92.02zM1115.05 113.62h-8.19l.48-3c1.81.06 3.61.2 5.41.16 2.11-.07 2.45 1.15 2.3 2.84zM5 185.31h9c-.26 2-2.69 1.49-2.93 3.14-2.24-.63-6.42 2.55-6.07-3.14z"
    transform="translate(-4.82 -5.35)" />
  <path class="prefix__cls-1" d="M836.34 414.29c.06-2.68 1.52-3.47 3.84-2.6 1.94.72 3.77 1.75 5.65 2.64z"
    transform="translate(-4.82 -5.35)" />
  <path class="prefix__cls-2"
    d="M1107.85 395.79h7.06c0 .95.1 1.89.14 2.84l-7.09.15c-.04-1.02-.07-2-.11-2.99zM1111.4 92.11c.34-1.55.68-3.1 1-4.65 2.06-.15 2.87.78 2.63 2.84-.28 2.57-2.23 1.59-3.63 1.81zM301 374.18l1.11 2.3h-9.64zM1110.23 98.71a4.81 4.81 0 01.82-3.57c1.33.54 4-.89 3.85 1.73-.13 3.3-3.11 1.13-4.67 1.84z"
    transform="translate(-4.82 -5.35)" />
  <path class="prefix__cls-1"
    d="M785.26 414.32c1.63-1.12 3.27-3.46 4.83.07zM639.31 5.64c-2 .61-4.09 1.54-6.12 0zM802.08 414.37c1.38-2.3 2.75-3.59 4.08 0zM819 414.39c1.29-3.4 2.62-2 4 0z"
    transform="translate(-4.82 -5.35)" />
  <path class="prefix__cls-2"
    d="M5.32 35.21l3 3.28c-2.88.59-3.85-.49-3-3.28zM1113.19 83.69c.15-1 .3-2 .46-3a1.59 1.59 0 011.31 2c-.17.94-.96.95-1.77 1zM183 406.43a3 3 0 013.21.69c-1.12-.01-2.39.71-3.21-.69z"
    transform="translate(-4.82 -5.35)" />
  <path class="prefix__cls-4"
    d="M949.88 246.1c.81 4.09 2.9 9.15.83 12.12-2.21 3.18-7.36.18-11.21.08-9.16-.24-18.35-.55-27.43-1.6-10.06-1.15-18.11-6-22.69-15.47a247.46 247.46 0 00-13.22-24.06c-2-3.24-4.16-4.08-7.29-2-4 2.66-6.24 1.17-8.66-2.65-41.59-65.63-16-155.76 53.44-187.83a129.71 129.71 0 0133.38-10c2.94-.49 4.57-.27 4.2 3.62a393.55 393.55 0 00-1.3 45.43c.07 3.9-1.24 4.38-4.69 3.56-10.79-2.57-19.77-7.71-26.07-17.09-.86-1.28-1.63-3.53-3.7-2.29-2.4 1.44-.56 3.32.35 4.69 7.93 11.93 19.76 17.3 33.35 19.8 14.46 2.65 26.6-2.21 37.23-11.53 3.14-2.76 4-2.62 5.22 1.47 3 10 6.53 19.92 10 29.8 1 2.82.76 4.7-1.4 7.07-9 9.85-12.51 22.2-15 34.89-1.71 8.82-3.12 17.69-4.77 27.09-2.12-10.38-3.32-20.49-6.46-30.17-3.06-9.42-6.63-18.55-14.34-25.3-1.56-1.36-3.18-3.7-5.51-2.5-2.68 1.38-1.5 4.29-1 6.34a365.16 365.16 0 017.48 39.75 383.19 383.19 0 013.16 41.36c-3-9.3-5.09-18.83-8.65-27.91-3.63-9.25-8.28-17.84-15.76-24.58-1.4-1.26-2.83-3.51-5-2.36s-1 3.57-.84 5.45c2.87 28.88 9.57 57.13 14 85.75.56 3.61.91 7.25 1.36 10.88-2.91.56-4.87 2.21-4.31 5.27.5 2.65 2.76 3.32 5.3 2.92zm-67-92.43c-2 .49-3.66 1.63-3.63 4.21s1.39 4.14 3.93 4.11 3.9-2 4.1-4.18c.23-2.61-1.73-3.66-4.4-4.14zm100.34-61.91c.11 3 2 4.2 4.27 4.11 2.54-.11 3.48-2.16 3.4-4.64s-1.33-3.69-3.78-3.53-3.78 1.75-3.89 4.06zm-76.37-12.33c-.23-2.14-1.42-3.77-4-3.68s-3.79 1.54-3.67 4.18a3.57 3.57 0 003.71 3.77c2.39.07 3.97-1.29 3.96-4.27z"
    transform="translate(-4.82 -5.35)" />
  <path class="prefix__cls-3"
    d="M1051.71 294.69c-9.64 4.3-18.45 8.18-27.22 12.15a43.42 43.42 0 00-10.92 6.94c-2.63 2.33-5.23 5.05-3.81 9s5.1 4.35 8.65 4.62c1.25.1 2.51 0 5.3 0a163.82 163.82 0 01-21.36 10.36c-21 8.18-42.78 12.11-65.12 13.86-17.29 1.36-34.61 1.3-51.91.89-36.55-.86-72.41-6.75-107.92-15.24-18.59-4.44-36.66-10.93-55.6-13.91-2.3-.36-3.2-1.6-2.95-3.75.58-5-1.92-6.7-6.49-6.07-4 .55-5.76-.78-5.39-5.13A114.36 114.36 0 00707 295c-.09-2.63.79-4 3.47-4.43 27.7-4 54.58-11.61 81.62-18.54 21.3-5.45 43.08-8.18 65-9.77 16.43-1.19 32.87-2.13 49.36-1.71 42 1.07 83.15 6.73 122.6 22a95.42 95.42 0 0122.66 12.14zM916 340.29c4.34 0 8.68-.23 13 .06 4.78.34 8.34-.27 9.29-6 .35-2.11 2.09-4.21 3.67-5.85 3.41-3.53 2.13-5.34-1.62-7.47-18.15-10.33-38-15-58.42-17.43-4.71-.56-4.37 2.34-3.4 5.38a82.84 82.84 0 0013.64 25.94c3 3.81 6.17 6.13 11.36 5.51 4.14-.53 8.35-.14 12.48-.14zm45.07-36.18a19.42 19.42 0 001.15 7.43c3.67 11.56 12 19.3 21.58 25.88 1.43 1 3.28 2.86 4.73.76 1.63-2.37-.92-3.51-2.51-4.5a58.17 58.17 0 01-13.33-11.85c-9-10.52-9.61-22.5-1.88-33.82a33.76 33.76 0 0113.49-11.51c1.57-.75 3.38-1.36 2.38-3.5-.89-1.9-2.54-.92-3.91-.39-11.57 4.48-21.64 18.94-21.67 31.5zm39.95-9.83a11.56 11.56 0 1011.69-11.69 11.7 11.7 0 00-11.66 11.69z"
    transform="translate(-4.82 -5.35)" />
  <path class="prefix__cls-2"
    d="M774.66 179.16c20.33 0 40.67.14 61-.12 4.33 0 6.06 1.41 7.27 5.4a110.93 110.93 0 0014.36 30.65c2 2.95 1.7 4.23-1.69 5.76-17.33 7.82-35.64 13.12-53 20.68-7.89 3.44-15.37 3.61-23.28 3.63-22.33.06-44.67-.07-67 .1-4.11 0-5.43-1.1-5.38-5.31q.33-27.49 0-55c0-4.46 1-6 5.73-5.91 20.65.27 41.33.12 61.99.12z"
    transform="translate(-4.82 -5.35)" />
  <path class="prefix__cls-4"
    d="M1045.55 201.14c3.4 9.84 4.17 20.15 5.3 30.4a4.2 4.2 0 01-1.47 3.53c-11.11 11.29-24 19.94-39.69 26.72 4-38.24 8.18-75.56 15.56-112.59 6.62 14.65 13.64 29 18.11 44.48-3.29.08-5.65 1.39-4.76 5 .96 4.03 3.86 3.84 6.95 2.46z"
    transform="translate(-4.82 -5.35)" />
  <path class="prefix__cls-3"
    d="M770.53 362.08a46.6 46.6 0 01-23.46-4.1c-1.68-.79-3.57-2.83-5.38-.85-1.55 1.7.7 3.3 1.08 5 .11.48.3.95.45 1.43 1.12 3.42 2.19 7.62-.57 9.88-2.57 2.1-5.75-1.14-8.38-2.56a31.44 31.44 0 01-10.8-10.19c-.83-1.2-1.62-2.79-3.47-2.24s-1.78 2.25-1.75 3.74c.14 6.61-2.86 11.75-7.23 16.41-1.63 1.75-2.41 1.7-3.68-.22A29.57 29.57 0 01702 362c0-1.56.72-3.7-1.34-4.39-2.38-.79-3.11 1.58-4 3a35.52 35.52 0 01-12 11.78c-1.21.74-2.37 2.49-3.87 1.52-1.34-.87-.76-2.77-.68-4.2.14-2.47.61-4.93.85-7.4.13-1.28.64-2.78-.77-3.65s-2.55 0-3.64.81c-5 3.62-10.44 5.84-16.78 4.95-.78-.11-1.86-.19-2.22-.7-.77-1.09.41-1.79 1.09-2.39 8.84-7.87 17.76-15.6 29-20.1 5.32-2.13 10.83-1.6 16.28-1.49 3.64.07 5.2-1.16 5-4.88-.18-4.16-.13-8.33 0-12.49.06-1.9-1.06-4.82 2.65-4.61 3.35.19 2.61 2.86 2.65 4.9a104.85 104.85 0 010 10.49c-.38 4.88 1.68 6.6 6.43 6.19 19.92-1.68 35 8.46 49.19 20.53a4.28 4.28 0 01.81 1.21c.05.11-.04.3-.12 1z"
    transform="translate(-4.82 -5.35)" />
  <path class="prefix__cls-2"
    d="M844.29 94.56V49.88c0-6.54 0-6.54-6.31-6.54-20.8 0-41.6-.09-62.4.08-3.81 0-4.87-1-4.46-4.78.89-8.14.7-8.16 8.75-8.16 25 0 49.92.07 74.87-.08 3.79 0 5.52.78 5 4.89a28.64 28.64 0 000 9c4.03 19.13-8.14 33.15-15.45 50.27zM358.91 17.26l1.77-4.79c1.5 0 3 .11 4.5.11h297.45c19 0 38-.09 57-.14 2.16 1 3.4 2.81 4.63 4.69-5.66.85-11.23-.71-16.87-.7-34.62.08-69.23.14-103.85.66-17.61.26-35.23-.09-52.86-.45-35.27-.71-70.56-.19-105.84.4-28.65.47-57.29.17-85.93.22z"
    transform="translate(-4.82 -5.35)" />
  <path class="prefix__cls-3"
    d="M1004 103.05c-1.74 9.43-3.54 18.86-5.21 28.32-2.68 15.08-3.59 30.37-4.56 45.62-1 15.77-1.52 31.58-1.91 47.38-.3 12.46 0 24.94-.18 37.42 0 1.61 1.27 4.86-2 4.38-2.75-.41-7 .59-7-4.9.14-30.8-.68-61.65 1.25-92.4 1.15-18.38 3.75-36.74 10.79-54.08 1.82-4.61 4.4-8.73 8.82-11.74z"
    transform="translate(-4.82 -5.35)" />
  <path class="prefix__cls-2"
    d="M651.74 30.48c25.16 0 50.32 0 75.47.05 1.77 0 4.31-1.15 5.1 1.66.94 3.38 1.39 6.91.3 10.32-.37 1.17-2 .82-3.18.82h-25a5.94 5.94 0 01-3.34-.65c-5.87-4.59-12.7-4.33-19.57-4.32q-52.72.09-105.46 0c-2.73 0-5.16.43-5.18-3.86 0-4 1.88-4.09 4.88-4.08 25.34.09 50.66.06 75.98.06z"
    transform="translate(-4.82 -5.35)" />
  <path class="prefix__cls-3"
    d="M937.87 142a68 68 0 0113.29 21.54 253.82 253.82 0 0113.31 51.11c2.21 14.38 1.64 29.23 1.41 43.89 0 2.17-.82 2.89-3 2.78-6.72-.36-7.23-1.1-7.9-8a554.18 554.18 0 00-8.4-55.69c-3.58-17.95-6.39-35.99-8.71-55.63zM958 110c5.35 4.87 8 10.37 10 16.08 6 16.72 8.71 34.17 9.84 51.77 1.74 26.92 1.19 53.91 1.12 80.88 0 1.74 1.42 5.07-2.44 4.59-2.92-.37-6.86.41-6.69-5 .55-17.14-.3-34.28-.89-51.41-1.07-31.43-3.21-62.74-10.73-93.44A27.74 27.74 0 01958 110zM1023.19 133.49c-2.71 16.25-5.49 31.11-7.61 46.06-2.8 19.71-5.14 39.5-7.56 59.26-1.13 9.23-2 18.49-3 27.74-.16 1.57-.3 3.3-2.43 2.82s-5.23 0-6.25-3a9.25 9.25 0 01-.12-2.48 283.83 283.83 0 0121.33-118.79c1.45-3.56 2.45-7.28 5.64-11.61z"
    transform="translate(-4.82 -5.35)" />
  <path class="prefix__cls-2"
    d="M608 20.24c17.09.09 34.18.21 51.27.23 18.25 0 36.51 0 54.76-.07 4.41 1.57 8.93.44 13.4.6l1.6 2.59q-115.36 0-230.72.07H358.47c-2 0-4-.15-6-.23L356 21q45.92-.21 91.85-.43c34.78-.13 69.57-.56 104.35-.19 18.28.19 36.55.57 54.83 0zM410.82 197.16c-67 .39-134-1.32-201.78.5 2.71-4.16 5.52-5.19 9.35-5.18q96.21.12 192.42 0c.01 1.58.01 3.13.01 4.68z"
    transform="translate(-4.82 -5.35)" />
  <path class="prefix__cls-4"
    d="M964.41 17.46c5.87 5.77 11.79 10.55 18.74 13.86 1.83.87 2.08 2.42 2.38 4.06.75 4.08 1.11 8.29 2.36 12.21s.38 6.52-2.62 9.11c-5.58 4.84-11.45 9.06-18.7 11-1.61.43-3.33 1.3-3.43-1.61a397.8 397.8 0 01.66-47.22 7.32 7.32 0 01.61-1.41z"
    transform="translate(-4.82 -5.35)" />
  <path class="prefix__cls-2"
    d="M380.84 27.69h186.22l-.3 4.61c-61.56-2.06-123.12.11-184.68.15a9.44 9.44 0 01-1.24-4.76z"
    transform="translate(-4.82 -5.35)" />
  <path class="prefix__cls-4"
    d="M1007.49 107.63c3.77 8.72 7 16.18 10.22 23.6.61 1.39.2 2.53-.35 3.8A365.13 365.13 0 00999 190.36c-.33 1.27-.89 2.47-1.55 4.27 1.43-29.11 2.88-57.63 10.04-87z"
    transform="translate(-4.82 -5.35)" />
  <path class="prefix__cls-2"
    d="M768.88 12.67l166.21.06-16.48 4.74c-49.48-.84-99-1.3-148.45-.64zM410.82 212.16c-7.49.06-15 .23-22.47.18-31.26-.23-62.53-.57-93.8-.76-7.48-.05-15 .22-22.44.49-3.2.12-5.24-1.21-6.89-4.56h145.59c.01 1.55.01 3.1.01 4.65zM955.6 387.5l.06 4.64c-29.57-.72-59.15 1-88.75-.54-15.6-.81-31.28-.13-46.92-.11v-3.88zM661.48 342.46c.42 1.26.84 2.53 1.25 3.8-1.83.12-3.65.34-5.47.35-31.07.19-62.14.63-93.21.41-11.93-.09-23.86-.72-35.81-.63l.24-3.94zM656.22 357.7l-4.51 4.06c-16.63-.11-33.24-.23-49.87.31-25.43.83-50.85-.76-76.28-.75.26-1.28.52-2.56.79-3.84 5.82 0 11.65.09 17.48.09zM520.42 376.21c.53-1.24 1.05-2.47 1.57-3.71 4.48 0 9 .07 13.45.07l114.6.1a8.39 8.39 0 01-2 4.06c-15.29 0-30.58.13-45.87.27-26.75.26-53.51-.39-80.26-.67-.49 0-.99-.08-1.49-.12zM382.86 36.19q82.49-.48 164.95-.93c6.32 0 12.63.29 19 .45.55 3.63-2.22 2.6-3.93 2.62-9.49.08-19 0-28.48 0H432.46a43.19 43.19 0 00-9.42.86c-13.28-1.15-26.58-.34-39.87-.43-.17-.84-.17-1.7-.31-2.57zM410.81 203.79H201.35c1.23-3.11 3.43-2.65 5.34-2.66 43.61-.27 87.22-.75 130.82-.56 9.77 0 19.59.57 29.39.56 14.64 0 29.28-.3 43.92-.47 0 1.05-.01 2.09-.01 3.13zM856 406.62a17.46 17.46 0 01-5.21-3.89c2.15-.05 4.31-.14 6.47-.15l98.62-.09A8.28 8.28 0 01957 407c-25.74.09-51.48.28-77.22.21-7.96-.02-15.87-1.3-23.78-.59zM798.61 252.44a8.35 8.35 0 01.49 4.5c-30.61-.46-61.24 1.36-91.85-.5v-4l5.76-.1h53zM955.56 383.79l-135.56-.1v-3.29c29.23.19 58.46.45 87.69.52 15.95 0 31.9-.25 47.86-.39 0 1.09.01 2.18.01 3.26zM527.88 350.17c44.55 1.19 89.11.48 133.66.21 1 0 2 .1 3 .16a9.81 9.81 0 01-4.13 3.27l-131.16-.14h-2c-.1-1.24-.25-2.46.63-3.5zM309.22 219.76c-1.79-1.26-3.85-.87-5.81-.88h-28c-1.5 0-3.94.79-4.09-1.54-.18-2.73 2.41-1.59 3.76-1.6 21-.16 42-.95 62.91-.12 24.29 1 48.54.23 72.8.09v3.09c-4 0-8-.09-11.94-.07q-35.08.1-70.17.26c-6.55-1.76-13.1-2.84-19.46.77zM524.58 365.25l125.15-.11c-.1 1.81 3.5 1.24 2.39 3.7q-50.1-.09-100.19-.19c-9.47 0-18.94-.12-28.41-.19.35-1.07.71-2.14 1.06-3.21zM905.26 23.87c-16.78-.07-33.55-.18-50.33-.19h-83.22l-.6-3.08c25.49-.08 51-.31 76.46-.19 20.95.11 41.9.63 62.85 1a11.77 11.77 0 01-5.16 2.46zM410.84 222.53v4.61l-69.88.3.07.08c.08-.83-.5-.84-1.07-.88l-4.51-3.89zM955.62 398.79l-111.87.06-9.4-3.33c15-.13 29.92.12 44.88.34 25.46.36 50.94-.14 76.4-.28 0 1.07 0 2.14-.01 3.21zM660.33 338.56q-62.22 0-124.44.11c-2.33 0-4.66.1-7 .15-1.06-1-2.26-1.88-2.6-3.42l28.36.08a1.88 1.88 0 00.56.25c13.08 1.29 26.19.32 39.29.51 4.09.06 8.26.78 12.32-.52a2.35 2.35 0 00.56-.31l52.45.13c.17 1.01.34 2.01.5 3.02zM232.45 312.74h88.63l-5.08 3.92-80 .2a11.84 11.84 0 01-3.55-4.12zM410.84 252.53v4.61h-67.09l3.47-4.74zM410.84 237.53v4.61l-62.64.25-1.29-4.75zM410.84 177.53v4.61h-62.77l5.35-4.79zM955.51 377.15h-60.29c6.37-1.85 12.53-4.6 19.37-4.61q20.45 0 40.87-.07a8.56 8.56 0 01.05 4.68zM505.2 402.61l55-.07c2.18 0 4.79-.34 4.64 2.89-.14 3-2.81 1.81-4.25 1.69-19.43-1.67-38.92.06-58.35-1.06zM339 260.17c4.5 1.63 9.18 1 13.8 1 10.79.11 21.57.14 32.36.21l-2.83 2.76c-1.9-.86-3.92-.48-5.89-.49h-90.56c-1.81 0-3.63-.14-5.44-.22l8-3 35.72-.22c4.97 1.69 9.93 1.37 14.84-.04zM313.84 267.73h59.51c-1.88 1.55-4.2 2.58-5.55 4.75-16.69.27-33.34-1.57-50-.86zM410.84 162.53v4.61h-48.63l3.48-4.79zM842 374.84c1.3 2.25-.71 1.62-1.54 1.63-5.5.06-11 0-16.49 0-2 0-4-.28-5.86.8-11.81-1.2-23.64-.41-35.46-.54a8.59 8.59 0 01-1.85-4.12l50.6-.27a37.86 37.86 0 0010.6 2.5zM707.26 260.23c30.84 2.21 61.69.08 92.53.28.05 1.07.09 2.14.14 3.21h-92.67zM1060.68 372.7c-.39 2.48-1 4.33-4.33 3.17s-6.63.63-9.85 1.65c-13.47-.49-26.93-1.48-40.43-1v-4zM514.94 387.46h52.56c-.47 3.5-2.15 5-5.35 4.73-16.4-1.45-32.84-.29-49.25-1.05a6.54 6.54 0 012.04-3.68zM774 357.72l55.32-.08c-.16 1.39-.13 2.84-1.22 3.93l-49.14.29a15.25 15.25 0 01-4.96-4.14zM410.81 188.79q-33.78 0-67.55-.07c-2 0-3.95-.17-5.93-.26l6.95-3.47 66.54.2zM342.94 230.38l67.89-.2v3.57l-65.63.14zM1049.26 407.29l-49.27-1a13.39 13.39 0 004.13-3.87h38.77zM410.84 147.53v4.61h-38.55q1.29-2.37 2.6-4.74zM830.14 353.78q-28.82-.06-57.63-.08a17.35 17.35 0 00-2.91.49l-3.15-2.83c1.66-1.12 3.53-.7 5.31-.71h38.16c2.13 0 4.32.32 6.31-.81 3.76.6 7.54 1.11 11.27 1.85 1.07.18 3.5-.75 2.64 2.09zM1062.93 368.75h-56.75l.09-3.56 61 .31zM510.44 395.37c16.82-.15 33.63-.51 50.44.44 1.21.07 3-.32 2.92 1.71 0 1.34-1.4 1.2-2.34 1.18-17.64-.24-35.29.57-52.93-.41a4.85 4.85 0 011.91-2.92zM307.85 323.88h-47.74l-7.59-3.42h59zM416.83 42.68c-1.25 1.51-2.5 3-3.74 4.52l-29.09.16c-.26-1.59-.51-3.18-.77-4.77zM863.37 27.65l35.51.06a31.71 31.71 0 01-7.26 4.76l-27.71-1z"
    transform="translate(-4.82 -5.35)" />
  <path class="prefix__cls-3"
    d="M978.91 358.68a20.09 20.09 0 000 3.47c.82 4.66-1.55 5.63-5.61 5.38-2.34-.14-3.29-.85-3.23-3.18.09-3.3 0-6.61 0-9.91a3 3 0 012.23-3.28c5.9-2.27 6.61-1.85 6.61 4.55.01.99.01 1.98 0 2.97z"
    transform="translate(-4.82 -5.35)" />
  <path class="prefix__cls-2"
    d="M518.7 380.14l56.68.77c.06.53.12 1.06.19 1.59-1.43.41-2.85 1.17-4.28 1.17-18.1 0-36.2-.11-54.31-.19zM410.84 132.53v4.61l-30.88.1c.69-1.6 1.38-3.19 2.08-4.79zM778.94 365l48 .24c-.05 1.1-.11 2.21-.16 3.31l-48.12.23c-2.1-1.4-2.78-2.72.28-3.78zM707.25 267.51l35.5.21-9.39 4.74-26.11-1zM597 380.93c16.54-.4 33.09-.63 49.64-.13l-1 2.8c-13.36 0-26.73.17-40.1 0-2.93 0-5.84-.92-8.76-1.42zM348.44 246.08c20.81.43 41.61 0 62.4-.38v3.06l-62.58-.06c.06-.87.12-1.7.18-2.62zM797.37 346.45c-12.09.84-24.24-.57-36.31 1l-7.3-4.72 25-.38zM265.68 327.74h38.45l-3.6 3.92-31.16.19zM955.51 369h-29.6a14.86 14.86 0 0110.24-4c6.45.1 12.91-.06 19.36-.11zM1039.36 387.68c-.13 1.55-.26 3.11-.4 4.66-11-1.06-21.93-.92-32.91-.78v-4zM321.11 282.52l32.05.17-2.54 4.78q-15-1.2-30-1.06zM755.64 267.74h36l-15.81 4.17-17.89.48zM356.65 278.87l-35.65-.09a5.47 5.47 0 01-1-3.45l46.26.1c-3.2 1.22-6.72 1.45-9.61 3.44zM359.18 171c17.22.68 34.44-.14 51.66-.32v3.06l-53.84-.21c.69-.84 1.43-1.68 2.18-2.53zM410.84 117.53v4.61l-24.82.13c.53-1.59 1.05-3.19 1.58-4.78zM315.77 297.41l25.65.32c-.6 1.35-.74 3-2.13 3.89l-27.17-.23c1.22-1.32 2.43-2.65 3.65-3.98zM644.82 391.75c-5.63 0-11.27-.22-16.89 0-4.18.16-7.8-.9-12.16-4.17h29.34c-.11 1.42-.19 2.77-.29 4.17z"
    transform="translate(-4.82 -5.35)" />
  <path class="prefix__cls-3"
    d="M992.34 352.11c-1.41 2.59 1.79 7-3.74 6.91-3.8 0-5.59-1.12-5.73-5.76-.17-5.63 3.49-6.23 6.83-6.42 4.51-.26.75 3.97 2.64 5.27z"
    transform="translate(-4.82 -5.35)" />
  <path class="prefix__cls-2"
    d="M410.83 143.75l-33.9-.19c.51-1.17 1-2.33 1.52-3.5l32.37.13c0 1.18.01 2.37.01 3.56zM370.08 156c13.59.77 27.17-.4 40.76-.32v3.06l-42.38-.27c.54-.8 1.07-1.63 1.62-2.47zM410.84 102.53v4.61l-20.12.14c.22-1.65.25-3.35 1.21-4.81zM1005.91 395.34c11.21.35 22.44-.33 33.63.87.31.75.61 1.51.91 2.26l-35 .26c-.17-1.18-.37-2.35.46-3.39zM1040.75 383.64l-34.7.09v-3.35c12.09.15 24.2-.19 36.27 1-.53.77-1.05 1.52-1.57 2.26z"
    transform="translate(-4.82 -5.35)" />
  <path class="prefix__cls-3"
    d="M969.09 16c9.59-2.87 13.36-1 14.84 6.86.2 1.1.63 2.46-.48 3.22-.93.63-1.91-.25-2.73-.74A50.79 50.79 0 01969.09 16z"
    transform="translate(-4.82 -5.35)" />
  <path class="prefix__cls-2"
    d="M785.11 387.56l22.37-.06a7.07 7.07 0 01-.05 4.34h-22.11zM348.87 293.88l-30.8-.31 1.41-3.26c10 .26 20.06-.17 30 1.08zM410.84 57.54v4.64l-15.28.11-2.6-4.6zM410.84 87.53v4.61h-16.63l.87-4.62zM307.35 305.16l24.67.45a15.24 15.24 0 01-5.71 3.24l-25.45-.37zM1047.25 332.2c-7.06.58-14.07-.21-21.09-.86a29.78 29.78 0 017.46-4l11.1.15zM385 50.29l26.55.17-.66 3.31-22.52.23c-1.49-.92-2.89-1.87-3.37-3.71zM1082.77 12.57l-.71 4.82h-13.78c-.06-1.6-.12-3.21-.19-4.82zM410.84 72.53v4.65h-14.5a9.66 9.66 0 01.69-4.66zM807.44 383.79l-22.82-.11c-.26-1-.5-2-.75-2.95l23.64-.22c-.03 1.09-.05 2.19-.07 3.28zM384.78 126l26.06-.33v3.06l-27.12-.21zM707.26 275.15l23.33.32-.93 3.36-22.4-.11zM410.83 113.76l-21.92-.09c.19-.93.38-1.86.58-2.79l21.36-.19zM707.25 282.51l22.49.1c-6.29 2.57-13.08 2.59-19.63 3.84-3.54.67-3.18-1.7-2.86-3.94zM955.47 362.17h-14.32c4.28-4.07 9-5.07 14.16-4.66a6.73 6.73 0 01.16 4.66zM672.72 338.48a6.46 6.46 0 013.34-3.64c8.81 1.13 17.66.44 26.49.59.12 1.6-1.14.71-1.57.69a44.41 44.41 0 00-19.1 2.77zM863.9 42.52l15.13.19-4.86 4.78c-3.27-2-6.84-.69-10.26-1a4.18 4.18 0 01-.01-3.97zM1069.38 32.39l-.21-4.83h11.71c.06 1.64.24 3.3-.66 4.81zM883.1 38.78l-19.1-.1a3.1 3.1 0 010-3.34l22.5 1.07c-.94 1.12-1.86 2.19-3.4 2.37zM1045.55 201.14c-3.09 1.38-6 1.57-7-2.41-.89-3.66 1.47-5 4.76-5a18.61 18.61 0 012.24 7.41zM410.83 98.75l-17.93-.12c.19-1.15.39-2.3.58-3.45h17.34c0 1.19.01 2.38.01 3.57zM738.84 336h12.26a2.63 2.63 0 002.8-.21c3.35.67 6.73 1.24 9.84 2.76l-18.66.4a21.37 21.37 0 01-7.26-2.57.87.87 0 01.37-.39l.32.17zM410.83 83.76l-15.13-.13c.14-1 .29-2 .44-3h14.69zM1079 42.58c-.16 1.62-.31 3.23-.47 4.84h-8.16l-.24-4.86zM396.44 66.07l14.38-.41v3.1H397zM949.88 246.1c-2.54.4-4.8-.27-5.29-2.94-.56-3.06 1.4-4.71 4.31-5.27.53 2.71 1.28 5.4.98 8.21zM644.87 398.76c-4.44-.79-9.55 1.81-14.44-3.32h14.34c.03 1.11.06 2.21.1 3.32z"
    transform="translate(-4.82 -5.35)" />
  <path class="prefix__cls-3"
    d="M1002 345.59c.13 2.19 0 3.88-2.76 3.81-1.86 0-3.19-.2-3.21-2.63 0-3.17 2.47-3.33 4.41-3.72 2.29-.47 1.21 1.69 1.56 2.54z"
    transform="translate(-4.82 -5.35)" />
  <path class="prefix__cls-4" d="M1076.44 68.64c.84 2.56-.37 4.89-.83 7.78-1.67-2.67-4.47-4.34-3.51-7.82z"
    transform="translate(-4.82 -5.35)" />
  <path class="prefix__cls-2" d="M1071.42 62.43l-.24-4.88h6.22c.51 1.71-.1 3.3-.54 4.9z"
    transform="translate(-4.82 -5.35)" />
  <path class="prefix__cls-4" d="M1073.09 96.67v-14.9c3.34 5.28 1.27 10 0 14.9z" transform="translate(-4.82 -5.35)" />
  <path class="prefix__cls-2"
    d="M1040.24 282.69l9.87-.13c-.19 5.6-.19 5.6-4.83 3-1.69-.93-3.36-1.91-5.04-2.87zM1081.12 23.76H1069a2.77 2.77 0 01-.43-2.55h13.1a3 3 0 01-.55 2.55z"
    transform="translate(-4.82 -5.35)" />
  <path class="prefix__cls-4"
    d="M702.55 335.43c-8.83-.15-17.68.54-26.49-.59 5.57-.79 11.16-.28 16.75-.36h9.28c.48.18.75.42.46.95z"
    transform="translate(-4.82 -5.35)" />
  <path class="prefix__cls-2"
    d="M785.48 395.52l10 .21-7.82 3.06-2.24-.25zM1050.76 278.88h-8.66c2.26-4.5 5.78-3.51 8.88-3.68-.08 1.22-.15 2.45-.22 3.68zM864 50.21l7.37.24a6.37 6.37 0 01-3.06 3.4l-4.36-.11a3.89 3.89 0 01.05-3.53zM1070.82 50.29h7.35l-.39 3.53h-6.72zM669.61 342.4l5.43.32-5.44 3.88-2.71-.32a8.39 8.39 0 012.72-3.88zM1079.3 38.7l-9.26.06c0-.84-.09-1.68-.14-2.53h9.92a2.8 2.8 0 01-.52 2.47z"
    transform="translate(-4.82 -5.35)" />
  <path d="M665.41 340.54c-1.18-4.5-.17-6.38 4.25-5.91-.66 2.3-2.36 3.59-4.25 5.91z" transform="translate(-4.82 -5.35)"
    fill="#f0edee" />
  <path class="prefix__cls-3" d="M959 355c2.22-2.42 4.23-2.63 6.34-2.08a1 1 0 01.3 1.68c-1.9 1.34-3.89.7-6.64.4z"
    transform="translate(-4.82 -5.35)" />
  <path class="prefix__cls-2"
    d="M645.15 406.58c-2-.42-3.38-1.68-4.94-3.76l4.79-.31zM1071.92 66.21l4.67-.11-.15 2.54h-4.34z"
    transform="translate(-4.82 -5.35)" />
  <path class="prefix__cls-3"
    d="M839 174.31c-.62 0-.81-.64-.8-1.25 0-.43.22-1.16.48-1.23.69-.18 1.13.31 1.23 1s.17 1.29-.91 1.48z"
    transform="translate(-4.82 -5.35)" />
  <path class="prefix__cls-4"
    d="M785.38 398.54l2.24.25c-.64.45-1.27 1.26-1.9 1.26s-.45-.93-.34-1.51zM753.9 335.76a2.63 2.63 0 01-2.8.21l.15-1zM985.39 410.15l-2.32.17c.56-2.91 1.5-.68 2.32-.17z"
    transform="translate(-4.82 -5.35)" />
  <path class="prefix__cls-3" d="M857 367c-.34.39-.79.46-1 0s.1-1.09.71-1.35c.12.43.22.89.29 1.35z"
    transform="translate(-4.82 -5.35)" />
  <path class="prefix__cls-1"
    d="M238.84 347.48c7.32 0 15.45 8.56 15.16 15.83-.12 2.9-2 4-4.39 4.62-6.21 1.7-16.82-3.08-19.69-8.82s1.64-11.65 8.92-11.63zM61 245.74c.2 1.95 0 3.16-1.45 3.36s-2.07-.9-2.47-2a116.23 116.23 0 01-3.77-11.36c-2.83-12.06-10.42-18.85-22.37-21.33-4.71-1-9.34-2.36-13.94-3.78a13.65 13.65 0 01-7.78-6.66c-.65-1.12-.92-2.23.23-3.12a1.91 1.91 0 013 .7c3.35 5.43 9.06 6.31 14.54 7.71q6 1.54 12 3.35a23.09 23.09 0 0112.31 8.9C56.6 229 58 238 61 245.74zM206.93 327.9c0 1.15-.11 2-1 2.34-1.55.61-2.5-.39-3.39-1.41q-5.72-6.58-11.4-13.18-12.24-14.11-24.46-28.23c-1.08-1.24-2.63-2.73-.91-4.25 1.87-1.66 3 .47 4 1.6q18 20.6 36 41.3a16.06 16.06 0 011.16 1.83zM244.07 389.44c-6.63-.44-13.1 1.63-19.76 1.08-10.34-.87-20.14-2.91-27.53-11a32.64 32.64 0 01-3.8-5.23c-.83-1.39-1.83-3.25.22-4.34 1.83-1 2.6.83 3.3 2.13 4.65 8.6 12.61 11.82 21.62 13.45a55.59 55.59 0 0021.32-.36c4.28-.89 4.94.85 4.57 4.3zM124 235c11.42.07 21.76 7.84 24.82 17.78.38 1.24 1.11 2.79-.44 3.55-1.84.89-2.63-.7-3.34-2.06-.47-.88-.89-1.79-1.37-2.66-5.67-10.44-13.25-13.97-24.87-11.61-1.7.34-4 1.51-4.48-1.18-.41-2.15 1.94-2.45 3.45-2.81 2.42-.62 4.91-.85 6.23-1.01z"
    transform="translate(-4.82 -5.35)" />
  <path class="prefix__cls-3"
    d="M201.08 120.94c0-1.33.32-2.76-.05-4-1.81-5.83 2-7.23 6.29-9 11.62-4.82 28.39 4.29 33.3 16 7.72 18.39-2.05 39.83-20.78 43.87-11.48 2.48-25.89-6.16-29.38-17.45-.63-2 .27-3.07 1.42-4.34a34.18 34.18 0 009.2-25.08zM146.45 114.54c-14 .09-25.31-9.84-28.42-23.65-1.32-5.86-.71-11.51.81-17.22.63-2.37 1.67-3.43 4.17-3 12.75 2.2 22.34-3.1 29.74-13 1.89-2.52 3.31-2.68 5.69-1.05 10.55 7.25 15.5 17.55 14.15 30-1.44 13.33-8.13 23.45-22 27.17a38.06 38.06 0 01-4.14.75z"
    transform="translate(-4.82 -5.35)" />
  <path class="prefix__cls-3"
    d="M197.12 117.7c0 21.56-12.81 35.05-29.78 34-17.21-1.08-25.89-18.21-25.44-30.61.09-2.41 1.48-2.47 3.3-2.56 15.55-.75 25.07-9.36 29.91-23.58 1.23-3.62 2.71-3.88 5.66-2.22 11.05 6.17 15.92 15.9 16.35 24.97zM101 104.65c-11.89 0-21.34-6.69-25.93-17.88-6.16-15-.75-32.27 12.63-40.22C94 42.8 95.8 43.4 98.4 50c2.83 7.17 7.22 13.16 14 17 2.52 1.41 3.3 3 2.42 5.64a34.38 34.38 0 00.35 23c1.11 3.14 0 4.5-2.49 5.91-3.87 2.16-7.9 3.45-11.68 3.1zM46.32 32.78c1.93-.18 1.69 1 1.78 2 1.23 13 6.65 23.53 18.36 30.19 1.92 1.1 1.7 2 .11 3.31a33.42 33.42 0 00-12.35 21c-.68 4-2.67 3.46-5.26 2.63-14.82-4.75-23.69-20.3-20.62-36 1.86-9.5 6.53-17 15.13-21.76 1.01-.55 2.08-1 2.85-1.37z"
    transform="translate(-4.82 -5.35)" />
  <path class="prefix__cls-3"
    d="M67.69 73.77c7 29.55 15.77 36.49 43.43 34-3.75 9.37-9.56 16-19.26 18.72-10.23 2.84-18.94-.49-25.81-7.83-11-11.72-11.16-30.61-1.06-43.08.61-.76 1.09-1.69 2.7-1.81zM183.05 25.72c3.69-.27 6.85 3.75 5.9 7.43-3.66 14.1-3.17 28 2.34 41.56 1.4 3.44.57 5.34-2.44 6.86-.89.45-1.72 1-2.63 1.44-2.41 1.1-5 2.95-7.5 2.28-3.55-1-1.39-4.51-1.92-6.85-2.4-10.62-6.8-19.85-16.7-25.44-2.63-1.51-3.49-3.07-2.14-6a20 20 0 001.17-5.33 4.28 4.28 0 013.76-4 29.51 29.51 0 0017.41-10c.7-.85 1.39-1.93 2.75-1.95zM129.73 144.58c-10.5-.05-20.61-6.77-24.51-15.9-.91-2.13-1.28-3.84.78-5.74a33 33 0 009.89-16.41c.81-3.19 2.07-4.09 4.39-.85a29.11 29.11 0 0014.47 11c2.49.85 3.31 2.2 3.15 4.74a29.65 29.65 0 003.93 16.75c1.23 2.17.76 3.34-1.45 4.12-3.6 1.25-7.15 2.77-10.65 2.29zM52.21 34.08c0-6 .73-6.75 5.73-5.46 7.75 2 14.94.27 21.47-3.69 3.59-2.16 5.59-3.09 8.14 1.22 1.53 2.62 4.37 4.48 6.67 6.64 3.06 2.87 2.52 6-1.45 7.21a32.2 32.2 0 00-21.19 18.84c-1.24 2.86-2.53 2.92-4.82 1.48-9.91-6.24-13.62-15.8-14.55-26.24zM33.9 9.45c1.77-.23 2 1.1 2.53 2.07A32 32 0 0047 23.88c2.64 1.78 2.4 3.42-.59 4.45a32.1 32.1 0 00-16.84 13.3 3.1 3.1 0 01-3.73 1.62C18.45 41.43 12.35 37.76 8 31.4c-1.23-1.79-1.5-3.14.82-4.36 8.56-4.51 16.11-10.46 23.59-16.52.52-.41 1.07-.77 1.49-1.07z"
    transform="translate(-4.82 -5.35)" />
  <path class="prefix__cls-2"
    d="M303.58 27.7h65.55c-.15 1.55-.29 3.1-.44 4.65-21.2.22-42.39-1.59-63.6-.78-.5-1.27-1-2.57-1.51-3.87z"
    transform="translate(-4.82 -5.35)" />
  <path class="prefix__cls-3"
    d="M211.72 102c-4.3 1.63-8.31 4.55-12 4.16s-4.44-6-7-9c-2.73-3.19-6.51-5-9.34-8 .39-.34.59-.65.85-.73 3.83-1.07 7.15-5.59 10.55-4.53 3 .94 5.06 5.36 7.24 8.44 2.65 3.66 6.79 5.79 9.7 9.66z"
    transform="translate(-4.82 -5.35)" />
  <path class="prefix__cls-2"
    d="M307.78 46.54a7 7 0 01-.54-4h62.44l.06 4.86c-20.66.25-41.29-1.53-61.96-.86zM190.05 158.63l-56.18.21a4 4 0 00-4.3.37c-7.67-1.28-15.48.25-23.43-.87 1.2-3.24 3.7-2.75 5.92-2.76 14.31-.1 28.62-.16 42.94-.27 1.79 0 3.67.41 5.37-.61a35.61 35.61 0 0017.64.45c3.5.2 6.9 1.57 10.47.92a3.34 3.34 0 011.57 2.56zM302.48 76.37c.53-1.3 1-2.61 1.58-3.91l48.84.11a9 9 0 01-.58 4.78c-16.59-1.3-33.22-.63-49.84-.98zM307.39 57.47l47.41.23-4 4.79c-14.6-1.37-29.24-1-43.86-1zM361.42 54l-53.54-.28c0-1.16.08-2.31.11-3.47l60.65.27c-1.9 2.16-4.59 2.73-7.22 3.48zM369.43 38.68l-62.55.07a4.67 4.67 0 01-.81-3.3l62.83.68c.18.87.35 1.7.53 2.55zM300.71 80.31c17 .4 34.06-.34 51.06.89-.18.86-.37 1.72-.56 2.58l-52.33-.22a5 5 0 011.83-3.25zM153 151.32h-39.55c.93-3.15 3.26-4 6.25-3.95a38.5 38.5 0 0019.68 0h8.84zM306.13 65.32c14.29.39 28.6-.37 42.87.88.11.77.21 1.53.32 2.29l-44.11.19c.3-1.12.61-2.24.92-3.36zM339.48 23.45l-37.35.36a5.34 5.34 0 01-1.48-3.25l17.94-.33c4.82 1.92 9.65 3 14.67.54 2.97-1.44 4.28 1.45 6.22 2.68zM314.63 16.3l-16.26.3a9.3 9.3 0 01-2.68-3.89l16.95-.24zM198.59 12.74q-1.6 2.37-3.23 4.72l-8.36-.23 1.4-4.79zM193.61 20.89c-.61 1.57-.91 4.57-2.81 3.66s-6.31-.33-5.27-4.82c2.4 2.41 5.4.7 8.08 1.16z"
    transform="translate(-4.82 -5.35)" />
  <path class="prefix__cls-1"
    d="M720.63 399.76c-.47 2.7-1.89 4.63-4.87 4.61s-4.56-2-4.55-4.83 1.87-4.32 4.47-4.46c2.98-.15 4.46 1.78 4.95 4.68zM678.33 404.46c-2.87-.26-4.79-1.73-4.84-4.59a4.34 4.34 0 014.55-4.78c2.77 0 4.8 1.59 4.84 4.49s-1.78 4.42-4.55 4.88zM755.18 400c-.14 2.81-1.82 4.44-4.71 4.34s-4.55-2-4.35-4.89 2.1-4.4 5-4.23 4.09 1.88 4.06 4.78z"
    transform="translate(-4.82 -5.35)" />
  <path class="prefix__cls-2"
    d="M126.43 162.7c-.78 1.92-2.34 3.19-3.82 4.53-7.91-1.17-15.91 0-24.15-.69 1-2.88 2.65-4.08 5.52-4 7.48.11 15.02.11 22.45.16zM118.72 170.93l-2.12 2.85h-1.42l-2.38-.06a134.69 134.69 0 00-18.63.07c-.94-.17-2.2.16-2.59-.91-.13-.35.87-1.32 1.54-1.72a4.69 4.69 0 012.33-.59c7.76.11 15.55.24 23.27.36z"
    transform="translate(-4.82 -5.35)" />
  <path class="prefix__cls-4"
    d="M94.17 173.83a134.83 134.83 0 0118.64-.07c-.35.48-.69 1-1 1.43a91.32 91.32 0 00-17.34 0 6.77 6.77 0 01-.36-.88c-.11-.15.02-.31.06-.48z"
    transform="translate(-4.82 -5.35)" />
  <path class="prefix__cls-2"
    d="M194.08 267.67h108.55l-5.59 4-99 .8zM185.29 257.49l-3.91-4.74c2.84-.06 5.67-.15 8.5-.16q30.48-.12 61-.21l4.66 4.23c-10.94.22-21.89.5-32.84.64-12.49.15-24.95.17-37.41.24zM210.92 287.45l-4-4.74h71.47c-.79 1.47-1.59 2.93-2.38 4.39zM223.7 302.47a13.72 13.72 0 01-4-4.75l55.28-.21 1.26 4.31zM284.08 279q-27.94-.13-55.89-.27c-8.15 0-16.3.09-24.45.15l-3.09-3.37h91a19.73 19.73 0 01-7.57 3.49zM134.11 162.51h56.35c-2.81 3.72-5 4.87-9.22 4.32-7-.9-14.24-.32-21.38-.34h-25.9zM166.59 398.42l-76.78.09 2.54-3.2c23.08.74 46.16.05 69.23-.17 1.81.86 3.75 1.56 5.01 3.28zM188.75 261.38c8.94-.07 17.89-.09 26.84-.22 15.23-.22 30.46-.5 45.69-.76l8.43 3-64.73.24-13.95.06c-1.22-.31-1.68-1.38-2.28-2.32zM247.89 248.58l-69.6.17a6.34 6.34 0 01-3.13-3.32c15.52 1 31.07.69 46.6.65 8.1 0 16.2-.38 24.3-.58zM214.49 291.44c20.16-.67 40.32-.88 60.49-.75l-.12 3.06q-27.48 0-55-.05a22.42 22.42 0 00-3.42.51zM282.3 308.48l-53 .26-2.93-2.74 52.32-.49zM132.62 177.49h38.52a10.37 10.37 0 01-8.78 4c-10.13-.11-20.26-.05-30.4-.06a6.5 6.5 0 01.66-3.94zM133.76 170.33h46.7c-1.27 3.53-3.87 3.39-6.42 3.39h-40.83a4.22 4.22 0 01.55-3.39zM134.75 185.41h23.51c-6.81 5.14-13.68 2.66-20 3.3a7.87 7.87 0 01-3.51-3.3z"
    transform="translate(-4.82 -5.35)" />
  <path class="prefix__cls-4"
    d="M115.46 175.14c-.1-.44-.19-.88-.28-1.32h1.42zM597 380.93l-.21 1.3-9.24-.19c2.9-2.93 6.3-1.13 9.45-1.11zM575.57 382.5c-.07-.53-.13-1.06-.19-1.59 1.57-.59 3.08-.73 4.45.48a7.52 7.52 0 01-4.26 1.11zM1079.15 394.29c-1.59 2.07 0 2.68 1.76 3.66s1.87 3 .93 4.81a3 3 0 01-3.84 1.44c-1.75-.61-3.2-2.37-2.5-3.78 1.31-2.62 0-3.16-1.82-4.27a3.09 3.09 0 01-.93-4.4 3.24 3.24 0 013.71-1.83c1.98.5 2.98 1.99 2.69 4.37zM1074.19 404.69c-.26 2.11-1.54 3.48-3.51 3.47a3.65 3.65 0 11.45-7.29c1.97.19 3.05 1.74 3.06 3.82zM1071 395.77c-.34 2-1.39 3.44-3.5 3.59a3.08 3.08 0 01-3.59-3.22c-.14-2.41 1.11-3.76 3.53-3.81 2.27-.05 3.09 1.54 3.56 3.44z"
    transform="translate(-4.82 -5.35)" />
  <path class="prefix__cls-2"
    d="M882.88 153.67c2.67.48 4.63 1.53 4.4 4.14-.2 2.23-1.55 4.16-4.1 4.18s-3.9-1.6-3.93-4.11 1.63-3.72 3.63-4.21zM983.22 91.76c.11-2.31 1.3-3.88 3.89-4.06s3.7 1 3.78 3.53-.86 4.53-3.4 4.64c-2.25.13-4.16-1.15-4.27-4.11zM906.85 79.43c0 3-1.57 4.34-4 4.27a3.57 3.57 0 01-3.71-3.77c-.12-2.64 1.13-4.1 3.67-4.18s3.81 1.54 4.04 3.68z"
    transform="translate(-4.82 -5.35)" />
  <path class="prefix__cls-1"
    d="M916 340.29c-4.16 0-8.37-.39-12.48.1-5.19.62-8.4-1.7-11.36-5.51a82.84 82.84 0 01-13.64-25.94c-1-3-1.31-5.94 3.4-5.38 20.47 2.46 40.27 7.1 58.42 17.43 3.75 2.13 5 3.94 1.62 7.47-1.58 1.64-3.32 3.74-3.67 5.85-1 5.77-4.51 6.38-9.29 6-4.29-.25-8.63-.02-13-.02zm-30.29-32.24c-.77.31-2.19-.8-2.68 1-.63 2.26 2.78 7.12 5.27 7.3 15.87 1.14 31.24 4.37 45.87 10.76 1.75.76 3.34 1 4.17-1 .76-1.86-1.08-2.08-2.16-2.66-15.67-8.57-32.66-12.9-50.44-15.4zm2.47 12.27c.77 3.67 2.4 5 5.63 5.13a96.32 96.32 0 0136.69 8.3c1.25.57 2.76 1.83 3.61-.54.67-1.9-.87-2.22-2-2.74-13.85-6.06-28.38-9.13-43.9-10.15zm35.5 16c-9.43-4.67-19.27-6.47-30.47-6.9 2.89 3.27 3.86 6.95 8.22 6.92 7.45-.06 14.87-.02 22.28-.02zM961.1 304.11c0-12.56 10.1-27 21.67-31.5 1.37-.53 3-1.51 3.91.39 1 2.14-.81 2.75-2.38 3.5a33.76 33.76 0 00-13.46 11.5c-7.73 11.32-7.08 23.3 1.88 33.82a58.17 58.17 0 0013.33 11.85c1.59 1 4.14 2.13 2.51 4.5-1.45 2.1-3.3.21-4.73-.76-9.63-6.58-17.91-14.32-21.58-25.88a19.42 19.42 0 01-1.15-7.42zM350.63 88.45a.81.81 0 00.16-.9l.42-3.77c.19-.86.38-1.72.56-2.58.19-1.29.37-2.57.55-3.85a9 9 0 00.58-4.78c1.66-3.86-1.95-3.1-3.58-4.08-.11-.76-.21-1.52-.32-2.29.6-1.24 1.2-2.47 1.81-3.71l4-4.79q3.3-1.89 6.62-3.76c2.63-.69 5.32-1.26 7.22-3.47 1.4-.66 1.45-1.79 1.1-3.07l-.06-4.86a5.7 5.7 0 00-.25-3.86c-.18-.85-.35-1.7-.53-2.55l-.21-3.75c.15-1.55.29-3.1.44-4.65a44.9 44.9 0 006.67-1.55c2.28-.9 3.73-.21 5.05 1.51a9.33 9.33 0 001.23 4.73 4.5 4.5 0 00.79 3.77c.08.87.16 1.73.25 2.59.05 1.27.09 2.54.14 3.8.26 1.6.51 3.19.77 4.78-.38 1.23.28 2.09 1 2.93.44 1.84 1.84 2.79 3.33 3.67l4.63 3.73 2.6 4.6.9 3.79c.18.89.37 1.78.56 2.68v3.77a9.66 9.66 0 00-.69 4.66c-.06 1.14-.13 2.29-.19 3.44s-.3 2-.44 3a5.84 5.84 0 00-.61 3.91l-.87 4.62c-.24 1-.49 2-.74 3s-.39 2.3-.58 3.45a6 6 0 00-1 3.84c-1 1.46-1 3.16-1.21 4.81-.42 1.2-.83 2.4-1.24 3.6-.2.93-.39 1.86-.58 2.79a5.94 5.94 0 00-1.3 3.82c-.53 1.59-1.05 3.19-1.58 4.78a5.59 5.59 0 00-1.25 3.76l-1.07 2.52c-.77 1.21-1.65 2.37-1.66 3.9-.7 1.6-1.39 3.19-2.08 4.79l-1.52 2.82c-.5 1.17-1 2.33-1.52 3.5a7.42 7.42 0 00-2 3.88q-1.31 2.37-2.6 4.74a6.4 6.4 0 00-2.22 3.84c-.55.82-1.09 1.65-1.63 2.47-1.15 1.14-2.35 2.23-2.75 3.88l-3.48 4.79a7.32 7.32 0 00-3 3.86c-.75.83-1.49 1.67-2.23 2.51a9.36 9.36 0 00-3.52 3.86l-5.35 4.79-3.8 2.81-6.95 3.47h-5.75l-3.46-3.32c-.22-1.17-.43-2.34-.65-3.51 0-1.36 0-2.73.08-4.1l.51-3.71c.29-1.13.57-2.26.86-3.38s.76-2.54 1.15-3.82.91-2.61 1.37-3.92a6.32 6.32 0 001.54-3.84c.52-1.08 1-2.16 1.58-3.25.48-1.32 1-2.64 1.45-4l1.59-4c.38-1.26.75-2.52 1.13-3.78s.72-2.44 1.09-3.66a5.93 5.93 0 001-3.59 7.33 7.33 0 001.11-4.07 5.69 5.69 0 00.7-3.91c.25-.79.51-1.58.76-2.36 3.37-12.34 5.38-25.03 7.17-37.77zM331.86 179c-.13 5.05 1.64 6.31 6.45 4.29a34.13 34.13 0 0011.62-8.48c25.44-27.23 37-60.55 42.21-96.66.84-5.75-3.62-7-6.81-9.12s-4.62 1.56-6.29 3.24c-5.12 5.14-6.92 4.9-9.52-1.81-.82-2.13-1-4.8-4.51-3.68-3.19 1-7.49-.26-8 5.4-.65 7.6-1.88 15.16-3.14 22.69-4 24-8.39 47.81-18.59 70.15a37.46 37.46 0 00-3.42 13.98zM392 68.13c0-4.66-1.8-7.63-5.12-9.69-5.49-3.4-7.5-8.55-7.89-14.73-.23-3.63-.87-7.25-1.46-10.85-.18-1.09-.57-2.39-2.19-2.2a2.29 2.29 0 00-2.18 2.77c.05.83.18 1.65.26 2.48 1.51 16.91 1.94 17.71-11.92 22.91-2.32.87-4.68 2-5.35 5.33 3.9-.63 7.33-1.14 10.74-1.73s5.39.36 5.72 4.13c.41 4.53 2.11 4.23 5.07 1.45 5.65-5.33 5.78-5.19 12.47-.8.41.26.85.44 1.85.93zM247.89 248.58l-1.83-3.08c-.38-1-.77-2-1.15-3l-.15-1c-.88-7.17 1-13.12 7.58-16.95s13-4.55 19.5.2l2.45 2.24a8.86 8.86 0 003.78 3.52 11.05 11.05 0 005.81 3.46l6.5 3.81 4.19 3.9c.47 1.28.95 2.55 1.42 3.83v3.23l-1.17 3.76c-.77 1.29-1.54 2.59-2.32 3.88l-4 4.11-8 3h-10.8l-8.42-3q-2.88-1.9-5.78-3.79l-4.66-4.23zm26.9 10.91c4.7.1 9-.94 12.61-4 6.36-5.5 5.81-11.72-1.57-15.49a69.49 69.49 0 01-16.27-11.4c-4.63-4.36-10.77-4.09-16.32.14-4.67 3.55-6.12 9.12-3.18 14.73 5.2 9.89 13.61 15.12 24.73 16.02zM348.44 246.08c-.06.88-.12 1.75-.19 2.62l-1 3.74-3.47 4.74-4.72 3c-5 1.41-9.91 1.73-14.87 0l-4.28-3.78-2.78-4a7.14 7.14 0 00-2.69-4 5.89 5.89 0 00-2.74-3.25 11.81 11.81 0 00-4.2-3.9c-1.22-1.3-2.43-2.61-3.65-3.92l-1.94-3.73-.35-3.44 1.09-3.6 2.7-3.92 3.88-2.94c6.37-3.61 12.92-2.53 19.5-.82l6.75 3.81 4.51 3.89c.18.51.38 1 1.07.88l-.07-.08c-.12 1.5 1.11 2.1 2 2.95l2.26 3.5a6.24 6.24 0 001.72 3.75l1.29 4.75c.03 1.29.11 2.52.18 3.75zM309 236.46l1 1c4 4.39 8.34 8.44 11.41 13.68 3.86 6.61 9.57 8 16.61 4.71 5.37-2.53 7.64-8.26 5.44-14.86-2.82-8.46-8.32-14.72-16.67-18.08a18.26 18.26 0 00-14.11-.3c-6.98 2.88-8.52 8.83-3.68 13.85z"
    transform="translate(-4.82 -5.35)" />
  <path class="prefix__cls-2"
    d="M327.55 177.51c0 1.37-.06 2.74-.08 4.1H226.55c1.34-2.87 3.52-4.13 7.14-4.12 31.31.1 62.57.04 93.86.02zM331.44 162.68c-.46 1.31-.92 2.62-1.37 3.92h-88.51c1.29-2.71 3-4.12 6.06-4.1q41.91.18 83.82.18zM337.6 147.67l-1.59 4h-79.58c1.28-2.53 2.84-4.12 5.89-4.11q37.68.1 75.28.11zM328.12 185.12l3.46 3.32c-11.13.09-22.27.25-33.41.27q-36.18.07-72.36 0H220c1-4 3.8-3.51 6.29-3.51h95.32c2.19 0 4.39-.05 6.51-.08zM328.92 170.42c-.29 1.12-.57 2.25-.86 3.38H235c1.49-3.59 4-3.14 6.16-3.15q43.84-.13 87.76-.23zM341.91 132.57a7.33 7.33 0 01-1.11 4.07c-22.09-.2-44.18-.25-67.27.5 2.72-3.7 5.45-4.65 8.92-4.63 19.82.08 39.64.05 59.46.06zM334.56 155.59c-.53 1.09-1.06 2.17-1.58 3.25h-82.92c.3-3.27 2.32-3.17 4.09-3.18q40.2-.06 80.41-.07zM339.82 140.23c-.37 1.22-.73 2.44-1.09 3.66h-73.32c1.27-3.87 3.94-3.69 6.5-3.68zM305.33 222.7l-2.7 3.92-28.34.29-2.45-2.24c.24-2.44 2.07-2.13 3.7-2.12zM343.37 126.3c-.25.78-.51 1.57-.76 2.36h-51.69v-1.55c17.4-1.9 34.94-.9 52.45-.81z"
    transform="translate(-4.82 -5.35)" />
  <path class="prefix__cls-1"
    d="M429.34 373.69c-.44.6-.7 1.27-1.19 1.56a1.85 1.85 0 01-2.59-.71c-3.16-4.49-6.91-3.81-10.75-1.14-1.87 1.3-3 1-4.66-.58-5.09-4.87-8.86-4.55-13.82.93-1 1.15-1.9 2.63-3.57 1.2-1.33-1.15-.36-2.42.32-3.56 3.19-5.42 10.51-7.78 16-4.45a8.6 8.6 0 008.59.76c4-1.57 7.45.15 10.14 3.32a16.17 16.17 0 011.53 2.67zM445.62 349.81a1.66 1.66 0 01.5 0c5.44 2.09 10.74 3.09 16.71 1.27 3.15-1 5.61 2.29 7.14 5.23.57 1.07.81 2.37-.43 3.11s-2.29.12-2.93-1c-2.75-4.94-6.2-4.27-9.77-1.11-1.95 1.72-3.16 1.4-5-.36-4.81-4.67-8.36-4.33-13 .9-1 1.14-1.84 2.71-3.58 1.46s-.39-2.65.36-3.86a11.63 11.63 0 0110-5.64zM405.48 335.78c4.84 2.73 11.19 3.32 17.83 2.3 1.19-.19 2.8 1 3.88 1.94 1.42 1.22 3.87 2.83 2.29 4.78-2 2.44-3.29-.38-4.66-1.58-2.91-2.54-5.92-1.74-8.71 0-2.12 1.36-3.46 1.55-5.49-.5-4.43-4.47-8.93-4.07-13.2.71-1.09 1.22-2 3.23-3.86 1.65s-.06-3 .87-4.31c2.37-3.29 5.62-5 11.05-4.99zM362.05 335.77c4.43-.06 7.58 2.09 9.7 5.82.65 1.13 1.16 2.64-.27 3.56s-2.3-.12-3.2-1.29c-4-5.27-6.74-5.51-11.78-1.22-1.06.91-2.05 2.72-3.68 1.22-1.84-1.67-.09-3 .95-4.17a10.77 10.77 0 018.28-3.92zM383.57 306.65a1.84 1.84 0 01-1 2.06c-1.06.49-1.79 0-2.57-.76-5.78-5.91-5.8-5.91-13.05-.85-.88.62-1.69 1.16-2.65.45a1.71 1.71 0 01-.56-2.57c2.52-3.56 5.68-5.93 10.32-5.68 4.42.24 7.39 2.49 9.2 6.42a7.28 7.28 0 01.31.93zM559 51.16h121c10.79 0 14.25 3.52 14.25 14.45v241.45c0 11.16-3.47 14.64-14.62 14.64H438.15c-11 0-14.53-3.58-14.53-14.76V65.48c0-10.76 3.58-14.32 14.4-14.32zm131.43 135.29V66c0-9.39-1.73-11.13-11-11.13H438.89c-9.74 0-11.47 1.69-11.47 11.25v240.5c0 9.71 1.69 11.41 11.35 11.41h240.49c9.4 0 11.17-1.75 11.17-11zM278.69 305.5l-2.43-3.68-1.26-4.31c0-1.25-.09-2.51-.14-3.76l.12-3.06c.32-1.19.65-2.38 1-3.57l2.38-4.4q2.87-1.89 5.74-3.77a19.73 19.73 0 007.54-3.47 10.3 10.3 0 005.42-3.82l5.59-4a12.07 12.07 0 0111.21 0l3.93 3.9c.73 1.23 1.46 2.47 2.2 3.7a5.47 5.47 0 001 3.45c0 1.25.07 2.49.11 3.74l-.45 3.89c-.39 1.3-.78 2.6-1.18 3.9l-1.41 3.26c-1 1.17-2.06 2.25-2.3 3.84-1.22 1.33-2.43 2.66-3.65 4l-4.77 3.77-6.49 3.32c-6.19 1.65-12.37 2.59-18.56 0zm12.36.76c11.94-.11 23.79-10.33 25.57-22.06.79-5.18-1.52-10.94-5.51-13-4.52-2.37-7.57.87-10.59 3.34a56.5 56.5 0 01-14.64 8.39c-5.6 2.3-8 8.1-6.47 14.51 1.36 5.7 5.53 8.87 11.64 8.82z"
    transform="translate(-4.82 -5.35)" />
  <path class="prefix__cls-4" d="M734.02 330.62l-.33.16-.32-.17.34-.23.31.24z" />
  <path class="prefix__cls-1"
    d="M134.12 271.2a10.75 10.75 0 01-11 10.58 10.8 10.8 0 1111-10.58zM1019 294.45c-.51 3.71-2.39 6.11-6.4 6.09s-6.26-2.46-6.27-6.18 2.42-6.2 6.31-6.18 5.96 2.37 6.36 6.27z"
    transform="translate(-4.82 -5.35)" />
  <path class="prefix__cls-2"
    d="M331.86 179a37.46 37.46 0 013.45-14c10.2-22.34 14.57-46.19 18.59-70.15 1.26-7.53 2.49-15.09 3.14-22.69.48-5.66 4.78-4.38 8-5.4 3.51-1.12 3.69 1.55 4.51 3.68 2.6 6.71 4.4 7 9.52 1.81 1.67-1.68 3-5.39 6.29-3.24s7.65 3.37 6.81 9.12c-5.24 36.11-16.77 69.43-42.21 96.66a34.13 34.13 0 01-11.62 8.48c-4.84 2.05-6.61.79-6.48-4.27z"
    transform="translate(-4.82 -5.35)" />
  <path class="prefix__cls-3"
    d="M392 68.13c-1-.49-1.45-.67-1.85-.93-6.69-4.39-6.82-4.53-12.47.8-3 2.78-4.66 3.08-5.07-1.45-.33-3.77-2.36-4.72-5.72-4.13s-6.84 1.1-10.74 1.73c.67-3.29 3-4.46 5.35-5.33 13.86-5.2 13.43-6 11.92-22.91-.08-.83-.21-1.65-.26-2.48a2.29 2.29 0 012.18-2.77c1.62-.19 2 1.11 2.19 2.2.59 3.6 1.23 7.22 1.46 10.85.39 6.18 2.4 11.33 7.89 14.73 3.33 2.06 5.17 5.03 5.12 9.69z"
    transform="translate(-4.82 -5.35)" />
  <path class="prefix__cls-4"
    d="M274.79 259.49c-11.12-.9-19.53-6.13-24.73-16-2.94-5.61-1.49-11.18 3.18-14.73 5.55-4.23 11.69-4.5 16.32-.14A69.49 69.49 0 00285.83 240c7.38 3.77 7.93 10 1.57 15.49-3.57 3.06-7.91 4.1-12.61 4z"
    transform="translate(-4.82 -5.35)" />
  <path class="prefix__cls-2"
    d="M319.89 256.41l-27.4-.11 2.31-3.88h22.31zM301.89 233.66l-18 .23a11.05 11.05 0 01-5.81-3.46l23.47-.21c.11 1.15.23 2.3.34 3.44zM307.48 241.31l-12.91.29-4.19-3.9 13.45-.31 3.65 3.92zM296 245.43l15.69-.22a5.89 5.89 0 012.74 3.25l-18.45.2c.02-1.08.02-2.16.02-3.23z"
    transform="translate(-4.82 -5.35)" />
  <path class="prefix__cls-4"
    d="M309 236.46c-4.87-5-3.33-11 3.69-13.88a18.26 18.26 0 0114.11.3c8.35 3.36 13.85 9.62 16.67 18.08 2.2 6.6-.07 12.33-5.44 14.86-7 3.3-12.75 1.9-16.61-4.71-3.07-5.24-7.4-9.29-11.41-13.68l.11-.14c7.4 1.82 11 7.74 14.82 13.54.81 1.24.94 4 3 3s.72-3.29-.12-4.83c-3.48-6.41-8.66-11.23-14.71-15.15-2.86-1.86-3.86-.34-3.95 2.45z"
    transform="translate(-4.82 -5.35)" />
  <path class="prefix__cls-4"
    d="M310 237.43l-1-1 .19-.15.93 1zM291.05 306.26c-6.11.05-10.28-3.12-11.64-8.85-1.53-6.41.87-12.21 6.47-14.51a56.5 56.5 0 0014.64-8.39c3-2.47 6.07-5.71 10.59-3.34 4 2.09 6.3 7.85 5.51 13-1.78 11.76-13.62 21.98-25.57 22.09z"
    transform="translate(-4.82 -5.35)" />
  <path class="prefix__cls-2"
    d="M310.15 237.29l-.93-1c.1-2.79 1.1-4.31 4-2.45 6.05 3.92 11.23 8.74 14.71 15.15.84 1.54 2.11 3.83.12 4.83s-2.23-1.77-3-3c-3.86-5.82-7.5-11.71-14.9-13.53z"
    transform="translate(-4.82 -5.35)" />
  <path class="prefix__cls-1"
    d="M559 165.78c23.47 0 46.95.23 70.42-.15 6.55-.11 5.48 3.52 5.76 7.53.32 4.62-.92 6.32-6 6.3q-70.17-.28-140.34 0c-5.86 0-5.78-2.74-5.89-7-.12-4.6.52-6.91 6.08-6.83 23.33.37 46.64.15 69.97.15zM620.43 91.5c2.34 2.37 5.45 4.76 7.48 7.86 1.46 2.23-1.56 3.67-3 5.1-14.3 14.4-28.76 28.65-43 43.14-3.15 3.22-5.45 4-8.29 0a17.44 17.44 0 00-2.83-2.8c-2-1.77-2.19-3.28-.11-5.34q23.38-23.2 46.61-46.55a3.45 3.45 0 013.14-1.41zM549.34 142c-1.89 3.34-4.7 5.77-7.47 8-2.21 1.8-3.52-.85-4.83-2.15-14.64-14.57-29.14-29.27-43.91-43.71-3.27-3.2-3.83-5.44 0-8.25a22.69 22.69 0 003.17-3.18c1.61-1.8 3-1.48 4.6.11q23.28 23.37 46.61 46.67a20.81 20.81 0 011.83 2.51z"
    transform="translate(-4.82 -5.35)" /><text transform="translate(468.01 235.92)" font-size="29"
    font-family="JaguarCyrillic-Bold,Jaguar Cyrillic" font-weight="700" fill="#393c40">
    <tspan letter-spacing="-.19em">Y</tspan>
    <tspan x="28.1" y="0">A </tspan>
    <tspan x="72.35" y="0" letter-spacing="-.03em">BA</tspan>
    <tspan x="138.01" y="0">O</tspan>
  </text>
  <path class="prefix__cls-1"
    d="M482.45 267.86H480l-.26-3.62v-1.84h10.65v1.84l-.26 3.62h-2.4v-3.27h-5.32zm3.69-10.5h-2l-.24 2.18c-.36 3.17-1.57 4.43-3.29 4.49l-.22-1.63c.44-.24.78-.82 1.1-3.49l.44-3.74h7v8.61h-2.8zM491.45 268.09L492 266a3.06 3.06 0 00.63.12 1.61 1.61 0 001.65-1.24l.14-.49-3.63-9.18h2.8l1.35 4.05c.27.86.5 1.75.75 2.67h.07c.21-.89.42-1.78.66-2.67l1.14-4.05h2.67l-3.27 9.52c-.89 2.37-1.9 3.59-4.11 3.59a4.51 4.51 0 01-1.4-.23zM503.23 259.69l-2.72-4.52h3l.84 1.52c.25.53.53 1.08.8 1.61h.07c.2-.53.45-1.08.65-1.61l.64-1.52h2.89l-2.73 4.83 2.89 4.58h-3l-.93-1.56c-.29-.53-.58-1.1-.88-1.63h-.07c-.24.53-.49 1.08-.73 1.63l-.73 1.56h-2.9zM515.17 255.17H518v3.47h2.39l3.83 5.95h-3.06l-2.16-3.76h-1v3.76h-2.79zm3.28 4.48l1.3-2.74a2.85 2.85 0 013-2 1.86 1.86 0 01.75.14l-.43 2.57a1 1 0 00-.36-.07c-.46 0-.83.13-1.19 1l-.73 1.62zM525.54 255.17h2.7v2.62c0 .94-.13 2.19-.23 3.34h.06c.3-.57.81-1.42 1.09-2l2.45-4h2.55v9.42h-2.7V262c0-.94.13-2.17.25-3.34h-.08c-.3.57-.79 1.43-1.08 2l-2.47 4h-2.54zM538.66 257.36h-2.78v-2.19h8.35v2.19h-2.78v7.23h-2.79zM545.15 262c0-2 1.58-3.06 5.31-3.46a1.32 1.32 0 00-1.49-1.36 5.21 5.21 0 00-2.5.85l-1-1.83a7.71 7.71 0 014-1.24c2.41 0 3.74 1.38 3.74 4.26v5.39H551l-.2-1h-.07a4.16 4.16 0 01-2.74 1.19 2.71 2.71 0 01-2.84-2.8zm5.31-.13v-1.64c-2 .27-2.64.83-2.64 1.55s.42.9 1.09.9a2.12 2.12 0 001.55-.83zM555.6 255.17h2.7v2.62c0 .94-.14 2.19-.24 3.34h.06c.3-.57.81-1.42 1.1-2l2.45-4h2.54v9.42h-2.7V262c0-.94.14-2.17.25-3.34h-.07c-.31.57-.8 1.43-1.08 2l-2.47 4h-2.54zm1.13-4.56h2.17c0 1 .29 1.62 1.1 1.62s1.07-.57 1.1-1.62h2.17a3.27 3.27 0 01-6.54 0zM566.13 259.88a4.74 4.74 0 014.91-4.94 4.09 4.09 0 012.75 1l-1.32 1.8a1.92 1.92 0 00-1.28-.56c-1.34 0-2.2 1.06-2.2 2.69s.9 2.69 2.11 2.69a2.82 2.82 0 001.7-.7l1.09 1.83a4.67 4.67 0 01-3.1 1.12c-2.63.01-4.66-1.81-4.66-4.93zM575.55 255.17h2.79v3.47h2.39l3.83 5.95h-3.06l-2.16-3.76h-1v3.76h-2.79zm3.28 4.48l1.3-2.74a2.85 2.85 0 013-2 1.86 1.86 0 01.75.14l-.43 2.57a1 1 0 00-.36-.07c-.46 0-.83.13-1.19 1l-.73 1.62zM584.88 259.88a4.6 4.6 0 114.59 4.94 4.62 4.62 0 01-4.59-4.94zm6.32 0c0-1.63-.57-2.69-1.73-2.69s-1.73 1.06-1.73 2.69.57 2.69 1.73 2.69 1.73-1.06 1.73-2.69zM596 255.17h2.7v2.62c0 .94-.13 2.19-.23 3.34h.06c.3-.57.81-1.42 1.09-2l2.46-4h2.54v9.42h-2.7V262c0-.94.13-2.17.25-3.34h-.08c-.3.57-.79 1.43-1.08 2l-2.47 4H596zm1.14-4.56h2.17c0 1 .28 1.62 1.1 1.62s1.06-.57 1.1-1.62h2.16a3.27 3.27 0 01-6.53 0zM610.3 259.88a4.63 4.63 0 014.45-4.94c2.68 0 4 1.95 4 4.52a5.82 5.82 0 01-.12 1.24H613a2.27 2.27 0 002.44 2 3.88 3.88 0 002-.62l.92 1.69a6.09 6.09 0 01-3.34 1.06 4.6 4.6 0 01-4.72-4.95zm6.08-1c0-1-.46-1.78-1.57-1.78a1.88 1.88 0 00-1.84 1.78zM622.34 267.86h-2.4l-.27-3.62v-1.84h10.66v1.84l-.27 3.62h-2.4v-3.27h-5.32zm3.7-10.5h-2l-.23 2.18c-.36 3.17-1.58 4.43-3.29 4.49l-.22-1.63c.44-.24.77-.82 1.1-3.49l.43-3.74h7v8.61H626zM631.79 255.17h2.79v3h.69c2.28 0 4 .82 4 3.18s-1.76 3.24-4 3.24h-3.48zm3.35 7.29c1 0 1.49-.36 1.49-1.13s-.48-1.09-1.49-1.09h-.56v2.22zm5.43-7.29h2.8v9.42h-2.8z"
    transform="translate(-4.82 -5.35)" />
</svg>